M48
;Layer_Color=6321
;FILE_FORMAT=2:5
INCH,LZ
;TYPE=PLATED
T1F00S00C0.01181
T2F00S00C0.03543
T3F00S00C0.03937
T4F00S00C0.04000
;TYPE=NON_PLATED
T5F00S00C0.12205
T6F00S00C0.12795
%
T01
X0531496Y0425984
X0529528Y043248
X0535433Y043248
X0541339
X0547244
X055315
X0559055
X0564961
X0570866
X0576772
X0598425Y0429134
X0596457Y0427165
X0600394
Y0423228
X0598425Y042126
X0596457Y0423228
X0598425Y0425197
X0594488
X0602362
X0608268Y0425394
X0615158Y0426181
Y0423228
Y0420276
Y0429134
X061811
X0621063
X0624016
X0588583Y0450197
Y0455315
X0563976Y0464567
X0565945Y0466535
X0562008
X0558071
X0560039Y0464567
X0552165Y0466535
X0550197Y0464567
X0544291
X054626Y0466535
X0523032Y0464567
X0510827Y0462598
Y0451772
X0518701Y0448819
X0547244Y042126
X0551378Y0417913
X0626968Y0429134
X0670276Y0441929
X0672244Y0451772
X0674213Y045374
X0676181Y0451772
X067815Y045374
X0680118Y0451772
X0682087Y045374
X0684055Y0451772
X0686024Y045374
X0670276
X0668307Y0451772
X0688976Y0430118
Y0427165
Y0424213
X0688976Y042126
X0690945Y0417323
X0694882
X0692913Y0419291
X0694882Y042126
X0698819
Y0425197
X069685Y0423228
Y0419291
X0698819Y0417323
X0706693Y046063
X0708661Y0462598
X071063Y0464567
X0706693
X0704724Y0462598
X0702756Y0464567
X0704724Y0466535
X0706693Y0468504
X0708661Y0466535
X0718504Y0464173
Y0459646
X0716535Y0457677
X0718504Y0455709
X0716535Y045374
X0718504Y0451772
X0720472Y045374
Y0457677
X0722441Y0455709
X0714567
X0712598Y0528543
X0716535
X0714567Y0531496
X0716535Y0534449
X0712598
X0714567Y0551181
X071063
X0708661Y055315
X071063Y0555118
X0712598Y055315
X0714567Y0555118
X0718504
X0716535Y055315
X0720472
X0718504Y0551181
X0689961Y0507874
X0687992Y0505905
X0676181Y0509842
X066437Y0510433
X0649606Y0511811
Y0503937
X0644685Y05
X0625984Y0503937
Y0511811
X0637795Y0480315
X0616142Y0474409
X0624016Y0494095
X0608268Y0523622
X0604331
X0600394
X0574803Y0491142
X0576772Y0489173
X0574803Y0487205
X0576772Y0481299
X0574803Y0479331
X0574803Y0471457
X0576772Y0469488
X0541339Y0473425
X0543307Y0477362
X0541339Y0479331
X0543307Y0483268
X0541339Y0485236
Y0489173
X0543307Y0487205
Y0491142
X0541339Y0497047
X0550197Y05
X0554134
X0552165Y0498032
X0562008Y05
X0563976Y0498032
X0531496Y0475394
Y0471457
X0506693Y0483465
X049685
X0487008
X0507874Y0523622
X0511811
X0515748
X0519685
X0523622
X0527559
X0531496
T02
X0430512Y0511122
Y0521122
Y0531122
X0440512Y0526122
Y0516122
Y0536122
T03
X0668307Y046752
X0686024
Y049311
X0668307
X0473425Y0510827
Y0536417
X0455709
Y0510827
T04
X043563Y0440945
X044563
X045563
X046563
X047563
X048563
X0509842Y0433071
Y0423071
X0624016Y0452756
Y0462756
X0643701
Y0452756
Y0435197
Y0425197
X0645512Y0574016
Y0584016
Y0594016
Y0604016
Y0614016
X0655512
X0665512
X0675512
X0685512
Y0624016
X0675512
X0665512
X0655512
X0645512
X0635512
X0625512
Y0614016
X0635512
Y0604016
Y0594016
X0625512
Y0584016
Y0574016
X0635512
Y0584016
X0655512
Y0594016
Y0604016
X0665512
X0675512
Y0594016
X0665512
Y0584016
X0675512
X0685512
Y0594016
X0695512
Y0604016
Y0614016
X0705512
X0715512
Y0624016
X0705512
X0695512
X0705512Y0604016
X0715512
Y0594016
X0705512
Y0584016
X0695512
Y0574016
X0685512
X0675512
X0665512
X0655512
X0705512
X0685512Y0604016
X0625512
X0615512
Y0614016
Y0624016
X0605512
X0595512
X0585512
X0575512
X0565512
X0555512
X0545512
X0535512
X0525512
X0515512
X0505512
X0495512
X0485512
X0475512
Y0614016
X0485512
X0495512
X0505512
X0515512
X0525512
X0535512
X0545512
X0555512
X0565512
X0575512
X0585512
X0595512
X0605512
Y0604016
Y0594016
Y0584016
Y0574016
X0615512
Y0584016
Y0594016
X0595512
Y0584016
Y0574016
X0585512
X0575512
X0565512
X0555512
X0545512
X0535512
X0525512
X0515512
X0505512
X0495512
X0485512
X0475512
Y0584016
X0485512
X0495512
X0505512
X0515512
X0525512
X0535512
X0545512
X0555512
X0565512
X0575512
X0585512
Y0594016
X0575512
X0565512
X0555512
X0545512
X0535512
X0525512
X0515512
X0505512
X0495512
X0485512
X0475512
Y0604016
X0485512
X0495512
X0505512
X0515512
X0525512
X0535512
X0545512
X0555512
X0565512
X0575512
X0585512
X0595512
X0465512
Y0614016
Y0624016
X0455512
X0445512
X0435512
X0425512
X0415512
Y0614016
X0425512
X0435512
X0445512
X0455512
Y0604016
Y0594016
Y0584016
Y0574016
X0465512
Y0584016
Y0594016
X0445512
Y0584016
Y0574016
X0435512
X0425512
X0415512
Y0584016
X0425512
X0435512
Y0594016
X0425512
X0415512
X0405512
Y0604016
Y0614016
Y0624016
X0415512Y0604016
X0425512
X0435512
X0445512
Y0634016
X0455512
X0465512
Y0644016
Y0654016
X0455512
X0445512
X0435512
X0425512
X0415512
X0405512
Y0664016
Y0674016
Y0684016
X0415512
X0425512
X0435512
X0445512
X0455512
X0465512
Y0694016
X0455512
X0445512
X0435512
X0425512
X0415512
X0405512
X0425512Y0704016
X0435512
X0445512
X0455512
X0465512
Y0714016
X0455512
X0445512
X0435512
X0425512
Y0674016
X0415512
Y0664016
X0425512
X0435512
Y0674016
X0445512
X0455512
X0465512
Y0664016
X0455512
X0445512
Y0644016
X0435512
Y0634016
X0425512
X0415512
X0405512
Y0644016
X0415512
X0425512
X0455512
X0475512
Y0634016
X0485512
X0495512
X0505512
X0515512
X0525512
X0535512
X0545512
X0555512
X0565512
X0575512
X0585512
X0595512
X0605512
X0615512
Y0644016
Y0654016
X0605512
X0595512
X0585512
X0575512
X0565512
X0555512
X0545512
X0535512
X0525512
X0515512
X0505512
X0495512
X0485512
X0475512
Y0664016
Y0674016
Y0684016
X0485512
X0495512
X0505512
X0515512
X0525512
X0535512
X0545512
X0555512
X0565512
X0575512
X0585512
X0595512
X0605512
X0615512
Y0694016
X0605512
X0595512
X0585512
X0575512
X0565512
X0555512
X0545512
X0535512
X0525512
X0515512
X0505512
X0495512
X0485512
X0475512
Y0704016
X0485512
X0495512
X0505512
X0515512
X0525512
X0535512
X0545512
X0555512
X0565512
X0575512
X0585512
X0595512
X0605512
X0615512
Y0714016
X0605512
X0595512
X0585512
X0575512
X0565512
X0555512
X0545512
X0535512
X0525512
X0515512
X0505512
X0495512
X0485512
X0475512
X0485512Y0674016
X0495512
X0505512
X0515512
X0525512
X0535512
X0545512
X0555512
X0565512
X0575512
X0585512
X0595512
X0605512
X0615512
Y0664016
X0605512
X0595512
X0585512
X0575512
X0565512
X0555512
X0545512
X0535512
X0525512
X0515512
X0505512
X0495512
X0485512
Y0644016
X0495512
X0505512
X0515512
X0525512
X0535512
X0545512
X0555512
X0565512
X0575512
X0585512
X0595512
X0605512
X0625512
Y0634016
X0635512
X0645512
X0655512
X0665512
X0675512
X0685512
X0695512
X0705512
X0715512
Y0644016
Y0654016
Y0664016
Y0674016
Y0684016
X0705512
X0695512
X0685512
X0675512
X0665512
X0655512
X0645512
X0635512
X0625512
Y0694016
X0635512
Y0704016
X0645512
X0655512
X0665512
X0675512
Y0694016
X0665512
X0655512
X0645512
Y0714016
X0635512
X0625512
Y0704016
Y0674016
X0635512
X0645512
X0655512
X0665512
X0675512
X0685512
X0695512
X0705512
Y0664016
X0695512
Y0654016
X0705512
Y0644016
X0695512
X0685512
Y0654016
X0675512
Y0664016
X0665512
X0655512
X0645512
X0635512
Y0654016
X0645512
X0655512
X0665512
Y0644016
X0675512
X0655512
X0645512
X0635512
X0625512Y0654016
Y0664016
X0685512
Y0694016
X0695512
Y0704016
X0685512
Y0714016
X0695512
X0675512
X0665512
X0655512
X0705512Y0694016
X0715512
T05
X0409449Y0409449
X0712598
X0409449Y0712598
X0712598
T06
X0405512Y0503622
Y0543622
M30
