G04 Layer_Physical_Order=2*
G04 Layer_Color=12500520*
%FSLAX25Y25*%
%MOIN*%
G70*
G01*
G75*
%ADD32C,0.05906*%
%ADD33C,0.00591*%
%ADD34C,0.03937*%
%ADD35C,0.01969*%
%ADD37C,0.07874*%
%ADD38C,0.07400*%
%ADD39C,0.12795*%
%ADD40C,0.12205*%
%ADD41C,0.01969*%
%ADD42C,0.03937*%
G36*
X255002Y166142D02*
X255002Y27559D01*
X228346D01*
Y903D01*
X35433D01*
X35433Y129568D01*
X35787Y129921D01*
X77953Y129921D01*
X77953Y166142D01*
X255002Y166142D01*
D02*
G37*
%LPC*%
G36*
X48622Y121310D02*
X47697Y121188D01*
X46835Y120831D01*
X46095Y120263D01*
X45527Y119523D01*
X45170Y118661D01*
X45048Y117736D01*
X45170Y116811D01*
X45527Y115949D01*
X46095Y115209D01*
X46835Y114641D01*
X47697Y114284D01*
X48622Y114162D01*
X49547Y114284D01*
X50409Y114641D01*
X51149Y115209D01*
X51717Y115949D01*
X52074Y116811D01*
X52196Y117736D01*
X52074Y118661D01*
X51717Y119523D01*
X51149Y120263D01*
X50409Y120831D01*
X49547Y121188D01*
X48622Y121310D01*
D02*
G37*
G36*
X59122Y116244D02*
Y113236D01*
X62130D01*
X62074Y113661D01*
X61717Y114523D01*
X61149Y115263D01*
X60409Y115831D01*
X59547Y116188D01*
X59122Y116244D01*
D02*
G37*
G36*
X58622Y126310D02*
X57697Y126188D01*
X56835Y125831D01*
X56095Y125263D01*
X55527Y124523D01*
X55170Y123661D01*
X55048Y122736D01*
X55170Y121811D01*
X55527Y120949D01*
X56095Y120209D01*
X56835Y119641D01*
X57697Y119284D01*
X58622Y119162D01*
X59547Y119284D01*
X60409Y119641D01*
X61149Y120209D01*
X61717Y120949D01*
X62074Y121811D01*
X62196Y122736D01*
X62074Y123661D01*
X61717Y124523D01*
X61149Y125263D01*
X60409Y125831D01*
X59547Y126188D01*
X58622Y126310D01*
D02*
G37*
G36*
X246063Y128501D02*
X244943Y128353D01*
X243899Y127921D01*
X243003Y127233D01*
X242315Y126337D01*
X241883Y125293D01*
X241735Y124173D01*
X241883Y123053D01*
X242315Y122009D01*
X243003Y121113D01*
X243899Y120425D01*
X244943Y119993D01*
X246063Y119846D01*
X247183Y119993D01*
X248227Y120425D01*
X249123Y121113D01*
X249811Y122009D01*
X250243Y123053D01*
X250391Y124173D01*
X250243Y125293D01*
X249811Y126337D01*
X249123Y127233D01*
X248227Y127921D01*
X247183Y128353D01*
X246063Y128501D01*
D02*
G37*
G36*
X90551Y129558D02*
X89937Y129436D01*
X89416Y129088D01*
X89068Y128567D01*
X88946Y127953D01*
X89068Y127338D01*
X89416Y126817D01*
X89648Y126662D01*
Y124016D01*
X89717Y123670D01*
X89912Y123377D01*
X93507Y119783D01*
X93224Y119359D01*
X92717Y119569D01*
X92035Y119658D01*
Y115157D01*
Y110657D01*
X92717Y110747D01*
X93819Y111203D01*
X94765Y111928D01*
X95053Y112305D01*
X95553Y112135D01*
Y106299D01*
X95622Y105954D01*
X95818Y105661D01*
X116487Y84991D01*
X116780Y84795D01*
X117126Y84727D01*
X130599D01*
X130754Y84495D01*
X131275Y84146D01*
X131890Y84024D01*
X132504Y84146D01*
X133025Y84495D01*
X133373Y85015D01*
X133495Y85630D01*
X133373Y86244D01*
X133025Y86765D01*
X132504Y87113D01*
X131890Y87236D01*
X131275Y87113D01*
X130754Y86765D01*
X130599Y86533D01*
X117500D01*
X97360Y106673D01*
Y118110D01*
X97291Y118456D01*
X97095Y118749D01*
X91454Y124390D01*
Y126662D01*
X91686Y126817D01*
X92035Y127338D01*
X92157Y127953D01*
X92035Y128567D01*
X91686Y129088D01*
X91166Y129436D01*
X90551Y129558D01*
D02*
G37*
G36*
X246063Y118501D02*
X244943Y118353D01*
X243899Y117921D01*
X243003Y117233D01*
X242315Y116337D01*
X241883Y115293D01*
X241735Y114173D01*
X241883Y113053D01*
X242315Y112009D01*
X243003Y111113D01*
X243899Y110425D01*
X244943Y109993D01*
X246063Y109846D01*
X247183Y109993D01*
X248227Y110425D01*
X249123Y111113D01*
X249811Y112009D01*
X250243Y113053D01*
X250391Y114173D01*
X250243Y115293D01*
X249811Y116337D01*
X249123Y117233D01*
X248227Y117921D01*
X247183Y118353D01*
X246063Y118501D01*
D02*
G37*
G36*
X58122Y112236D02*
X55114D01*
X55170Y111811D01*
X55527Y110949D01*
X56095Y110209D01*
X56835Y109641D01*
X57697Y109284D01*
X58122Y109228D01*
Y112236D01*
D02*
G37*
G36*
X62130D02*
X59122D01*
Y109228D01*
X59547Y109284D01*
X60409Y109641D01*
X61149Y110209D01*
X61717Y110949D01*
X62074Y111811D01*
X62130Y112236D01*
D02*
G37*
G36*
X58122Y116244D02*
X57697Y116188D01*
X56835Y115831D01*
X56095Y115263D01*
X55527Y114523D01*
X55170Y113661D01*
X55114Y113236D01*
X58122D01*
Y116244D01*
D02*
G37*
G36*
X86614Y129558D02*
X86000Y129436D01*
X85479Y129088D01*
X85131Y128567D01*
X85009Y127953D01*
X85131Y127338D01*
X85479Y126817D01*
X85711Y126662D01*
Y108268D01*
X85780Y107922D01*
X85975Y107629D01*
X112550Y81054D01*
X112843Y80858D01*
X112901Y80847D01*
X113189Y80790D01*
X113189Y80790D01*
X120757D01*
X120912Y80558D01*
X121433Y80209D01*
X122047Y80087D01*
X122662Y80209D01*
X123183Y80558D01*
X123531Y81078D01*
X123653Y81693D01*
X123531Y82307D01*
X123183Y82828D01*
X122662Y83176D01*
X122047Y83299D01*
X121433Y83176D01*
X120912Y82828D01*
X120757Y82596D01*
X113563D01*
X87517Y108642D01*
Y112135D01*
X88017Y112305D01*
X88306Y111928D01*
X89252Y111203D01*
X90354Y110747D01*
X91035Y110657D01*
Y115157D01*
Y119658D01*
X90354Y119569D01*
X89252Y119112D01*
X88306Y118387D01*
X88017Y118010D01*
X87517Y118180D01*
Y126662D01*
X87749Y126817D01*
X88098Y127338D01*
X88220Y127953D01*
X88098Y128567D01*
X87749Y129088D01*
X87229Y129436D01*
X86614Y129558D01*
D02*
G37*
G36*
X73819Y119724D02*
X72637Y119569D01*
X71536Y119112D01*
X70590Y118387D01*
X69864Y117441D01*
X69408Y116339D01*
X69252Y115157D01*
X69408Y113976D01*
X69864Y112874D01*
X70590Y111928D01*
X71536Y111203D01*
X72637Y110747D01*
X73819Y110591D01*
X75001Y110747D01*
X76102Y111203D01*
X77048Y111928D01*
X77774Y112874D01*
X78230Y113976D01*
X78386Y115157D01*
X78230Y116339D01*
X77774Y117441D01*
X77048Y118387D01*
X76102Y119112D01*
X75001Y119569D01*
X73819Y119724D01*
D02*
G37*
G36*
X82453Y160760D02*
X78691D01*
X78773Y160140D01*
X79205Y159096D01*
X79893Y158200D01*
X80789Y157512D01*
X81833Y157080D01*
X82453Y156998D01*
Y160760D01*
D02*
G37*
G36*
X172453D02*
X168691D01*
X168773Y160140D01*
X169205Y159096D01*
X169893Y158200D01*
X170789Y157512D01*
X171833Y157080D01*
X172453Y156998D01*
Y160760D01*
D02*
G37*
G36*
X162453D02*
X158691D01*
X158773Y160140D01*
X159205Y159096D01*
X159893Y158200D01*
X160789Y157512D01*
X161833Y157080D01*
X162453Y156998D01*
Y160760D01*
D02*
G37*
G36*
X152453D02*
X148691D01*
X148773Y160140D01*
X149205Y159096D01*
X149893Y158200D01*
X150789Y157512D01*
X151833Y157080D01*
X152453Y156998D01*
Y160760D01*
D02*
G37*
G36*
X202453D02*
X198691D01*
X198773Y160140D01*
X199205Y159096D01*
X199893Y158200D01*
X200789Y157512D01*
X201833Y157080D01*
X202453Y156998D01*
Y160760D01*
D02*
G37*
G36*
X192453D02*
X188691D01*
X188773Y160140D01*
X189205Y159096D01*
X189893Y158200D01*
X190789Y157512D01*
X191833Y157080D01*
X192453Y156998D01*
Y160760D01*
D02*
G37*
G36*
X182453D02*
X178691D01*
X178773Y160140D01*
X179205Y159096D01*
X179893Y158200D01*
X180789Y157512D01*
X181833Y157080D01*
X182453Y156998D01*
Y160760D01*
D02*
G37*
G36*
X112453D02*
X108691D01*
X108773Y160140D01*
X109205Y159096D01*
X109893Y158200D01*
X110789Y157512D01*
X111833Y157080D01*
X112453Y156998D01*
Y160760D01*
D02*
G37*
G36*
X102453D02*
X98691D01*
X98773Y160140D01*
X99205Y159096D01*
X99893Y158200D01*
X100789Y157512D01*
X101833Y157080D01*
X102453Y156998D01*
Y160760D01*
D02*
G37*
G36*
X92453D02*
X88691D01*
X88773Y160140D01*
X89205Y159096D01*
X89893Y158200D01*
X90789Y157512D01*
X91833Y157080D01*
X92453Y156998D01*
Y160760D01*
D02*
G37*
G36*
X142453D02*
X138691D01*
X138773Y160140D01*
X139205Y159096D01*
X139893Y158200D01*
X140789Y157512D01*
X141833Y157080D01*
X142453Y156998D01*
Y160760D01*
D02*
G37*
G36*
X132453D02*
X128691D01*
X128773Y160140D01*
X129205Y159096D01*
X129893Y158200D01*
X130789Y157512D01*
X131833Y157080D01*
X132453Y156998D01*
Y160760D01*
D02*
G37*
G36*
X122453D02*
X118691D01*
X118773Y160140D01*
X119205Y159096D01*
X119893Y158200D01*
X120789Y157512D01*
X121833Y157080D01*
X122453Y156998D01*
Y160760D01*
D02*
G37*
G36*
X226063Y59446D02*
X224943Y59298D01*
X223899Y58866D01*
X223003Y58178D01*
X222635Y57699D01*
X216535D01*
X215867Y57611D01*
X215685Y57536D01*
X215245Y57353D01*
X214710Y56943D01*
X195025Y37258D01*
X194615Y36724D01*
X194486Y36412D01*
X194357Y36101D01*
X194269Y35433D01*
X194357Y34765D01*
X194486Y34454D01*
X194615Y34143D01*
X195025Y33608D01*
X195560Y33198D01*
X195871Y33069D01*
X196182Y32940D01*
X196850Y32852D01*
X197518Y32940D01*
X197830Y33069D01*
X198141Y33198D01*
X198676Y33608D01*
X217605Y52537D01*
X222635D01*
X223003Y52058D01*
X223899Y51370D01*
X224943Y50938D01*
X226063Y50791D01*
X227183Y50938D01*
X228227Y51370D01*
X229123Y52058D01*
X229811Y52954D01*
X230243Y53998D01*
X230391Y55118D01*
X230243Y56238D01*
X229811Y57282D01*
X229123Y58178D01*
X228227Y58866D01*
X227183Y59298D01*
X226063Y59446D01*
D02*
G37*
G36*
X96366Y51506D02*
Y47744D01*
X100128D01*
X100046Y48364D01*
X99614Y49408D01*
X98926Y50304D01*
X98030Y50992D01*
X96986Y51424D01*
X96366Y51506D01*
D02*
G37*
G36*
X95366D02*
X94746Y51424D01*
X93702Y50992D01*
X92806Y50304D01*
X92118Y49408D01*
X91686Y48364D01*
X91604Y47744D01*
X95366D01*
Y51506D01*
D02*
G37*
G36*
X228346Y129558D02*
X227732Y129436D01*
X227211Y129088D01*
X226863Y128567D01*
X226741Y127953D01*
X226863Y127338D01*
X227211Y126817D01*
X227443Y126662D01*
Y116516D01*
X184665Y73738D01*
X157787D01*
X157631Y73970D01*
X157429Y74106D01*
X157287Y74753D01*
X157288Y74755D01*
X157383Y74884D01*
X184055D01*
X184401Y74953D01*
X184694Y75149D01*
X225048Y115503D01*
X225244Y115796D01*
X225313Y116142D01*
Y126662D01*
X225545Y126817D01*
X225893Y127338D01*
X226015Y127953D01*
X225893Y128567D01*
X225545Y129088D01*
X225024Y129436D01*
X224410Y129558D01*
X223795Y129436D01*
X223274Y129088D01*
X222926Y128567D01*
X222804Y127953D01*
X222926Y127338D01*
X223274Y126817D01*
X223506Y126662D01*
Y116516D01*
X183681Y76691D01*
X156496D01*
X156150Y76622D01*
X155857Y76426D01*
X153889Y74458D01*
X153693Y74164D01*
X153624Y73819D01*
Y72157D01*
X153392Y72001D01*
X153044Y71481D01*
X152922Y70866D01*
X153044Y70252D01*
X153392Y69731D01*
X153913Y69383D01*
X154528Y69261D01*
X155142Y69383D01*
X155663Y69731D01*
X156011Y70252D01*
X156133Y70866D01*
X156131Y70878D01*
X156484Y71231D01*
X156496Y71229D01*
X157111Y71351D01*
X157631Y71699D01*
X157787Y71931D01*
X185039D01*
X185385Y72000D01*
X185678Y72196D01*
X228985Y115503D01*
X229181Y115796D01*
X229250Y116142D01*
Y126662D01*
X229482Y126817D01*
X229830Y127338D01*
X229952Y127953D01*
X229830Y128567D01*
X229482Y129088D01*
X228961Y129436D01*
X228346Y129558D01*
D02*
G37*
G36*
X246063Y59446D02*
X244943Y59298D01*
X243899Y58866D01*
X243003Y58178D01*
X242315Y57282D01*
X241883Y56238D01*
X241735Y55118D01*
X241814Y54520D01*
X240425Y53130D01*
X240001Y53413D01*
X240243Y53998D01*
X240391Y55118D01*
X240243Y56238D01*
X239811Y57282D01*
X239123Y58178D01*
X238227Y58866D01*
X237183Y59298D01*
X236063Y59446D01*
X234943Y59298D01*
X233899Y58866D01*
X233003Y58178D01*
X232315Y57282D01*
X231883Y56238D01*
X231735Y55118D01*
X231883Y53998D01*
X232315Y52954D01*
X233003Y52058D01*
X233899Y51370D01*
X234943Y50938D01*
X236063Y50791D01*
X237183Y50938D01*
X237768Y51180D01*
X238051Y50756D01*
X208773Y21479D01*
X105282D01*
X83878Y42882D01*
X84162Y43306D01*
X84746Y43064D01*
X85866Y42917D01*
X86986Y43064D01*
X88030Y43496D01*
X88926Y44184D01*
X89614Y45080D01*
X90046Y46124D01*
X90194Y47244D01*
X90046Y48364D01*
X89614Y49408D01*
X88926Y50304D01*
X88030Y50992D01*
X86986Y51424D01*
X85866Y51572D01*
X84746Y51424D01*
X83702Y50992D01*
X82806Y50304D01*
X82118Y49408D01*
X81686Y48364D01*
X81539Y47244D01*
X81686Y46124D01*
X81928Y45539D01*
X81504Y45256D01*
X80115Y46646D01*
X80194Y47244D01*
X80046Y48364D01*
X79614Y49408D01*
X78926Y50304D01*
X78030Y50992D01*
X76986Y51424D01*
X75866Y51572D01*
X74746Y51424D01*
X73702Y50992D01*
X72806Y50304D01*
X72118Y49408D01*
X71686Y48364D01*
X71539Y47244D01*
X71686Y46124D01*
X72118Y45080D01*
X72806Y44184D01*
X73702Y43496D01*
X74746Y43064D01*
X75866Y42917D01*
X76465Y42995D01*
X102387Y17073D01*
X102922Y16662D01*
X103544Y16405D01*
X104213Y16317D01*
X209842D01*
X210511Y16405D01*
X210768Y16511D01*
X211133Y16662D01*
X211668Y17073D01*
X245464Y50869D01*
X246063Y50791D01*
X247183Y50938D01*
X248227Y51370D01*
X249123Y52058D01*
X249811Y52954D01*
X250243Y53998D01*
X250391Y55118D01*
X250243Y56238D01*
X249811Y57282D01*
X249123Y58178D01*
X248227Y58866D01*
X247183Y59298D01*
X246063Y59446D01*
D02*
G37*
G36*
X148622Y74440D02*
X148008Y74318D01*
X147487Y73970D01*
X147139Y73449D01*
X147016Y72835D01*
X147139Y72220D01*
X147487Y71699D01*
X147719Y71544D01*
Y58445D01*
X140183Y50909D01*
X140157Y50914D01*
X139543Y50792D01*
X139022Y50444D01*
X138674Y49923D01*
X138552Y49309D01*
X138674Y48694D01*
X139022Y48173D01*
X139543Y47825D01*
X140157Y47703D01*
X140772Y47825D01*
X141293Y48173D01*
X141641Y48694D01*
X141763Y49309D01*
X141659Y49831D01*
X149261Y57432D01*
X149457Y57725D01*
X149525Y58071D01*
Y71544D01*
X149757Y71699D01*
X150106Y72220D01*
X150228Y72835D01*
X150106Y73449D01*
X149757Y73970D01*
X149237Y74318D01*
X148622Y74440D01*
D02*
G37*
G36*
X55866Y51572D02*
X54746Y51424D01*
X53702Y50992D01*
X52806Y50304D01*
X52118Y49408D01*
X51686Y48364D01*
X51539Y47244D01*
X51686Y46124D01*
X52118Y45080D01*
X52806Y44184D01*
X53702Y43496D01*
X54746Y43064D01*
X55866Y42917D01*
X56986Y43064D01*
X58030Y43496D01*
X58926Y44184D01*
X59614Y45080D01*
X60046Y46124D01*
X60194Y47244D01*
X60046Y48364D01*
X59614Y49408D01*
X58926Y50304D01*
X58030Y50992D01*
X56986Y51424D01*
X55866Y51572D01*
D02*
G37*
G36*
X45866D02*
X44746Y51424D01*
X43702Y50992D01*
X42806Y50304D01*
X42118Y49408D01*
X41686Y48364D01*
X41539Y47244D01*
X41686Y46124D01*
X42118Y45080D01*
X42806Y44184D01*
X43702Y43496D01*
X44746Y43064D01*
X45866Y42917D01*
X46986Y43064D01*
X48030Y43496D01*
X48926Y44184D01*
X49614Y45080D01*
X50046Y46124D01*
X50194Y47244D01*
X50046Y48364D01*
X49614Y49408D01*
X48926Y50304D01*
X48030Y50992D01*
X46986Y51424D01*
X45866Y51572D01*
D02*
G37*
G36*
X167323Y40385D02*
X114961D01*
X114346Y40263D01*
X113825Y39915D01*
X113477Y39394D01*
X113355Y38780D01*
X113477Y38165D01*
X113825Y37644D01*
X114346Y37296D01*
X114961Y37174D01*
X140323D01*
Y24213D01*
X140446Y23598D01*
X140794Y23077D01*
X141315Y22729D01*
X141929Y22607D01*
X142544Y22729D01*
X143064Y23077D01*
X143413Y23598D01*
X143535Y24213D01*
Y37174D01*
X167323D01*
X167937Y37296D01*
X168458Y37644D01*
X168806Y38165D01*
X168929Y38780D01*
X168806Y39394D01*
X168458Y39915D01*
X167937Y40263D01*
X167323Y40385D01*
D02*
G37*
G36*
X95366Y46744D02*
X91604D01*
X91686Y46124D01*
X92118Y45080D01*
X92806Y44184D01*
X93702Y43496D01*
X94746Y43064D01*
X95366Y42982D01*
Y46744D01*
D02*
G37*
G36*
X100128D02*
X96366D01*
Y42982D01*
X96986Y43064D01*
X98030Y43496D01*
X98926Y44184D01*
X99614Y45080D01*
X100046Y46124D01*
X100128Y46744D01*
D02*
G37*
G36*
X65866Y51572D02*
X64746Y51424D01*
X63702Y50992D01*
X62806Y50304D01*
X62118Y49408D01*
X61686Y48364D01*
X61539Y47244D01*
X61686Y46124D01*
X62118Y45080D01*
X62806Y44184D01*
X63702Y43496D01*
X64746Y43064D01*
X65866Y42917D01*
X66986Y43064D01*
X68030Y43496D01*
X68926Y44184D01*
X69614Y45080D01*
X70046Y46124D01*
X70194Y47244D01*
X70046Y48364D01*
X69614Y49408D01*
X68926Y50304D01*
X68030Y50992D01*
X66986Y51424D01*
X65866Y51572D01*
D02*
G37*
G36*
X220472Y129558D02*
X219858Y129436D01*
X219337Y129088D01*
X218989Y128567D01*
X218867Y127953D01*
X218989Y127338D01*
X219337Y126817D01*
X219569Y126662D01*
Y116516D01*
X183681Y80628D01*
X149606D01*
X149261Y80559D01*
X148968Y80363D01*
X142990Y74386D01*
X142717Y74440D01*
X142102Y74318D01*
X141581Y73970D01*
X141233Y73449D01*
X141111Y72835D01*
X141233Y72220D01*
X141581Y71699D01*
X142102Y71351D01*
X142717Y71229D01*
X143331Y71351D01*
X143852Y71699D01*
X144200Y72220D01*
X144322Y72835D01*
X144268Y73109D01*
X149980Y78821D01*
X184055D01*
X184401Y78890D01*
X184694Y79086D01*
X221111Y115503D01*
X221307Y115796D01*
X221376Y116142D01*
Y126662D01*
X221608Y126817D01*
X221956Y127338D01*
X222078Y127953D01*
X221956Y128567D01*
X221608Y129088D01*
X221087Y129436D01*
X220472Y129558D01*
D02*
G37*
G36*
X48622Y101310D02*
X47697Y101188D01*
X46835Y100831D01*
X46095Y100263D01*
X45527Y99523D01*
X45170Y98661D01*
X45048Y97736D01*
X45170Y96811D01*
X45527Y95949D01*
X46095Y95209D01*
X46835Y94641D01*
X47697Y94284D01*
X48622Y94162D01*
X49547Y94284D01*
X50409Y94641D01*
X51149Y95209D01*
X51717Y95949D01*
X52074Y96811D01*
X52196Y97736D01*
X52074Y98661D01*
X51717Y99523D01*
X51149Y100263D01*
X50409Y100831D01*
X49547Y101188D01*
X48622Y101310D01*
D02*
G37*
G36*
X202756Y129558D02*
X202141Y129436D01*
X201621Y129088D01*
X201273Y128567D01*
X201150Y127953D01*
X201273Y127338D01*
X201621Y126817D01*
X201853Y126662D01*
Y110610D01*
X181712Y90470D01*
X181018D01*
X180891Y90678D01*
X180830Y90970D01*
X199458Y109598D01*
X199653Y109891D01*
X199722Y110236D01*
Y126662D01*
X199954Y126817D01*
X200302Y127338D01*
X200425Y127953D01*
X200302Y128567D01*
X199954Y129088D01*
X199433Y129436D01*
X198819Y129558D01*
X198204Y129436D01*
X197684Y129088D01*
X197336Y128567D01*
X197213Y127953D01*
X197336Y127338D01*
X197684Y126817D01*
X197916Y126662D01*
Y110610D01*
X179744Y92439D01*
X179050D01*
X178922Y92647D01*
X178862Y92939D01*
X195520Y109598D01*
X195716Y109891D01*
X195728Y109948D01*
X195785Y110236D01*
X195785Y110236D01*
Y126662D01*
X196017Y126817D01*
X196365Y127338D01*
X196487Y127953D01*
X196365Y128567D01*
X196017Y129088D01*
X195496Y129436D01*
X194882Y129558D01*
X194267Y129436D01*
X193746Y129088D01*
X193398Y128567D01*
X193276Y127953D01*
X193398Y127338D01*
X193746Y126817D01*
X193979Y126662D01*
Y110610D01*
X177776Y94407D01*
X177081D01*
X176953Y94615D01*
X176893Y94907D01*
X191584Y109598D01*
X191779Y109891D01*
X191848Y110236D01*
Y126662D01*
X192080Y126817D01*
X192428Y127338D01*
X192551Y127953D01*
X192428Y128567D01*
X192080Y129088D01*
X191559Y129436D01*
X190945Y129558D01*
X190330Y129436D01*
X189810Y129088D01*
X189461Y128567D01*
X189339Y127953D01*
X189461Y127338D01*
X189810Y126817D01*
X190042Y126662D01*
Y110610D01*
X175807Y96376D01*
X175113D01*
X174985Y96584D01*
X174925Y96876D01*
X187646Y109598D01*
X187646Y109598D01*
X187842Y109891D01*
X187911Y110236D01*
Y126662D01*
X188143Y126817D01*
X188491Y127338D01*
X188613Y127953D01*
X188491Y128567D01*
X188143Y129088D01*
X187622Y129436D01*
X187008Y129558D01*
X186393Y129436D01*
X185872Y129088D01*
X185524Y128567D01*
X185402Y127953D01*
X185524Y127338D01*
X185872Y126817D01*
X186105Y126662D01*
Y110610D01*
X173838Y98344D01*
X173144D01*
X173017Y98552D01*
X172956Y98844D01*
X183710Y109598D01*
X183710Y109598D01*
X183905Y109891D01*
X183974Y110236D01*
Y126662D01*
X184206Y126817D01*
X184554Y127338D01*
X184677Y127953D01*
X184554Y128567D01*
X184206Y129088D01*
X183685Y129436D01*
X183071Y129558D01*
X182456Y129436D01*
X181936Y129088D01*
X181587Y128567D01*
X181465Y127953D01*
X181587Y127338D01*
X181936Y126817D01*
X182168Y126662D01*
Y110610D01*
X171870Y100313D01*
X171176D01*
X171048Y100521D01*
X170987Y100813D01*
X179772Y109598D01*
X179772Y109598D01*
X179968Y109891D01*
X179980Y109948D01*
X180037Y110236D01*
X180037Y110236D01*
Y126662D01*
X180269Y126817D01*
X180617Y127338D01*
X180739Y127953D01*
X180617Y128567D01*
X180269Y129088D01*
X179748Y129436D01*
X179134Y129558D01*
X178519Y129436D01*
X177998Y129088D01*
X177650Y128567D01*
X177528Y127953D01*
X177650Y127338D01*
X177998Y126817D01*
X178231Y126662D01*
Y110610D01*
X169902Y102281D01*
X166645D01*
X166490Y102513D01*
X165969Y102861D01*
X165354Y102984D01*
X164740Y102861D01*
X164219Y102513D01*
X163871Y101992D01*
X163749Y101378D01*
X163871Y100763D01*
X164219Y100243D01*
X164740Y99894D01*
X165354Y99772D01*
X165366Y99775D01*
X165719Y99421D01*
X165717Y99410D01*
X165719Y99398D01*
X165366Y99044D01*
X165354Y99047D01*
X164740Y98924D01*
X164219Y98576D01*
X163871Y98055D01*
X163749Y97441D01*
X163871Y96826D01*
X164219Y96306D01*
X164740Y95957D01*
X165354Y95835D01*
X165404Y95472D01*
X165354Y95110D01*
X164740Y94987D01*
X164219Y94639D01*
X163871Y94118D01*
X163749Y93504D01*
X163871Y92889D01*
X164219Y92369D01*
X164740Y92020D01*
X165354Y91898D01*
X165404Y91535D01*
X165354Y91173D01*
X164740Y91050D01*
X164219Y90702D01*
X163871Y90181D01*
X163749Y89567D01*
X163871Y88952D01*
X164219Y88432D01*
X164740Y88083D01*
X165354Y87961D01*
X165969Y88083D01*
X166490Y88432D01*
X166645Y88664D01*
X182087D01*
X182432Y88732D01*
X182725Y88928D01*
X203395Y109598D01*
X203590Y109891D01*
X203659Y110236D01*
Y126662D01*
X203891Y126817D01*
X204239Y127338D01*
X204362Y127953D01*
X204239Y128567D01*
X203891Y129088D01*
X203370Y129436D01*
X202756Y129558D01*
D02*
G37*
G36*
X92035Y94068D02*
Y90067D01*
X96036D01*
X95947Y90749D01*
X95490Y91850D01*
X94765Y92796D01*
X93819Y93522D01*
X92717Y93978D01*
X92035Y94068D01*
D02*
G37*
G36*
X48622Y111310D02*
X47697Y111188D01*
X46835Y110831D01*
X46095Y110263D01*
X45527Y109523D01*
X45170Y108661D01*
X45048Y107736D01*
X45170Y106811D01*
X45527Y105949D01*
X46095Y105209D01*
X46835Y104641D01*
X47697Y104284D01*
X48622Y104162D01*
X49547Y104284D01*
X50409Y104641D01*
X51149Y105209D01*
X51717Y105949D01*
X52074Y106811D01*
X52196Y107736D01*
X52074Y108661D01*
X51717Y109523D01*
X51149Y110263D01*
X50409Y110831D01*
X49547Y111188D01*
X48622Y111310D01*
D02*
G37*
G36*
X58622Y106310D02*
X57697Y106188D01*
X56835Y105831D01*
X56095Y105263D01*
X55527Y104523D01*
X55170Y103661D01*
X55048Y102736D01*
X55170Y101811D01*
X55527Y100949D01*
X56095Y100209D01*
X56835Y99641D01*
X57697Y99284D01*
X58622Y99162D01*
X59547Y99284D01*
X60409Y99641D01*
X61149Y100209D01*
X61717Y100949D01*
X62074Y101811D01*
X62196Y102736D01*
X62074Y103661D01*
X61717Y104523D01*
X61149Y105263D01*
X60409Y105831D01*
X59547Y106188D01*
X58622Y106310D01*
D02*
G37*
G36*
X102362Y129558D02*
X101748Y129436D01*
X101227Y129088D01*
X100879Y128567D01*
X100757Y127953D01*
X100879Y127338D01*
X101227Y126817D01*
X101459Y126662D01*
Y124016D01*
X101528Y123670D01*
X101724Y123377D01*
X104412Y120689D01*
Y109252D01*
X104481Y108906D01*
X104676Y108613D01*
X116414Y96876D01*
X116354Y96584D01*
X116226Y96376D01*
X115532D01*
X103265Y108642D01*
Y120079D01*
X103197Y120424D01*
X103001Y120717D01*
X99328Y124390D01*
Y126662D01*
X99561Y126817D01*
X99909Y127338D01*
X100031Y127953D01*
X99909Y128567D01*
X99561Y129088D01*
X99040Y129436D01*
X98425Y129558D01*
X97811Y129436D01*
X97290Y129088D01*
X96942Y128567D01*
X96820Y127953D01*
X96942Y127338D01*
X97290Y126817D01*
X97522Y126662D01*
Y124016D01*
X97591Y123670D01*
X97787Y123377D01*
X101459Y119705D01*
Y108268D01*
X101528Y107922D01*
X101724Y107629D01*
X114445Y94907D01*
X114385Y94615D01*
X114257Y94407D01*
X113563D01*
X100313Y107658D01*
Y119095D01*
X100244Y119440D01*
X100048Y119733D01*
X95391Y124390D01*
Y126662D01*
X95624Y126817D01*
X95972Y127338D01*
X96094Y127953D01*
X95972Y128567D01*
X95624Y129088D01*
X95103Y129436D01*
X94488Y129558D01*
X93874Y129436D01*
X93353Y129088D01*
X93005Y128567D01*
X92883Y127953D01*
X93005Y127338D01*
X93353Y126817D01*
X93585Y126662D01*
Y124016D01*
X93654Y123670D01*
X93849Y123377D01*
X98506Y118720D01*
Y107283D01*
X98575Y106938D01*
X98771Y106645D01*
X112550Y92865D01*
X112843Y92669D01*
X113189Y92601D01*
X132568D01*
X132723Y92369D01*
X133244Y92020D01*
X133858Y91898D01*
X134473Y92020D01*
X134994Y92369D01*
X135342Y92889D01*
X135464Y93504D01*
X135342Y94118D01*
X134994Y94639D01*
X134473Y94987D01*
X133858Y95110D01*
X133808Y95472D01*
X133858Y95835D01*
X134473Y95957D01*
X134994Y96306D01*
X135342Y96826D01*
X135464Y97441D01*
X135342Y98055D01*
X134994Y98576D01*
X134473Y98924D01*
X133858Y99047D01*
X133847Y99044D01*
X133586Y99305D01*
X133524Y99410D01*
X133586Y99514D01*
X133847Y99775D01*
X133858Y99772D01*
X134473Y99894D01*
X134994Y100243D01*
X135342Y100763D01*
X135464Y101378D01*
X135342Y101992D01*
X134994Y102513D01*
X134473Y102861D01*
X133858Y102984D01*
X133847Y102981D01*
X133586Y103242D01*
X133481Y103418D01*
X133373Y103961D01*
X133025Y104482D01*
X132504Y104830D01*
X131890Y104952D01*
X131275Y104830D01*
X130754Y104482D01*
X130599Y104250D01*
X123406D01*
X115076Y112579D01*
Y126662D01*
X115309Y126817D01*
X115657Y127338D01*
X115779Y127953D01*
X115657Y128567D01*
X115309Y129088D01*
X114788Y129436D01*
X114173Y129558D01*
X113559Y129436D01*
X113038Y129088D01*
X112690Y128567D01*
X112568Y127953D01*
X112690Y127338D01*
X113038Y126817D01*
X113270Y126662D01*
Y112205D01*
X113339Y111859D01*
X113535Y111566D01*
X122320Y102781D01*
X122259Y102489D01*
X122132Y102281D01*
X121437D01*
X112124Y111595D01*
Y123031D01*
X112055Y123377D01*
X111859Y123670D01*
X111139Y124390D01*
Y126662D01*
X111372Y126817D01*
X111720Y127338D01*
X111842Y127953D01*
X111720Y128567D01*
X111372Y129088D01*
X110851Y129436D01*
X110236Y129558D01*
X109622Y129436D01*
X109101Y129088D01*
X108753Y128567D01*
X108631Y127953D01*
X108753Y127338D01*
X109101Y126817D01*
X109333Y126662D01*
Y124016D01*
X109402Y123670D01*
X109598Y123377D01*
X110317Y122657D01*
Y111221D01*
X110386Y110875D01*
X110582Y110582D01*
X120351Y100813D01*
X120291Y100521D01*
X120163Y100313D01*
X119469D01*
X109171Y110610D01*
Y122047D01*
X109102Y122393D01*
X108906Y122686D01*
X107202Y124390D01*
Y126662D01*
X107435Y126817D01*
X107783Y127338D01*
X107905Y127953D01*
X107783Y128567D01*
X107435Y129088D01*
X106914Y129436D01*
X106299Y129558D01*
X105685Y129436D01*
X105164Y129088D01*
X104816Y128567D01*
X104694Y127953D01*
X104816Y127338D01*
X105164Y126817D01*
X105396Y126662D01*
Y124016D01*
X105465Y123670D01*
X105661Y123377D01*
X107365Y121673D01*
Y110236D01*
X107433Y109891D01*
X107629Y109598D01*
X118383Y98844D01*
X118322Y98553D01*
X118194Y98344D01*
X117500D01*
X106218Y109626D01*
Y121063D01*
X106149Y121409D01*
X105954Y121702D01*
X103265Y124390D01*
Y126662D01*
X103498Y126817D01*
X103846Y127338D01*
X103968Y127953D01*
X103846Y128567D01*
X103498Y129088D01*
X102977Y129436D01*
X102362Y129558D01*
D02*
G37*
G36*
X73819Y94134D02*
X72637Y93978D01*
X71536Y93522D01*
X70590Y92796D01*
X69864Y91850D01*
X69408Y90749D01*
X69252Y89567D01*
X69408Y88385D01*
X69864Y87284D01*
X70590Y86338D01*
X71536Y85612D01*
X72637Y85156D01*
X73819Y85000D01*
X75001Y85156D01*
X76102Y85612D01*
X77048Y86338D01*
X77774Y87284D01*
X78230Y88385D01*
X78386Y89567D01*
X78230Y90749D01*
X77774Y91850D01*
X77048Y92796D01*
X76102Y93522D01*
X75001Y93978D01*
X73819Y94134D01*
D02*
G37*
G36*
X206693Y129558D02*
X206079Y129436D01*
X205557Y129088D01*
X205209Y128567D01*
X205087Y127953D01*
X205209Y127338D01*
X205557Y126817D01*
X205790Y126662D01*
Y110610D01*
X179744Y84565D01*
X168613D01*
X168458Y84797D01*
X167937Y85145D01*
X167323Y85267D01*
X166708Y85145D01*
X166188Y84797D01*
X165839Y84276D01*
X165717Y83661D01*
X165839Y83047D01*
X166188Y82526D01*
X166708Y82178D01*
X167323Y82056D01*
X167937Y82178D01*
X168458Y82526D01*
X168613Y82758D01*
X180118D01*
X180464Y82827D01*
X180757Y83023D01*
X207332Y109598D01*
X207527Y109891D01*
X207596Y110236D01*
Y126662D01*
X207828Y126817D01*
X208176Y127338D01*
X208299Y127953D01*
X208176Y128567D01*
X207828Y129088D01*
X207307Y129436D01*
X206693Y129558D01*
D02*
G37*
G36*
X82677D02*
X82063Y129436D01*
X81542Y129088D01*
X81194Y128567D01*
X81072Y127953D01*
X81194Y127338D01*
X81542Y126817D01*
X81774Y126662D01*
Y108268D01*
X81843Y107922D01*
X82038Y107629D01*
X112550Y77117D01*
X112843Y76921D01*
X113189Y76853D01*
X120757D01*
X120912Y76621D01*
X121433Y76272D01*
X122047Y76150D01*
X122662Y76272D01*
X123183Y76621D01*
X123531Y77141D01*
X123653Y77756D01*
X123531Y78370D01*
X123183Y78891D01*
X122662Y79239D01*
X122047Y79362D01*
X121433Y79239D01*
X120912Y78891D01*
X120757Y78659D01*
X113563D01*
X83580Y108642D01*
Y126662D01*
X83812Y126817D01*
X84161Y127338D01*
X84283Y127953D01*
X84161Y128567D01*
X83812Y129088D01*
X83292Y129436D01*
X82677Y129558D01*
D02*
G37*
G36*
X91035Y94068D02*
X90354Y93978D01*
X89252Y93522D01*
X88306Y92796D01*
X87581Y91850D01*
X87124Y90749D01*
X87035Y90067D01*
X91035D01*
Y94068D01*
D02*
G37*
G36*
X96036Y89067D02*
X92035D01*
Y85066D01*
X92717Y85156D01*
X93819Y85612D01*
X94765Y86338D01*
X95490Y87284D01*
X95947Y88385D01*
X96036Y89067D01*
D02*
G37*
G36*
X91035D02*
X87035D01*
X87124Y88385D01*
X87581Y87284D01*
X88306Y86338D01*
X89252Y85612D01*
X90354Y85156D01*
X91035Y85066D01*
Y89067D01*
D02*
G37*
G36*
X212453Y160760D02*
X208691D01*
X208773Y160140D01*
X209205Y159096D01*
X209893Y158200D01*
X210789Y157512D01*
X211833Y157080D01*
X212453Y156998D01*
Y160760D01*
D02*
G37*
G36*
X232453Y165522D02*
X231833Y165440D01*
X230789Y165008D01*
X229893Y164320D01*
X229205Y163424D01*
X228773Y162380D01*
X228691Y161760D01*
X232453D01*
Y165522D01*
D02*
G37*
G36*
X222453D02*
X221833Y165440D01*
X220789Y165008D01*
X219893Y164320D01*
X219205Y163424D01*
X218773Y162380D01*
X218691Y161760D01*
X222453D01*
Y165522D01*
D02*
G37*
G36*
X212453D02*
X211833Y165440D01*
X210789Y165008D01*
X209893Y164320D01*
X209205Y163424D01*
X208773Y162380D01*
X208691Y161760D01*
X212453D01*
Y165522D01*
D02*
G37*
G36*
X103453D02*
Y161760D01*
X107214D01*
X107133Y162380D01*
X106701Y163424D01*
X106013Y164320D01*
X105117Y165008D01*
X104073Y165440D01*
X103453Y165522D01*
D02*
G37*
G36*
X93453D02*
Y161760D01*
X97215D01*
X97133Y162380D01*
X96701Y163424D01*
X96013Y164320D01*
X95117Y165008D01*
X94073Y165440D01*
X93453Y165522D01*
D02*
G37*
G36*
X83453D02*
Y161760D01*
X87214D01*
X87133Y162380D01*
X86700Y163424D01*
X86013Y164320D01*
X85116Y165008D01*
X84073Y165440D01*
X83453Y165522D01*
D02*
G37*
G36*
X172453D02*
X171833Y165440D01*
X170789Y165008D01*
X169893Y164320D01*
X169205Y163424D01*
X168773Y162380D01*
X168691Y161760D01*
X172453D01*
Y165522D01*
D02*
G37*
G36*
X162453D02*
X161833Y165440D01*
X160789Y165008D01*
X159893Y164320D01*
X159205Y163424D01*
X158773Y162380D01*
X158691Y161760D01*
X162453D01*
Y165522D01*
D02*
G37*
G36*
X152453D02*
X151833Y165440D01*
X150789Y165008D01*
X149893Y164320D01*
X149205Y163424D01*
X148773Y162380D01*
X148691Y161760D01*
X152453D01*
Y165522D01*
D02*
G37*
G36*
X202453D02*
X201833Y165440D01*
X200789Y165008D01*
X199893Y164320D01*
X199205Y163424D01*
X198773Y162380D01*
X198691Y161760D01*
X202453D01*
Y165522D01*
D02*
G37*
G36*
X192453D02*
X191833Y165440D01*
X190789Y165008D01*
X189893Y164320D01*
X189205Y163424D01*
X188773Y162380D01*
X188691Y161760D01*
X192453D01*
Y165522D01*
D02*
G37*
G36*
X182453D02*
X181833Y165440D01*
X180789Y165008D01*
X179893Y164320D01*
X179205Y163424D01*
X178773Y162380D01*
X178691Y161760D01*
X182453D01*
Y165522D01*
D02*
G37*
G36*
X113453D02*
Y161760D01*
X117215D01*
X117133Y162380D01*
X116700Y163424D01*
X116013Y164320D01*
X115117Y165008D01*
X114073Y165440D01*
X113453Y165522D01*
D02*
G37*
G36*
X203453D02*
Y161760D01*
X207214D01*
X207133Y162380D01*
X206701Y163424D01*
X206013Y164320D01*
X205117Y165008D01*
X204073Y165440D01*
X203453Y165522D01*
D02*
G37*
G36*
X193453D02*
Y161760D01*
X197214D01*
X197133Y162380D01*
X196701Y163424D01*
X196013Y164320D01*
X195117Y165008D01*
X194073Y165440D01*
X193453Y165522D01*
D02*
G37*
G36*
X183453D02*
Y161760D01*
X187215D01*
X187133Y162380D01*
X186700Y163424D01*
X186013Y164320D01*
X185117Y165008D01*
X184073Y165440D01*
X183453Y165522D01*
D02*
G37*
G36*
X233453D02*
Y161760D01*
X237214D01*
X237133Y162380D01*
X236701Y163424D01*
X236013Y164320D01*
X235117Y165008D01*
X234073Y165440D01*
X233453Y165522D01*
D02*
G37*
G36*
X223453D02*
Y161760D01*
X227215D01*
X227133Y162380D01*
X226701Y163424D01*
X226013Y164320D01*
X225117Y165008D01*
X224073Y165440D01*
X223453Y165522D01*
D02*
G37*
G36*
X213453D02*
Y161760D01*
X217214D01*
X217133Y162380D01*
X216701Y163424D01*
X216013Y164320D01*
X215117Y165008D01*
X214073Y165440D01*
X213453Y165522D01*
D02*
G37*
G36*
X143453D02*
Y161760D01*
X147214D01*
X147133Y162380D01*
X146701Y163424D01*
X146013Y164320D01*
X145117Y165008D01*
X144073Y165440D01*
X143453Y165522D01*
D02*
G37*
G36*
X133453D02*
Y161760D01*
X137215D01*
X137133Y162380D01*
X136700Y163424D01*
X136013Y164320D01*
X135117Y165008D01*
X134073Y165440D01*
X133453Y165522D01*
D02*
G37*
G36*
X123453D02*
Y161760D01*
X127215D01*
X127133Y162380D01*
X126700Y163424D01*
X126013Y164320D01*
X125117Y165008D01*
X124073Y165440D01*
X123453Y165522D01*
D02*
G37*
G36*
X173453D02*
Y161760D01*
X177215D01*
X177133Y162380D01*
X176700Y163424D01*
X176013Y164320D01*
X175117Y165008D01*
X174073Y165440D01*
X173453Y165522D01*
D02*
G37*
G36*
X163453D02*
Y161760D01*
X167215D01*
X167133Y162380D01*
X166700Y163424D01*
X166013Y164320D01*
X165117Y165008D01*
X164073Y165440D01*
X163453Y165522D01*
D02*
G37*
G36*
X153453D02*
Y161760D01*
X157214D01*
X157133Y162380D01*
X156701Y163424D01*
X156013Y164320D01*
X155117Y165008D01*
X154073Y165440D01*
X153453Y165522D01*
D02*
G37*
G36*
X147214Y160760D02*
X143453D01*
Y156998D01*
X144073Y157080D01*
X145117Y157512D01*
X146013Y158200D01*
X146701Y159096D01*
X147133Y160140D01*
X147214Y160760D01*
D02*
G37*
G36*
X137215D02*
X133453D01*
Y156998D01*
X134073Y157080D01*
X135117Y157512D01*
X136013Y158200D01*
X136700Y159096D01*
X137133Y160140D01*
X137215Y160760D01*
D02*
G37*
G36*
X127215D02*
X123453D01*
Y156998D01*
X124073Y157080D01*
X125117Y157512D01*
X126013Y158200D01*
X126700Y159096D01*
X127133Y160140D01*
X127215Y160760D01*
D02*
G37*
G36*
X177215D02*
X173453D01*
Y156998D01*
X174073Y157080D01*
X175117Y157512D01*
X176013Y158200D01*
X176700Y159096D01*
X177133Y160140D01*
X177215Y160760D01*
D02*
G37*
G36*
X167215D02*
X163453D01*
Y156998D01*
X164073Y157080D01*
X165117Y157512D01*
X166013Y158200D01*
X166700Y159096D01*
X167133Y160140D01*
X167215Y160760D01*
D02*
G37*
G36*
X157214D02*
X153453D01*
Y156998D01*
X154073Y157080D01*
X155117Y157512D01*
X156013Y158200D01*
X156701Y159096D01*
X157133Y160140D01*
X157214Y160760D01*
D02*
G37*
G36*
X87214D02*
X83453D01*
Y156998D01*
X84073Y157080D01*
X85116Y157512D01*
X86013Y158200D01*
X86700Y159096D01*
X87133Y160140D01*
X87214Y160760D01*
D02*
G37*
G36*
X232453D02*
X228691D01*
X228773Y160140D01*
X229205Y159096D01*
X229893Y158200D01*
X230789Y157512D01*
X231833Y157080D01*
X232453Y156998D01*
Y160760D01*
D02*
G37*
G36*
X222453D02*
X218691D01*
X218773Y160140D01*
X219205Y159096D01*
X219893Y158200D01*
X220789Y157512D01*
X221833Y157080D01*
X222453Y156998D01*
Y160760D01*
D02*
G37*
G36*
X117215D02*
X113453D01*
Y156998D01*
X114073Y157080D01*
X115117Y157512D01*
X116013Y158200D01*
X116700Y159096D01*
X117133Y160140D01*
X117215Y160760D01*
D02*
G37*
G36*
X107214D02*
X103453D01*
Y156998D01*
X104073Y157080D01*
X105117Y157512D01*
X106013Y158200D01*
X106701Y159096D01*
X107133Y160140D01*
X107214Y160760D01*
D02*
G37*
G36*
X97215D02*
X93453D01*
Y156998D01*
X94073Y157080D01*
X95117Y157512D01*
X96013Y158200D01*
X96701Y159096D01*
X97133Y160140D01*
X97215Y160760D01*
D02*
G37*
G36*
X187215D02*
X183453D01*
Y156998D01*
X184073Y157080D01*
X185117Y157512D01*
X186013Y158200D01*
X186700Y159096D01*
X187133Y160140D01*
X187215Y160760D01*
D02*
G37*
G36*
X112453Y165522D02*
X111833Y165440D01*
X110789Y165008D01*
X109893Y164320D01*
X109205Y163424D01*
X108773Y162380D01*
X108691Y161760D01*
X112453D01*
Y165522D01*
D02*
G37*
G36*
X102453D02*
X101833Y165440D01*
X100789Y165008D01*
X99893Y164320D01*
X99205Y163424D01*
X98773Y162380D01*
X98691Y161760D01*
X102453D01*
Y165522D01*
D02*
G37*
G36*
X92453D02*
X91833Y165440D01*
X90789Y165008D01*
X89893Y164320D01*
X89205Y163424D01*
X88773Y162380D01*
X88691Y161760D01*
X92453D01*
Y165522D01*
D02*
G37*
G36*
X142453D02*
X141833Y165440D01*
X140789Y165008D01*
X139893Y164320D01*
X139205Y163424D01*
X138773Y162380D01*
X138691Y161760D01*
X142453D01*
Y165522D01*
D02*
G37*
G36*
X132453D02*
X131833Y165440D01*
X130789Y165008D01*
X129893Y164320D01*
X129205Y163424D01*
X128773Y162380D01*
X128691Y161760D01*
X132453D01*
Y165522D01*
D02*
G37*
G36*
X122453D02*
X121833Y165440D01*
X120789Y165008D01*
X119893Y164320D01*
X119205Y163424D01*
X118773Y162380D01*
X118691Y161760D01*
X122453D01*
Y165522D01*
D02*
G37*
G36*
X217214Y160760D02*
X213453D01*
Y156998D01*
X214073Y157080D01*
X215117Y157512D01*
X216013Y158200D01*
X216701Y159096D01*
X217133Y160140D01*
X217214Y160760D01*
D02*
G37*
G36*
X207214D02*
X203453D01*
Y156998D01*
X204073Y157080D01*
X205117Y157512D01*
X206013Y158200D01*
X206701Y159096D01*
X207133Y160140D01*
X207214Y160760D01*
D02*
G37*
G36*
X197214D02*
X193453D01*
Y156998D01*
X194073Y157080D01*
X195117Y157512D01*
X196013Y158200D01*
X196701Y159096D01*
X197133Y160140D01*
X197214Y160760D01*
D02*
G37*
G36*
X82453Y165522D02*
X81833Y165440D01*
X80789Y165008D01*
X79893Y164320D01*
X79205Y163424D01*
X78773Y162380D01*
X78691Y161760D01*
X82453D01*
Y165522D01*
D02*
G37*
G36*
X237214Y160760D02*
X233453D01*
Y156998D01*
X234073Y157080D01*
X235117Y157512D01*
X236013Y158200D01*
X236701Y159096D01*
X237133Y160140D01*
X237214Y160760D01*
D02*
G37*
G36*
X227215D02*
X223453D01*
Y156998D01*
X224073Y157080D01*
X225117Y157512D01*
X226013Y158200D01*
X226701Y159096D01*
X227133Y160140D01*
X227215Y160760D01*
D02*
G37*
%LPD*%
D32*
X48622Y97736D02*
D03*
X58622Y102736D02*
D03*
X48622Y107736D02*
D03*
X58622Y112736D02*
D03*
X48622Y117736D02*
D03*
X58622Y122736D02*
D03*
D33*
X184055Y79724D02*
X220472Y116142D01*
X149606Y79724D02*
X184055D01*
X142717Y72835D02*
X149606Y79724D01*
X140157Y49309D02*
Y49606D01*
X148622Y58071D01*
X111221Y111221D02*
Y123031D01*
X110236Y124016D02*
X111221Y123031D01*
X110236Y124016D02*
Y127953D01*
X111221Y111221D02*
X121063Y101378D01*
X108268Y110236D02*
Y122047D01*
X106299Y124016D02*
X108268Y122047D01*
X106299Y124016D02*
Y127953D01*
X108268Y110236D02*
X119095Y99410D01*
X105315Y109252D02*
Y121063D01*
X102362Y124016D02*
X105315Y121063D01*
X102362Y124016D02*
Y127953D01*
X105315Y109252D02*
X117126Y97441D01*
X102362Y108268D02*
Y120079D01*
X98425Y124016D02*
X102362Y120079D01*
X98425Y124016D02*
Y127953D01*
X102362Y108268D02*
X115157Y95472D01*
X99410Y107283D02*
Y119095D01*
X94488Y124016D02*
X99410Y119095D01*
X94488Y124016D02*
Y127953D01*
X99410Y107283D02*
X113189Y93504D01*
X96457Y106299D02*
Y118110D01*
X90551Y124016D02*
X96457Y118110D01*
X90551Y124016D02*
Y127953D01*
X114173Y112205D02*
Y127953D01*
Y112205D02*
X123031Y103347D01*
X131890D01*
X121063Y101378D02*
X133858D01*
X119095Y99410D02*
X131890D01*
X117126Y97441D02*
X133858D01*
X115157Y95472D02*
X131890D01*
X113189Y93504D02*
X133858D01*
X117126Y85630D02*
X131890D01*
X96457Y106299D02*
X117126Y85630D01*
X113189Y77756D02*
X122047D01*
X82677Y108268D02*
X113189Y77756D01*
X82677Y108268D02*
Y127953D01*
X113189Y81693D02*
X122047D01*
X86614Y108268D02*
X113189Y81693D01*
X86614Y108268D02*
Y127953D01*
X220472Y116142D02*
Y127953D01*
X224410Y116142D02*
Y127953D01*
X184055Y75787D02*
X224410Y116142D01*
X156496Y75787D02*
X184055D01*
X228346Y116142D02*
Y127953D01*
X185039Y72835D02*
X228346Y116142D01*
X156496Y72835D02*
X185039D01*
X148622Y58071D02*
Y72835D01*
X154528Y73819D02*
X156496Y75787D01*
X154528Y70866D02*
Y73819D01*
X170276Y101378D02*
X179134Y110236D01*
X165354Y101378D02*
X170276D01*
X172244Y99410D02*
X183071Y110236D01*
X167323Y99410D02*
X172244D01*
X180118Y83661D02*
X206693Y110236D01*
X167323Y83661D02*
X180118D01*
X182087Y89567D02*
X202756Y110236D01*
X165354Y89567D02*
X182087D01*
X180118Y91535D02*
X198819Y110236D01*
X167323Y91535D02*
X180118D01*
X178150Y93504D02*
X194882Y110236D01*
X165354Y93504D02*
X178150D01*
X167323Y95472D02*
X176181D01*
X174213Y97441D02*
X187008Y110236D01*
X165354Y97441D02*
X174213D01*
X179134Y110236D02*
Y127953D01*
X183071Y110236D02*
Y127953D01*
X187008Y110236D02*
Y127953D01*
X176181Y95472D02*
X190945Y110236D01*
Y127953D01*
X194882Y110236D02*
Y127953D01*
X198819Y110236D02*
Y127953D01*
X202756Y110236D02*
Y127953D01*
X206693Y110236D02*
Y127953D01*
D34*
X75866Y47244D02*
X104213Y18898D01*
X209842D01*
X246063Y55118D01*
X216535D02*
X226063D01*
X196850Y35433D02*
X216535Y55118D01*
D35*
X125984Y38780D02*
X131890D01*
X137795D01*
X143701D02*
X149606D01*
X155512D01*
X161417D01*
X167323D01*
X114961D02*
X125984D01*
X141929Y24213D02*
Y38780D01*
X141929Y38780D01*
X137795D02*
X141929D01*
X143701D01*
D37*
X91535Y115157D02*
D03*
Y89567D02*
D03*
X73819D02*
D03*
Y115157D02*
D03*
D38*
X246063Y124173D02*
D03*
Y114173D02*
D03*
X226063Y55118D02*
D03*
X246063D02*
D03*
X236063D02*
D03*
X95866Y47244D02*
D03*
X85866D02*
D03*
X75866D02*
D03*
X65866D02*
D03*
X55866D02*
D03*
X45866D02*
D03*
X212953Y181260D02*
D03*
X202953D02*
D03*
X192953D02*
D03*
X182953D02*
D03*
X172953D02*
D03*
X162953D02*
D03*
X152953D02*
D03*
X142953D02*
D03*
X62953D02*
D03*
X72953D02*
D03*
X82953D02*
D03*
X92953D02*
D03*
X102953D02*
D03*
X112953D02*
D03*
X122953D02*
D03*
X132953D02*
D03*
X52953D02*
D03*
X42953D02*
D03*
X32953D02*
D03*
X22953D02*
D03*
X12953D02*
D03*
Y191260D02*
D03*
X22953D02*
D03*
X32953D02*
D03*
X42953D02*
D03*
X52953D02*
D03*
X132953D02*
D03*
X122953D02*
D03*
X112953D02*
D03*
X102953D02*
D03*
X92953D02*
D03*
X82953D02*
D03*
X72953D02*
D03*
X62953D02*
D03*
X142953D02*
D03*
X152953D02*
D03*
X162953D02*
D03*
X172953D02*
D03*
X182953D02*
D03*
X192953D02*
D03*
X202953D02*
D03*
X212953D02*
D03*
Y171260D02*
D03*
X202953D02*
D03*
X192953D02*
D03*
X182953D02*
D03*
X172953D02*
D03*
X162953D02*
D03*
X152953D02*
D03*
X142953D02*
D03*
X62953D02*
D03*
X72953D02*
D03*
X82953D02*
D03*
X92953D02*
D03*
X102953D02*
D03*
X112953D02*
D03*
X122953D02*
D03*
X132953D02*
D03*
X52953D02*
D03*
X42953D02*
D03*
X32953D02*
D03*
X22953D02*
D03*
X12953D02*
D03*
Y161260D02*
D03*
X22953D02*
D03*
X32953D02*
D03*
X42953D02*
D03*
X52953D02*
D03*
X132953D02*
D03*
X122953D02*
D03*
X112953D02*
D03*
X102953D02*
D03*
X92953D02*
D03*
X82953D02*
D03*
X72953D02*
D03*
X62953D02*
D03*
X142953D02*
D03*
X152953D02*
D03*
X162953D02*
D03*
X172953D02*
D03*
X182953D02*
D03*
X192953D02*
D03*
X202953D02*
D03*
X212953D02*
D03*
Y221260D02*
D03*
X202953D02*
D03*
X192953D02*
D03*
X182953D02*
D03*
X172953D02*
D03*
X162953D02*
D03*
X152953D02*
D03*
X142953D02*
D03*
X62953D02*
D03*
X72953D02*
D03*
X82953D02*
D03*
X92953D02*
D03*
X102953D02*
D03*
X112953D02*
D03*
X122953D02*
D03*
X132953D02*
D03*
X52953D02*
D03*
X42953D02*
D03*
X32953D02*
D03*
X22953D02*
D03*
X12953D02*
D03*
X212953Y211260D02*
D03*
X202953D02*
D03*
X192953D02*
D03*
X182953D02*
D03*
X172953D02*
D03*
X162953D02*
D03*
X152953D02*
D03*
X142953D02*
D03*
X62953D02*
D03*
X72953D02*
D03*
X82953D02*
D03*
X92953D02*
D03*
X102953D02*
D03*
X112953D02*
D03*
X122953D02*
D03*
X132953D02*
D03*
X52953D02*
D03*
X42953D02*
D03*
X32953D02*
D03*
X22953D02*
D03*
X12953D02*
D03*
Y201260D02*
D03*
X22953D02*
D03*
X32953D02*
D03*
X42953D02*
D03*
X52953D02*
D03*
X132953D02*
D03*
X122953D02*
D03*
X112953D02*
D03*
X102953D02*
D03*
X92953D02*
D03*
X82953D02*
D03*
X72953D02*
D03*
X62953D02*
D03*
X142953D02*
D03*
X152953D02*
D03*
X162953D02*
D03*
X172953D02*
D03*
X182953D02*
D03*
X192953D02*
D03*
X202953D02*
D03*
X212953D02*
D03*
X242953D02*
D03*
X232953D02*
D03*
Y211260D02*
D03*
X242953D02*
D03*
X232953Y221260D02*
D03*
X242953D02*
D03*
X232953Y161260D02*
D03*
Y171260D02*
D03*
X242953Y191260D02*
D03*
X232953D02*
D03*
Y181260D02*
D03*
X242953D02*
D03*
X32953Y231260D02*
D03*
X42953D02*
D03*
X52953D02*
D03*
X132953D02*
D03*
X122953D02*
D03*
X112953D02*
D03*
X102953D02*
D03*
X92953D02*
D03*
X82953D02*
D03*
X72953D02*
D03*
X62953D02*
D03*
X142953D02*
D03*
X152953D02*
D03*
X162953D02*
D03*
X172953D02*
D03*
X182953D02*
D03*
X192953D02*
D03*
X202953D02*
D03*
X212953D02*
D03*
X32953Y241260D02*
D03*
X42953D02*
D03*
X52953D02*
D03*
X132953D02*
D03*
X122953D02*
D03*
X112953D02*
D03*
X102953D02*
D03*
X92953D02*
D03*
X82953D02*
D03*
X72953D02*
D03*
X62953D02*
D03*
X142953D02*
D03*
X152953D02*
D03*
X162953D02*
D03*
X172953D02*
D03*
X182953D02*
D03*
X192953D02*
D03*
X202953D02*
D03*
X212953D02*
D03*
X222953Y201260D02*
D03*
Y211260D02*
D03*
Y221260D02*
D03*
Y161260D02*
D03*
Y171260D02*
D03*
Y191260D02*
D03*
Y181260D02*
D03*
Y241260D02*
D03*
Y231260D02*
D03*
D39*
X23622Y90236D02*
D03*
Y130236D02*
D03*
D40*
X15748Y15748D02*
D03*
X240158D02*
D03*
Y240158D02*
D03*
X15748D02*
D03*
D41*
X140157Y49309D02*
D03*
X152559Y106299D02*
D03*
X144685D02*
D03*
X131890Y91535D02*
D03*
X142717Y72835D02*
D03*
X185039Y111024D02*
D03*
X137795Y27559D02*
D03*
X156496Y72835D02*
D03*
X154528Y70866D02*
D03*
X148622Y72835D02*
D03*
X167323Y77756D02*
D03*
X165354Y101378D02*
D03*
X167323Y99410D02*
D03*
X165354Y97441D02*
D03*
X167323Y95472D02*
D03*
X165354Y93504D02*
D03*
X167323Y91535D02*
D03*
X165354Y89567D02*
D03*
X167323Y87598D02*
D03*
X150591Y70866D02*
D03*
X140748D02*
D03*
X178937Y53150D02*
D03*
X125984Y38780D02*
D03*
X131890D02*
D03*
X137795D02*
D03*
X143701D02*
D03*
X149606D02*
D03*
X155512D02*
D03*
X161417D02*
D03*
X167323D02*
D03*
X141929Y24213D02*
D03*
X210630Y34843D02*
D03*
X216535D02*
D03*
X198819Y31693D02*
D03*
X114961Y38780D02*
D03*
X205906Y22441D02*
D03*
X167323Y83661D02*
D03*
X131890Y103347D02*
D03*
X133858Y101378D02*
D03*
X131890Y99410D02*
D03*
X133858Y97441D02*
D03*
X131890Y95472D02*
D03*
X133858Y93504D02*
D03*
X131890Y85630D02*
D03*
X122047Y77756D02*
D03*
Y81693D02*
D03*
X225787Y63779D02*
D03*
X237598D02*
D03*
X94488Y127953D02*
D03*
X98425D02*
D03*
X102362Y127953D02*
D03*
X106299Y127953D02*
D03*
X110236D02*
D03*
X114173D02*
D03*
X82677D02*
D03*
X86614D02*
D03*
X90551D02*
D03*
X179134D02*
D03*
X183071D02*
D03*
X187008D02*
D03*
X190945D02*
D03*
X194882D02*
D03*
X198819D02*
D03*
X202756D02*
D03*
X206693D02*
D03*
X220472D02*
D03*
X224410D02*
D03*
X228346D02*
D03*
D42*
X196850Y35433D02*
D03*
M02*
