G04*
G04 #@! TF.GenerationSoftware,Altium Limited,CircuitStudio,1.5.1 (13)*
G04*
G04 Layer_Physical_Order=3*
G04 Layer_Color=553216*
%FSLAX25Y25*%
%MOIN*%
G70*
G01*
G75*
%ADD55C,0.03937*%
%ADD56C,0.05181*%
%ADD57C,0.13386*%
%ADD58C,0.05118*%
%ADD59C,0.04724*%
%ADD60C,0.13976*%
%ADD61C,0.02362*%
D55*
X0Y15748D02*
G03*
X15748Y-0I15748J0D01*
G01*
X318898D02*
G03*
X334646Y15748I0J15748D01*
G01*
X334646Y318898D02*
G03*
X318898Y334646I-15748J0D01*
G01*
X15748Y334646D02*
G03*
X0Y318898I0J-15748D01*
G01*
X15748Y0D02*
X15748Y-0D01*
X15748Y0D02*
X318898D01*
X318898Y-0D02*
X318898Y0D01*
X334646Y15748D02*
X334646D01*
X334646Y318898D01*
X334646Y318898D02*
X334646Y318898D01*
X15748Y334646D02*
X318898D01*
X15748D02*
X15748Y334646D01*
X0Y318898D02*
X0Y15748D01*
D56*
X301811Y250315D02*
D03*
X311811D02*
D03*
X321811D02*
D03*
X241811D02*
D03*
X251811D02*
D03*
X261811D02*
D03*
X271811D02*
D03*
X281811D02*
D03*
X291811D02*
D03*
X11811D02*
D03*
X231811D02*
D03*
X221811D02*
D03*
X211811D02*
D03*
X201811D02*
D03*
X191811D02*
D03*
X181811D02*
D03*
X171811D02*
D03*
X161811D02*
D03*
X151811D02*
D03*
X71811D02*
D03*
X81811D02*
D03*
X91811D02*
D03*
X101811D02*
D03*
X111811D02*
D03*
X121811D02*
D03*
X131811D02*
D03*
X141811D02*
D03*
X61811D02*
D03*
X51811D02*
D03*
X41811D02*
D03*
X31811D02*
D03*
X21811D02*
D03*
X221811Y270315D02*
D03*
X211811D02*
D03*
X201811D02*
D03*
X191811D02*
D03*
X181811D02*
D03*
X171811D02*
D03*
X161811D02*
D03*
X151811D02*
D03*
X71811D02*
D03*
X81811D02*
D03*
X91811D02*
D03*
X101811D02*
D03*
X111811D02*
D03*
X121811D02*
D03*
X131811D02*
D03*
X141811D02*
D03*
X61811D02*
D03*
X51811D02*
D03*
X41811D02*
D03*
X31811D02*
D03*
X21811D02*
D03*
Y260315D02*
D03*
X31811D02*
D03*
X41811D02*
D03*
X51811D02*
D03*
X61811D02*
D03*
X141811D02*
D03*
X131811D02*
D03*
X121811D02*
D03*
X111811D02*
D03*
X101811D02*
D03*
X91811D02*
D03*
X81811D02*
D03*
X71811D02*
D03*
X151811D02*
D03*
X161811D02*
D03*
X171811D02*
D03*
X181811D02*
D03*
X191811D02*
D03*
X201811D02*
D03*
X211811D02*
D03*
X221811D02*
D03*
X231811D02*
D03*
Y270315D02*
D03*
X11811Y260315D02*
D03*
Y270315D02*
D03*
X291811D02*
D03*
Y260315D02*
D03*
X281811D02*
D03*
X271811D02*
D03*
X261811D02*
D03*
X251811D02*
D03*
X241811D02*
D03*
Y270315D02*
D03*
X251811D02*
D03*
X261811D02*
D03*
X271811D02*
D03*
X281811D02*
D03*
X321811Y260315D02*
D03*
X311811D02*
D03*
X301811D02*
D03*
Y270315D02*
D03*
X311811D02*
D03*
X321811D02*
D03*
X301811Y280315D02*
D03*
X311811D02*
D03*
X321811D02*
D03*
X241811D02*
D03*
X251811D02*
D03*
X261811D02*
D03*
X271811D02*
D03*
X281811D02*
D03*
X291811D02*
D03*
X11811D02*
D03*
X231811D02*
D03*
X221811D02*
D03*
X211811D02*
D03*
X201811D02*
D03*
X191811D02*
D03*
X181811D02*
D03*
X171811D02*
D03*
X161811D02*
D03*
X151811D02*
D03*
X71811D02*
D03*
X81811D02*
D03*
X91811D02*
D03*
X101811D02*
D03*
X111811D02*
D03*
X121811D02*
D03*
X131811D02*
D03*
X141811D02*
D03*
X61811D02*
D03*
X51811D02*
D03*
X41811D02*
D03*
X31811D02*
D03*
X21811D02*
D03*
X311811Y190315D02*
D03*
X241811D02*
D03*
X251811D02*
D03*
X261811D02*
D03*
X271811D02*
D03*
X281811D02*
D03*
X291811D02*
D03*
X301811D02*
D03*
X31811Y320315D02*
D03*
X41811D02*
D03*
X51811D02*
D03*
X61811D02*
D03*
X141811D02*
D03*
X131811D02*
D03*
X121811D02*
D03*
X111811D02*
D03*
X101811D02*
D03*
X91811D02*
D03*
X81811D02*
D03*
X71811D02*
D03*
X151811D02*
D03*
X161811D02*
D03*
X171811D02*
D03*
X181811D02*
D03*
X191811D02*
D03*
X201811D02*
D03*
X211811D02*
D03*
X221811D02*
D03*
X231811D02*
D03*
X291811D02*
D03*
X281811D02*
D03*
X271811D02*
D03*
X261811D02*
D03*
X251811D02*
D03*
X241811D02*
D03*
X301811D02*
D03*
X221811Y210315D02*
D03*
X211811D02*
D03*
X201811D02*
D03*
X191811D02*
D03*
X181811D02*
D03*
X171811D02*
D03*
X161811D02*
D03*
X151811D02*
D03*
X71811D02*
D03*
X81811D02*
D03*
X91811D02*
D03*
X101811D02*
D03*
X111811D02*
D03*
X121811D02*
D03*
X131811D02*
D03*
X141811D02*
D03*
X61811D02*
D03*
X51811D02*
D03*
X41811D02*
D03*
X31811D02*
D03*
X21811D02*
D03*
Y200315D02*
D03*
X31811D02*
D03*
X41811D02*
D03*
X51811D02*
D03*
X61811D02*
D03*
X141811D02*
D03*
X131811D02*
D03*
X121811D02*
D03*
X111811D02*
D03*
X101811D02*
D03*
X91811D02*
D03*
X81811D02*
D03*
X71811D02*
D03*
X151811D02*
D03*
X161811D02*
D03*
X171811D02*
D03*
X181811D02*
D03*
X191811D02*
D03*
X201811D02*
D03*
X211811D02*
D03*
X221811D02*
D03*
X231811D02*
D03*
Y210315D02*
D03*
X11811Y200315D02*
D03*
Y210315D02*
D03*
X291811D02*
D03*
Y200315D02*
D03*
X281811D02*
D03*
X271811D02*
D03*
X261811D02*
D03*
X251811D02*
D03*
X241811D02*
D03*
Y210315D02*
D03*
X251811D02*
D03*
X261811D02*
D03*
X271811D02*
D03*
X281811D02*
D03*
X321811Y200315D02*
D03*
X311811D02*
D03*
X301811D02*
D03*
Y210315D02*
D03*
X311811D02*
D03*
X321811D02*
D03*
X221811Y310315D02*
D03*
X211811D02*
D03*
X201811D02*
D03*
X191811D02*
D03*
X181811D02*
D03*
X171811D02*
D03*
X161811D02*
D03*
X151811D02*
D03*
X71811D02*
D03*
X81811D02*
D03*
X91811D02*
D03*
X101811D02*
D03*
X111811D02*
D03*
X121811D02*
D03*
X131811D02*
D03*
X141811D02*
D03*
X61811D02*
D03*
X51811D02*
D03*
X41811D02*
D03*
X31811D02*
D03*
X21811Y300315D02*
D03*
X31811D02*
D03*
X41811D02*
D03*
X51811D02*
D03*
X61811D02*
D03*
X141811D02*
D03*
X131811D02*
D03*
X121811D02*
D03*
X111811D02*
D03*
X101811D02*
D03*
X91811D02*
D03*
X81811D02*
D03*
X71811D02*
D03*
X151811D02*
D03*
X161811D02*
D03*
X171811D02*
D03*
X181811D02*
D03*
X191811D02*
D03*
X201811D02*
D03*
X211811D02*
D03*
X221811D02*
D03*
X231811D02*
D03*
Y310315D02*
D03*
X11811Y300315D02*
D03*
X291811Y310315D02*
D03*
Y300315D02*
D03*
X281811D02*
D03*
X271811D02*
D03*
X261811D02*
D03*
X251811D02*
D03*
X241811D02*
D03*
Y310315D02*
D03*
X251811D02*
D03*
X261811D02*
D03*
X271811D02*
D03*
X281811D02*
D03*
X321811Y300315D02*
D03*
X311811D02*
D03*
X301811D02*
D03*
Y310315D02*
D03*
X221811Y290315D02*
D03*
X211811D02*
D03*
X201811D02*
D03*
X191811D02*
D03*
X181811D02*
D03*
X171811D02*
D03*
X161811D02*
D03*
X151811D02*
D03*
X71811D02*
D03*
X81811D02*
D03*
X91811D02*
D03*
X101811D02*
D03*
X111811D02*
D03*
X121811D02*
D03*
X131811D02*
D03*
X141811D02*
D03*
X61811D02*
D03*
X51811D02*
D03*
X41811D02*
D03*
X31811D02*
D03*
X21811D02*
D03*
Y240315D02*
D03*
X31811D02*
D03*
X41811D02*
D03*
X51811D02*
D03*
X61811D02*
D03*
X141811D02*
D03*
X131811D02*
D03*
X121811D02*
D03*
X111811D02*
D03*
X101811D02*
D03*
X91811D02*
D03*
X81811D02*
D03*
X71811D02*
D03*
X151811D02*
D03*
X161811D02*
D03*
X171811D02*
D03*
X181811D02*
D03*
X191811D02*
D03*
X201811D02*
D03*
X211811D02*
D03*
X221811D02*
D03*
X231811D02*
D03*
Y290315D02*
D03*
X11811Y240315D02*
D03*
Y290315D02*
D03*
X291811D02*
D03*
Y240315D02*
D03*
X281811D02*
D03*
X271811D02*
D03*
X261811D02*
D03*
X251811D02*
D03*
X241811D02*
D03*
Y290315D02*
D03*
X251811D02*
D03*
X261811D02*
D03*
X271811D02*
D03*
X281811D02*
D03*
X321811Y240315D02*
D03*
X311811D02*
D03*
X301811D02*
D03*
Y290315D02*
D03*
X311811D02*
D03*
X321811D02*
D03*
Y230315D02*
D03*
X311811D02*
D03*
X301811D02*
D03*
Y220315D02*
D03*
X311811D02*
D03*
X321811D02*
D03*
X281811Y230315D02*
D03*
X271811D02*
D03*
X261811D02*
D03*
X251811D02*
D03*
X241811D02*
D03*
Y220315D02*
D03*
X251811D02*
D03*
X261811D02*
D03*
X271811D02*
D03*
X281811D02*
D03*
X291811D02*
D03*
Y230315D02*
D03*
X11811D02*
D03*
Y220315D02*
D03*
X231811Y190315D02*
D03*
Y230315D02*
D03*
Y220315D02*
D03*
X221811D02*
D03*
X211811D02*
D03*
X201811D02*
D03*
X191811D02*
D03*
X181811D02*
D03*
X171811D02*
D03*
X161811D02*
D03*
X151811D02*
D03*
X71811D02*
D03*
X81811D02*
D03*
X91811D02*
D03*
X101811D02*
D03*
X111811D02*
D03*
X121811D02*
D03*
X131811D02*
D03*
X141811D02*
D03*
X61811D02*
D03*
X51811D02*
D03*
X41811D02*
D03*
X31811D02*
D03*
X21811D02*
D03*
Y230315D02*
D03*
X31811D02*
D03*
X41811D02*
D03*
X51811D02*
D03*
X61811D02*
D03*
X141811D02*
D03*
X131811D02*
D03*
X121811D02*
D03*
X111811D02*
D03*
X101811D02*
D03*
X91811D02*
D03*
X81811D02*
D03*
X71811D02*
D03*
X151811D02*
D03*
X161811D02*
D03*
X171811D02*
D03*
X181811D02*
D03*
X191811D02*
D03*
X201811D02*
D03*
X211811D02*
D03*
X221811D02*
D03*
Y190315D02*
D03*
X211811D02*
D03*
X201811D02*
D03*
X191811D02*
D03*
X181811D02*
D03*
X171811D02*
D03*
X161811D02*
D03*
X151811D02*
D03*
X71811D02*
D03*
X81811D02*
D03*
X91811D02*
D03*
X101811D02*
D03*
X111811D02*
D03*
X121811D02*
D03*
X131811D02*
D03*
X141811D02*
D03*
X61811D02*
D03*
X51811D02*
D03*
X41811D02*
D03*
X31811D02*
D03*
X21811D02*
D03*
X41929Y47244D02*
D03*
X51929D02*
D03*
X61929D02*
D03*
X71929D02*
D03*
X81929D02*
D03*
X91929D02*
D03*
X250000Y69055D02*
D03*
Y59055D02*
D03*
X116142Y29370D02*
D03*
X230315Y69055D02*
D03*
Y59055D02*
D03*
X250000Y41496D02*
D03*
Y31496D02*
D03*
D57*
X15748Y318898D02*
D03*
X318898D02*
D03*
X318898Y15748D02*
D03*
X15748D02*
D03*
D58*
X292323Y73819D02*
D03*
Y99410D02*
D03*
X274606D02*
D03*
Y73819D02*
D03*
X62008Y142717D02*
D03*
Y117126D02*
D03*
X79724D02*
D03*
Y142717D02*
D03*
D59*
X46811Y142421D02*
D03*
Y132421D02*
D03*
X36811Y127421D02*
D03*
X46811Y122421D02*
D03*
X36811Y117421D02*
D03*
D60*
X11811Y149921D02*
D03*
Y109921D02*
D03*
D61*
X156496Y106299D02*
D03*
X194882Y61614D02*
D03*
X181102Y77756D02*
D03*
X114173Y129921D02*
D03*
X118110D02*
D03*
X122047D02*
D03*
X125984D02*
D03*
X129921D02*
D03*
X133858D02*
D03*
X137795D02*
D03*
X324803Y70472D02*
D03*
X257874Y118110D02*
D03*
X238189Y114173D02*
D03*
X230315Y100394D02*
D03*
X170276Y70866D02*
D03*
X222441Y80709D02*
D03*
X316929Y70866D02*
D03*
X314961Y72835D02*
D03*
X309055Y70866D02*
D03*
X311024Y72835D02*
D03*
X312992Y74803D02*
D03*
X164370Y72835D02*
D03*
X322835Y140748D02*
D03*
X318898Y134843D02*
D03*
X322835D02*
D03*
X318898Y140748D02*
D03*
X320866Y137795D02*
D03*
X244094Y86614D02*
D03*
X135827Y38780D02*
D03*
X137795Y81693D02*
D03*
Y77756D02*
D03*
X147638Y85630D02*
D03*
X149606Y93504D02*
D03*
X147638Y95472D02*
D03*
X149606Y97441D02*
D03*
X147638Y103347D02*
D03*
X157677Y24213D02*
D03*
X183071Y38780D02*
D03*
X177165D02*
D03*
X171260D02*
D03*
X165354D02*
D03*
X159449D02*
D03*
X153543D02*
D03*
X147638D02*
D03*
X141732D02*
D03*
X156496Y70866D02*
D03*
X166339D02*
D03*
X183071Y87598D02*
D03*
X181102Y93504D02*
D03*
X183071Y95472D02*
D03*
X181102Y97441D02*
D03*
X172244Y72835D02*
D03*
X153543Y27559D02*
D03*
X158465Y72835D02*
D03*
X147638Y91535D02*
D03*
X160433Y106299D02*
D03*
X168307D02*
D03*
X137795Y32283D02*
D03*
X152559Y72835D02*
D03*
X150591Y70866D02*
D03*
X149606Y83661D02*
D03*
X147638Y79724D02*
D03*
X112992Y89764D02*
D03*
X103150D02*
D03*
X93307D02*
D03*
X214567Y129921D02*
D03*
X210630D02*
D03*
X206693D02*
D03*
X276575Y48228D02*
D03*
X314961Y68898D02*
D03*
X328740Y62008D02*
D03*
X208661Y31496D02*
D03*
X312992Y70866D02*
D03*
X311024Y68898D02*
D03*
X206693Y33465D02*
D03*
X204724Y31496D02*
D03*
X202756Y33465D02*
D03*
Y29528D02*
D03*
X206693D02*
D03*
X204724Y27559D02*
D03*
X200787Y31496D02*
D03*
X204724Y35433D02*
D03*
X326772Y63976D02*
D03*
X324803Y62008D02*
D03*
X322835Y63976D02*
D03*
X320866Y62008D02*
D03*
X322835Y60039D02*
D03*
X326772D02*
D03*
X303150Y29528D02*
D03*
Y25591D02*
D03*
X299213D02*
D03*
X301181Y27559D02*
D03*
X305118Y31496D02*
D03*
Y27559D02*
D03*
X301181Y23622D02*
D03*
X297244D02*
D03*
X305118D02*
D03*
X295276Y27559D02*
D03*
X295276Y30512D02*
D03*
Y33465D02*
D03*
Y36417D02*
D03*
X312992Y66929D02*
D03*
X324803Y58071D02*
D03*
Y65945D02*
D03*
X292323Y60039D02*
D03*
X290354Y58071D02*
D03*
X286417D02*
D03*
X288386Y60039D02*
D03*
X284449D02*
D03*
X280512D02*
D03*
X278543Y58071D02*
D03*
X276575Y60039D02*
D03*
X274606Y58071D02*
D03*
X282480D02*
D03*
X230315Y35433D02*
D03*
X227362D02*
D03*
X224410D02*
D03*
X221457D02*
D03*
Y32480D02*
D03*
Y29528D02*
D03*
Y26575D02*
D03*
X214567Y31693D02*
D03*
X233268Y35433D02*
D03*
X282480Y116142D02*
D03*
X294291Y112205D02*
D03*
X296260Y114173D02*
D03*
X270669Y116732D02*
D03*
X125000Y55118D02*
D03*
X117126Y68898D02*
D03*
Y58071D02*
D03*
M02*
