G04 Layer_Color=7318015*
%FSLAX25Y25*%
%MOIN*%
G70*
G01*
G75*
%ADD11C,0.00984*%
%ADD12R,0.01378X0.01181*%
%ADD13R,0.06201X0.01181*%
%ADD14R,0.08661X0.03740*%
%ADD15R,0.01181X0.05906*%
%ADD16R,0.05906X0.01181*%
%ADD17R,0.05118X0.04134*%
%ADD18R,0.03543X0.02756*%
%ADD19R,0.03937X0.02362*%
%ADD20R,0.03740X0.03347*%
%ADD21R,0.02362X0.04921*%
%ADD22R,0.04724X0.14921*%
%ADD23R,0.05709X0.05512*%
%ADD24R,0.09350X0.07480*%
%ADD25R,0.04626X0.07480*%
%ADD26R,0.01772X0.05433*%
%ADD27R,0.05807X0.08268*%
%ADD28R,0.00984X0.02461*%
%ADD29R,0.01772X0.02461*%
%ADD30R,0.02756X0.03543*%
%ADD31R,0.12795X0.08465*%
%ADD32R,0.03740X0.08465*%
D11*
X185846Y108268D02*
D03*
Y104331D02*
D03*
X184232D02*
D03*
Y108268D02*
D03*
D12*
X119783Y36024D02*
D03*
D13*
X114917D02*
D03*
D14*
X116142Y32185D02*
D03*
D15*
X134843Y111024D02*
D03*
X136811D02*
D03*
X138779D02*
D03*
X140748D02*
D03*
X142717D02*
D03*
X144685D02*
D03*
X146653D02*
D03*
X148622D02*
D03*
X150591D02*
D03*
X152559D02*
D03*
X154528D02*
D03*
X156496D02*
D03*
X158465D02*
D03*
X160433D02*
D03*
X162402D02*
D03*
X164370D02*
D03*
X134843Y66142D02*
D03*
X136811D02*
D03*
X138779D02*
D03*
X140748D02*
D03*
X142717D02*
D03*
X144685D02*
D03*
X146653D02*
D03*
X148622D02*
D03*
X150591D02*
D03*
X152559D02*
D03*
X154528D02*
D03*
X156496D02*
D03*
X158465D02*
D03*
X160433D02*
D03*
X162402D02*
D03*
X164370D02*
D03*
D16*
X172047Y103346D02*
D03*
Y101378D02*
D03*
Y99409D02*
D03*
Y97441D02*
D03*
Y95472D02*
D03*
Y93504D02*
D03*
Y91535D02*
D03*
Y89567D02*
D03*
Y87598D02*
D03*
Y85630D02*
D03*
Y83661D02*
D03*
Y81693D02*
D03*
Y79724D02*
D03*
Y77756D02*
D03*
Y75787D02*
D03*
Y73819D02*
D03*
X127165D02*
D03*
Y75787D02*
D03*
Y77756D02*
D03*
Y79724D02*
D03*
Y81693D02*
D03*
Y83661D02*
D03*
Y85630D02*
D03*
Y87598D02*
D03*
Y89567D02*
D03*
Y91535D02*
D03*
Y93504D02*
D03*
Y95472D02*
D03*
Y97441D02*
D03*
Y99409D02*
D03*
Y101378D02*
D03*
Y103346D02*
D03*
D17*
X183661Y64665D02*
D03*
X174606D02*
D03*
Y57382D02*
D03*
X183661D02*
D03*
D18*
X216535Y32087D02*
D03*
Y26969D02*
D03*
X161417Y30906D02*
D03*
Y36024D02*
D03*
X125984Y30906D02*
D03*
Y36024D02*
D03*
X155512Y30906D02*
D03*
Y36024D02*
D03*
X149606Y30906D02*
D03*
Y36024D02*
D03*
X131890Y30906D02*
D03*
Y36024D02*
D03*
X167323Y30906D02*
D03*
Y36024D02*
D03*
X204724Y75394D02*
D03*
Y70276D02*
D03*
X198819Y75394D02*
D03*
Y70276D02*
D03*
X116142Y80118D02*
D03*
Y85236D02*
D03*
X210630Y26969D02*
D03*
Y32087D02*
D03*
X137795Y36024D02*
D03*
Y30906D02*
D03*
X143701Y36024D02*
D03*
Y30906D02*
D03*
X183071Y86024D02*
D03*
Y91142D02*
D03*
X116142Y97047D02*
D03*
Y91929D02*
D03*
D19*
X162205Y8661D02*
D03*
D20*
X158563Y4823D02*
D03*
D21*
X154921Y20374D02*
D03*
X150591D02*
D03*
X146260D02*
D03*
X141929D02*
D03*
X137598D02*
D03*
X133268D02*
D03*
X128937D02*
D03*
X124606D02*
D03*
D22*
X120079Y10610D02*
D03*
D23*
X161319Y13583D02*
D03*
D24*
X212303Y7874D02*
D03*
X189272D02*
D03*
D25*
X204134D02*
D03*
X197441D02*
D03*
D26*
X195669Y18307D02*
D03*
X198228D02*
D03*
X200787D02*
D03*
X203346D02*
D03*
X205906D02*
D03*
D27*
X191093Y16929D02*
D03*
X210482D02*
D03*
D28*
X194882Y29083D02*
D03*
X196850D02*
D03*
X200787D02*
D03*
X202756D02*
D03*
Y26035D02*
D03*
X200787D02*
D03*
X196850D02*
D03*
X194882D02*
D03*
D29*
X198819Y25984D02*
D03*
Y29083D02*
D03*
D30*
X187598Y49213D02*
D03*
X182480D02*
D03*
X150984Y55118D02*
D03*
X156102D02*
D03*
X175787Y49213D02*
D03*
X170669D02*
D03*
X133268Y55118D02*
D03*
X138386D02*
D03*
X158071Y122047D02*
D03*
X152953D02*
D03*
X144291Y122047D02*
D03*
X139173D02*
D03*
X225787Y66929D02*
D03*
X230906D02*
D03*
X237598D02*
D03*
X242717D02*
D03*
X113583Y68898D02*
D03*
X118701D02*
D03*
X113583Y59055D02*
D03*
X118701D02*
D03*
D31*
X234252Y100000D02*
D03*
D32*
Y77165D02*
D03*
X225197D02*
D03*
X243307D02*
D03*
M02*
