G04*
G04 #@! TF.GenerationSoftware,Altium Limited,CircuitStudio,1.5.1 (13)*
G04*
G04 Layer_Color=7318015*
%FSLAX25Y25*%
%MOIN*%
G70*
G01*
G75*
%ADD10R,0.03543X0.02756*%
%ADD11R,0.03150X0.01969*%
%ADD12R,0.02756X0.03543*%
%ADD14R,0.20000X0.06850*%
%ADD15R,0.01181X0.05906*%
%ADD16R,0.05906X0.01181*%
%ADD17R,0.03937X0.02362*%
%ADD18R,0.03740X0.03347*%
%ADD19R,0.02362X0.04921*%
%ADD20R,0.04724X0.14921*%
%ADD21R,0.05709X0.05512*%
%ADD22R,0.00984X0.02461*%
%ADD23R,0.01772X0.02461*%
%ADD24R,0.03150X0.03543*%
%ADD25R,0.09350X0.07480*%
%ADD26R,0.04626X0.07480*%
%ADD27R,0.01772X0.05433*%
%ADD28R,0.05807X0.08268*%
%ADD29R,0.05906X0.13386*%
%ADD30R,0.03937X0.13780*%
%ADD31R,0.01772X0.01181*%
%ADD32R,0.02756X0.06693*%
%ADD33R,0.03150X0.05118*%
%ADD34R,0.03543X0.02362*%
%ADD35R,0.08661X0.03740*%
%ADD36R,0.06201X0.01181*%
%ADD37R,0.01378X0.01181*%
%ADD38R,0.04724X0.04724*%
%ADD39R,0.02362X0.00945*%
%ADD40R,0.06496X0.09449*%
%ADD41R,0.00984X0.01969*%
%ADD42R,0.02362X0.01181*%
D10*
X198819Y69291D02*
D03*
Y74410D02*
D03*
X324803Y78347D02*
D03*
Y73228D02*
D03*
X131890Y80118D02*
D03*
Y85236D02*
D03*
X226378Y26969D02*
D03*
Y32087D02*
D03*
X198819Y84055D02*
D03*
Y89173D02*
D03*
X131890Y97047D02*
D03*
Y91929D02*
D03*
X198819Y56496D02*
D03*
Y61614D02*
D03*
X232283Y32087D02*
D03*
Y26969D02*
D03*
X271654Y44685D02*
D03*
Y49803D02*
D03*
X295276Y44685D02*
D03*
Y49803D02*
D03*
X303150D02*
D03*
Y44685D02*
D03*
X106299Y91929D02*
D03*
Y97047D02*
D03*
X116142Y91929D02*
D03*
Y97047D02*
D03*
X96457Y91929D02*
D03*
Y97047D02*
D03*
X106299Y103740D02*
D03*
Y108858D02*
D03*
X116142Y103740D02*
D03*
Y108858D02*
D03*
X96457Y103740D02*
D03*
Y108858D02*
D03*
X261811Y116732D02*
D03*
Y111614D02*
D03*
X222441Y91929D02*
D03*
Y97047D02*
D03*
X230315D02*
D03*
Y91929D02*
D03*
Y85236D02*
D03*
Y80118D02*
D03*
X159449Y36024D02*
D03*
Y30906D02*
D03*
X153543Y36024D02*
D03*
Y30906D02*
D03*
X147638D02*
D03*
Y36024D02*
D03*
X165354Y30906D02*
D03*
Y36024D02*
D03*
X171260Y30906D02*
D03*
Y36024D02*
D03*
X141732Y30906D02*
D03*
Y36024D02*
D03*
X177165Y30906D02*
D03*
Y36024D02*
D03*
X183071Y30906D02*
D03*
Y36024D02*
D03*
X274606Y116732D02*
D03*
Y111614D02*
D03*
D11*
X247638Y99803D02*
D03*
Y96260D02*
D03*
Y92716D02*
D03*
Y89173D02*
D03*
X252362D02*
D03*
Y92716D02*
D03*
Y96260D02*
D03*
Y99803D02*
D03*
D12*
X310433Y92520D02*
D03*
X315551D02*
D03*
X223031Y118110D02*
D03*
X217913D02*
D03*
X223031Y110236D02*
D03*
X217913D02*
D03*
X318307Y124016D02*
D03*
X323425D02*
D03*
X166732Y55118D02*
D03*
X171850D02*
D03*
X149016Y55118D02*
D03*
X154134D02*
D03*
X173819Y122047D02*
D03*
X168701D02*
D03*
X160039Y122047D02*
D03*
X154921D02*
D03*
X108661Y68898D02*
D03*
X113779D02*
D03*
X108661Y58071D02*
D03*
X113779D02*
D03*
X252559Y82677D02*
D03*
X247441D02*
D03*
X134449Y65945D02*
D03*
X129331D02*
D03*
Y55118D02*
D03*
X134449D02*
D03*
D14*
X297244Y131220D02*
D03*
Y144370D02*
D03*
D15*
X150591Y111024D02*
D03*
X152559D02*
D03*
X154528D02*
D03*
X156496D02*
D03*
X158465D02*
D03*
X160433D02*
D03*
X162402D02*
D03*
X164370D02*
D03*
X166339D02*
D03*
X168307D02*
D03*
X170276D02*
D03*
X172244D02*
D03*
X174213D02*
D03*
X176181D02*
D03*
X178150D02*
D03*
X180118D02*
D03*
X150591Y66142D02*
D03*
X152559D02*
D03*
X154528D02*
D03*
X156496D02*
D03*
X158465D02*
D03*
X160433D02*
D03*
X162402D02*
D03*
X164370D02*
D03*
X166339D02*
D03*
X168307D02*
D03*
X170276D02*
D03*
X172244D02*
D03*
X174213D02*
D03*
X176181D02*
D03*
X178150D02*
D03*
X180118D02*
D03*
D16*
X187795Y103346D02*
D03*
Y101378D02*
D03*
Y99409D02*
D03*
Y97441D02*
D03*
Y95472D02*
D03*
Y93504D02*
D03*
Y91535D02*
D03*
Y89567D02*
D03*
Y87598D02*
D03*
Y85630D02*
D03*
Y83661D02*
D03*
Y81693D02*
D03*
Y79724D02*
D03*
Y77756D02*
D03*
Y75787D02*
D03*
Y73819D02*
D03*
X142913D02*
D03*
Y75787D02*
D03*
Y77756D02*
D03*
Y79724D02*
D03*
Y81693D02*
D03*
Y83661D02*
D03*
Y85630D02*
D03*
Y87598D02*
D03*
Y89567D02*
D03*
Y91535D02*
D03*
Y93504D02*
D03*
Y95472D02*
D03*
Y97441D02*
D03*
Y99409D02*
D03*
Y101378D02*
D03*
Y103346D02*
D03*
D17*
X177953Y8661D02*
D03*
D18*
X174311Y4823D02*
D03*
D19*
X170669Y20374D02*
D03*
X166339D02*
D03*
X162008D02*
D03*
X157677D02*
D03*
X153347D02*
D03*
X149016D02*
D03*
X144685D02*
D03*
X140354D02*
D03*
D20*
X135827Y10610D02*
D03*
D21*
X177067Y13583D02*
D03*
D22*
X210630Y29083D02*
D03*
X212598D02*
D03*
X216535D02*
D03*
X218504D02*
D03*
Y26035D02*
D03*
X216535D02*
D03*
X212598D02*
D03*
X210630D02*
D03*
D23*
X214567Y25984D02*
D03*
Y29083D02*
D03*
D24*
X191339Y56102D02*
D03*
Y62008D02*
D03*
X186614D02*
D03*
Y56102D02*
D03*
D25*
X228051Y7874D02*
D03*
X205020D02*
D03*
D26*
X219882D02*
D03*
X213189D02*
D03*
D27*
X211417Y18307D02*
D03*
X213976D02*
D03*
X216535D02*
D03*
X219094D02*
D03*
X221654D02*
D03*
D28*
X206840Y16929D02*
D03*
X226230D02*
D03*
D29*
X270276Y9055D02*
D03*
X296654D02*
D03*
D30*
X279528Y30906D02*
D03*
X287402D02*
D03*
D31*
X279823Y49213D02*
D03*
Y47244D02*
D03*
Y45276D02*
D03*
X287106D02*
D03*
Y47244D02*
D03*
Y49213D02*
D03*
D32*
X283465Y47244D02*
D03*
D33*
X317717Y151575D02*
D03*
X324016D02*
D03*
D34*
X253150Y117913D02*
D03*
Y110433D02*
D03*
X242913Y117913D02*
D03*
Y114173D02*
D03*
Y110433D02*
D03*
D35*
X312992Y105610D02*
D03*
Y79429D02*
D03*
X131890Y32185D02*
D03*
D36*
X314216Y101772D02*
D03*
X311768Y83268D02*
D03*
X130665Y36024D02*
D03*
D37*
X309350Y101772D02*
D03*
X316634Y83268D02*
D03*
X135531Y36024D02*
D03*
D38*
X324803Y98032D02*
D03*
Y87008D02*
D03*
D39*
X315354Y141732D02*
D03*
Y139764D02*
D03*
Y137795D02*
D03*
Y135827D02*
D03*
Y133858D02*
D03*
X326378D02*
D03*
Y135827D02*
D03*
Y137795D02*
D03*
Y139764D02*
D03*
Y141732D02*
D03*
D40*
X320866Y137795D02*
D03*
D41*
X319882Y143504D02*
D03*
X321850D02*
D03*
X319882Y132087D02*
D03*
X321850D02*
D03*
D42*
X290945Y116142D02*
D03*
Y112205D02*
D03*
Y114173D02*
D03*
X285827Y116142D02*
D03*
Y114173D02*
D03*
Y112205D02*
D03*
M02*
