G04*
G04 #@! TF.GenerationSoftware,Altium Limited,CircuitStudio,1.5.1 (13)*
G04*
G04 Layer_Physical_Order=1*
G04 Layer_Color=11767835*
%FSLAX25Y25*%
%MOIN*%
G70*
G01*
G75*
%ADD10R,0.03150X0.01969*%
%ADD11R,0.03543X0.02756*%
%ADD12R,0.02756X0.03543*%
%ADD13C,0.05906*%
%ADD14R,0.20000X0.06850*%
%ADD15R,0.00984X0.01969*%
%ADD16R,0.06496X0.09449*%
%ADD17R,0.02362X0.00945*%
%ADD18R,0.01181X0.05906*%
%ADD19R,0.05906X0.01181*%
%ADD20R,0.03937X0.02362*%
%ADD21R,0.03740X0.03347*%
%ADD22R,0.02362X0.04921*%
%ADD23R,0.04724X0.14921*%
%ADD24R,0.05709X0.05512*%
%ADD25R,0.00984X0.02461*%
%ADD26R,0.01772X0.02461*%
%ADD27R,0.03150X0.03543*%
%ADD28R,0.01221X0.00827*%
%ADD29R,0.09350X0.07480*%
%ADD30R,0.04626X0.07480*%
%ADD31R,0.01772X0.05433*%
%ADD32R,0.05807X0.08268*%
%ADD33R,0.05906X0.13386*%
%ADD34R,0.03937X0.13780*%
%ADD35R,0.01772X0.01181*%
%ADD36R,0.02756X0.06693*%
%ADD37R,0.02362X0.01181*%
%ADD38R,0.03150X0.05118*%
%ADD39R,0.03543X0.02362*%
%ADD40R,0.08661X0.03740*%
%ADD41R,0.06201X0.01181*%
%ADD42R,0.01378X0.01181*%
%ADD43R,0.04724X0.04724*%
%ADD44C,0.00591*%
%ADD45C,0.00787*%
%ADD46C,0.02756*%
%ADD47C,0.01181*%
%ADD48C,0.03937*%
%ADD49C,0.01969*%
%ADD50C,0.01575*%
%ADD51R,0.02362X0.07874*%
%ADD52C,0.07400*%
%ADD53C,0.12205*%
%ADD54C,0.07874*%
%ADD55C,0.12795*%
%ADD56C,0.01969*%
G36*
X229921Y27468D02*
X232283D01*
Y26969D01*
X232783D01*
Y25000D01*
X233898D01*
X234252Y24646D01*
X234252Y903D01*
X198819D01*
X198819Y18347D01*
X199172Y18701D01*
X202993D01*
X203346Y18347D01*
Y17429D01*
X206840D01*
Y16429D01*
X203346D01*
Y12705D01*
X203346Y12205D01*
X202847Y12205D01*
X202847D01*
X199754D01*
Y8374D01*
X205020D01*
Y7874D01*
X205520D01*
Y3543D01*
X209785D01*
X210285Y3543D01*
X210285D01*
X210785Y3543D01*
X212689D01*
Y7874D01*
Y12205D01*
X210835D01*
X210785D01*
X210719D01*
X210335Y12205D01*
Y12289D01*
Y12426D01*
X210335Y12684D01*
Y12705D01*
Y15000D01*
X222383D01*
X222736Y14646D01*
Y12705D01*
Y12684D01*
X222736Y12426D01*
Y12289D01*
Y12205D01*
X222352Y12205D01*
X222285D01*
X222236D01*
X222236D01*
X220382D01*
Y7874D01*
Y3543D01*
X222285D01*
X222785Y3543D01*
X222785D01*
X223285Y3543D01*
X227551D01*
Y7874D01*
X228051D01*
Y8374D01*
X233317D01*
Y12205D01*
X230224D01*
X229724Y12205D01*
X229724Y12705D01*
Y16429D01*
X226230D01*
Y16929D01*
X225730D01*
Y21654D01*
X223059D01*
Y23315D01*
X223137Y23432D01*
X223259Y24047D01*
X223137Y24661D01*
X223059Y24779D01*
Y25843D01*
X223137Y25960D01*
X223259Y26575D01*
X223163Y27059D01*
X223380Y27442D01*
X223491Y27559D01*
X224016D01*
Y27468D01*
X226378D01*
X228740D01*
Y27559D01*
X229921D01*
Y27468D01*
D02*
G37*
G36*
X318898Y81339D02*
X318898Y64961D01*
X307440D01*
X307087Y65314D01*
X307087Y81693D01*
X308071D01*
Y79929D01*
X312992D01*
X317913D01*
Y81693D01*
X318544D01*
X318898Y81339D01*
D02*
G37*
G36*
X329724Y138779D02*
X329724Y93858D01*
X329371Y93504D01*
X319882Y93504D01*
Y103347D01*
X317913D01*
Y105110D01*
X312992D01*
X308071D01*
Y103347D01*
X307087D01*
Y127205D01*
X307835D01*
Y129537D01*
X308230Y129801D01*
X312837Y134408D01*
X313454Y134431D01*
X313531Y134358D01*
X315354D01*
Y133858D01*
X315854D01*
Y132795D01*
X317028D01*
Y132480D01*
X318799D01*
Y130512D01*
X319934D01*
X320201Y130012D01*
X319996Y129705D01*
X319843Y128937D01*
X319996Y128169D01*
X320431Y127518D01*
X321418Y126531D01*
Y124016D01*
X321457Y123822D01*
Y121653D01*
X325394D01*
Y123822D01*
X325432Y124016D01*
Y127362D01*
X325279Y128130D01*
X324844Y128781D01*
X323270Y130356D01*
X322933Y130581D01*
Y132480D01*
X324705D01*
Y132795D01*
X325878D01*
Y133858D01*
X326378D01*
Y134358D01*
X328150D01*
Y134764D01*
Y135327D01*
X326378D01*
Y136327D01*
X328150D01*
Y136732D01*
Y137295D01*
X326378D01*
Y138295D01*
X328164D01*
X328617Y138779D01*
X329724D01*
D02*
G37*
G36*
X318898Y102009D02*
X318898Y84171D01*
X317913D01*
Y84449D01*
X312268D01*
Y83268D01*
X311768D01*
Y82768D01*
X307814D01*
X307723Y82677D01*
X307087D01*
X307087Y100515D01*
X307440Y100868D01*
X308071D01*
Y100591D01*
X308447D01*
Y93898D01*
X308465Y93810D01*
Y90158D01*
X312402D01*
Y94882D01*
X310254D01*
Y100591D01*
X313717D01*
Y101772D01*
X314217D01*
Y102272D01*
X317908D01*
Y102362D01*
X318544D01*
X318898Y102009D01*
D02*
G37*
G36*
X213229Y37402D02*
X213583Y37048D01*
X213583Y32929D01*
X213432Y32828D01*
X213084Y32307D01*
X212961Y31693D01*
X213019Y31403D01*
X212645Y30904D01*
X209547D01*
Y27262D01*
Y24215D01*
X212098D01*
Y26035D01*
X213090D01*
Y24215D01*
X213091D01*
Y24163D01*
X213229D01*
X213583Y23810D01*
Y22537D01*
X213338Y22292D01*
X213142Y21999D01*
X213073Y21654D01*
Y21614D01*
X211917D01*
Y18307D01*
X210917D01*
Y21614D01*
X210335D01*
Y21654D01*
X203346D01*
Y20039D01*
X202993Y19685D01*
X199172D01*
X198819Y20039D01*
X198819Y37402D01*
X213229Y37402D01*
D02*
G37*
G36*
X180709Y28937D02*
X182168D01*
Y11595D01*
X181012Y10439D01*
X180512Y10646D01*
Y13083D01*
X173622D01*
Y10236D01*
X175394D01*
Y7087D01*
X174811D01*
Y5323D01*
X176772D01*
Y6890D01*
X180512D01*
Y7758D01*
X180512D01*
X180857Y7827D01*
X181150Y8023D01*
X183710Y10582D01*
X183905Y10875D01*
X183974Y11220D01*
Y28937D01*
X185039D01*
Y903D01*
X127953D01*
Y29724D01*
X136811D01*
Y30678D01*
X137795D01*
X138410Y30800D01*
X138870Y31108D01*
X139129Y31038D01*
X139370Y30906D01*
Y28937D01*
X140829D01*
Y25374D01*
X139716Y24261D01*
X139520Y23968D01*
X139451Y23622D01*
Y23425D01*
X138583D01*
Y18661D01*
X136327D01*
Y11110D01*
X138779D01*
Y17323D01*
X142126D01*
Y23425D01*
X142088D01*
X141897Y23887D01*
X142371Y24361D01*
X142371Y24361D01*
X142567Y24654D01*
X142578Y24712D01*
X142635Y25000D01*
X142635Y25000D01*
Y28937D01*
X144095D01*
Y31496D01*
X145276D01*
Y28937D01*
X146735D01*
Y27146D01*
X144046Y24457D01*
X143851Y24164D01*
X143782Y23819D01*
Y23425D01*
X142913D01*
Y17323D01*
X146457D01*
Y23425D01*
X146276D01*
X146069Y23925D01*
X148276Y26133D01*
X148472Y26426D01*
X148541Y26772D01*
Y28937D01*
X150000D01*
Y31496D01*
X151181D01*
Y31405D01*
X153543D01*
X155905D01*
Y31496D01*
X157087D01*
Y31405D01*
X159449D01*
X161811D01*
Y31496D01*
X162992D01*
Y28937D01*
X164451D01*
Y27343D01*
X161369Y24261D01*
X161173Y23968D01*
X161105Y23622D01*
Y23425D01*
X160236D01*
Y17323D01*
X162066D01*
X162316Y16823D01*
X162187Y16651D01*
X155305D01*
X155143Y16848D01*
X155118Y17323D01*
X155118D01*
X155118Y17323D01*
Y23425D01*
X151575D01*
Y17323D01*
X152443D01*
X152512Y16977D01*
X152708Y16684D01*
X154283Y15109D01*
X154576Y14914D01*
X154921Y14845D01*
X154921Y14845D01*
X162795D01*
X163141Y14914D01*
X163434Y15109D01*
X164812Y16487D01*
X165008Y16780D01*
X165076Y17126D01*
Y17323D01*
X168110D01*
Y23425D01*
X168072D01*
X167881Y23887D01*
X171898Y27905D01*
X172094Y28198D01*
X172163Y28543D01*
Y28937D01*
X173622D01*
Y31496D01*
X174803D01*
Y28937D01*
X175575D01*
X175782Y28437D01*
X172657Y25313D01*
X171457D01*
X171111Y25244D01*
X170818Y25048D01*
X170031Y24261D01*
X169835Y23968D01*
X169766Y23622D01*
Y23425D01*
X168898D01*
Y17323D01*
X172441D01*
Y23425D01*
X172907Y23506D01*
X173031D01*
X173377Y23575D01*
X173670Y23771D01*
X177804Y27905D01*
X178000Y28198D01*
X178068Y28543D01*
Y28937D01*
X179528D01*
Y31496D01*
X180709D01*
Y28937D01*
D02*
G37*
G36*
X329724Y141102D02*
X329371Y140748D01*
X328150D01*
Y141232D01*
X326378D01*
Y141732D01*
X325878D01*
Y142795D01*
X324705D01*
Y143110D01*
X322933D01*
Y145010D01*
X323270Y145234D01*
X325435Y147400D01*
X325870Y148051D01*
X325944Y148425D01*
X326181D01*
Y154724D01*
X321850D01*
Y149492D01*
X320431Y148073D01*
X319996Y147422D01*
X319843Y146653D01*
X319996Y145886D01*
X320201Y145579D01*
X319934Y145079D01*
X318799D01*
Y143110D01*
X317028D01*
Y142795D01*
X315854D01*
Y141732D01*
X315354D01*
Y141232D01*
X313531D01*
X313454Y141159D01*
X312837Y141183D01*
X312008Y142012D01*
X312008Y163032D01*
X312361Y163386D01*
X329724D01*
X329724Y141102D01*
D02*
G37*
G36*
X329724Y91535D02*
X329724Y56456D01*
X329371Y56102D01*
X319882D01*
X319882Y91182D01*
X320235Y91535D01*
X329724Y91535D01*
D02*
G37*
G36*
X307087Y60670D02*
X307087Y21654D01*
X267717D01*
Y28915D01*
X276969D01*
Y23425D01*
X282087D01*
Y30738D01*
X282109Y30906D01*
X282087Y31073D01*
Y38386D01*
X276969D01*
Y34077D01*
X267717D01*
Y41625D01*
X268796Y42705D01*
X269291Y42717D01*
X269291Y42717D01*
X269291Y42717D01*
X274016D01*
Y44071D01*
X279823D01*
X279939Y44094D01*
X280996D01*
X281299Y44094D01*
X281496Y43676D01*
X281496Y43676D01*
Y43307D01*
X282965D01*
Y47244D01*
Y51181D01*
X281496D01*
Y50812D01*
X281299Y50394D01*
X280996Y50394D01*
X280323D01*
Y49213D01*
X279323D01*
Y50394D01*
X278346D01*
Y49311D01*
X277847Y49160D01*
X277710Y49364D01*
X277189Y49712D01*
X276575Y49834D01*
X275960Y49712D01*
X275439Y49364D01*
X275091Y48843D01*
X274969Y48228D01*
X275091Y47614D01*
X275439Y47093D01*
X275609Y46980D01*
X275457Y46480D01*
X274016D01*
Y46654D01*
X269291D01*
X269291Y46654D01*
Y46654D01*
X268791Y46633D01*
X268417Y46920D01*
X267794Y47178D01*
X267717Y47188D01*
Y61024D01*
X306733D01*
X307087Y60670D01*
D02*
G37*
%LPC*%
G36*
X274016Y49303D02*
X272153D01*
Y47835D01*
X274016D01*
Y49303D01*
D02*
G37*
G36*
X228740Y26469D02*
X226878D01*
Y25000D01*
X228740D01*
Y26469D01*
D02*
G37*
G36*
X231783Y26469D02*
X229921D01*
Y25000D01*
X231783D01*
Y26469D01*
D02*
G37*
G36*
X225878Y26469D02*
X224016D01*
Y25000D01*
X225878D01*
Y26469D01*
D02*
G37*
G36*
X271153Y51772D02*
X269291D01*
Y50303D01*
X271153D01*
Y51772D01*
D02*
G37*
G36*
X289961Y30406D02*
X287902D01*
Y23425D01*
X289961D01*
Y30406D01*
D02*
G37*
G36*
X305512Y49303D02*
X303650D01*
Y47835D01*
X305512D01*
Y49303D01*
D02*
G37*
G36*
X271153Y49303D02*
X269291D01*
Y47835D01*
X271153D01*
Y49303D01*
D02*
G37*
G36*
X289961Y38386D02*
X287902D01*
Y31405D01*
X289961D01*
Y38386D01*
D02*
G37*
G36*
X155905Y30406D02*
X154043D01*
Y28937D01*
X155905D01*
Y30406D01*
D02*
G37*
G36*
X286902Y38386D02*
X284842D01*
Y31405D01*
X286902D01*
Y38386D01*
D02*
G37*
G36*
X153043Y30406D02*
X151181D01*
Y28937D01*
X153043D01*
Y30406D01*
D02*
G37*
G36*
X285433Y51181D02*
X283965D01*
Y47244D01*
Y43307D01*
X285433D01*
Y43676D01*
X285630Y44094D01*
X285933Y44094D01*
X286990D01*
X287106Y44071D01*
X292913D01*
Y42717D01*
X293268D01*
Y27559D01*
X293421Y26791D01*
X293856Y26140D01*
X294508Y25705D01*
X295276Y25552D01*
X296044Y25705D01*
X296695Y26140D01*
X297130Y26791D01*
X297283Y27559D01*
Y42717D01*
X297638D01*
Y46341D01*
X300216D01*
X300787Y45770D01*
Y42717D01*
X305512D01*
Y46654D01*
X302458D01*
X301739Y47373D01*
X301931Y47835D01*
X302650D01*
Y49303D01*
X300787D01*
Y48309D01*
X300590Y48147D01*
X297638D01*
Y49303D01*
X295276D01*
X292913D01*
Y48147D01*
X291713D01*
X290009Y49851D01*
X289716Y50047D01*
X289370Y50116D01*
X288583D01*
Y50394D01*
X285933D01*
X285630Y50394D01*
X285433Y50812D01*
X285433Y50812D01*
Y51181D01*
D02*
G37*
G36*
X158949Y30406D02*
X157087D01*
Y28937D01*
X158949D01*
Y30406D01*
D02*
G37*
G36*
X161811D02*
X159949D01*
Y28937D01*
X161811D01*
Y30406D01*
D02*
G37*
G36*
X286902Y30406D02*
X284842D01*
Y23425D01*
X286902D01*
Y30406D01*
D02*
G37*
G36*
X216092Y7374D02*
X213689D01*
Y3543D01*
X216092D01*
Y7374D01*
D02*
G37*
G36*
X219382D02*
X216978D01*
Y3543D01*
X219382D01*
Y7374D01*
D02*
G37*
G36*
X233317Y7374D02*
X228551D01*
Y3543D01*
X233317D01*
Y7374D01*
D02*
G37*
G36*
X219382Y12205D02*
X216978D01*
Y8374D01*
X219382D01*
Y12205D01*
D02*
G37*
G36*
X173811Y7087D02*
X171850D01*
Y5323D01*
X173811D01*
Y7087D01*
D02*
G37*
G36*
X176772Y4323D02*
X174811D01*
Y2559D01*
X176772D01*
Y4323D01*
D02*
G37*
G36*
X173811D02*
X171850D01*
Y2559D01*
X173811D01*
Y4323D01*
D02*
G37*
G36*
X135327Y10110D02*
X132874D01*
Y2559D01*
X135327D01*
Y10110D01*
D02*
G37*
G36*
X204520Y7374D02*
X199754D01*
Y3543D01*
X204520D01*
Y7374D01*
D02*
G37*
G36*
X138779Y10110D02*
X136327D01*
Y2559D01*
X138779D01*
Y10110D01*
D02*
G37*
G36*
X157677Y25818D02*
X157063Y25696D01*
X156542Y25348D01*
X156194Y24827D01*
X156071Y24213D01*
X156129Y23925D01*
X155905Y23425D01*
X155905D01*
X155905Y23425D01*
Y17323D01*
X159449D01*
Y23425D01*
X159449Y23425D01*
X159449D01*
X159226Y23925D01*
X159283Y24213D01*
X159161Y24827D01*
X158812Y25348D01*
X158292Y25696D01*
X157677Y25818D01*
D02*
G37*
G36*
X150787Y19874D02*
X149516D01*
Y17323D01*
X150787D01*
Y19874D01*
D02*
G37*
G36*
X229724Y21654D02*
X226730D01*
Y17429D01*
X229724D01*
Y21654D01*
D02*
G37*
G36*
X150787Y23425D02*
X149516D01*
Y20874D01*
X150787D01*
Y23425D01*
D02*
G37*
G36*
X148516D02*
X147244D01*
Y20874D01*
X148516D01*
Y23425D01*
D02*
G37*
G36*
X135327Y18661D02*
X132874D01*
Y11110D01*
X135327D01*
Y18661D01*
D02*
G37*
G36*
X216092Y12205D02*
X213689D01*
Y8374D01*
X216092D01*
Y12205D01*
D02*
G37*
G36*
X176567Y16929D02*
X173622D01*
Y14083D01*
X176567D01*
Y16929D01*
D02*
G37*
G36*
X148516Y19874D02*
X147244D01*
Y17323D01*
X148516D01*
Y19874D01*
D02*
G37*
G36*
X180512Y16929D02*
X177567D01*
Y14083D01*
X180512D01*
Y16929D01*
D02*
G37*
G36*
X312492Y108071D02*
X308071D01*
Y106110D01*
X312492D01*
Y108071D01*
D02*
G37*
G36*
X317908Y101272D02*
X314717D01*
Y100591D01*
X317908D01*
Y101272D01*
D02*
G37*
G36*
X317913Y108071D02*
X313492D01*
Y106110D01*
X317913D01*
Y108071D01*
D02*
G37*
G36*
X320276Y123516D02*
X318807D01*
Y121653D01*
X320276D01*
Y123516D01*
D02*
G37*
G36*
X317807D02*
X316339D01*
Y121653D01*
X317807D01*
Y123516D01*
D02*
G37*
G36*
X324303Y97531D02*
X321850D01*
Y95079D01*
X324303D01*
Y97531D01*
D02*
G37*
G36*
X317520Y94882D02*
X316051D01*
Y93020D01*
X317520D01*
Y94882D01*
D02*
G37*
G36*
X327756Y97531D02*
X325303D01*
Y95079D01*
X327756D01*
Y97531D01*
D02*
G37*
G36*
Y100984D02*
X325303D01*
Y98532D01*
X327756D01*
Y100984D01*
D02*
G37*
G36*
X324303D02*
X321850D01*
Y98532D01*
X324303D01*
Y100984D01*
D02*
G37*
G36*
X317216Y151075D02*
X315551D01*
Y148425D01*
X317216D01*
Y151075D01*
D02*
G37*
G36*
X328150Y142795D02*
X326878D01*
Y142232D01*
X328150D01*
Y142795D01*
D02*
G37*
G36*
X319882Y151075D02*
X318216D01*
Y148425D01*
X319882D01*
Y151075D01*
D02*
G37*
G36*
Y154724D02*
X318216D01*
Y152075D01*
X319882D01*
Y154724D01*
D02*
G37*
G36*
X317216D02*
X315551D01*
Y152075D01*
X317216D01*
Y154724D01*
D02*
G37*
G36*
X320276Y126378D02*
X318807D01*
Y124516D01*
X320276D01*
Y126378D01*
D02*
G37*
G36*
X317807D02*
X316339D01*
Y124516D01*
X317807D01*
Y126378D01*
D02*
G37*
G36*
X314854Y133358D02*
X313583D01*
Y132795D01*
X314854D01*
Y133358D01*
D02*
G37*
G36*
Y142795D02*
X313583D01*
Y142232D01*
X314854D01*
Y142795D01*
D02*
G37*
G36*
X328150Y133358D02*
X326878D01*
Y132795D01*
X328150D01*
Y133358D01*
D02*
G37*
G36*
X324303Y77846D02*
X322441D01*
Y76378D01*
X324303D01*
Y77846D01*
D02*
G37*
G36*
X327165Y75197D02*
X322441D01*
Y71260D01*
X322880D01*
X323255Y70760D01*
X323198Y70472D01*
X323320Y69858D01*
X323668Y69337D01*
X324189Y68989D01*
X324803Y68867D01*
X325418Y68989D01*
X325939Y69337D01*
X326287Y69858D01*
X326409Y70472D01*
X326352Y70760D01*
X326727Y71260D01*
X327165D01*
Y75197D01*
D02*
G37*
G36*
Y77846D02*
X325303D01*
Y76378D01*
X327165D01*
Y77846D01*
D02*
G37*
G36*
X317913Y78929D02*
X313492D01*
Y76968D01*
X317913D01*
Y78929D01*
D02*
G37*
G36*
X312492D02*
X308071D01*
Y76968D01*
X312492D01*
Y78929D01*
D02*
G37*
G36*
X302650Y51772D02*
X300787D01*
Y50303D01*
X302650D01*
Y51772D01*
D02*
G37*
G36*
X274016D02*
X272153D01*
Y50303D01*
X274016D01*
Y51772D01*
D02*
G37*
G36*
X305512D02*
X303650D01*
Y50303D01*
X305512D01*
Y51772D01*
D02*
G37*
G36*
X297638D02*
X295776D01*
Y50303D01*
X297638D01*
Y51772D01*
D02*
G37*
G36*
X294776D02*
X292913D01*
Y50303D01*
X294776D01*
Y51772D01*
D02*
G37*
G36*
X327756Y89961D02*
X325303D01*
Y87508D01*
X327756D01*
Y89961D01*
D02*
G37*
G36*
X324303D02*
X321850D01*
Y87508D01*
X324303D01*
Y89961D01*
D02*
G37*
G36*
X315051Y92020D02*
X313583D01*
Y90158D01*
X315051D01*
Y92020D01*
D02*
G37*
G36*
Y94882D02*
X313583D01*
Y93020D01*
X315051D01*
Y94882D01*
D02*
G37*
G36*
X317520Y92020D02*
X316051D01*
Y90158D01*
X317520D01*
Y92020D01*
D02*
G37*
G36*
X327165Y80315D02*
X325303D01*
Y78847D01*
X327165D01*
Y80315D01*
D02*
G37*
G36*
X324303D02*
X322441D01*
Y78847D01*
X324303D01*
Y80315D01*
D02*
G37*
G36*
X311268Y84449D02*
X308077D01*
Y83768D01*
X311268D01*
Y84449D01*
D02*
G37*
G36*
X327756Y86508D02*
X325303D01*
Y84055D01*
X327756D01*
Y86508D01*
D02*
G37*
G36*
X324303D02*
X321850D01*
Y84055D01*
X324303D01*
Y86508D01*
D02*
G37*
%LPD*%
D10*
X247638Y99803D02*
D03*
Y96260D02*
D03*
Y92716D02*
D03*
Y89173D02*
D03*
X252362D02*
D03*
Y92716D02*
D03*
Y96260D02*
D03*
Y99803D02*
D03*
D11*
X324803Y78347D02*
D03*
Y73228D02*
D03*
X131890Y80118D02*
D03*
Y85236D02*
D03*
X226378Y26969D02*
D03*
Y32087D02*
D03*
X198819Y84055D02*
D03*
Y89173D02*
D03*
X131890Y97047D02*
D03*
Y91929D02*
D03*
X200787Y56496D02*
D03*
Y61614D02*
D03*
X232283Y32087D02*
D03*
Y26969D02*
D03*
X271654Y44685D02*
D03*
Y49803D02*
D03*
X295276Y44685D02*
D03*
Y49803D02*
D03*
X303150D02*
D03*
Y44685D02*
D03*
X106299Y91929D02*
D03*
Y97047D02*
D03*
X116142Y91929D02*
D03*
Y97047D02*
D03*
X96457Y91929D02*
D03*
Y97047D02*
D03*
X106299Y103740D02*
D03*
Y108858D02*
D03*
X116142Y103740D02*
D03*
Y108858D02*
D03*
X96457Y103740D02*
D03*
Y108858D02*
D03*
X261811Y116732D02*
D03*
Y111614D02*
D03*
X222441Y91929D02*
D03*
Y97047D02*
D03*
X230315D02*
D03*
Y91929D02*
D03*
Y85236D02*
D03*
Y80118D02*
D03*
X159449Y36024D02*
D03*
Y30906D02*
D03*
X153543Y36024D02*
D03*
Y30906D02*
D03*
X147638D02*
D03*
Y36024D02*
D03*
X165354Y30906D02*
D03*
Y36024D02*
D03*
X171260Y30906D02*
D03*
Y36024D02*
D03*
X141732Y30906D02*
D03*
Y36024D02*
D03*
X177165Y30906D02*
D03*
Y36024D02*
D03*
X183071Y30906D02*
D03*
Y36024D02*
D03*
D12*
X310433Y92520D02*
D03*
X315551D02*
D03*
X223031Y118110D02*
D03*
X217913D02*
D03*
X223031Y110236D02*
D03*
X217913D02*
D03*
X318307Y124016D02*
D03*
X323425D02*
D03*
X166732Y55118D02*
D03*
X171850D02*
D03*
X149016Y55118D02*
D03*
X154134D02*
D03*
X173819Y122047D02*
D03*
X168701D02*
D03*
X160039Y122047D02*
D03*
X154921D02*
D03*
X107677Y68898D02*
D03*
X112795D02*
D03*
X125394D02*
D03*
X130512D02*
D03*
Y53150D02*
D03*
X125394D02*
D03*
X107677Y58071D02*
D03*
X112795D02*
D03*
X252559Y82677D02*
D03*
X247441D02*
D03*
D13*
X210630Y110236D02*
D03*
X194882Y167323D02*
D03*
X210630Y118110D02*
D03*
X145669Y161417D02*
D03*
X149606Y167323D02*
D03*
X153543Y161417D02*
D03*
X157480Y167323D02*
D03*
X161417Y161417D02*
D03*
X165354Y167323D02*
D03*
X169291Y161417D02*
D03*
X173228Y167323D02*
D03*
X177165Y161417D02*
D03*
X181102Y167323D02*
D03*
X185039Y161417D02*
D03*
X133858Y167323D02*
D03*
X114173Y161417D02*
D03*
X110236Y167323D02*
D03*
X129921Y161417D02*
D03*
X122047D02*
D03*
X125984Y167323D02*
D03*
X118110D02*
D03*
X214567Y161417D02*
D03*
X210630Y167323D02*
D03*
X206693Y161417D02*
D03*
X202756Y167323D02*
D03*
X198819Y161417D02*
D03*
X46811Y142421D02*
D03*
X36811Y137421D02*
D03*
X46811Y132421D02*
D03*
X36811Y127421D02*
D03*
X46811Y122421D02*
D03*
X36811Y117421D02*
D03*
D14*
X297244Y131220D02*
D03*
Y144370D02*
D03*
D15*
X321850Y132087D02*
D03*
X319882D02*
D03*
X321850Y143504D02*
D03*
X319882D02*
D03*
D16*
X320866Y137795D02*
D03*
D17*
X326378Y141732D02*
D03*
Y139764D02*
D03*
Y137795D02*
D03*
Y135827D02*
D03*
Y133858D02*
D03*
X315354D02*
D03*
Y135827D02*
D03*
Y137795D02*
D03*
Y139764D02*
D03*
Y141732D02*
D03*
D18*
X150591Y111024D02*
D03*
X152559D02*
D03*
X154528D02*
D03*
X156496D02*
D03*
X158465D02*
D03*
X160433D02*
D03*
X162402D02*
D03*
X164370D02*
D03*
X166339D02*
D03*
X168307D02*
D03*
X170276D02*
D03*
X172244D02*
D03*
X174213D02*
D03*
X176181D02*
D03*
X178150D02*
D03*
X180118D02*
D03*
X150591Y66142D02*
D03*
X152559D02*
D03*
X154528D02*
D03*
X156496D02*
D03*
X158465D02*
D03*
X160433D02*
D03*
X162402D02*
D03*
X164370D02*
D03*
X166339D02*
D03*
X168307D02*
D03*
X170276D02*
D03*
X172244D02*
D03*
X174213D02*
D03*
X176181D02*
D03*
X178150D02*
D03*
X180118D02*
D03*
D19*
X187795Y103346D02*
D03*
Y101378D02*
D03*
Y99409D02*
D03*
Y97441D02*
D03*
Y95472D02*
D03*
Y93504D02*
D03*
Y91535D02*
D03*
Y89567D02*
D03*
Y87598D02*
D03*
Y85630D02*
D03*
Y83661D02*
D03*
Y81693D02*
D03*
Y79724D02*
D03*
Y77756D02*
D03*
Y75787D02*
D03*
Y73819D02*
D03*
X142913D02*
D03*
Y75787D02*
D03*
Y77756D02*
D03*
Y79724D02*
D03*
Y81693D02*
D03*
Y83661D02*
D03*
Y85630D02*
D03*
Y87598D02*
D03*
Y89567D02*
D03*
Y91535D02*
D03*
Y93504D02*
D03*
Y95472D02*
D03*
Y97441D02*
D03*
Y99409D02*
D03*
Y101378D02*
D03*
Y103346D02*
D03*
D20*
X177953Y8661D02*
D03*
D21*
X174311Y4823D02*
D03*
D22*
X170669Y20374D02*
D03*
X166339D02*
D03*
X162008D02*
D03*
X157677D02*
D03*
X153347D02*
D03*
X149016D02*
D03*
X144685D02*
D03*
X140354D02*
D03*
D23*
X135827Y10610D02*
D03*
D24*
X177067Y13583D02*
D03*
D25*
X210630Y29083D02*
D03*
X212598D02*
D03*
X216535D02*
D03*
X218504D02*
D03*
Y26035D02*
D03*
X216535D02*
D03*
X212598D02*
D03*
X210630D02*
D03*
D26*
X214567Y25984D02*
D03*
Y29083D02*
D03*
D27*
X193307Y56102D02*
D03*
Y62008D02*
D03*
X188583D02*
D03*
Y56102D02*
D03*
D28*
X129744Y59744D02*
D03*
Y62303D02*
D03*
X126161D02*
D03*
Y59744D02*
D03*
D29*
X228051Y7874D02*
D03*
X205020D02*
D03*
D30*
X219882D02*
D03*
X213189D02*
D03*
D31*
X211417Y18307D02*
D03*
X213976D02*
D03*
X216535D02*
D03*
X219094D02*
D03*
X221654D02*
D03*
D32*
X206840Y16929D02*
D03*
X226230D02*
D03*
D33*
X270276Y9055D02*
D03*
X296654D02*
D03*
D34*
X279528Y30906D02*
D03*
X287402D02*
D03*
D35*
X279823Y49213D02*
D03*
Y47244D02*
D03*
Y45276D02*
D03*
X287106D02*
D03*
Y47244D02*
D03*
Y49213D02*
D03*
D36*
X283465Y47244D02*
D03*
D37*
X286024Y112795D02*
D03*
Y108858D02*
D03*
Y110827D02*
D03*
X280906Y112795D02*
D03*
Y110827D02*
D03*
Y108858D02*
D03*
D38*
X317717Y151575D02*
D03*
X324016D02*
D03*
D39*
X253150Y117913D02*
D03*
Y110433D02*
D03*
X242913Y117913D02*
D03*
Y114173D02*
D03*
Y110433D02*
D03*
D40*
X312992Y105610D02*
D03*
Y79429D02*
D03*
X131890Y32185D02*
D03*
D41*
X314216Y101772D02*
D03*
X311768Y83268D02*
D03*
X130665Y36024D02*
D03*
D42*
X309350Y101772D02*
D03*
X316634Y83268D02*
D03*
X135531Y36024D02*
D03*
D43*
X324803Y98032D02*
D03*
Y87008D02*
D03*
D44*
X303740Y101772D02*
X309350D01*
Y93898D02*
Y101772D01*
X324803Y70472D02*
Y72047D01*
X324803Y72047D01*
X252362Y99803D02*
Y101575D01*
X250000Y103937D02*
X252362Y101575D01*
X250000Y103937D02*
Y113386D01*
X247638Y99803D02*
Y108268D01*
X245472Y110433D02*
X247638Y108268D01*
X242520Y110433D02*
X245472D01*
Y117913D02*
X250000Y113386D01*
X209842Y106299D02*
X217717D01*
X206693Y106299D02*
Y112205D01*
X191929Y91535D02*
X206693Y106299D01*
X135827Y85433D02*
X137992Y87598D01*
X135827Y81693D02*
Y85433D01*
X137992Y87598D02*
X142913D01*
X135630Y91929D02*
X137992Y89567D01*
X131890Y91929D02*
X135630D01*
X137992Y89567D02*
X142913D01*
X242520Y117913D02*
X245472D01*
X259252Y116732D02*
X261811D01*
X257874Y118110D02*
X259252Y116732D01*
Y111614D02*
X261811D01*
X257874Y110236D02*
X259252Y111614D01*
X253543Y110433D02*
X253740Y110236D01*
X257874D01*
X257677Y117913D02*
X257874Y118110D01*
X253543Y117913D02*
X257677D01*
X238189Y114173D02*
X242520D01*
X217717Y106299D02*
X234252D01*
X217717D02*
X217913Y106496D01*
Y110236D01*
X218110Y114173D02*
X234252D01*
X208661D02*
X218110D01*
X217913Y114370D02*
X218110Y114173D01*
X217913Y114370D02*
Y118110D01*
X242323D02*
X242520Y117913D01*
X238189Y118110D02*
X242323D01*
X234252Y114173D02*
X238189Y118110D01*
X238386Y110433D02*
X242520D01*
X234252Y106299D02*
X238386Y110433D01*
X206693Y112205D02*
X208661Y114173D01*
X193110Y89567D02*
X209842Y106299D01*
X223031Y110236D02*
X226378D01*
X223031Y118110D02*
X226378D01*
X210630Y110236D02*
X217913D01*
X210630Y118110D02*
X217913D01*
X187795Y91535D02*
X191929D01*
X187795Y89567D02*
X193110D01*
X195473Y84055D02*
X198819D01*
X193898Y85630D02*
X195473Y84055D01*
X187795Y85630D02*
X193898D01*
X195472Y89173D02*
X198819D01*
X193898Y87598D02*
X195472Y89173D01*
X187795Y87598D02*
X193898D01*
X195866Y73819D02*
X212598Y57087D01*
X187795Y73819D02*
X195866D01*
X218504Y29083D02*
Y59055D01*
X195866Y81693D02*
X218504Y59055D01*
X187795Y81693D02*
X195866D01*
X216535Y29083D02*
Y58071D01*
X194882Y79724D02*
X216535Y58071D01*
X187795Y79724D02*
X194882D01*
X170276Y66142D02*
Y70866D01*
X222441Y80709D02*
Y91929D01*
X274606Y107283D02*
X278150Y110827D01*
X280906D01*
X274606Y99410D02*
Y107283D01*
X316634Y83268D02*
X320472D01*
X286024Y108858D02*
X288583D01*
X278346Y112795D02*
X278346Y112795D01*
X280906D01*
X113189Y58071D02*
X118110D01*
X112992Y58268D02*
X113189Y58071D01*
X112795D02*
X112992Y58268D01*
X112795Y68898D02*
X118110D01*
X181102Y75787D02*
X187795D01*
X143701Y55118D02*
X149016D01*
X141732Y53150D02*
X143701Y55118D01*
X130512Y53150D02*
X141732D01*
X56890Y68898D02*
X107677D01*
X72756Y58071D02*
X107677D01*
X130512Y68898D02*
X132480Y70866D01*
X133858D01*
X123425D02*
X125394Y68898D01*
X122047Y70866D02*
X123425D01*
X37205Y49213D02*
X56890Y68898D01*
X61929Y47244D02*
X72756Y58071D01*
X164370Y66142D02*
Y72835D01*
X292323Y73819D02*
X308071D01*
X282874Y108858D02*
X283465Y109449D01*
Y112205D01*
X280906Y108858D02*
X282874D01*
X320866Y137795D02*
X322835Y139764D01*
X326378D01*
X315354Y137795D02*
X320866D01*
X125984Y36024D02*
X130665D01*
X200197Y57087D02*
X200787Y56496D01*
X196850Y57087D02*
X200197D01*
X230315Y59055D02*
X250000D01*
X244094Y83858D02*
Y91339D01*
Y83858D02*
X245276Y82677D01*
X247441D01*
X252362Y89173D02*
X252559Y88976D01*
Y82677D02*
Y88976D01*
X245473Y92716D02*
X247638D01*
X244094Y91339D02*
X245473Y92716D01*
X122441Y53150D02*
X125394D01*
X126161Y59744D02*
Y62303D01*
X125394Y68898D02*
X126161Y68130D01*
Y62303D02*
Y68130D01*
X171850Y55118D02*
Y57677D01*
X168307Y61221D02*
X171850Y57677D01*
X168307Y61221D02*
Y66142D01*
X156496Y60039D02*
Y66142D01*
X154134Y57677D02*
X156496Y60039D01*
X154134Y55118D02*
Y57677D01*
X168307Y66142D02*
Y72835D01*
X181102Y85630D02*
X187795D01*
X170276Y104331D02*
Y111024D01*
X173819Y118307D02*
Y122047D01*
X170276Y114764D02*
X173819Y118307D01*
X170276Y111024D02*
Y114764D01*
X158465Y111024D02*
Y114764D01*
X154921Y118307D02*
X158465Y114764D01*
X154921Y118307D02*
Y122047D01*
X158465Y104331D02*
Y111024D01*
X131890Y85236D02*
Y91929D01*
X142913Y89567D02*
X149606D01*
X188583Y56102D02*
X193307D01*
X194291Y57087D01*
X196850D01*
X300591Y47244D02*
X303150Y44685D01*
X291339Y47244D02*
X300591D01*
X135531Y38484D02*
X135827Y38780D01*
X135531Y36024D02*
Y38484D01*
X214567Y129921D02*
Y151575D01*
X210630Y129921D02*
Y145669D01*
X206693Y129921D02*
X206693Y129921D01*
X202756Y129921D02*
Y145669D01*
X198819Y129921D02*
Y151575D01*
X118110Y129921D02*
Y167323D01*
X114173Y129921D02*
Y161417D01*
X110236Y129921D02*
Y145669D01*
X134252Y80118D02*
X135827Y81693D01*
X131890Y80118D02*
X134252D01*
X137795Y81693D02*
X137795Y81693D01*
X142913D01*
X137795Y77756D02*
X137795Y77756D01*
X142913D01*
X147638Y85630D02*
X147638Y85630D01*
X142913Y85630D02*
X147638D01*
X149606Y93504D02*
X149606Y93504D01*
X142913Y93504D02*
X149606D01*
X147638Y95472D02*
X147638Y95472D01*
X142913Y95472D02*
X147638D01*
X149606Y97441D02*
X149606Y97441D01*
X142913Y97441D02*
X149606D01*
X147638Y103346D02*
X147638Y103347D01*
X142913Y103346D02*
X147638D01*
X129921Y129921D02*
Y161417D01*
X125984Y129921D02*
Y167323D01*
X122047Y129921D02*
Y151575D01*
X183071Y83661D02*
X183071Y83661D01*
X187795D01*
X164370Y111024D02*
Y125197D01*
X161417Y128150D02*
X164370Y125197D01*
X161417Y128150D02*
Y161417D01*
X152362Y124803D02*
X153543Y125984D01*
X152362Y118701D02*
Y124803D01*
X178937Y117323D02*
Y126969D01*
X173228Y130512D02*
X177559Y126181D01*
Y117913D02*
Y126181D01*
X174213Y114567D02*
X177559Y117913D01*
X176181Y114567D02*
X178937Y117323D01*
X176181Y118504D02*
Y125197D01*
X172244Y114567D02*
X176181Y118504D01*
X172244Y111024D02*
Y114567D01*
X174213Y111024D02*
Y114567D01*
X176181Y111024D02*
Y114567D01*
X178150D02*
X181102Y117520D01*
X178150Y111024D02*
Y114567D01*
X180118D02*
X185039Y119488D01*
X180118Y111024D02*
Y114567D01*
X169291Y132087D02*
X176181Y125197D01*
X169291Y132087D02*
Y161417D01*
X166339Y111024D02*
Y125000D01*
X165354Y125984D02*
X166339Y125000D01*
X162402Y111024D02*
Y124803D01*
X157480Y129724D02*
X162402Y124803D01*
X157480Y129724D02*
Y167323D01*
X152362Y118701D02*
X156496Y114567D01*
Y111024D02*
Y114567D01*
X154528Y111024D02*
Y114567D01*
X149606Y119488D02*
X154528Y114567D01*
X160433Y50197D02*
Y66142D01*
X150591Y40354D02*
X160433Y50197D01*
X150591Y33858D02*
Y40354D01*
X166339Y55512D02*
X166732Y55118D01*
X166339Y55512D02*
Y66142D01*
X147638Y30906D02*
X150591Y33858D01*
X214567Y29083D02*
Y31693D01*
Y25984D02*
Y29083D01*
X218504Y26035D02*
Y29083D01*
Y23622D02*
Y26035D01*
X216535D02*
Y29083D01*
Y24213D02*
Y26035D01*
X216535Y21654D02*
X218504Y23622D01*
X216535Y18307D02*
Y21654D01*
X213976D02*
X216535Y24213D01*
X213976Y18307D02*
Y21654D01*
X232283Y32087D02*
Y34843D01*
X226378Y32087D02*
Y34843D01*
X183071Y11220D02*
Y30906D01*
X180512Y8661D02*
X183071Y11220D01*
X177953Y8661D02*
X180512D01*
X162402Y33858D02*
Y66142D01*
X153347Y17323D02*
X154921Y15748D01*
X153347Y17323D02*
Y20374D01*
X162402Y33858D02*
X165354Y30906D01*
X157677Y24213D02*
X157677Y24213D01*
X157677Y20374D02*
Y24213D01*
X183071Y36024D02*
Y38780D01*
X177165Y38780D02*
X177165Y38780D01*
X177165Y36024D02*
Y38780D01*
X171260D02*
X171260Y38780D01*
X171260Y36024D02*
Y38780D01*
X165354D02*
X165354Y38780D01*
X165354Y36024D02*
Y38780D01*
X159449D02*
X159449Y38780D01*
X159449Y36024D02*
Y38780D01*
X153543Y36220D02*
Y38780D01*
X153543Y36220D02*
X153543Y36220D01*
X153543Y36024D02*
Y36220D01*
X147638Y38780D02*
X147638Y38780D01*
X147638Y36024D02*
Y38780D01*
X141732D02*
X141732Y38780D01*
X141732Y36024D02*
Y38780D01*
X173031Y24409D02*
X177165Y28543D01*
X171457Y24409D02*
X173031D01*
X170669Y23622D02*
X171457Y24409D01*
X165354Y26969D02*
Y30906D01*
X162008Y23622D02*
X165354Y26969D01*
X162008Y20374D02*
Y23622D01*
X147638Y26772D02*
Y30906D01*
X144685Y23819D02*
X147638Y26772D01*
X144685Y20374D02*
Y23819D01*
X141732Y25000D02*
Y30906D01*
X140354Y23622D02*
X141732Y25000D01*
X140354Y20374D02*
Y23622D01*
X177165Y28543D02*
Y30906D01*
X170669Y20374D02*
Y23622D01*
X166339Y23622D02*
X171260Y28543D01*
Y30906D01*
X166339Y20374D02*
Y23622D01*
X154921Y15748D02*
X162795D01*
X149016Y55118D02*
Y57087D01*
X154528Y62598D01*
Y66142D01*
X156496D02*
Y70866D01*
X166339Y66142D02*
Y70866D01*
X183071Y87598D02*
X187795D01*
X183071Y87598D02*
X183071Y87598D01*
X181102Y93504D02*
X181102Y93504D01*
X187795D01*
X181102Y97441D02*
X181102Y97441D01*
X187795D01*
X181102Y101378D02*
X181102Y101378D01*
X187795D01*
X187795Y99410D02*
X187795Y99409D01*
X183071Y99410D02*
X187795D01*
X183071Y95472D02*
X187795D01*
X183071Y95472D02*
X183071Y95472D01*
Y77756D02*
X187795D01*
X183071Y77756D02*
X183071Y77756D01*
X172244Y66142D02*
Y72835D01*
X171260Y30906D02*
X174213Y33858D01*
Y46260D02*
Y66142D01*
X168307Y40354D02*
X174213Y46260D01*
X168307Y27953D02*
Y40354D01*
X164173Y23819D02*
X168307Y27953D01*
X164173Y17126D02*
Y23819D01*
X162795Y15748D02*
X164173Y17126D01*
X174213Y33858D02*
Y43504D01*
X176181Y45472D01*
Y66142D01*
X158465D02*
Y72835D01*
X142913Y91535D02*
X147638D01*
X147638Y91535D01*
X160433Y106299D02*
Y111024D01*
X168307Y106299D02*
Y111024D01*
X160433D02*
Y121653D01*
X160039Y122047D02*
X160433Y121653D01*
X168307Y111024D02*
Y121653D01*
X168701Y122047D01*
X139370Y91535D02*
X142913D01*
X134449Y96457D02*
X139370Y91535D01*
X132480Y96457D02*
X134449D01*
X131890Y97047D02*
X132480Y96457D01*
X37205Y45079D02*
Y49213D01*
Y45079D02*
X39764Y42520D01*
X77205D01*
X81929Y47244D01*
X180118Y33858D02*
Y66142D01*
Y33858D02*
X183071Y30906D01*
X150591Y66142D02*
Y70866D01*
X152559Y66142D02*
Y72835D01*
X142913Y83661D02*
X149606D01*
X142913Y79724D02*
X147638D01*
X149016Y55118D02*
X149016Y55118D01*
X129744Y53917D02*
Y59744D01*
Y53917D02*
X130512Y53150D01*
X129744Y62303D02*
Y68130D01*
X130512Y68898D01*
X178150Y66142D02*
Y69882D01*
X179134Y70866D01*
X200590Y61417D02*
X200787Y61614D01*
X196850Y61417D02*
X200590D01*
X193307Y62008D02*
X193898Y61417D01*
X196850D01*
X179134Y70866D02*
X183071D01*
X188583Y65354D01*
Y62008D02*
Y65354D01*
X287106Y49213D02*
X289370D01*
X291339Y47244D01*
X277559D02*
X279823D01*
X276575Y48228D02*
X277559Y47244D01*
X230315Y69055D02*
Y80118D01*
X224409Y91929D02*
X230315D01*
X224409Y97047D02*
X230315D01*
X283465Y112205D02*
X284055Y112795D01*
X230315Y85236D02*
Y91929D01*
Y97047D02*
Y100394D01*
X62008Y117126D02*
Y142717D01*
X46811Y142421D02*
X61713D01*
X62008Y142717D01*
X36811Y127421D02*
X41339Y122894D01*
Y121063D02*
Y122894D01*
X152559Y111024D02*
Y114567D01*
X145669Y121457D02*
Y161417D01*
Y121457D02*
X152559Y114567D01*
X126969Y112205D02*
X137795Y101378D01*
X142913D01*
X116142Y108858D02*
X127362D01*
X136811Y99409D01*
X142913D01*
X144685Y115157D02*
X148819Y111024D01*
X150591D01*
X96457Y97047D02*
Y103740D01*
X106299Y97047D02*
Y103740D01*
X116142Y97047D02*
Y103740D01*
X93307Y89764D02*
X95472Y91929D01*
X96457D01*
X103150Y89764D02*
X105315Y91929D01*
X106299D01*
X112992Y89764D02*
X115157Y91929D01*
X116142D01*
X133858Y129921D02*
Y167323D01*
X96457Y108858D02*
Y111221D01*
X100394Y115157D01*
X144685D01*
X106299Y108858D02*
Y111221D01*
X107283Y112205D01*
X126969D01*
X177165Y128740D02*
X178937Y126969D01*
X177165Y128740D02*
Y161417D01*
X181102Y117520D02*
Y167323D01*
X185039Y119488D02*
Y161417D01*
X173228Y130512D02*
Y167323D01*
X165354Y125984D02*
Y167323D01*
X157480D02*
X157480Y167323D01*
X153543Y125984D02*
Y161417D01*
X149606Y119488D02*
Y167323D01*
X149606Y167323D01*
X214567Y151575D02*
Y161417D01*
X214567Y151575D02*
X214567Y151575D01*
X210630Y145669D02*
Y167323D01*
X210630Y145669D02*
X210630Y145669D01*
X206693Y129921D02*
Y161417D01*
X202756Y145669D02*
Y167323D01*
X202756Y145669D02*
X202756Y145669D01*
X198819Y151575D02*
Y161417D01*
X198819Y151575D02*
X198819Y151575D01*
X194882Y106299D02*
Y167323D01*
X191929Y103346D02*
X194882Y106299D01*
X187795Y103346D02*
X191929D01*
X110236Y145669D02*
Y167323D01*
Y145669D02*
X110236Y145669D01*
X122047Y151575D02*
Y161417D01*
Y151575D02*
X122047Y151575D01*
X125984Y167323D02*
X125984Y167323D01*
X129921Y161417D02*
X129921Y161417D01*
X284055Y112795D02*
X286024D01*
Y110827D02*
X290551D01*
X286024Y112795D02*
X292717D01*
X303740Y101772D01*
X252362Y92716D02*
X277756D01*
X283465Y98425D01*
Y109449D01*
X250000Y69055D02*
X250000Y69055D01*
X250000Y69055D02*
Y76772D01*
X252559Y79331D01*
Y82677D01*
X212598Y26035D02*
Y57087D01*
X250000Y41496D02*
Y59055D01*
X62008Y117126D02*
X99016Y80118D01*
X131890D01*
X46811Y122421D02*
X93445Y75787D01*
X142913D01*
X41339Y121063D02*
X88583Y73819D01*
X142913D01*
D45*
X311417Y135827D02*
X315354D01*
X311417Y139764D02*
X315354D01*
X321850Y143504D02*
Y146653D01*
Y128937D02*
Y132087D01*
D46*
X306811Y131220D02*
X311417Y135827D01*
X297244Y131220D02*
X306811D01*
Y144370D02*
X311417Y139764D01*
X297244Y144370D02*
X306811D01*
X321850Y128937D02*
X323425Y127362D01*
Y124016D02*
Y127362D01*
X321850Y146653D02*
X324016Y148819D01*
Y151575D01*
X295276Y27559D02*
Y44685D01*
D47*
X267126D02*
X271654D01*
X272244Y45276D02*
X279823D01*
X271654Y44685D02*
X272244Y45276D01*
X287106D02*
X294685D01*
X295276Y44685D01*
X295276Y27559D02*
X295276Y27559D01*
D48*
X21811Y180315D02*
X311811D01*
X21811Y190315D02*
X311811D01*
X278937Y31496D02*
X279528Y30906D01*
X250000Y31496D02*
X278937D01*
X250000Y41496D02*
X263937D01*
X267126Y44685D01*
D49*
X131988Y32283D02*
X137795D01*
X131890Y32185D02*
X131988Y32283D01*
X118957Y32185D02*
X131890D01*
X116142Y29370D02*
X118957Y32185D01*
X119488Y36024D02*
X125984D01*
X116142Y39370D02*
X119488Y36024D01*
D50*
X221654Y18307D02*
Y24047D01*
Y32677D01*
D51*
X283465Y47244D02*
D03*
D52*
X301811Y250315D02*
D03*
X311811D02*
D03*
X321811D02*
D03*
X241811D02*
D03*
X251811D02*
D03*
X261811D02*
D03*
X271811D02*
D03*
X281811D02*
D03*
X291811D02*
D03*
X11811D02*
D03*
X231811D02*
D03*
X221811D02*
D03*
X211811D02*
D03*
X201811D02*
D03*
X191811D02*
D03*
X181811D02*
D03*
X171811D02*
D03*
X161811D02*
D03*
X151811D02*
D03*
X71811D02*
D03*
X81811D02*
D03*
X91811D02*
D03*
X101811D02*
D03*
X111811D02*
D03*
X121811D02*
D03*
X131811D02*
D03*
X141811D02*
D03*
X61811D02*
D03*
X51811D02*
D03*
X41811D02*
D03*
X31811D02*
D03*
X21811D02*
D03*
X221811Y270315D02*
D03*
X211811D02*
D03*
X201811D02*
D03*
X191811D02*
D03*
X181811D02*
D03*
X171811D02*
D03*
X161811D02*
D03*
X151811D02*
D03*
X71811D02*
D03*
X81811D02*
D03*
X91811D02*
D03*
X101811D02*
D03*
X111811D02*
D03*
X121811D02*
D03*
X131811D02*
D03*
X141811D02*
D03*
X61811D02*
D03*
X51811D02*
D03*
X41811D02*
D03*
X31811D02*
D03*
X21811D02*
D03*
Y260315D02*
D03*
X31811D02*
D03*
X41811D02*
D03*
X51811D02*
D03*
X61811D02*
D03*
X141811D02*
D03*
X131811D02*
D03*
X121811D02*
D03*
X111811D02*
D03*
X101811D02*
D03*
X91811D02*
D03*
X81811D02*
D03*
X71811D02*
D03*
X151811D02*
D03*
X161811D02*
D03*
X171811D02*
D03*
X181811D02*
D03*
X191811D02*
D03*
X201811D02*
D03*
X211811D02*
D03*
X221811D02*
D03*
X231811D02*
D03*
Y270315D02*
D03*
X11811Y260315D02*
D03*
Y270315D02*
D03*
X291811D02*
D03*
Y260315D02*
D03*
X281811D02*
D03*
X271811D02*
D03*
X261811D02*
D03*
X251811D02*
D03*
X241811D02*
D03*
Y270315D02*
D03*
X251811D02*
D03*
X261811D02*
D03*
X271811D02*
D03*
X281811D02*
D03*
X321811Y260315D02*
D03*
X311811D02*
D03*
X301811D02*
D03*
Y270315D02*
D03*
X311811D02*
D03*
X321811D02*
D03*
X301811Y280315D02*
D03*
X311811D02*
D03*
X321811D02*
D03*
X241811D02*
D03*
X251811D02*
D03*
X261811D02*
D03*
X271811D02*
D03*
X281811D02*
D03*
X291811D02*
D03*
X11811D02*
D03*
X231811D02*
D03*
X221811D02*
D03*
X211811D02*
D03*
X201811D02*
D03*
X191811D02*
D03*
X181811D02*
D03*
X171811D02*
D03*
X161811D02*
D03*
X151811D02*
D03*
X71811D02*
D03*
X81811D02*
D03*
X91811D02*
D03*
X101811D02*
D03*
X111811D02*
D03*
X121811D02*
D03*
X131811D02*
D03*
X141811D02*
D03*
X61811D02*
D03*
X51811D02*
D03*
X41811D02*
D03*
X31811D02*
D03*
X21811D02*
D03*
X311811Y190315D02*
D03*
Y180315D02*
D03*
X301811D02*
D03*
X291811D02*
D03*
X281811D02*
D03*
X271811D02*
D03*
X261811D02*
D03*
X251811D02*
D03*
X241811D02*
D03*
Y190315D02*
D03*
X251811D02*
D03*
X261811D02*
D03*
X271811D02*
D03*
X281811D02*
D03*
X291811D02*
D03*
X301811D02*
D03*
X31811Y320315D02*
D03*
X41811D02*
D03*
X51811D02*
D03*
X61811D02*
D03*
X141811D02*
D03*
X131811D02*
D03*
X121811D02*
D03*
X111811D02*
D03*
X101811D02*
D03*
X91811D02*
D03*
X81811D02*
D03*
X71811D02*
D03*
X151811D02*
D03*
X161811D02*
D03*
X171811D02*
D03*
X181811D02*
D03*
X191811D02*
D03*
X201811D02*
D03*
X211811D02*
D03*
X221811D02*
D03*
X231811D02*
D03*
X291811D02*
D03*
X281811D02*
D03*
X271811D02*
D03*
X261811D02*
D03*
X251811D02*
D03*
X241811D02*
D03*
X301811D02*
D03*
X221811Y210315D02*
D03*
X211811D02*
D03*
X201811D02*
D03*
X191811D02*
D03*
X181811D02*
D03*
X171811D02*
D03*
X161811D02*
D03*
X151811D02*
D03*
X71811D02*
D03*
X81811D02*
D03*
X91811D02*
D03*
X101811D02*
D03*
X111811D02*
D03*
X121811D02*
D03*
X131811D02*
D03*
X141811D02*
D03*
X61811D02*
D03*
X51811D02*
D03*
X41811D02*
D03*
X31811D02*
D03*
X21811D02*
D03*
Y200315D02*
D03*
X31811D02*
D03*
X41811D02*
D03*
X51811D02*
D03*
X61811D02*
D03*
X141811D02*
D03*
X131811D02*
D03*
X121811D02*
D03*
X111811D02*
D03*
X101811D02*
D03*
X91811D02*
D03*
X81811D02*
D03*
X71811D02*
D03*
X151811D02*
D03*
X161811D02*
D03*
X171811D02*
D03*
X181811D02*
D03*
X191811D02*
D03*
X201811D02*
D03*
X211811D02*
D03*
X221811D02*
D03*
X231811D02*
D03*
Y210315D02*
D03*
X11811Y200315D02*
D03*
Y210315D02*
D03*
X291811D02*
D03*
Y200315D02*
D03*
X281811D02*
D03*
X271811D02*
D03*
X261811D02*
D03*
X251811D02*
D03*
X241811D02*
D03*
Y210315D02*
D03*
X251811D02*
D03*
X261811D02*
D03*
X271811D02*
D03*
X281811D02*
D03*
X321811Y200315D02*
D03*
X311811D02*
D03*
X301811D02*
D03*
Y210315D02*
D03*
X311811D02*
D03*
X321811D02*
D03*
X221811Y310315D02*
D03*
X211811D02*
D03*
X201811D02*
D03*
X191811D02*
D03*
X181811D02*
D03*
X171811D02*
D03*
X161811D02*
D03*
X151811D02*
D03*
X71811D02*
D03*
X81811D02*
D03*
X91811D02*
D03*
X101811D02*
D03*
X111811D02*
D03*
X121811D02*
D03*
X131811D02*
D03*
X141811D02*
D03*
X61811D02*
D03*
X51811D02*
D03*
X41811D02*
D03*
X31811D02*
D03*
X21811Y300315D02*
D03*
X31811D02*
D03*
X41811D02*
D03*
X51811D02*
D03*
X61811D02*
D03*
X141811D02*
D03*
X131811D02*
D03*
X121811D02*
D03*
X111811D02*
D03*
X101811D02*
D03*
X91811D02*
D03*
X81811D02*
D03*
X71811D02*
D03*
X151811D02*
D03*
X161811D02*
D03*
X171811D02*
D03*
X181811D02*
D03*
X191811D02*
D03*
X201811D02*
D03*
X211811D02*
D03*
X221811D02*
D03*
X231811D02*
D03*
Y310315D02*
D03*
X11811Y300315D02*
D03*
X291811Y310315D02*
D03*
Y300315D02*
D03*
X281811D02*
D03*
X271811D02*
D03*
X261811D02*
D03*
X251811D02*
D03*
X241811D02*
D03*
Y310315D02*
D03*
X251811D02*
D03*
X261811D02*
D03*
X271811D02*
D03*
X281811D02*
D03*
X321811Y300315D02*
D03*
X311811D02*
D03*
X301811D02*
D03*
Y310315D02*
D03*
X221811Y290315D02*
D03*
X211811D02*
D03*
X201811D02*
D03*
X191811D02*
D03*
X181811D02*
D03*
X171811D02*
D03*
X161811D02*
D03*
X151811D02*
D03*
X71811D02*
D03*
X81811D02*
D03*
X91811D02*
D03*
X101811D02*
D03*
X111811D02*
D03*
X121811D02*
D03*
X131811D02*
D03*
X141811D02*
D03*
X61811D02*
D03*
X51811D02*
D03*
X41811D02*
D03*
X31811D02*
D03*
X21811D02*
D03*
Y240315D02*
D03*
X31811D02*
D03*
X41811D02*
D03*
X51811D02*
D03*
X61811D02*
D03*
X141811D02*
D03*
X131811D02*
D03*
X121811D02*
D03*
X111811D02*
D03*
X101811D02*
D03*
X91811D02*
D03*
X81811D02*
D03*
X71811D02*
D03*
X151811D02*
D03*
X161811D02*
D03*
X171811D02*
D03*
X181811D02*
D03*
X191811D02*
D03*
X201811D02*
D03*
X211811D02*
D03*
X221811D02*
D03*
X231811D02*
D03*
Y290315D02*
D03*
X11811Y240315D02*
D03*
Y290315D02*
D03*
X291811D02*
D03*
Y240315D02*
D03*
X281811D02*
D03*
X271811D02*
D03*
X261811D02*
D03*
X251811D02*
D03*
X241811D02*
D03*
Y290315D02*
D03*
X251811D02*
D03*
X261811D02*
D03*
X271811D02*
D03*
X281811D02*
D03*
X321811Y240315D02*
D03*
X311811D02*
D03*
X301811D02*
D03*
Y290315D02*
D03*
X311811D02*
D03*
X321811D02*
D03*
Y230315D02*
D03*
X311811D02*
D03*
X301811D02*
D03*
Y220315D02*
D03*
X311811D02*
D03*
X321811D02*
D03*
X281811Y230315D02*
D03*
X271811D02*
D03*
X261811D02*
D03*
X251811D02*
D03*
X241811D02*
D03*
Y220315D02*
D03*
X251811D02*
D03*
X261811D02*
D03*
X271811D02*
D03*
X281811D02*
D03*
X291811D02*
D03*
Y230315D02*
D03*
X11811D02*
D03*
Y220315D02*
D03*
X231811Y180315D02*
D03*
Y190315D02*
D03*
Y230315D02*
D03*
Y220315D02*
D03*
X221811D02*
D03*
X211811D02*
D03*
X201811D02*
D03*
X191811D02*
D03*
X181811D02*
D03*
X171811D02*
D03*
X161811D02*
D03*
X151811D02*
D03*
X71811D02*
D03*
X81811D02*
D03*
X91811D02*
D03*
X101811D02*
D03*
X111811D02*
D03*
X121811D02*
D03*
X131811D02*
D03*
X141811D02*
D03*
X61811D02*
D03*
X51811D02*
D03*
X41811D02*
D03*
X31811D02*
D03*
X21811D02*
D03*
Y230315D02*
D03*
X31811D02*
D03*
X41811D02*
D03*
X51811D02*
D03*
X61811D02*
D03*
X141811D02*
D03*
X131811D02*
D03*
X121811D02*
D03*
X111811D02*
D03*
X101811D02*
D03*
X91811D02*
D03*
X81811D02*
D03*
X71811D02*
D03*
X151811D02*
D03*
X161811D02*
D03*
X171811D02*
D03*
X181811D02*
D03*
X191811D02*
D03*
X201811D02*
D03*
X211811D02*
D03*
X221811D02*
D03*
Y190315D02*
D03*
X211811D02*
D03*
X201811D02*
D03*
X191811D02*
D03*
X181811D02*
D03*
X171811D02*
D03*
X161811D02*
D03*
X151811D02*
D03*
X71811D02*
D03*
X81811D02*
D03*
X91811D02*
D03*
X101811D02*
D03*
X111811D02*
D03*
X121811D02*
D03*
X131811D02*
D03*
X141811D02*
D03*
X61811D02*
D03*
X51811D02*
D03*
X41811D02*
D03*
X31811D02*
D03*
X21811D02*
D03*
Y180315D02*
D03*
X31811D02*
D03*
X41811D02*
D03*
X51811D02*
D03*
X61811D02*
D03*
X141811D02*
D03*
X131811D02*
D03*
X121811D02*
D03*
X111811D02*
D03*
X101811D02*
D03*
X91811D02*
D03*
X81811D02*
D03*
X71811D02*
D03*
X151811D02*
D03*
X161811D02*
D03*
X171811D02*
D03*
X181811D02*
D03*
X191811D02*
D03*
X201811D02*
D03*
X211811D02*
D03*
X221811D02*
D03*
X41929Y47244D02*
D03*
X51929D02*
D03*
X61929D02*
D03*
X71929D02*
D03*
X81929D02*
D03*
X91929D02*
D03*
X250000Y69055D02*
D03*
Y59055D02*
D03*
X116142Y29370D02*
D03*
Y39370D02*
D03*
X230315Y69055D02*
D03*
Y59055D02*
D03*
X250000Y41496D02*
D03*
Y31496D02*
D03*
D53*
X15748Y318898D02*
D03*
X318898D02*
D03*
X318898Y15748D02*
D03*
X15748D02*
D03*
D54*
X292323Y73819D02*
D03*
Y99410D02*
D03*
X274606D02*
D03*
Y73819D02*
D03*
X62008Y142717D02*
D03*
Y117126D02*
D03*
X79724D02*
D03*
Y142717D02*
D03*
D55*
X11811Y149921D02*
D03*
Y109921D02*
D03*
D56*
X324803Y70472D02*
D03*
X257874Y110236D02*
D03*
Y118110D02*
D03*
X238189Y114173D02*
D03*
X230315Y100394D02*
D03*
X226378Y110236D02*
D03*
Y118110D02*
D03*
X170276Y70866D02*
D03*
X222441Y80709D02*
D03*
X316929Y70866D02*
D03*
X314961Y72835D02*
D03*
X309055Y70866D02*
D03*
X311024Y72835D02*
D03*
X312992Y74803D02*
D03*
X288583Y108858D02*
D03*
X278346Y112795D02*
D03*
X118110Y58071D02*
D03*
Y68898D02*
D03*
X181102Y75787D02*
D03*
X133858Y70866D02*
D03*
X122047D02*
D03*
X164370Y72835D02*
D03*
X322835Y140748D02*
D03*
X318898Y134843D02*
D03*
X322835D02*
D03*
X318898Y140748D02*
D03*
X320866Y137795D02*
D03*
X244094Y86614D02*
D03*
X122441Y53150D02*
D03*
X168307Y72835D02*
D03*
X181102Y85630D02*
D03*
X170276Y104331D02*
D03*
X158465D02*
D03*
X149606Y89567D02*
D03*
X196850Y57087D02*
D03*
X135827Y38780D02*
D03*
X118110Y129921D02*
D03*
X114173D02*
D03*
X110236D02*
D03*
X129921Y129921D02*
D03*
X125984Y129921D02*
D03*
X122047D02*
D03*
X137795Y81693D02*
D03*
Y77756D02*
D03*
X147638Y85630D02*
D03*
X149606Y93504D02*
D03*
X147638Y95472D02*
D03*
X149606Y97441D02*
D03*
X147638Y103347D02*
D03*
X183071Y83661D02*
D03*
X214567Y31693D02*
D03*
X232283Y34843D02*
D03*
X226378D02*
D03*
X157677Y24213D02*
D03*
X183071Y38780D02*
D03*
X177165D02*
D03*
X171260D02*
D03*
X165354D02*
D03*
X159449D02*
D03*
X153543D02*
D03*
X147638D02*
D03*
X141732D02*
D03*
X156496Y70866D02*
D03*
X166339D02*
D03*
X183071Y87598D02*
D03*
X181102Y93504D02*
D03*
X183071Y95472D02*
D03*
X181102Y97441D02*
D03*
X183071Y99410D02*
D03*
X181102Y101378D02*
D03*
X183071Y77756D02*
D03*
X172244Y72835D02*
D03*
X153543Y27559D02*
D03*
X158465Y72835D02*
D03*
X147638Y91535D02*
D03*
X160433Y106299D02*
D03*
X168307D02*
D03*
X137795Y32283D02*
D03*
X152559Y72835D02*
D03*
X150591Y70866D02*
D03*
X149606Y83661D02*
D03*
X147638Y79724D02*
D03*
X196850Y61417D02*
D03*
X112992Y89764D02*
D03*
X103150D02*
D03*
X93307D02*
D03*
X133858Y129921D02*
D03*
X214567D02*
D03*
X210630D02*
D03*
X206693D02*
D03*
X202756D02*
D03*
X198819D02*
D03*
X320866Y161417D02*
D03*
X318898Y159449D02*
D03*
X316929Y161417D02*
D03*
Y157480D02*
D03*
X320866D02*
D03*
X322835Y159449D02*
D03*
X324803Y161417D02*
D03*
Y157480D02*
D03*
X314961Y159449D02*
D03*
X326772D02*
D03*
X290551Y110827D02*
D03*
X276575Y48228D02*
D03*
X314961Y68898D02*
D03*
X328740Y62008D02*
D03*
X208661Y31496D02*
D03*
X312992Y70866D02*
D03*
X311024Y68898D02*
D03*
X206693Y33465D02*
D03*
X204724Y31496D02*
D03*
X202756Y33465D02*
D03*
Y29528D02*
D03*
X206693D02*
D03*
X204724Y27559D02*
D03*
X200787Y31496D02*
D03*
X204724Y35433D02*
D03*
X326772Y63976D02*
D03*
X324803Y62008D02*
D03*
X322835Y63976D02*
D03*
X320866Y62008D02*
D03*
X322835Y60039D02*
D03*
X326772D02*
D03*
X221654Y24047D02*
D03*
Y26575D02*
D03*
Y29528D02*
D03*
X303150D02*
D03*
Y25591D02*
D03*
X299213D02*
D03*
X301181Y27559D02*
D03*
X305118Y31496D02*
D03*
Y27559D02*
D03*
X301181Y23622D02*
D03*
X297244D02*
D03*
X305118D02*
D03*
X295276Y27559D02*
D03*
X295276Y30512D02*
D03*
Y33465D02*
D03*
Y36417D02*
D03*
X312992Y66929D02*
D03*
X324803Y58071D02*
D03*
Y65945D02*
D03*
X221654Y32677D02*
D03*
X292323Y60039D02*
D03*
X290354Y58071D02*
D03*
X286417D02*
D03*
X288386Y60039D02*
D03*
X284449D02*
D03*
X280512D02*
D03*
X278543Y58071D02*
D03*
X276575Y60039D02*
D03*
X274606Y58071D02*
D03*
X282480D02*
D03*
M02*
