G04*
G04 #@! TF.GenerationSoftware,Altium Limited,CircuitStudio,1.5.1 (13)*
G04*
G04 Layer_Color=8150272*
%FSLAX25Y25*%
%MOIN*%
G70*
G01*
G75*
%ADD66C,0.06706*%
%ADD96C,0.08200*%
%ADD97C,0.13005*%
%ADD98C,0.08674*%
%ADD99C,0.13595*%
D66*
X46811Y142421D02*
D03*
X36811Y137421D02*
D03*
X46811Y132421D02*
D03*
X36811Y127421D02*
D03*
X46811Y122421D02*
D03*
X36811Y117421D02*
D03*
D96*
X301811Y250315D02*
D03*
X311811D02*
D03*
X321811D02*
D03*
X241811D02*
D03*
X251811D02*
D03*
X261811D02*
D03*
X271811D02*
D03*
X281811D02*
D03*
X291811D02*
D03*
X11811D02*
D03*
X231811D02*
D03*
X221811D02*
D03*
X211811D02*
D03*
X201811D02*
D03*
X191811D02*
D03*
X181811D02*
D03*
X171811D02*
D03*
X161811D02*
D03*
X151811D02*
D03*
X71811D02*
D03*
X81811D02*
D03*
X91811D02*
D03*
X101811D02*
D03*
X111811D02*
D03*
X121811D02*
D03*
X131811D02*
D03*
X141811D02*
D03*
X61811D02*
D03*
X51811D02*
D03*
X41811D02*
D03*
X31811D02*
D03*
X21811D02*
D03*
X221811Y270315D02*
D03*
X211811D02*
D03*
X201811D02*
D03*
X191811D02*
D03*
X181811D02*
D03*
X171811D02*
D03*
X161811D02*
D03*
X151811D02*
D03*
X71811D02*
D03*
X81811D02*
D03*
X91811D02*
D03*
X101811D02*
D03*
X111811D02*
D03*
X121811D02*
D03*
X131811D02*
D03*
X141811D02*
D03*
X61811D02*
D03*
X51811D02*
D03*
X41811D02*
D03*
X31811D02*
D03*
X21811D02*
D03*
Y260315D02*
D03*
X31811D02*
D03*
X41811D02*
D03*
X51811D02*
D03*
X61811D02*
D03*
X141811D02*
D03*
X131811D02*
D03*
X121811D02*
D03*
X111811D02*
D03*
X101811D02*
D03*
X91811D02*
D03*
X81811D02*
D03*
X71811D02*
D03*
X151811D02*
D03*
X161811D02*
D03*
X171811D02*
D03*
X181811D02*
D03*
X191811D02*
D03*
X201811D02*
D03*
X211811D02*
D03*
X221811D02*
D03*
X231811D02*
D03*
Y270315D02*
D03*
X11811Y260315D02*
D03*
Y270315D02*
D03*
X291811D02*
D03*
Y260315D02*
D03*
X281811D02*
D03*
X271811D02*
D03*
X261811D02*
D03*
X251811D02*
D03*
X241811D02*
D03*
Y270315D02*
D03*
X251811D02*
D03*
X261811D02*
D03*
X271811D02*
D03*
X281811D02*
D03*
X321811Y260315D02*
D03*
X311811D02*
D03*
X301811D02*
D03*
Y270315D02*
D03*
X311811D02*
D03*
X321811D02*
D03*
X301811Y280315D02*
D03*
X311811D02*
D03*
X321811D02*
D03*
X241811D02*
D03*
X251811D02*
D03*
X261811D02*
D03*
X271811D02*
D03*
X281811D02*
D03*
X291811D02*
D03*
X11811D02*
D03*
X231811D02*
D03*
X221811D02*
D03*
X211811D02*
D03*
X201811D02*
D03*
X191811D02*
D03*
X181811D02*
D03*
X171811D02*
D03*
X161811D02*
D03*
X151811D02*
D03*
X71811D02*
D03*
X81811D02*
D03*
X91811D02*
D03*
X101811D02*
D03*
X111811D02*
D03*
X121811D02*
D03*
X131811D02*
D03*
X141811D02*
D03*
X61811D02*
D03*
X51811D02*
D03*
X41811D02*
D03*
X31811D02*
D03*
X21811D02*
D03*
X311811Y190315D02*
D03*
Y180315D02*
D03*
X301811D02*
D03*
X291811D02*
D03*
X281811D02*
D03*
X271811D02*
D03*
X261811D02*
D03*
X251811D02*
D03*
X241811D02*
D03*
Y190315D02*
D03*
X251811D02*
D03*
X261811D02*
D03*
X271811D02*
D03*
X281811D02*
D03*
X291811D02*
D03*
X301811D02*
D03*
X31811Y320315D02*
D03*
X41811D02*
D03*
X51811D02*
D03*
X61811D02*
D03*
X141811D02*
D03*
X131811D02*
D03*
X121811D02*
D03*
X111811D02*
D03*
X101811D02*
D03*
X91811D02*
D03*
X81811D02*
D03*
X71811D02*
D03*
X151811D02*
D03*
X161811D02*
D03*
X171811D02*
D03*
X181811D02*
D03*
X191811D02*
D03*
X201811D02*
D03*
X211811D02*
D03*
X221811D02*
D03*
X231811D02*
D03*
X291811D02*
D03*
X281811D02*
D03*
X271811D02*
D03*
X261811D02*
D03*
X251811D02*
D03*
X241811D02*
D03*
X301811D02*
D03*
X221811Y210315D02*
D03*
X211811D02*
D03*
X201811D02*
D03*
X191811D02*
D03*
X181811D02*
D03*
X171811D02*
D03*
X161811D02*
D03*
X151811D02*
D03*
X71811D02*
D03*
X81811D02*
D03*
X91811D02*
D03*
X101811D02*
D03*
X111811D02*
D03*
X121811D02*
D03*
X131811D02*
D03*
X141811D02*
D03*
X61811D02*
D03*
X51811D02*
D03*
X41811D02*
D03*
X31811D02*
D03*
X21811D02*
D03*
Y200315D02*
D03*
X31811D02*
D03*
X41811D02*
D03*
X51811D02*
D03*
X61811D02*
D03*
X141811D02*
D03*
X131811D02*
D03*
X121811D02*
D03*
X111811D02*
D03*
X101811D02*
D03*
X91811D02*
D03*
X81811D02*
D03*
X71811D02*
D03*
X151811D02*
D03*
X161811D02*
D03*
X171811D02*
D03*
X181811D02*
D03*
X191811D02*
D03*
X201811D02*
D03*
X211811D02*
D03*
X221811D02*
D03*
X231811D02*
D03*
Y210315D02*
D03*
X11811Y200315D02*
D03*
Y210315D02*
D03*
X291811D02*
D03*
Y200315D02*
D03*
X281811D02*
D03*
X271811D02*
D03*
X261811D02*
D03*
X251811D02*
D03*
X241811D02*
D03*
Y210315D02*
D03*
X251811D02*
D03*
X261811D02*
D03*
X271811D02*
D03*
X281811D02*
D03*
X321811Y200315D02*
D03*
X311811D02*
D03*
X301811D02*
D03*
Y210315D02*
D03*
X311811D02*
D03*
X321811D02*
D03*
X221811Y310315D02*
D03*
X211811D02*
D03*
X201811D02*
D03*
X191811D02*
D03*
X181811D02*
D03*
X171811D02*
D03*
X161811D02*
D03*
X151811D02*
D03*
X71811D02*
D03*
X81811D02*
D03*
X91811D02*
D03*
X101811D02*
D03*
X111811D02*
D03*
X121811D02*
D03*
X131811D02*
D03*
X141811D02*
D03*
X61811D02*
D03*
X51811D02*
D03*
X41811D02*
D03*
X31811D02*
D03*
X21811Y300315D02*
D03*
X31811D02*
D03*
X41811D02*
D03*
X51811D02*
D03*
X61811D02*
D03*
X141811D02*
D03*
X131811D02*
D03*
X121811D02*
D03*
X111811D02*
D03*
X101811D02*
D03*
X91811D02*
D03*
X81811D02*
D03*
X71811D02*
D03*
X151811D02*
D03*
X161811D02*
D03*
X171811D02*
D03*
X181811D02*
D03*
X191811D02*
D03*
X201811D02*
D03*
X211811D02*
D03*
X221811D02*
D03*
X231811D02*
D03*
Y310315D02*
D03*
X11811Y300315D02*
D03*
X291811Y310315D02*
D03*
Y300315D02*
D03*
X281811D02*
D03*
X271811D02*
D03*
X261811D02*
D03*
X251811D02*
D03*
X241811D02*
D03*
Y310315D02*
D03*
X251811D02*
D03*
X261811D02*
D03*
X271811D02*
D03*
X281811D02*
D03*
X321811Y300315D02*
D03*
X311811D02*
D03*
X301811D02*
D03*
Y310315D02*
D03*
X221811Y290315D02*
D03*
X211811D02*
D03*
X201811D02*
D03*
X191811D02*
D03*
X181811D02*
D03*
X171811D02*
D03*
X161811D02*
D03*
X151811D02*
D03*
X71811D02*
D03*
X81811D02*
D03*
X91811D02*
D03*
X101811D02*
D03*
X111811D02*
D03*
X121811D02*
D03*
X131811D02*
D03*
X141811D02*
D03*
X61811D02*
D03*
X51811D02*
D03*
X41811D02*
D03*
X31811D02*
D03*
X21811D02*
D03*
Y240315D02*
D03*
X31811D02*
D03*
X41811D02*
D03*
X51811D02*
D03*
X61811D02*
D03*
X141811D02*
D03*
X131811D02*
D03*
X121811D02*
D03*
X111811D02*
D03*
X101811D02*
D03*
X91811D02*
D03*
X81811D02*
D03*
X71811D02*
D03*
X151811D02*
D03*
X161811D02*
D03*
X171811D02*
D03*
X181811D02*
D03*
X191811D02*
D03*
X201811D02*
D03*
X211811D02*
D03*
X221811D02*
D03*
X231811D02*
D03*
Y290315D02*
D03*
X11811Y240315D02*
D03*
Y290315D02*
D03*
X291811D02*
D03*
Y240315D02*
D03*
X281811D02*
D03*
X271811D02*
D03*
X261811D02*
D03*
X251811D02*
D03*
X241811D02*
D03*
Y290315D02*
D03*
X251811D02*
D03*
X261811D02*
D03*
X271811D02*
D03*
X281811D02*
D03*
X321811Y240315D02*
D03*
X311811D02*
D03*
X301811D02*
D03*
Y290315D02*
D03*
X311811D02*
D03*
X321811D02*
D03*
Y230315D02*
D03*
X311811D02*
D03*
X301811D02*
D03*
Y220315D02*
D03*
X311811D02*
D03*
X321811D02*
D03*
X281811Y230315D02*
D03*
X271811D02*
D03*
X261811D02*
D03*
X251811D02*
D03*
X241811D02*
D03*
Y220315D02*
D03*
X251811D02*
D03*
X261811D02*
D03*
X271811D02*
D03*
X281811D02*
D03*
X291811D02*
D03*
Y230315D02*
D03*
X11811D02*
D03*
Y220315D02*
D03*
X231811Y180315D02*
D03*
Y190315D02*
D03*
Y230315D02*
D03*
Y220315D02*
D03*
X221811D02*
D03*
X211811D02*
D03*
X201811D02*
D03*
X191811D02*
D03*
X181811D02*
D03*
X171811D02*
D03*
X161811D02*
D03*
X151811D02*
D03*
X71811D02*
D03*
X81811D02*
D03*
X91811D02*
D03*
X101811D02*
D03*
X111811D02*
D03*
X121811D02*
D03*
X131811D02*
D03*
X141811D02*
D03*
X61811D02*
D03*
X51811D02*
D03*
X41811D02*
D03*
X31811D02*
D03*
X21811D02*
D03*
Y230315D02*
D03*
X31811D02*
D03*
X41811D02*
D03*
X51811D02*
D03*
X61811D02*
D03*
X141811D02*
D03*
X131811D02*
D03*
X121811D02*
D03*
X111811D02*
D03*
X101811D02*
D03*
X91811D02*
D03*
X81811D02*
D03*
X71811D02*
D03*
X151811D02*
D03*
X161811D02*
D03*
X171811D02*
D03*
X181811D02*
D03*
X191811D02*
D03*
X201811D02*
D03*
X211811D02*
D03*
X221811D02*
D03*
Y190315D02*
D03*
X211811D02*
D03*
X201811D02*
D03*
X191811D02*
D03*
X181811D02*
D03*
X171811D02*
D03*
X161811D02*
D03*
X151811D02*
D03*
X71811D02*
D03*
X81811D02*
D03*
X91811D02*
D03*
X101811D02*
D03*
X111811D02*
D03*
X121811D02*
D03*
X131811D02*
D03*
X141811D02*
D03*
X61811D02*
D03*
X51811D02*
D03*
X41811D02*
D03*
X31811D02*
D03*
X21811D02*
D03*
Y180315D02*
D03*
X31811D02*
D03*
X41811D02*
D03*
X51811D02*
D03*
X61811D02*
D03*
X141811D02*
D03*
X131811D02*
D03*
X121811D02*
D03*
X111811D02*
D03*
X101811D02*
D03*
X91811D02*
D03*
X81811D02*
D03*
X71811D02*
D03*
X151811D02*
D03*
X161811D02*
D03*
X171811D02*
D03*
X181811D02*
D03*
X191811D02*
D03*
X201811D02*
D03*
X211811D02*
D03*
X221811D02*
D03*
X41929Y47244D02*
D03*
X51929D02*
D03*
X61929D02*
D03*
X71929D02*
D03*
X81929D02*
D03*
X91929D02*
D03*
X250000Y69055D02*
D03*
Y59055D02*
D03*
X116142Y29370D02*
D03*
Y39370D02*
D03*
X230315Y69055D02*
D03*
Y59055D02*
D03*
X250000Y41496D02*
D03*
Y31496D02*
D03*
D97*
X15748Y318898D02*
D03*
X318898D02*
D03*
X318898Y15748D02*
D03*
X15748D02*
D03*
D98*
X292323Y73819D02*
D03*
Y99410D02*
D03*
X274606D02*
D03*
Y73819D02*
D03*
X62008Y142717D02*
D03*
Y117126D02*
D03*
X79724D02*
D03*
Y142717D02*
D03*
D99*
X11811Y149921D02*
D03*
Y109921D02*
D03*
M02*
