G04*
G04 #@! TF.GenerationSoftware,Altium Limited,CircuitStudio,1.5.1 (13)*
G04*
G04 Layer_Color=20142*
%FSLAX25Y25*%
%MOIN*%
G70*
G01*
G75*
%ADD47C,0.03937*%
%ADD63R,0.04343X0.03556*%
%ADD64R,0.03950X0.02769*%
%ADD65R,0.03556X0.04343*%
%ADD66C,0.06706*%
%ADD67R,0.20800X0.07650*%
%ADD68R,0.01981X0.06706*%
%ADD69R,0.06706X0.01981*%
%ADD70R,0.04737X0.03162*%
%ADD71R,0.04540X0.04147*%
%ADD72R,0.03162X0.05721*%
%ADD73R,0.05524X0.15721*%
%ADD74R,0.06509X0.06312*%
%ADD75R,0.01784X0.03261*%
%ADD76R,0.02572X0.03261*%
%ADD77R,0.03950X0.04343*%
%ADD78R,0.10150X0.08280*%
%ADD79R,0.05426X0.08280*%
%ADD80R,0.02572X0.06233*%
%ADD81R,0.06607X0.09068*%
%ADD82R,0.06706X0.14186*%
%ADD83R,0.04737X0.14579*%
%ADD84R,0.02572X0.01981*%
%ADD85R,0.03556X0.07493*%
%ADD86R,0.03950X0.05918*%
%ADD87R,0.04343X0.03162*%
%ADD88R,0.09461X0.04540*%
%ADD89R,0.07001X0.01981*%
%ADD90R,0.02178X0.01981*%
%ADD91R,0.05524X0.05524*%
%ADD92R,0.03162X0.01745*%
%ADD93R,0.07296X0.10249*%
%ADD94R,0.01784X0.02769*%
%ADD95R,0.03162X0.01981*%
%ADD96C,0.08200*%
%ADD97C,0.13005*%
%ADD98C,0.08674*%
%ADD99C,0.13595*%
D47*
X21811Y190315D02*
X311811D01*
X21811Y180315D02*
X311811D01*
D63*
X198819Y69291D02*
D03*
Y74410D02*
D03*
X324803Y78347D02*
D03*
Y73228D02*
D03*
X131890Y80118D02*
D03*
Y85236D02*
D03*
X226378Y26969D02*
D03*
Y32087D02*
D03*
X198819Y84055D02*
D03*
Y89173D02*
D03*
X131890Y97047D02*
D03*
Y91929D02*
D03*
X198819Y56496D02*
D03*
Y61614D02*
D03*
X232283Y32087D02*
D03*
Y26969D02*
D03*
X271654Y44685D02*
D03*
Y49803D02*
D03*
X295276Y44685D02*
D03*
Y49803D02*
D03*
X303150D02*
D03*
Y44685D02*
D03*
X106299Y91929D02*
D03*
Y97047D02*
D03*
X116142Y91929D02*
D03*
Y97047D02*
D03*
X96457Y91929D02*
D03*
Y97047D02*
D03*
X106299Y103740D02*
D03*
Y108858D02*
D03*
X116142Y103740D02*
D03*
Y108858D02*
D03*
X96457Y103740D02*
D03*
Y108858D02*
D03*
X261811Y116732D02*
D03*
Y111614D02*
D03*
X222441Y91929D02*
D03*
Y97047D02*
D03*
X230315D02*
D03*
Y91929D02*
D03*
Y85236D02*
D03*
Y80118D02*
D03*
X159449Y36024D02*
D03*
Y30906D02*
D03*
X153543Y36024D02*
D03*
Y30906D02*
D03*
X147638D02*
D03*
Y36024D02*
D03*
X165354Y30906D02*
D03*
Y36024D02*
D03*
X171260Y30906D02*
D03*
Y36024D02*
D03*
X141732Y30906D02*
D03*
Y36024D02*
D03*
X177165Y30906D02*
D03*
Y36024D02*
D03*
X183071Y30906D02*
D03*
Y36024D02*
D03*
X274606Y116732D02*
D03*
Y111614D02*
D03*
D64*
X247638Y99803D02*
D03*
Y96260D02*
D03*
Y92716D02*
D03*
Y89173D02*
D03*
X252362D02*
D03*
Y92716D02*
D03*
Y96260D02*
D03*
Y99803D02*
D03*
D65*
X310433Y92520D02*
D03*
X315551D02*
D03*
X223031Y118110D02*
D03*
X217913D02*
D03*
X223031Y110236D02*
D03*
X217913D02*
D03*
X318307Y124016D02*
D03*
X323425D02*
D03*
X166732Y55118D02*
D03*
X171850D02*
D03*
X149016Y55118D02*
D03*
X154134D02*
D03*
X173819Y122047D02*
D03*
X168701D02*
D03*
X160039Y122047D02*
D03*
X154921D02*
D03*
X108661Y68898D02*
D03*
X113779D02*
D03*
X108661Y58071D02*
D03*
X113779D02*
D03*
X252559Y82677D02*
D03*
X247441D02*
D03*
X134449Y65945D02*
D03*
X129331D02*
D03*
Y55118D02*
D03*
X134449D02*
D03*
D66*
X210630Y110236D02*
D03*
X194882Y167323D02*
D03*
X210630Y118110D02*
D03*
X149606Y167323D02*
D03*
X153543Y161417D02*
D03*
X157480Y167323D02*
D03*
X161417Y161417D02*
D03*
X165354Y167323D02*
D03*
X169291Y161417D02*
D03*
X173228Y167323D02*
D03*
X177165Y161417D02*
D03*
X181102Y167323D02*
D03*
X185039Y161417D02*
D03*
X137795Y161417D02*
D03*
X118110Y167323D02*
D03*
X114173Y161417D02*
D03*
X133858Y167323D02*
D03*
X125984D02*
D03*
X129921Y161417D02*
D03*
X122047D02*
D03*
X214567Y161417D02*
D03*
X210630Y167323D02*
D03*
X206693Y161417D02*
D03*
X202756Y167323D02*
D03*
X198819Y161417D02*
D03*
X46811Y142421D02*
D03*
X36811Y137421D02*
D03*
X46811Y132421D02*
D03*
X36811Y127421D02*
D03*
X46811Y122421D02*
D03*
X36811Y117421D02*
D03*
D67*
X297244Y131220D02*
D03*
Y144370D02*
D03*
D68*
X150591Y111024D02*
D03*
X152559D02*
D03*
X154528D02*
D03*
X156496D02*
D03*
X158465D02*
D03*
X160433D02*
D03*
X162402D02*
D03*
X164370D02*
D03*
X166339D02*
D03*
X168307D02*
D03*
X170276D02*
D03*
X172244D02*
D03*
X174213D02*
D03*
X176181D02*
D03*
X178150D02*
D03*
X180118D02*
D03*
X150591Y66142D02*
D03*
X152559D02*
D03*
X154528D02*
D03*
X156496D02*
D03*
X158465D02*
D03*
X160433D02*
D03*
X162402D02*
D03*
X164370D02*
D03*
X166339D02*
D03*
X168307D02*
D03*
X170276D02*
D03*
X172244D02*
D03*
X174213D02*
D03*
X176181D02*
D03*
X178150D02*
D03*
X180118D02*
D03*
D69*
X187795Y103346D02*
D03*
Y101378D02*
D03*
Y99409D02*
D03*
Y97441D02*
D03*
Y95472D02*
D03*
Y93504D02*
D03*
Y91535D02*
D03*
Y89567D02*
D03*
Y87598D02*
D03*
Y85630D02*
D03*
Y83661D02*
D03*
Y81693D02*
D03*
Y79724D02*
D03*
Y77756D02*
D03*
Y75787D02*
D03*
Y73819D02*
D03*
X142913D02*
D03*
Y75787D02*
D03*
Y77756D02*
D03*
Y79724D02*
D03*
Y81693D02*
D03*
Y83661D02*
D03*
Y85630D02*
D03*
Y87598D02*
D03*
Y89567D02*
D03*
Y91535D02*
D03*
Y93504D02*
D03*
Y95472D02*
D03*
Y97441D02*
D03*
Y99409D02*
D03*
Y101378D02*
D03*
Y103346D02*
D03*
D70*
X177953Y8661D02*
D03*
D71*
X174311Y4823D02*
D03*
D72*
X170669Y20374D02*
D03*
X166339D02*
D03*
X162008D02*
D03*
X157677D02*
D03*
X153347D02*
D03*
X149016D02*
D03*
X144685D02*
D03*
X140354D02*
D03*
D73*
X135827Y10610D02*
D03*
D74*
X177067Y13583D02*
D03*
D75*
X210630Y29083D02*
D03*
X212598D02*
D03*
X216535D02*
D03*
X218504D02*
D03*
Y26035D02*
D03*
X216535D02*
D03*
X212598D02*
D03*
X210630D02*
D03*
D76*
X214567Y25984D02*
D03*
Y29083D02*
D03*
D77*
X191339Y56102D02*
D03*
Y62008D02*
D03*
X186614D02*
D03*
Y56102D02*
D03*
D78*
X228051Y7874D02*
D03*
X205020D02*
D03*
D79*
X219882D02*
D03*
X213189D02*
D03*
D80*
X211417Y18307D02*
D03*
X213976D02*
D03*
X216535D02*
D03*
X219094D02*
D03*
X221654D02*
D03*
D81*
X206840Y16929D02*
D03*
X226230D02*
D03*
D82*
X270276Y9055D02*
D03*
X296654D02*
D03*
D83*
X279528Y30906D02*
D03*
X287402D02*
D03*
D84*
X279823Y49213D02*
D03*
Y47244D02*
D03*
Y45276D02*
D03*
X287106D02*
D03*
Y47244D02*
D03*
Y49213D02*
D03*
D85*
X283465Y47244D02*
D03*
D86*
X317717Y151575D02*
D03*
X324016D02*
D03*
D87*
X253150Y117913D02*
D03*
Y110433D02*
D03*
X242913Y117913D02*
D03*
Y114173D02*
D03*
Y110433D02*
D03*
D88*
X312992Y105610D02*
D03*
Y79429D02*
D03*
X131890Y32185D02*
D03*
D89*
X314216Y101772D02*
D03*
X311768Y83268D02*
D03*
X130665Y36024D02*
D03*
D90*
X309350Y101772D02*
D03*
X316634Y83268D02*
D03*
X135531Y36024D02*
D03*
D91*
X324803Y98032D02*
D03*
Y87008D02*
D03*
D92*
X315354Y141732D02*
D03*
Y139764D02*
D03*
Y137795D02*
D03*
Y135827D02*
D03*
Y133858D02*
D03*
X326378D02*
D03*
Y135827D02*
D03*
Y137795D02*
D03*
Y139764D02*
D03*
Y141732D02*
D03*
D93*
X320866Y137795D02*
D03*
D94*
X319882Y143504D02*
D03*
X321850D02*
D03*
X319882Y132087D02*
D03*
X321850D02*
D03*
D95*
X290945Y116142D02*
D03*
Y112205D02*
D03*
Y114173D02*
D03*
X285827Y116142D02*
D03*
Y114173D02*
D03*
Y112205D02*
D03*
D96*
X301811Y250315D02*
D03*
X311811D02*
D03*
X321811D02*
D03*
X241811D02*
D03*
X251811D02*
D03*
X261811D02*
D03*
X271811D02*
D03*
X281811D02*
D03*
X291811D02*
D03*
X11811D02*
D03*
X231811D02*
D03*
X221811D02*
D03*
X211811D02*
D03*
X201811D02*
D03*
X191811D02*
D03*
X181811D02*
D03*
X171811D02*
D03*
X161811D02*
D03*
X151811D02*
D03*
X71811D02*
D03*
X81811D02*
D03*
X91811D02*
D03*
X101811D02*
D03*
X111811D02*
D03*
X121811D02*
D03*
X131811D02*
D03*
X141811D02*
D03*
X61811D02*
D03*
X51811D02*
D03*
X41811D02*
D03*
X31811D02*
D03*
X21811D02*
D03*
X221811Y270315D02*
D03*
X211811D02*
D03*
X201811D02*
D03*
X191811D02*
D03*
X181811D02*
D03*
X171811D02*
D03*
X161811D02*
D03*
X151811D02*
D03*
X71811D02*
D03*
X81811D02*
D03*
X91811D02*
D03*
X101811D02*
D03*
X111811D02*
D03*
X121811D02*
D03*
X131811D02*
D03*
X141811D02*
D03*
X61811D02*
D03*
X51811D02*
D03*
X41811D02*
D03*
X31811D02*
D03*
X21811D02*
D03*
Y260315D02*
D03*
X31811D02*
D03*
X41811D02*
D03*
X51811D02*
D03*
X61811D02*
D03*
X141811D02*
D03*
X131811D02*
D03*
X121811D02*
D03*
X111811D02*
D03*
X101811D02*
D03*
X91811D02*
D03*
X81811D02*
D03*
X71811D02*
D03*
X151811D02*
D03*
X161811D02*
D03*
X171811D02*
D03*
X181811D02*
D03*
X191811D02*
D03*
X201811D02*
D03*
X211811D02*
D03*
X221811D02*
D03*
X231811D02*
D03*
Y270315D02*
D03*
X11811Y260315D02*
D03*
Y270315D02*
D03*
X291811D02*
D03*
Y260315D02*
D03*
X281811D02*
D03*
X271811D02*
D03*
X261811D02*
D03*
X251811D02*
D03*
X241811D02*
D03*
Y270315D02*
D03*
X251811D02*
D03*
X261811D02*
D03*
X271811D02*
D03*
X281811D02*
D03*
X321811Y260315D02*
D03*
X311811D02*
D03*
X301811D02*
D03*
Y270315D02*
D03*
X311811D02*
D03*
X321811D02*
D03*
X301811Y280315D02*
D03*
X311811D02*
D03*
X321811D02*
D03*
X241811D02*
D03*
X251811D02*
D03*
X261811D02*
D03*
X271811D02*
D03*
X281811D02*
D03*
X291811D02*
D03*
X11811D02*
D03*
X231811D02*
D03*
X221811D02*
D03*
X211811D02*
D03*
X201811D02*
D03*
X191811D02*
D03*
X181811D02*
D03*
X171811D02*
D03*
X161811D02*
D03*
X151811D02*
D03*
X71811D02*
D03*
X81811D02*
D03*
X91811D02*
D03*
X101811D02*
D03*
X111811D02*
D03*
X121811D02*
D03*
X131811D02*
D03*
X141811D02*
D03*
X61811D02*
D03*
X51811D02*
D03*
X41811D02*
D03*
X31811D02*
D03*
X21811D02*
D03*
X311811Y190315D02*
D03*
Y180315D02*
D03*
X301811D02*
D03*
X291811D02*
D03*
X281811D02*
D03*
X271811D02*
D03*
X261811D02*
D03*
X251811D02*
D03*
X241811D02*
D03*
Y190315D02*
D03*
X251811D02*
D03*
X261811D02*
D03*
X271811D02*
D03*
X281811D02*
D03*
X291811D02*
D03*
X301811D02*
D03*
X31811Y320315D02*
D03*
X41811D02*
D03*
X51811D02*
D03*
X61811D02*
D03*
X141811D02*
D03*
X131811D02*
D03*
X121811D02*
D03*
X111811D02*
D03*
X101811D02*
D03*
X91811D02*
D03*
X81811D02*
D03*
X71811D02*
D03*
X151811D02*
D03*
X161811D02*
D03*
X171811D02*
D03*
X181811D02*
D03*
X191811D02*
D03*
X201811D02*
D03*
X211811D02*
D03*
X221811D02*
D03*
X231811D02*
D03*
X291811D02*
D03*
X281811D02*
D03*
X271811D02*
D03*
X261811D02*
D03*
X251811D02*
D03*
X241811D02*
D03*
X301811D02*
D03*
X221811Y210315D02*
D03*
X211811D02*
D03*
X201811D02*
D03*
X191811D02*
D03*
X181811D02*
D03*
X171811D02*
D03*
X161811D02*
D03*
X151811D02*
D03*
X71811D02*
D03*
X81811D02*
D03*
X91811D02*
D03*
X101811D02*
D03*
X111811D02*
D03*
X121811D02*
D03*
X131811D02*
D03*
X141811D02*
D03*
X61811D02*
D03*
X51811D02*
D03*
X41811D02*
D03*
X31811D02*
D03*
X21811D02*
D03*
Y200315D02*
D03*
X31811D02*
D03*
X41811D02*
D03*
X51811D02*
D03*
X61811D02*
D03*
X141811D02*
D03*
X131811D02*
D03*
X121811D02*
D03*
X111811D02*
D03*
X101811D02*
D03*
X91811D02*
D03*
X81811D02*
D03*
X71811D02*
D03*
X151811D02*
D03*
X161811D02*
D03*
X171811D02*
D03*
X181811D02*
D03*
X191811D02*
D03*
X201811D02*
D03*
X211811D02*
D03*
X221811D02*
D03*
X231811D02*
D03*
Y210315D02*
D03*
X11811Y200315D02*
D03*
Y210315D02*
D03*
X291811D02*
D03*
Y200315D02*
D03*
X281811D02*
D03*
X271811D02*
D03*
X261811D02*
D03*
X251811D02*
D03*
X241811D02*
D03*
Y210315D02*
D03*
X251811D02*
D03*
X261811D02*
D03*
X271811D02*
D03*
X281811D02*
D03*
X321811Y200315D02*
D03*
X311811D02*
D03*
X301811D02*
D03*
Y210315D02*
D03*
X311811D02*
D03*
X321811D02*
D03*
X221811Y310315D02*
D03*
X211811D02*
D03*
X201811D02*
D03*
X191811D02*
D03*
X181811D02*
D03*
X171811D02*
D03*
X161811D02*
D03*
X151811D02*
D03*
X71811D02*
D03*
X81811D02*
D03*
X91811D02*
D03*
X101811D02*
D03*
X111811D02*
D03*
X121811D02*
D03*
X131811D02*
D03*
X141811D02*
D03*
X61811D02*
D03*
X51811D02*
D03*
X41811D02*
D03*
X31811D02*
D03*
X21811Y300315D02*
D03*
X31811D02*
D03*
X41811D02*
D03*
X51811D02*
D03*
X61811D02*
D03*
X141811D02*
D03*
X131811D02*
D03*
X121811D02*
D03*
X111811D02*
D03*
X101811D02*
D03*
X91811D02*
D03*
X81811D02*
D03*
X71811D02*
D03*
X151811D02*
D03*
X161811D02*
D03*
X171811D02*
D03*
X181811D02*
D03*
X191811D02*
D03*
X201811D02*
D03*
X211811D02*
D03*
X221811D02*
D03*
X231811D02*
D03*
Y310315D02*
D03*
X11811Y300315D02*
D03*
X291811Y310315D02*
D03*
Y300315D02*
D03*
X281811D02*
D03*
X271811D02*
D03*
X261811D02*
D03*
X251811D02*
D03*
X241811D02*
D03*
Y310315D02*
D03*
X251811D02*
D03*
X261811D02*
D03*
X271811D02*
D03*
X281811D02*
D03*
X321811Y300315D02*
D03*
X311811D02*
D03*
X301811D02*
D03*
Y310315D02*
D03*
X221811Y290315D02*
D03*
X211811D02*
D03*
X201811D02*
D03*
X191811D02*
D03*
X181811D02*
D03*
X171811D02*
D03*
X161811D02*
D03*
X151811D02*
D03*
X71811D02*
D03*
X81811D02*
D03*
X91811D02*
D03*
X101811D02*
D03*
X111811D02*
D03*
X121811D02*
D03*
X131811D02*
D03*
X141811D02*
D03*
X61811D02*
D03*
X51811D02*
D03*
X41811D02*
D03*
X31811D02*
D03*
X21811D02*
D03*
Y240315D02*
D03*
X31811D02*
D03*
X41811D02*
D03*
X51811D02*
D03*
X61811D02*
D03*
X141811D02*
D03*
X131811D02*
D03*
X121811D02*
D03*
X111811D02*
D03*
X101811D02*
D03*
X91811D02*
D03*
X81811D02*
D03*
X71811D02*
D03*
X151811D02*
D03*
X161811D02*
D03*
X171811D02*
D03*
X181811D02*
D03*
X191811D02*
D03*
X201811D02*
D03*
X211811D02*
D03*
X221811D02*
D03*
X231811D02*
D03*
Y290315D02*
D03*
X11811Y240315D02*
D03*
Y290315D02*
D03*
X291811D02*
D03*
Y240315D02*
D03*
X281811D02*
D03*
X271811D02*
D03*
X261811D02*
D03*
X251811D02*
D03*
X241811D02*
D03*
Y290315D02*
D03*
X251811D02*
D03*
X261811D02*
D03*
X271811D02*
D03*
X281811D02*
D03*
X321811Y240315D02*
D03*
X311811D02*
D03*
X301811D02*
D03*
Y290315D02*
D03*
X311811D02*
D03*
X321811D02*
D03*
Y230315D02*
D03*
X311811D02*
D03*
X301811D02*
D03*
Y220315D02*
D03*
X311811D02*
D03*
X321811D02*
D03*
X281811Y230315D02*
D03*
X271811D02*
D03*
X261811D02*
D03*
X251811D02*
D03*
X241811D02*
D03*
Y220315D02*
D03*
X251811D02*
D03*
X261811D02*
D03*
X271811D02*
D03*
X281811D02*
D03*
X291811D02*
D03*
Y230315D02*
D03*
X11811D02*
D03*
Y220315D02*
D03*
X231811Y180315D02*
D03*
Y190315D02*
D03*
Y230315D02*
D03*
Y220315D02*
D03*
X221811D02*
D03*
X211811D02*
D03*
X201811D02*
D03*
X191811D02*
D03*
X181811D02*
D03*
X171811D02*
D03*
X161811D02*
D03*
X151811D02*
D03*
X71811D02*
D03*
X81811D02*
D03*
X91811D02*
D03*
X101811D02*
D03*
X111811D02*
D03*
X121811D02*
D03*
X131811D02*
D03*
X141811D02*
D03*
X61811D02*
D03*
X51811D02*
D03*
X41811D02*
D03*
X31811D02*
D03*
X21811D02*
D03*
Y230315D02*
D03*
X31811D02*
D03*
X41811D02*
D03*
X51811D02*
D03*
X61811D02*
D03*
X141811D02*
D03*
X131811D02*
D03*
X121811D02*
D03*
X111811D02*
D03*
X101811D02*
D03*
X91811D02*
D03*
X81811D02*
D03*
X71811D02*
D03*
X151811D02*
D03*
X161811D02*
D03*
X171811D02*
D03*
X181811D02*
D03*
X191811D02*
D03*
X201811D02*
D03*
X211811D02*
D03*
X221811D02*
D03*
Y190315D02*
D03*
X211811D02*
D03*
X201811D02*
D03*
X191811D02*
D03*
X181811D02*
D03*
X171811D02*
D03*
X161811D02*
D03*
X151811D02*
D03*
X71811D02*
D03*
X81811D02*
D03*
X91811D02*
D03*
X101811D02*
D03*
X111811D02*
D03*
X121811D02*
D03*
X131811D02*
D03*
X141811D02*
D03*
X61811D02*
D03*
X51811D02*
D03*
X41811D02*
D03*
X31811D02*
D03*
X21811D02*
D03*
Y180315D02*
D03*
X31811D02*
D03*
X41811D02*
D03*
X51811D02*
D03*
X61811D02*
D03*
X141811D02*
D03*
X131811D02*
D03*
X121811D02*
D03*
X111811D02*
D03*
X101811D02*
D03*
X91811D02*
D03*
X81811D02*
D03*
X71811D02*
D03*
X151811D02*
D03*
X161811D02*
D03*
X171811D02*
D03*
X181811D02*
D03*
X191811D02*
D03*
X201811D02*
D03*
X211811D02*
D03*
X221811D02*
D03*
X41929Y47244D02*
D03*
X51929D02*
D03*
X61929D02*
D03*
X71929D02*
D03*
X81929D02*
D03*
X91929D02*
D03*
X250000Y69055D02*
D03*
Y59055D02*
D03*
X116142Y29370D02*
D03*
Y39370D02*
D03*
X230315Y69055D02*
D03*
Y59055D02*
D03*
X250000Y41496D02*
D03*
Y31496D02*
D03*
D97*
X15748Y318898D02*
D03*
X318898D02*
D03*
X318898Y15748D02*
D03*
X15748D02*
D03*
D98*
X292323Y73819D02*
D03*
Y99410D02*
D03*
X274606D02*
D03*
Y73819D02*
D03*
X62008Y142717D02*
D03*
Y117126D02*
D03*
X79724D02*
D03*
Y142717D02*
D03*
D99*
X11811Y149921D02*
D03*
Y109921D02*
D03*
M02*
