G04 Layer_Physical_Order=1*
G04 Layer_Color=11767835*
%FSLAX25Y25*%
%MOIN*%
G70*
G01*
G75*
%ADD10R,0.02756X0.03543*%
%ADD11R,0.03740X0.08465*%
%ADD12R,0.12795X0.08465*%
%ADD13R,0.03543X0.02756*%
%ADD14R,0.01772X0.02461*%
%ADD15R,0.00984X0.02461*%
%ADD16R,0.05807X0.08268*%
%ADD17R,0.01772X0.05433*%
%ADD18R,0.09350X0.07480*%
%ADD19R,0.04626X0.07480*%
%ADD20R,0.05709X0.05512*%
%ADD21R,0.04724X0.14921*%
%ADD22R,0.02362X0.04921*%
%ADD23R,0.03740X0.03347*%
%ADD24R,0.03937X0.02362*%
%ADD25R,0.05118X0.04134*%
%ADD26R,0.05906X0.01181*%
%ADD27R,0.01181X0.05906*%
%ADD28R,0.08661X0.03740*%
%ADD29R,0.06201X0.01181*%
%ADD30R,0.01378X0.01181*%
%ADD31C,0.00984*%
%ADD32C,0.05906*%
%ADD33C,0.00591*%
%ADD34C,0.03937*%
%ADD35C,0.01969*%
%ADD36R,0.15748X0.11811*%
%ADD37C,0.07874*%
%ADD38C,0.07400*%
%ADD39C,0.12795*%
%ADD40C,0.12205*%
%ADD41C,0.01969*%
%ADD42C,0.03937*%
G36*
X143782Y50571D02*
X142212Y49001D01*
X141751Y49247D01*
X141763Y49309D01*
X141641Y49923D01*
X141293Y50444D01*
X140772Y50792D01*
X140157Y50914D01*
X139543Y50792D01*
X139022Y50444D01*
X138674Y49923D01*
X138552Y49309D01*
X138606Y49035D01*
X134847Y45276D01*
X108621D01*
X108268Y45629D01*
X108268Y58152D01*
X111614D01*
Y56693D01*
X115551D01*
Y61105D01*
X116732D01*
Y56693D01*
X120669D01*
Y58152D01*
X133268D01*
X133613Y58221D01*
X133906Y58416D01*
X137450Y61960D01*
X137645Y62253D01*
X137714Y62598D01*
X138818D01*
X139009Y62137D01*
X137747Y60875D01*
X137551Y60582D01*
X137483Y60236D01*
Y57480D01*
X136417D01*
Y52756D01*
X140354D01*
Y57480D01*
X139289D01*
Y59862D01*
X141387Y61960D01*
X141387Y61960D01*
X141582Y62253D01*
X141594Y62310D01*
X141651Y62598D01*
X143782D01*
Y50571D01*
D02*
G37*
G36*
X164961Y28937D02*
X166420D01*
Y11595D01*
X165264Y10439D01*
X164764Y10646D01*
Y13083D01*
X157874D01*
Y10236D01*
X159646D01*
Y7087D01*
X159063D01*
Y5323D01*
X161024D01*
Y6890D01*
X164764D01*
Y7758D01*
X164764D01*
X165109Y7827D01*
X165402Y8023D01*
X167962Y10582D01*
X168157Y10875D01*
X168226Y11220D01*
Y28937D01*
X169685D01*
Y30593D01*
X171260D01*
Y903D01*
X110236D01*
Y30545D01*
X110736Y30812D01*
X110901Y30702D01*
X111003Y30681D01*
X111221Y30638D01*
Y29724D01*
X121063D01*
Y31496D01*
X123622D01*
Y28937D01*
X125081D01*
Y25374D01*
X123968Y24261D01*
X123772Y23968D01*
X123703Y23622D01*
Y23425D01*
X122835D01*
Y18661D01*
X120579D01*
Y11110D01*
X123031D01*
Y17323D01*
X126378D01*
Y23425D01*
X126340D01*
X126149Y23887D01*
X126623Y24361D01*
X126623Y24361D01*
X126819Y24654D01*
X126830Y24712D01*
X126887Y25000D01*
X126887Y25000D01*
Y28937D01*
X128346D01*
Y31496D01*
X129527D01*
Y28937D01*
X130987D01*
Y27146D01*
X128298Y24457D01*
X128103Y24164D01*
X128034Y23819D01*
Y23425D01*
X127165D01*
Y17323D01*
X130709D01*
Y23425D01*
X130528D01*
X130321Y23925D01*
X132528Y26133D01*
X132724Y26426D01*
X132793Y26772D01*
Y28937D01*
X134252D01*
Y31496D01*
X135433D01*
Y31405D01*
X137795D01*
X140157D01*
Y31496D01*
X141339D01*
Y31405D01*
X143701D01*
X146063D01*
Y31496D01*
X147244D01*
Y28937D01*
X148703D01*
Y27343D01*
X145621Y24261D01*
X145425Y23968D01*
X145357Y23622D01*
Y23425D01*
X144488D01*
Y17323D01*
X146318D01*
X146568Y16823D01*
X146439Y16651D01*
X139557D01*
X139394Y16848D01*
X139370Y17323D01*
X139370D01*
X139370Y17323D01*
Y23425D01*
X135827D01*
Y17323D01*
X136695D01*
X136764Y16977D01*
X136960Y16684D01*
X138535Y15109D01*
X138828Y14914D01*
X139173Y14845D01*
X139173Y14845D01*
X147047D01*
X147393Y14914D01*
X147686Y15109D01*
X149064Y16487D01*
X149260Y16780D01*
X149328Y17126D01*
Y17323D01*
X152362D01*
Y23425D01*
X152324D01*
X152133Y23887D01*
X156150Y27905D01*
X156346Y28198D01*
X156415Y28543D01*
Y28937D01*
X157874D01*
Y31496D01*
X159055D01*
Y28937D01*
X159827D01*
X160034Y28437D01*
X156909Y25313D01*
X155709D01*
X155363Y25244D01*
X155070Y25048D01*
X154283Y24261D01*
X154087Y23968D01*
X154018Y23622D01*
Y23425D01*
X153150D01*
Y17323D01*
X156693D01*
Y23425D01*
X157159Y23506D01*
X157283D01*
X157629Y23575D01*
X157922Y23771D01*
X162056Y27905D01*
X162252Y28198D01*
X162320Y28543D01*
Y28937D01*
X163779D01*
Y31496D01*
X164961D01*
Y28937D01*
D02*
G37*
G36*
X168504Y72638D02*
X175591D01*
Y72916D01*
X187618D01*
X190945Y69589D01*
Y45276D01*
X161498D01*
X161336Y45472D01*
Y60124D01*
X161545Y60251D01*
X161836Y60312D01*
X165306Y56842D01*
X165599Y56646D01*
X165657Y56634D01*
X165945Y56577D01*
X165945Y56577D01*
X171457D01*
Y54724D01*
X174884D01*
Y51575D01*
X173819D01*
Y46850D01*
X177756D01*
Y51575D01*
X176691D01*
Y54724D01*
X177756D01*
Y60039D01*
X171457D01*
Y58384D01*
X166319D01*
X163449Y61253D01*
X163472Y61512D01*
X163990Y61701D01*
X164716Y60975D01*
X165009Y60780D01*
X165354Y60711D01*
X180118D01*
X180464Y60780D01*
X180757Y60975D01*
X181789Y62008D01*
X186811D01*
Y62833D01*
X187273Y63024D01*
X187680Y62618D01*
Y51575D01*
X185630D01*
Y46850D01*
X189567D01*
Y51575D01*
X189486D01*
Y62992D01*
X189417Y63338D01*
X189221Y63631D01*
X189221Y63631D01*
X187548Y65304D01*
X187255Y65500D01*
X186909Y65569D01*
X186811D01*
Y67323D01*
X180512D01*
Y63285D01*
X179744Y62517D01*
X177756D01*
Y64165D01*
X174606D01*
X171457D01*
Y62517D01*
X165728D01*
X165551Y62695D01*
Y69685D01*
X160433D01*
Y73819D01*
X168504D01*
Y72638D01*
D02*
G37*
G36*
X255002Y121694D02*
Y84055D01*
X190945D01*
Y121592D01*
X242635D01*
X243003Y121113D01*
X243899Y120425D01*
X244943Y119993D01*
X246063Y119846D01*
X247183Y119993D01*
X248227Y120425D01*
X249123Y121113D01*
X249811Y122009D01*
X249826Y122047D01*
X254649D01*
X255002Y121694D01*
D02*
G37*
G36*
X193799Y27559D02*
Y27262D01*
Y24215D01*
X195947D01*
Y23209D01*
X195031Y22292D01*
X194862Y22039D01*
X194587Y21654D01*
Y21654D01*
X191593D01*
Y16929D01*
X191093D01*
Y16429D01*
X187598D01*
Y12705D01*
X187598Y12205D01*
X187098Y12205D01*
X187098D01*
X184006D01*
Y8374D01*
X189272D01*
Y7874D01*
X189772D01*
Y3543D01*
X194037D01*
X194537Y3543D01*
X194537D01*
X195037Y3543D01*
X196941D01*
Y7874D01*
Y12205D01*
X195087D01*
X195037D01*
X194971D01*
X194587Y12205D01*
Y12289D01*
Y12426D01*
X194587Y12684D01*
Y12705D01*
Y15000D01*
X206635D01*
X206988Y14646D01*
Y12705D01*
Y12684D01*
X206988Y12426D01*
Y12289D01*
Y12205D01*
X206604Y12205D01*
X206537D01*
X206488D01*
X206488D01*
X204634D01*
Y7874D01*
Y3543D01*
X206537D01*
X207037Y3543D01*
X207037D01*
X207537Y3543D01*
X211803D01*
Y7874D01*
X212303D01*
Y8374D01*
X217569D01*
Y12205D01*
X214476D01*
X213976Y12205D01*
X213976Y12705D01*
Y16429D01*
X210482D01*
Y16929D01*
X209982D01*
Y21654D01*
X207829D01*
X207454Y22153D01*
X207511Y22441D01*
X207389Y23055D01*
X207041Y23576D01*
X206520Y23924D01*
X205906Y24047D01*
X205291Y23924D01*
X204770Y23576D01*
X204422Y23055D01*
X204300Y22441D01*
X204365Y22114D01*
X204008Y21614D01*
X202679D01*
X202487Y22076D01*
X203395Y22983D01*
X203590Y23276D01*
X203659Y23622D01*
Y24215D01*
X203839D01*
Y27059D01*
X204216Y27559D01*
X208268D01*
Y27468D01*
X210630D01*
X213255D01*
X213346Y27559D01*
X214173D01*
Y27468D01*
X216535D01*
X219161D01*
X219251Y27559D01*
X220472D01*
Y903D01*
X181102D01*
Y27206D01*
X181456Y27559D01*
X193799D01*
D02*
G37*
G36*
X113270Y129921D02*
Y129243D01*
X113038Y129088D01*
X112690Y128567D01*
X112568Y127953D01*
X112690Y127338D01*
X113038Y126817D01*
X113559Y126469D01*
X114173Y126347D01*
X114788Y126469D01*
X115309Y126817D01*
X115657Y127338D01*
X115779Y127953D01*
X115657Y128567D01*
X115309Y129088D01*
X115239Y129135D01*
X115211Y129512D01*
X115600Y129921D01*
X125081D01*
Y123425D01*
X125150Y123080D01*
X125346Y122787D01*
X133661Y114471D01*
Y107480D01*
X142217D01*
Y111024D01*
Y114567D01*
X141651D01*
Y114567D01*
X141582Y114913D01*
X141387Y115206D01*
X137517Y119075D01*
Y119685D01*
X138673D01*
Y122047D01*
Y124409D01*
X138205D01*
X137998Y124909D01*
X138434Y125346D01*
X138434Y125346D01*
X138630Y125639D01*
X138641Y125696D01*
X138698Y125984D01*
X138698Y125984D01*
Y129568D01*
X139052Y129921D01*
X140829D01*
Y129724D01*
X140898Y129379D01*
X141094Y129086D01*
X145270Y124909D01*
X145063Y124409D01*
X142323D01*
Y119685D01*
X143782D01*
Y114567D01*
X143217D01*
Y111024D01*
Y107036D01*
X143246Y106980D01*
X143202Y106914D01*
X143079Y106299D01*
X143202Y105685D01*
X143550Y105164D01*
X144071Y104816D01*
X144685Y104694D01*
X145299Y104816D01*
X145820Y105164D01*
X146168Y105685D01*
X146291Y106299D01*
X146168Y106914D01*
X146124Y106980D01*
X146391Y107480D01*
X150853D01*
X151120Y106980D01*
X151076Y106914D01*
X150953Y106299D01*
X151076Y105685D01*
X151424Y105164D01*
X151945Y104816D01*
X152559Y104694D01*
X153173Y104816D01*
X153694Y105164D01*
X154042Y105685D01*
X154165Y106299D01*
X154042Y106914D01*
X153998Y106980D01*
X154028Y107036D01*
Y111024D01*
Y114567D01*
X153462D01*
Y119685D01*
X154921D01*
Y124409D01*
X151494D01*
Y125000D01*
X151494Y125000D01*
X151436Y125288D01*
X151425Y125346D01*
X151229Y125639D01*
X151229Y125639D01*
X150510Y126358D01*
Y129568D01*
X150863Y129921D01*
X154431D01*
X159443Y124909D01*
X159321Y124409D01*
X158571D01*
Y122047D01*
Y119685D01*
X159530D01*
Y118878D01*
X155857Y115206D01*
X155662Y114913D01*
X155593Y114567D01*
Y114567D01*
X155028D01*
Y111024D01*
Y107480D01*
X165551D01*
Y114471D01*
X169930Y118850D01*
X170126Y119143D01*
X170137Y119200D01*
X170194Y119488D01*
X170194Y119488D01*
Y129568D01*
X170548Y129921D01*
X178231D01*
Y129243D01*
X177998Y129088D01*
X177650Y128567D01*
X177528Y127953D01*
X177650Y127338D01*
X177998Y126817D01*
X178519Y126469D01*
X179134Y126347D01*
X179748Y126469D01*
X180269Y126817D01*
X180617Y127338D01*
X180739Y127953D01*
X180617Y128567D01*
X180269Y129088D01*
X180199Y129135D01*
X180172Y129512D01*
X180560Y129921D01*
X182168D01*
Y129243D01*
X181936Y129088D01*
X181587Y128567D01*
X181465Y127953D01*
X181587Y127338D01*
X181936Y126817D01*
X182456Y126469D01*
X183071Y126347D01*
X183685Y126469D01*
X184206Y126817D01*
X184554Y127338D01*
X184677Y127953D01*
X184554Y128567D01*
X184206Y129088D01*
X184136Y129135D01*
X184109Y129512D01*
X184497Y129921D01*
X186105D01*
Y129243D01*
X185872Y129088D01*
X185524Y128567D01*
X185402Y127953D01*
X185524Y127338D01*
X185872Y126817D01*
X186393Y126469D01*
X187008Y126347D01*
X187622Y126469D01*
X188143Y126817D01*
X188491Y127338D01*
X188613Y127953D01*
X188491Y128567D01*
X188143Y129088D01*
X188073Y129135D01*
X188046Y129512D01*
X188434Y129921D01*
X190042D01*
Y129243D01*
X189810Y129088D01*
X189461Y128567D01*
X189339Y127953D01*
X189461Y127338D01*
X189810Y126817D01*
X190330Y126469D01*
X190945Y126347D01*
X190945Y126347D01*
Y122231D01*
X190945D01*
X190493Y122044D01*
X190306Y121592D01*
Y84055D01*
X190493Y83603D01*
X190729Y83505D01*
X190840Y82954D01*
X190577Y82596D01*
X175591D01*
Y84449D01*
Y85130D01*
X172047D01*
X168059D01*
X168004Y85100D01*
X167937Y85145D01*
X167323Y85267D01*
X166708Y85145D01*
X166188Y84797D01*
X165839Y84276D01*
X165717Y83661D01*
X165839Y83047D01*
X166188Y82526D01*
X166708Y82178D01*
X167323Y82056D01*
X167937Y82178D01*
X168004Y82222D01*
X168504Y81955D01*
Y80512D01*
Y79462D01*
X168004Y79195D01*
X167937Y79239D01*
X167323Y79362D01*
X166708Y79239D01*
X166188Y78891D01*
X165839Y78370D01*
X165717Y77756D01*
X165839Y77141D01*
X166188Y76621D01*
X166708Y76272D01*
X167323Y76150D01*
X167937Y76272D01*
X168004Y76317D01*
X168059Y76287D01*
X172047D01*
X175591D01*
Y76575D01*
Y78543D01*
Y78821D01*
X190591D01*
X190945Y78468D01*
Y72797D01*
X190483Y72605D01*
X188631Y74458D01*
X188338Y74653D01*
X187992Y74722D01*
X175591D01*
Y75287D01*
X172047D01*
X168504D01*
Y74606D01*
Y74458D01*
X160433D01*
X159981Y74271D01*
X159794Y73819D01*
Y69685D01*
X157399D01*
Y71544D01*
X157631Y71699D01*
X157980Y72220D01*
X158102Y72835D01*
X157980Y73449D01*
X157631Y73970D01*
X157111Y74318D01*
X156496Y74440D01*
X155882Y74318D01*
X155361Y73970D01*
X155013Y73449D01*
X154890Y72835D01*
X154893Y72823D01*
X154539Y72470D01*
X154528Y72472D01*
X153913Y72350D01*
X153392Y72001D01*
X153044Y71481D01*
X152922Y70866D01*
X153044Y70252D01*
X153089Y70185D01*
X153059Y70130D01*
Y66142D01*
Y62598D01*
X157561D01*
Y57480D01*
X156602D01*
Y55118D01*
Y52756D01*
X157561D01*
Y46634D01*
X156203Y45276D01*
X147557D01*
Y62598D01*
X149687D01*
Y57480D01*
X149016D01*
Y52756D01*
X152953D01*
Y57480D01*
X151494D01*
Y62598D01*
X152059D01*
Y66142D01*
Y70130D01*
X152029Y70185D01*
X152074Y70252D01*
X152196Y70866D01*
X152074Y71481D01*
X151726Y72001D01*
X151205Y72350D01*
X150591Y72472D01*
X150579Y72470D01*
X150225Y72823D01*
X150228Y72835D01*
X150106Y73449D01*
X149757Y73970D01*
X149237Y74318D01*
X148622Y74440D01*
X148008Y74318D01*
X147487Y73970D01*
X147139Y73449D01*
X147016Y72835D01*
X147139Y72220D01*
X147487Y71699D01*
X147719Y71544D01*
Y69685D01*
X143620D01*
Y71544D01*
X143852Y71699D01*
X144200Y72220D01*
X144322Y72835D01*
X144200Y73449D01*
X143852Y73970D01*
X143331Y74318D01*
X142717Y74440D01*
X142102Y74318D01*
X141581Y73970D01*
X141233Y73449D01*
X141125Y72907D01*
X141020Y72730D01*
X140853Y72562D01*
X140676Y72457D01*
X140134Y72350D01*
X139613Y72001D01*
X139265Y71481D01*
X139142Y70866D01*
X139265Y70252D01*
X139309Y70185D01*
X139279Y70130D01*
Y66142D01*
X138279D01*
Y69685D01*
X133661D01*
Y62911D01*
X108621D01*
X108268Y63265D01*
Y64057D01*
X125591D01*
X125936Y64126D01*
X126229Y64322D01*
X133710Y71802D01*
X133905Y72095D01*
X133974Y72441D01*
Y81299D01*
X133905Y81645D01*
X133710Y81938D01*
X132093Y83555D01*
X132257Y84097D01*
X132504Y84146D01*
X133025Y84495D01*
X133373Y85015D01*
X133495Y85630D01*
X133373Y86244D01*
X133025Y86765D01*
X132504Y87113D01*
X131890Y87236D01*
X131275Y87113D01*
X131209Y87069D01*
X130709Y87336D01*
Y88386D01*
Y89067D01*
X127165D01*
X123622D01*
Y88502D01*
X123622D01*
X123276Y88433D01*
X122983Y88237D01*
X119440Y84694D01*
X119244Y84401D01*
X119176Y84055D01*
Y82301D01*
X118977Y82152D01*
X118504Y82087D01*
Y82087D01*
X113779D01*
Y81021D01*
X108621D01*
X108268Y81375D01*
X108268Y127159D01*
X108730Y127323D01*
X108768Y127316D01*
X109101Y126817D01*
X109622Y126469D01*
X110236Y126347D01*
X110851Y126469D01*
X111372Y126817D01*
X111720Y127338D01*
X111842Y127953D01*
X111720Y128567D01*
X111372Y129088D01*
X111302Y129135D01*
X111275Y129512D01*
X111662Y129921D01*
X113270D01*
D02*
G37*
%LPC*%
G36*
X137295Y30406D02*
X135433D01*
Y28937D01*
X137295D01*
Y30406D01*
D02*
G37*
G36*
X218898Y26469D02*
X217035D01*
Y25000D01*
X218898D01*
Y26469D01*
D02*
G37*
G36*
X143201Y30406D02*
X141339D01*
Y28937D01*
X143201D01*
Y30406D01*
D02*
G37*
G36*
X140157Y30406D02*
X138295D01*
Y28937D01*
X140157D01*
Y30406D01*
D02*
G37*
G36*
X212992Y26469D02*
X211130D01*
Y25000D01*
X212992D01*
Y26469D01*
D02*
G37*
G36*
X135039Y23425D02*
X133768D01*
Y20874D01*
X135039D01*
Y23425D01*
D02*
G37*
G36*
X216035Y26469D02*
X214173D01*
Y25000D01*
X216035D01*
Y26469D01*
D02*
G37*
G36*
X210130Y26469D02*
X208268D01*
Y25000D01*
X210130D01*
Y26469D01*
D02*
G37*
G36*
X172638Y51575D02*
X171169D01*
Y49713D01*
X172638D01*
Y51575D01*
D02*
G37*
G36*
X170169D02*
X168701D01*
Y49713D01*
X170169D01*
Y51575D01*
D02*
G37*
G36*
X184449D02*
X182980D01*
Y49713D01*
X184449D01*
Y51575D01*
D02*
G37*
G36*
X181980D02*
X180512D01*
Y49713D01*
X181980D01*
Y51575D01*
D02*
G37*
G36*
X184449Y48713D02*
X182980D01*
Y46850D01*
X184449D01*
Y48713D01*
D02*
G37*
G36*
X170169D02*
X168701D01*
Y46850D01*
X170169D01*
Y48713D01*
D02*
G37*
G36*
X146063Y30406D02*
X144201D01*
Y28937D01*
X146063D01*
Y30406D01*
D02*
G37*
G36*
X181980Y48713D02*
X180512D01*
Y46850D01*
X181980D01*
Y48713D01*
D02*
G37*
G36*
X172638D02*
X171169D01*
Y46850D01*
X172638D01*
Y48713D01*
D02*
G37*
G36*
X132768Y23425D02*
X131496D01*
Y20874D01*
X132768D01*
Y23425D01*
D02*
G37*
G36*
X200344Y7374D02*
X197941D01*
Y3543D01*
X200344D01*
Y7374D01*
D02*
G37*
G36*
X203634D02*
X201230D01*
Y3543D01*
X203634D01*
Y7374D01*
D02*
G37*
G36*
X158063Y7087D02*
X156102D01*
Y5323D01*
X158063D01*
Y7087D01*
D02*
G37*
G36*
X217569Y7374D02*
X212803D01*
Y3543D01*
X217569D01*
Y7374D01*
D02*
G37*
G36*
X188772Y7374D02*
X184006D01*
Y3543D01*
X188772D01*
Y7374D01*
D02*
G37*
G36*
X161024Y4323D02*
X159063D01*
Y2559D01*
X161024D01*
Y4323D01*
D02*
G37*
G36*
X158063D02*
X156102D01*
Y2559D01*
X158063D01*
Y4323D01*
D02*
G37*
G36*
X123031Y10110D02*
X120579D01*
Y2559D01*
X123031D01*
Y10110D01*
D02*
G37*
G36*
X119579D02*
X117126D01*
Y2559D01*
X119579D01*
Y10110D01*
D02*
G37*
G36*
X203634Y12205D02*
X201230D01*
Y8374D01*
X203634D01*
Y12205D01*
D02*
G37*
G36*
X141929Y25818D02*
X141315Y25696D01*
X140794Y25348D01*
X140446Y24827D01*
X140323Y24213D01*
X140381Y23925D01*
X140157Y23425D01*
X140157D01*
X140157Y23425D01*
Y17323D01*
X143701D01*
Y23425D01*
X143701Y23425D01*
X143701D01*
X143478Y23925D01*
X143535Y24213D01*
X143413Y24827D01*
X143064Y25348D01*
X142544Y25696D01*
X141929Y25818D01*
D02*
G37*
G36*
X135039Y19874D02*
X133768D01*
Y17323D01*
X135039D01*
Y19874D01*
D02*
G37*
G36*
X213976Y21654D02*
X210982D01*
Y17429D01*
X213976D01*
Y21654D01*
D02*
G37*
G36*
X190593D02*
X187598D01*
Y17429D01*
X190593D01*
Y21654D01*
D02*
G37*
G36*
X132768Y19874D02*
X131496D01*
Y17323D01*
X132768D01*
Y19874D01*
D02*
G37*
G36*
X119579Y18661D02*
X117126D01*
Y11110D01*
X119579D01*
Y18661D01*
D02*
G37*
G36*
X200344Y12205D02*
X197941D01*
Y8374D01*
X200344D01*
Y12205D01*
D02*
G37*
G36*
X164764Y16929D02*
X161819D01*
Y14083D01*
X164764D01*
Y16929D01*
D02*
G37*
G36*
X160819D02*
X157874D01*
Y14083D01*
X160819D01*
Y16929D01*
D02*
G37*
G36*
X155602Y54618D02*
X154134D01*
Y52756D01*
X155602D01*
Y54618D01*
D02*
G37*
G36*
X233752Y104823D02*
X227264D01*
Y100500D01*
X233752D01*
Y104823D01*
D02*
G37*
G36*
X131890Y104952D02*
X131275Y104830D01*
X131131Y104734D01*
X130709Y104528D01*
X130709D01*
X130709Y104527D01*
X130709Y104527D01*
X123622D01*
Y102165D01*
Y100197D01*
Y98228D01*
Y96260D01*
Y94291D01*
Y93466D01*
X123160Y93275D01*
X119339Y97095D01*
X119046Y97291D01*
X118701Y97360D01*
X118504D01*
Y99016D01*
X113779D01*
Y95079D01*
X118504D01*
X118504Y95079D01*
Y95079D01*
X118953Y94927D01*
X122983Y90897D01*
X123276Y90701D01*
X123334Y90690D01*
X123622Y90632D01*
Y90354D01*
Y90067D01*
X127165D01*
X131153D01*
X131209Y90096D01*
X131275Y90052D01*
X131890Y89930D01*
X132504Y90052D01*
X133025Y90400D01*
X133373Y90921D01*
X133481Y91464D01*
X133586Y91640D01*
X133847Y91901D01*
X133858Y91898D01*
X134473Y92020D01*
X134994Y92369D01*
X135342Y92889D01*
X135464Y93504D01*
X135342Y94118D01*
X134994Y94639D01*
X134473Y94987D01*
X133858Y95110D01*
X133847Y95107D01*
X133586Y95368D01*
X133524Y95473D01*
X133586Y95577D01*
X133847Y95838D01*
X133858Y95835D01*
X134473Y95957D01*
X134994Y96306D01*
X135342Y96826D01*
X135464Y97441D01*
X135342Y98055D01*
X134994Y98576D01*
X134473Y98924D01*
X133858Y99047D01*
X133847Y99044D01*
X133586Y99305D01*
X133524Y99410D01*
X133586Y99514D01*
X133847Y99775D01*
X133858Y99772D01*
X134473Y99894D01*
X134994Y100243D01*
X135342Y100763D01*
X135464Y101378D01*
X135342Y101992D01*
X134994Y102513D01*
X134473Y102861D01*
X133858Y102984D01*
X133847Y102981D01*
X133586Y103242D01*
X133481Y103418D01*
X133373Y103961D01*
X133025Y104482D01*
X132504Y104830D01*
X131890Y104952D01*
D02*
G37*
G36*
X241240Y104823D02*
X234752D01*
Y100500D01*
X241240D01*
Y104823D01*
D02*
G37*
G36*
X184232Y105435D02*
X184199Y105428D01*
X184199D01*
D01*
X183810Y105351D01*
X183752Y105312D01*
X183452Y105111D01*
X183212Y104753D01*
X183171Y104547D01*
X182874Y104250D01*
X175591D01*
Y104527D01*
X168504D01*
Y102281D01*
X166645D01*
X166490Y102513D01*
X165969Y102861D01*
X165354Y102984D01*
X164740Y102861D01*
X164219Y102513D01*
X163871Y101992D01*
X163749Y101378D01*
X163871Y100763D01*
X164219Y100243D01*
X164740Y99894D01*
X165354Y99772D01*
X165366Y99775D01*
X165719Y99421D01*
X165717Y99410D01*
X165719Y99398D01*
X165366Y99044D01*
X165354Y99047D01*
X164740Y98924D01*
X164219Y98576D01*
X163871Y98055D01*
X163749Y97441D01*
X163871Y96826D01*
X164219Y96306D01*
X164740Y95957D01*
X165354Y95835D01*
X165404Y95472D01*
X165354Y95110D01*
X164740Y94987D01*
X164219Y94639D01*
X163871Y94118D01*
X163749Y93504D01*
X163871Y92889D01*
X164219Y92369D01*
X164740Y92020D01*
X165354Y91898D01*
X165404Y91535D01*
X165354Y91173D01*
X164740Y91050D01*
X164219Y90702D01*
X163871Y90181D01*
X163749Y89567D01*
X163871Y88952D01*
X164219Y88432D01*
X164740Y88083D01*
X165354Y87961D01*
X165366Y87964D01*
X165719Y87610D01*
X165717Y87598D01*
X165839Y86984D01*
X166188Y86463D01*
X166708Y86115D01*
X167323Y85993D01*
X167937Y86115D01*
X168004Y86159D01*
X168059Y86130D01*
X172047D01*
X175591D01*
Y86417D01*
Y86695D01*
X176772D01*
X177117Y86764D01*
X177410Y86960D01*
X180209Y89758D01*
X180709Y89551D01*
Y89173D01*
X185433D01*
Y93110D01*
X180709D01*
Y92337D01*
X180315Y92045D01*
X180027Y91988D01*
X179969Y91976D01*
X179676Y91780D01*
X176398Y88502D01*
X175591D01*
Y90354D01*
Y92323D01*
Y94291D01*
Y96260D01*
Y98228D01*
Y100197D01*
Y102165D01*
Y102443D01*
X183248D01*
X183594Y102512D01*
X183887Y102708D01*
X184234Y103056D01*
X184655Y103311D01*
D01*
X185039Y103486D01*
X185346Y103346D01*
Y104331D01*
Y105315D01*
X185039Y105176D01*
X184687Y105336D01*
X184655Y105351D01*
X184655D01*
X184654Y105351D01*
X184232Y105435D01*
D02*
G37*
G36*
X186814Y103831D02*
X186346D01*
Y103363D01*
X186627Y103550D01*
X186814Y103831D01*
D02*
G37*
G36*
X115642Y93898D02*
X113779D01*
Y92429D01*
X115642D01*
Y93898D01*
D02*
G37*
G36*
X118504Y91429D02*
X116642D01*
Y89961D01*
X118504D01*
Y91429D01*
D02*
G37*
G36*
Y93898D02*
X116642D01*
Y92429D01*
X118504D01*
Y93898D01*
D02*
G37*
G36*
X241240Y99500D02*
X234752D01*
Y95177D01*
X241240D01*
Y99500D01*
D02*
G37*
G36*
X233752D02*
X227264D01*
Y95177D01*
X233752D01*
Y99500D01*
D02*
G37*
G36*
X141142Y121547D02*
X139673D01*
Y119685D01*
X141142D01*
Y121547D01*
D02*
G37*
G36*
X246563Y118435D02*
Y114673D01*
X250325D01*
X250243Y115293D01*
X249811Y116337D01*
X249123Y117233D01*
X248227Y117921D01*
X247183Y118353D01*
X246563Y118435D01*
D02*
G37*
G36*
X157571Y121547D02*
X156102D01*
Y119685D01*
X157571D01*
Y121547D01*
D02*
G37*
G36*
Y124409D02*
X156102D01*
Y122547D01*
X157571D01*
Y124409D01*
D02*
G37*
G36*
X141142Y124409D02*
X139673D01*
Y122547D01*
X141142D01*
Y124409D01*
D02*
G37*
G36*
X185039Y112629D02*
X184425Y112507D01*
X183904Y112159D01*
X183556Y111638D01*
X183434Y111024D01*
X183496Y110709D01*
X183398Y110562D01*
X183329Y110216D01*
Y108865D01*
X183212Y108690D01*
X183128Y108268D01*
X183212Y107845D01*
X183452Y107487D01*
X183752Y107287D01*
X183810Y107248D01*
X184199Y107170D01*
D01*
D01*
X184199D01*
X184232Y107164D01*
X184654Y107248D01*
X184655Y107248D01*
X184655D01*
X184687Y107263D01*
X185039Y107423D01*
X185392Y107263D01*
X185424Y107248D01*
X185424D01*
X185425Y107248D01*
X185846Y107164D01*
X185880Y107170D01*
X185880D01*
D01*
X186269Y107248D01*
X186327Y107287D01*
X186627Y107487D01*
X186866Y107845D01*
X186950Y108268D01*
X186866Y108690D01*
X186750Y108865D01*
Y110216D01*
X186750Y110216D01*
X186681Y110562D01*
X186583Y110709D01*
X186645Y111024D01*
X186523Y111638D01*
X186175Y112159D01*
X185654Y112507D01*
X185039Y112629D01*
D02*
G37*
G36*
X186346Y105299D02*
Y104831D01*
X186814D01*
X186627Y105111D01*
X186346Y105299D01*
D02*
G37*
G36*
X245563Y113673D02*
X241801D01*
X241883Y113053D01*
X242315Y112009D01*
X243003Y111113D01*
X243899Y110425D01*
X244943Y109993D01*
X245563Y109912D01*
Y113673D01*
D02*
G37*
G36*
Y118435D02*
X244943Y118353D01*
X243899Y117921D01*
X243003Y117233D01*
X242315Y116337D01*
X241883Y115293D01*
X241801Y114673D01*
X245563D01*
Y118435D01*
D02*
G37*
G36*
X250325Y113673D02*
X246563D01*
Y109912D01*
X247183Y109993D01*
X248227Y110425D01*
X249123Y111113D01*
X249811Y112009D01*
X250243Y113053D01*
X250325Y113673D01*
D02*
G37*
G36*
X155602Y57480D02*
X154134D01*
Y55618D01*
X155602D01*
Y57480D01*
D02*
G37*
G36*
X135236Y57480D02*
X133768D01*
Y55618D01*
X135236D01*
Y57480D01*
D02*
G37*
G36*
X183161Y60039D02*
X180512D01*
Y57882D01*
X183161D01*
Y60039D01*
D02*
G37*
G36*
X174106Y67323D02*
X171457D01*
Y65165D01*
X174106D01*
Y67323D01*
D02*
G37*
G36*
X186811Y60039D02*
X184161D01*
Y57882D01*
X186811D01*
Y60039D01*
D02*
G37*
G36*
X135236Y54618D02*
X133768D01*
Y52756D01*
X135236D01*
Y54618D01*
D02*
G37*
G36*
X132768D02*
X131299D01*
Y52756D01*
X132768D01*
Y54618D01*
D02*
G37*
G36*
X183161Y56882D02*
X180512D01*
Y54724D01*
X183161D01*
Y56882D01*
D02*
G37*
G36*
X132768Y57480D02*
X131299D01*
Y55618D01*
X132768D01*
Y57480D01*
D02*
G37*
G36*
X186811Y56882D02*
X184161D01*
Y54724D01*
X186811D01*
Y56882D01*
D02*
G37*
G36*
X118504Y87205D02*
X116642D01*
Y85736D01*
X118504D01*
Y87205D01*
D02*
G37*
G36*
X115642D02*
X113779D01*
Y85736D01*
X115642D01*
Y87205D01*
D02*
G37*
G36*
X182571Y87992D02*
X180709D01*
Y86524D01*
X182571D01*
Y87992D01*
D02*
G37*
G36*
X115642Y91429D02*
X113779D01*
Y89961D01*
X115642D01*
Y91429D01*
D02*
G37*
G36*
X185433Y87992D02*
X183571D01*
Y86524D01*
X185433D01*
Y87992D01*
D02*
G37*
G36*
X115642Y84736D02*
X113779D01*
Y83268D01*
X115642D01*
Y84736D01*
D02*
G37*
G36*
X177756Y67323D02*
X175106D01*
Y65165D01*
X177756D01*
Y67323D01*
D02*
G37*
G36*
X118504Y84736D02*
X116642D01*
Y83268D01*
X118504D01*
Y84736D01*
D02*
G37*
G36*
X185433Y85524D02*
X183571D01*
Y84055D01*
X185433D01*
Y85524D01*
D02*
G37*
G36*
X182571D02*
X180709D01*
Y84055D01*
X182571D01*
Y85524D01*
D02*
G37*
%LPD*%
D10*
X118701Y59055D02*
D03*
X113583D02*
D03*
X118701Y68898D02*
D03*
X113583D02*
D03*
X242717Y66929D02*
D03*
X237598D02*
D03*
X230906D02*
D03*
X225787D02*
D03*
X139173Y122047D02*
D03*
X144291D02*
D03*
X152953Y122047D02*
D03*
X158071D02*
D03*
X138386Y55118D02*
D03*
X133268D02*
D03*
X170669Y49213D02*
D03*
X175787D02*
D03*
X156102Y55118D02*
D03*
X150984D02*
D03*
X182480Y49213D02*
D03*
X187598D02*
D03*
D11*
X243307Y77165D02*
D03*
X225197D02*
D03*
X234252D02*
D03*
D12*
Y100000D02*
D03*
D13*
X116142Y91929D02*
D03*
Y97047D02*
D03*
X183071Y91142D02*
D03*
Y86024D02*
D03*
X143701Y30906D02*
D03*
Y36024D02*
D03*
X137795Y30906D02*
D03*
Y36024D02*
D03*
X210630Y32087D02*
D03*
Y26969D02*
D03*
X116142Y85236D02*
D03*
Y80118D02*
D03*
X198819Y70276D02*
D03*
Y75394D02*
D03*
X204724Y70276D02*
D03*
Y75394D02*
D03*
X167323Y36024D02*
D03*
Y30906D02*
D03*
X131890Y36024D02*
D03*
Y30906D02*
D03*
X149606Y36024D02*
D03*
Y30906D02*
D03*
X155512Y36024D02*
D03*
Y30906D02*
D03*
X125984Y36024D02*
D03*
Y30906D02*
D03*
X161417Y36024D02*
D03*
Y30906D02*
D03*
X216535Y26969D02*
D03*
Y32087D02*
D03*
D14*
X198819Y29083D02*
D03*
Y25984D02*
D03*
D15*
X194882Y26035D02*
D03*
X196850D02*
D03*
X200787D02*
D03*
X202756D02*
D03*
Y29083D02*
D03*
X200787D02*
D03*
X196850D02*
D03*
X194882D02*
D03*
D16*
X210482Y16929D02*
D03*
X191093D02*
D03*
D17*
X205906Y18307D02*
D03*
X203346D02*
D03*
X200787D02*
D03*
X198228D02*
D03*
X195669D02*
D03*
D18*
X189272Y7874D02*
D03*
X212303D02*
D03*
D19*
X197441D02*
D03*
X204134D02*
D03*
D20*
X161319Y13583D02*
D03*
D21*
X120079Y10610D02*
D03*
D22*
X124606Y20374D02*
D03*
X128937D02*
D03*
X133268D02*
D03*
X137598D02*
D03*
X141929D02*
D03*
X146260D02*
D03*
X150591D02*
D03*
X154921D02*
D03*
D23*
X158563Y4823D02*
D03*
D24*
X162205Y8661D02*
D03*
D25*
X183661Y57382D02*
D03*
X174606D02*
D03*
Y64665D02*
D03*
X183661D02*
D03*
D26*
X127165Y103346D02*
D03*
Y101378D02*
D03*
Y99409D02*
D03*
Y97441D02*
D03*
Y95472D02*
D03*
Y93504D02*
D03*
Y91535D02*
D03*
Y89567D02*
D03*
Y87598D02*
D03*
Y85630D02*
D03*
Y83661D02*
D03*
Y81693D02*
D03*
Y79724D02*
D03*
Y77756D02*
D03*
Y75787D02*
D03*
Y73819D02*
D03*
X172047D02*
D03*
Y75787D02*
D03*
Y77756D02*
D03*
Y79724D02*
D03*
Y81693D02*
D03*
Y83661D02*
D03*
Y85630D02*
D03*
Y87598D02*
D03*
Y89567D02*
D03*
Y91535D02*
D03*
Y93504D02*
D03*
Y95472D02*
D03*
Y97441D02*
D03*
Y99409D02*
D03*
Y101378D02*
D03*
Y103346D02*
D03*
D27*
X164370Y66142D02*
D03*
X162402D02*
D03*
X160433D02*
D03*
X158465D02*
D03*
X156496D02*
D03*
X154528D02*
D03*
X152559D02*
D03*
X150591D02*
D03*
X148622D02*
D03*
X146653D02*
D03*
X144685D02*
D03*
X142717D02*
D03*
X140748D02*
D03*
X138779D02*
D03*
X136811D02*
D03*
X134843D02*
D03*
X164370Y111024D02*
D03*
X162402D02*
D03*
X160433D02*
D03*
X158465D02*
D03*
X156496D02*
D03*
X154528D02*
D03*
X152559D02*
D03*
X150591D02*
D03*
X148622D02*
D03*
X146653D02*
D03*
X144685D02*
D03*
X142717D02*
D03*
X140748D02*
D03*
X138779D02*
D03*
X136811D02*
D03*
X134843D02*
D03*
D28*
X116142Y32185D02*
D03*
D29*
X114917Y36024D02*
D03*
D30*
X119783D02*
D03*
D31*
X184232Y108268D02*
D03*
Y104331D02*
D03*
X185846D02*
D03*
Y108268D02*
D03*
D32*
X220472Y149606D02*
D03*
X224409Y143701D02*
D03*
X179134Y149606D02*
D03*
X183071Y143701D02*
D03*
X187008Y149606D02*
D03*
X190945Y143701D02*
D03*
X194882Y149606D02*
D03*
X198819Y143701D02*
D03*
X202756Y149606D02*
D03*
X206693Y143701D02*
D03*
X90551D02*
D03*
X98425D02*
D03*
X106299D02*
D03*
X94488Y149606D02*
D03*
X102362D02*
D03*
X82677Y143701D02*
D03*
X86614Y149606D02*
D03*
X110236D02*
D03*
X114173Y143701D02*
D03*
X169291D02*
D03*
X165354Y149606D02*
D03*
X161417Y143701D02*
D03*
X157480Y149606D02*
D03*
X153543Y143701D02*
D03*
X149606Y149606D02*
D03*
X145669Y143701D02*
D03*
X141732Y149606D02*
D03*
X137795Y143701D02*
D03*
X133858Y149606D02*
D03*
X129921Y143701D02*
D03*
X125984Y149606D02*
D03*
X175197Y31496D02*
D03*
X228346Y149606D02*
D03*
X48622Y97736D02*
D03*
X58622Y102736D02*
D03*
X48622Y107736D02*
D03*
X58622Y112736D02*
D03*
X48622Y117736D02*
D03*
X58622Y122736D02*
D03*
D33*
X134843Y62598D02*
Y66142D01*
X136811Y62598D02*
Y66142D01*
X134252Y62008D02*
X134843Y62598D01*
X134156Y43307D02*
X140157Y49309D01*
X81142Y42520D02*
X85866Y47244D01*
X43701Y42520D02*
X81142D01*
X41142Y45079D02*
X43701Y42520D01*
X41142Y45079D02*
Y49213D01*
X60827Y68898D01*
X65866Y47244D02*
X77677Y59055D01*
X113583D01*
X133268D02*
X136811Y62598D01*
X118701Y59055D02*
X133268D01*
X70630Y62008D02*
X134252D01*
X55866Y47244D02*
X70630Y62008D01*
X60827Y68898D02*
X113583D01*
X118701D02*
X127362D01*
X131693Y73228D01*
X125591Y64961D02*
X133071Y72441D01*
X63583Y64961D02*
X125591D01*
X45866Y47244D02*
X63583Y64961D01*
X116142Y97047D02*
X116732Y96457D01*
X118701D01*
X123622Y91535D01*
X127165D01*
X152559Y121653D02*
X152953Y122047D01*
X152559Y111024D02*
Y121653D01*
X144291Y122047D02*
X144685Y121653D01*
Y111024D02*
Y121653D01*
X152559Y106299D02*
Y111024D01*
X144685Y106299D02*
Y111024D01*
X131890Y91535D02*
X131890Y91535D01*
X127165Y91535D02*
X131890D01*
X142717Y66142D02*
Y72835D01*
X185039Y111024D02*
X185846Y110216D01*
Y108268D02*
Y110216D01*
X184232D02*
X185039Y111024D01*
X184232Y108268D02*
Y110216D01*
X183248Y103346D02*
X184232Y104331D01*
X172047Y103346D02*
X183248D01*
X160433Y45472D02*
Y66142D01*
X158465Y43504D02*
X160433Y45472D01*
X158465Y33858D02*
Y43504D01*
X147047Y15748D02*
X148425Y17126D01*
Y23819D01*
X152559Y27953D01*
Y40354D01*
X158465Y46260D01*
Y66142D01*
X155512Y30906D02*
X158465Y33858D01*
X156496Y66142D02*
Y72835D01*
X154528Y66142D02*
Y70866D01*
X148622Y66142D02*
Y72835D01*
X167323Y77756D02*
X167323Y77756D01*
X172047D01*
X165354Y89567D02*
X165354Y89567D01*
X172047D01*
X167323Y91535D02*
X167323Y91535D01*
X172047D01*
X167323Y95472D02*
X167323Y95472D01*
X172047D01*
X167323Y99410D02*
X172047D01*
X172047Y99409D01*
X165354Y101378D02*
X172047D01*
X165354Y101378D02*
X165354Y101378D01*
X165354Y97441D02*
X172047D01*
X165354Y97441D02*
X165354Y97441D01*
Y93504D02*
X172047D01*
X165354Y93504D02*
X165354Y93504D01*
X167323Y87598D02*
X167323Y87598D01*
X172047D01*
X150591Y66142D02*
Y70866D01*
X140748Y66142D02*
Y70866D01*
Y62598D02*
Y66142D01*
X138386Y60236D02*
X140748Y62598D01*
X138386Y55118D02*
Y60236D01*
X138779Y62598D02*
Y66142D01*
X133268Y57087D02*
X138779Y62598D01*
X133268Y55118D02*
Y57087D01*
X139173Y15748D02*
X147047D01*
X133858Y133858D02*
X133858Y133858D01*
Y149606D01*
X150591Y20374D02*
Y23622D01*
X155512Y28543D02*
Y30906D01*
X150591Y23622D02*
X155512Y28543D01*
X154921Y20374D02*
Y23622D01*
X161417Y28543D02*
Y30906D01*
X124606Y20374D02*
Y23622D01*
X125984Y25000D01*
Y30906D01*
X128937Y20374D02*
Y23819D01*
X131890Y26772D01*
Y30906D01*
X146260Y20374D02*
Y23622D01*
X149606Y26969D01*
Y30906D01*
X154921Y23622D02*
X155709Y24409D01*
X157283D01*
X161417Y28543D01*
X125984Y36024D02*
Y38780D01*
X125984Y38780D01*
X131890Y36024D02*
Y38780D01*
X131890Y38780D01*
X137795Y36024D02*
Y36220D01*
X137795Y36220D01*
Y38780D01*
X143701Y36024D02*
Y38780D01*
X143701Y38780D01*
X149606Y36024D02*
Y38780D01*
X149606Y38780D01*
X155512Y36024D02*
Y38780D01*
X155512Y38780D01*
X161417Y36024D02*
Y38780D01*
X161417Y38780D01*
X167323Y36024D02*
Y38780D01*
X141929Y20374D02*
Y24213D01*
X141929Y24213D01*
X146653Y33858D02*
X149606Y30906D01*
X137598Y17323D02*
Y20374D01*
Y17323D02*
X139173Y15748D01*
X146653Y33858D02*
Y66142D01*
X119783Y36024D02*
Y37303D01*
X162205Y8661D02*
X164764D01*
X167323Y11220D01*
Y30906D01*
X210630Y32087D02*
Y34843D01*
X216535Y32087D02*
Y34843D01*
X198228Y18307D02*
Y21654D01*
X200787Y24213D01*
X200787Y18307D02*
Y21654D01*
X202756Y23622D01*
X198819Y66929D02*
X200787Y64961D01*
X198819Y66929D02*
Y70276D01*
X200787Y24213D02*
Y26035D01*
Y29083D01*
X202756Y64961D02*
X204724Y66929D01*
Y70276D01*
X202756Y23622D02*
Y26035D01*
Y29083D01*
X204724Y75394D02*
Y77362D01*
X198819Y75394D02*
Y77362D01*
X180118Y61614D02*
X183169Y64665D01*
X183661D01*
X175787Y49213D02*
Y56201D01*
X174508Y57480D02*
X174606Y57382D01*
X175787Y56201D01*
X187598Y49213D02*
X188583Y50197D01*
X183661Y64665D02*
X186909D01*
X188583Y62992D01*
Y50197D02*
Y62992D01*
X164370Y62598D02*
Y66142D01*
X162402Y61024D02*
Y66142D01*
X165945Y57480D02*
X174508D01*
X198819Y25984D02*
Y29083D01*
Y31693D01*
X165354Y61614D02*
X180118D01*
X164370Y62598D02*
X165354Y61614D01*
X162402Y61024D02*
X165945Y57480D01*
X172047Y81693D02*
X200394D01*
X204724Y77362D01*
X172047Y79724D02*
X196457D01*
X198819Y77362D01*
X200787Y29083D02*
Y64961D01*
X202756Y29083D02*
Y64961D01*
X131890Y30906D02*
X134843Y33858D01*
X114917Y36024D02*
Y38933D01*
X114961Y38890D01*
Y38780D02*
Y38890D01*
X150591Y55512D02*
Y66142D01*
Y55512D02*
X150984Y55118D01*
X119783Y37303D02*
X125787Y43307D01*
X134843Y33858D02*
Y40354D01*
X144685Y50197D01*
Y66142D01*
X125787Y43307D02*
X134156D01*
X205906Y18307D02*
Y22441D01*
X205906Y22441D01*
X195669Y18307D02*
Y21654D01*
X196850Y22835D01*
X172047Y87598D02*
X176772D01*
X180315Y91142D01*
X183071D01*
X167913Y31496D02*
X175197D01*
X167323Y30906D02*
X167913Y31496D01*
X127165Y79724D02*
X130709D01*
X131693Y78740D01*
X127165Y83661D02*
X130709D01*
X133071Y81299D01*
X131693Y73228D02*
Y78740D01*
X133071Y72441D02*
Y81299D01*
X77362Y75787D02*
X127165D01*
X58622Y94528D02*
X77362Y75787D01*
X58622Y94528D02*
Y102736D01*
X75197Y73819D02*
X127165D01*
X53740Y95276D02*
X75197Y73819D01*
X53740Y95276D02*
Y102618D01*
X48622Y107736D02*
X53740Y102618D01*
X125984Y123425D02*
Y149606D01*
Y123425D02*
X134843Y114567D01*
Y111024D02*
Y114567D01*
X129921Y121457D02*
Y143701D01*
Y121457D02*
X136811Y114567D01*
Y111024D02*
Y114567D01*
X133858Y119488D02*
Y133858D01*
Y119488D02*
X138779Y114567D01*
Y111024D02*
Y114567D01*
X140748Y111024D02*
Y114567D01*
X136614Y118701D02*
X140748Y114567D01*
X141732Y129724D02*
Y149606D01*
Y129724D02*
X146653Y124803D01*
Y111024D02*
Y124803D01*
X149606Y125984D02*
Y149606D01*
Y125984D02*
X150591Y125000D01*
Y111024D02*
Y125000D01*
X153543Y132087D02*
Y143701D01*
Y132087D02*
X160433Y125197D01*
X157480Y130512D02*
Y149606D01*
X164370Y111024D02*
Y114567D01*
X169291Y119488D01*
Y143701D01*
X162402Y111024D02*
Y114567D01*
X165354Y117520D01*
Y149606D01*
X160433Y111024D02*
Y114567D01*
X158465Y111024D02*
Y114567D01*
X156496Y111024D02*
Y114567D01*
X160433Y118504D01*
Y125197D01*
Y114567D02*
X163189Y117323D01*
X158465Y114567D02*
X161811Y117913D01*
Y126181D01*
X157480Y130512D02*
X161811Y126181D01*
X161417Y128740D02*
Y143701D01*
Y128740D02*
X163189Y126969D01*
Y117323D02*
Y126969D01*
X137795Y125984D02*
Y143701D01*
X136614Y118701D02*
Y124803D01*
X137795Y125984D01*
X145669Y128150D02*
Y143701D01*
Y128150D02*
X148622Y125197D01*
Y111024D02*
Y125197D01*
X167323Y83661D02*
X172047D01*
X167323Y83661D02*
X167323Y83661D01*
X94488Y127953D02*
Y149606D01*
X98425Y127953D02*
Y143701D01*
X102362Y127953D02*
Y149606D01*
X106299Y127953D02*
Y143701D01*
X110236Y127953D02*
Y149606D01*
X114173Y127953D02*
Y143701D01*
X172047Y73819D02*
X187992D01*
X196850Y64961D01*
X127165Y103346D02*
X131890D01*
X131890Y103347D01*
X127165Y101378D02*
X133858D01*
X133858Y101378D01*
X127165Y99409D02*
X131890D01*
X131890Y99410D01*
X127165Y97441D02*
X133858D01*
X133858Y97441D01*
X127165Y95472D02*
X131890D01*
X131890Y95472D01*
X127165Y93504D02*
X133858D01*
X133858Y93504D01*
X127165Y85630D02*
X131890D01*
X131890Y85630D01*
X122047Y77756D02*
X127165D01*
X122047Y77756D02*
X122047Y77756D01*
X122047Y81693D02*
X127165D01*
X122047Y81693D02*
X122047Y81693D01*
X116142Y80118D02*
X118504D01*
X123622Y87598D02*
X127165D01*
X118504Y80118D02*
X120079Y81693D01*
Y84055D01*
X123622Y87598D01*
X196850Y22835D02*
Y35433D01*
Y64961D01*
X48622Y117736D02*
Y119488D01*
X56693Y127559D01*
X60630D01*
X83268Y80118D02*
X116142D01*
X73819Y89567D02*
X83268Y80118D01*
X73819Y89567D02*
Y115157D01*
X58622Y122736D02*
X66201Y115157D01*
X73819D01*
X60630Y127559D02*
X66142Y122047D01*
X110236D01*
X82677Y127953D02*
Y143701D01*
X86614Y127953D02*
Y149606D01*
X90551Y127953D02*
Y143701D01*
X179134Y127953D02*
Y149606D01*
X183071Y127953D02*
Y143701D01*
X187008Y127953D02*
X187008Y127953D01*
Y149606D01*
X190945Y127953D02*
Y143701D01*
X190945Y143701D01*
X194882Y127953D02*
Y149606D01*
X194882Y149606D01*
X198819Y127953D02*
Y143701D01*
X202756Y127953D02*
Y149606D01*
X206693Y127953D02*
Y143701D01*
X206693Y143701D01*
X220472Y127953D02*
Y149606D01*
X220472Y149606D02*
X220472Y149606D01*
X224410Y127953D02*
Y143701D01*
X224409Y143701D02*
X224410Y143701D01*
X228346Y127953D02*
Y149606D01*
X228346Y149606D02*
X228346Y149606D01*
D34*
X82953Y161417D02*
X232953D01*
X234252Y77165D02*
Y100000D01*
X246063Y124173D02*
Y164961D01*
X240158Y170866D02*
X246063Y164961D01*
X233347Y170866D02*
X240158D01*
X232953Y171260D02*
X233347Y170866D01*
X82953Y171260D02*
X92953D01*
X102953D01*
X112953D01*
X122953D01*
X132953D01*
X142953D01*
X152953D01*
X162953D01*
X172953D01*
X182953D01*
X192953D01*
X202953D01*
X212953D01*
X222953D01*
X232953D01*
X188976Y124173D02*
X246063D01*
D35*
X111516Y32185D02*
X116142D01*
X109449Y34252D02*
X111516Y32185D01*
X109449Y34252D02*
Y46457D01*
X110236Y47244D01*
X236063Y55118D02*
X242717Y61772D01*
Y66929D01*
Y70472D01*
X243307Y71063D01*
Y77165D01*
X225197Y71063D02*
Y77165D01*
Y71063D02*
X225787Y70472D01*
Y66929D02*
Y70472D01*
Y63779D02*
Y66929D01*
X237598Y63779D02*
Y66929D01*
Y63779D02*
X237598Y63779D01*
X230906Y66929D02*
Y69291D01*
X234252Y72638D01*
Y77165D01*
D36*
X234252Y100394D02*
D03*
D37*
X91535Y115157D02*
D03*
Y89567D02*
D03*
X73819D02*
D03*
Y115157D02*
D03*
D38*
X246063Y124173D02*
D03*
Y114173D02*
D03*
X226063Y55118D02*
D03*
X246063D02*
D03*
X236063D02*
D03*
X95866Y47244D02*
D03*
X85866D02*
D03*
X75866D02*
D03*
X65866D02*
D03*
X55866D02*
D03*
X45866D02*
D03*
X212953Y181260D02*
D03*
X202953D02*
D03*
X192953D02*
D03*
X182953D02*
D03*
X172953D02*
D03*
X162953D02*
D03*
X152953D02*
D03*
X142953D02*
D03*
X62953D02*
D03*
X72953D02*
D03*
X82953D02*
D03*
X92953D02*
D03*
X102953D02*
D03*
X112953D02*
D03*
X122953D02*
D03*
X132953D02*
D03*
X52953D02*
D03*
X42953D02*
D03*
X32953D02*
D03*
X22953D02*
D03*
X12953D02*
D03*
Y191260D02*
D03*
X22953D02*
D03*
X32953D02*
D03*
X42953D02*
D03*
X52953D02*
D03*
X132953D02*
D03*
X122953D02*
D03*
X112953D02*
D03*
X102953D02*
D03*
X92953D02*
D03*
X82953D02*
D03*
X72953D02*
D03*
X62953D02*
D03*
X142953D02*
D03*
X152953D02*
D03*
X162953D02*
D03*
X172953D02*
D03*
X182953D02*
D03*
X192953D02*
D03*
X202953D02*
D03*
X212953D02*
D03*
Y171260D02*
D03*
X202953D02*
D03*
X192953D02*
D03*
X182953D02*
D03*
X172953D02*
D03*
X162953D02*
D03*
X152953D02*
D03*
X142953D02*
D03*
X62953D02*
D03*
X72953D02*
D03*
X82953D02*
D03*
X92953D02*
D03*
X102953D02*
D03*
X112953D02*
D03*
X122953D02*
D03*
X132953D02*
D03*
X52953D02*
D03*
X42953D02*
D03*
X32953D02*
D03*
X22953D02*
D03*
X12953D02*
D03*
Y161260D02*
D03*
X22953D02*
D03*
X32953D02*
D03*
X42953D02*
D03*
X52953D02*
D03*
X132953D02*
D03*
X122953D02*
D03*
X112953D02*
D03*
X102953D02*
D03*
X92953D02*
D03*
X82953D02*
D03*
X72953D02*
D03*
X62953D02*
D03*
X142953D02*
D03*
X152953D02*
D03*
X162953D02*
D03*
X172953D02*
D03*
X182953D02*
D03*
X192953D02*
D03*
X202953D02*
D03*
X212953D02*
D03*
Y221260D02*
D03*
X202953D02*
D03*
X192953D02*
D03*
X182953D02*
D03*
X172953D02*
D03*
X162953D02*
D03*
X152953D02*
D03*
X142953D02*
D03*
X62953D02*
D03*
X72953D02*
D03*
X82953D02*
D03*
X92953D02*
D03*
X102953D02*
D03*
X112953D02*
D03*
X122953D02*
D03*
X132953D02*
D03*
X52953D02*
D03*
X42953D02*
D03*
X32953D02*
D03*
X22953D02*
D03*
X12953D02*
D03*
X212953Y211260D02*
D03*
X202953D02*
D03*
X192953D02*
D03*
X182953D02*
D03*
X172953D02*
D03*
X162953D02*
D03*
X152953D02*
D03*
X142953D02*
D03*
X62953D02*
D03*
X72953D02*
D03*
X82953D02*
D03*
X92953D02*
D03*
X102953D02*
D03*
X112953D02*
D03*
X122953D02*
D03*
X132953D02*
D03*
X52953D02*
D03*
X42953D02*
D03*
X32953D02*
D03*
X22953D02*
D03*
X12953D02*
D03*
Y201260D02*
D03*
X22953D02*
D03*
X32953D02*
D03*
X42953D02*
D03*
X52953D02*
D03*
X132953D02*
D03*
X122953D02*
D03*
X112953D02*
D03*
X102953D02*
D03*
X92953D02*
D03*
X82953D02*
D03*
X72953D02*
D03*
X62953D02*
D03*
X142953D02*
D03*
X152953D02*
D03*
X162953D02*
D03*
X172953D02*
D03*
X182953D02*
D03*
X192953D02*
D03*
X202953D02*
D03*
X212953D02*
D03*
X242953D02*
D03*
X232953D02*
D03*
Y211260D02*
D03*
X242953D02*
D03*
X232953Y221260D02*
D03*
X242953D02*
D03*
X232953Y161260D02*
D03*
Y171260D02*
D03*
X242953Y191260D02*
D03*
X232953D02*
D03*
Y181260D02*
D03*
X242953D02*
D03*
X32953Y231260D02*
D03*
X42953D02*
D03*
X52953D02*
D03*
X132953D02*
D03*
X122953D02*
D03*
X112953D02*
D03*
X102953D02*
D03*
X92953D02*
D03*
X82953D02*
D03*
X72953D02*
D03*
X62953D02*
D03*
X142953D02*
D03*
X152953D02*
D03*
X162953D02*
D03*
X172953D02*
D03*
X182953D02*
D03*
X192953D02*
D03*
X202953D02*
D03*
X212953D02*
D03*
X32953Y241260D02*
D03*
X42953D02*
D03*
X52953D02*
D03*
X132953D02*
D03*
X122953D02*
D03*
X112953D02*
D03*
X102953D02*
D03*
X92953D02*
D03*
X82953D02*
D03*
X72953D02*
D03*
X62953D02*
D03*
X142953D02*
D03*
X152953D02*
D03*
X162953D02*
D03*
X172953D02*
D03*
X182953D02*
D03*
X192953D02*
D03*
X202953D02*
D03*
X212953D02*
D03*
X222953Y201260D02*
D03*
Y211260D02*
D03*
Y221260D02*
D03*
Y161260D02*
D03*
Y171260D02*
D03*
Y191260D02*
D03*
Y181260D02*
D03*
Y241260D02*
D03*
Y231260D02*
D03*
D39*
X23622Y90236D02*
D03*
Y130236D02*
D03*
D40*
X15748Y15748D02*
D03*
X240158D02*
D03*
Y240158D02*
D03*
X15748D02*
D03*
D41*
X140157Y49309D02*
D03*
X152559Y106299D02*
D03*
X144685D02*
D03*
X131890Y91535D02*
D03*
X142717Y72835D02*
D03*
X185039Y111024D02*
D03*
X137795Y27559D02*
D03*
X156496Y72835D02*
D03*
X154528Y70866D02*
D03*
X148622Y72835D02*
D03*
X167323Y77756D02*
D03*
X165354Y101378D02*
D03*
X167323Y99410D02*
D03*
X165354Y97441D02*
D03*
X167323Y95472D02*
D03*
X165354Y93504D02*
D03*
X167323Y91535D02*
D03*
X165354Y89567D02*
D03*
X167323Y87598D02*
D03*
X150591Y70866D02*
D03*
X140748D02*
D03*
X178937Y53150D02*
D03*
X125984Y38780D02*
D03*
X131890D02*
D03*
X137795D02*
D03*
X143701D02*
D03*
X149606D02*
D03*
X155512D02*
D03*
X161417D02*
D03*
X167323D02*
D03*
X141929Y24213D02*
D03*
X210630Y34843D02*
D03*
X216535D02*
D03*
X198819Y31693D02*
D03*
X114961Y38780D02*
D03*
X205906Y22441D02*
D03*
X167323Y83661D02*
D03*
X131890Y103347D02*
D03*
X133858Y101378D02*
D03*
X131890Y99410D02*
D03*
X133858Y97441D02*
D03*
X131890Y95472D02*
D03*
X133858Y93504D02*
D03*
X131890Y85630D02*
D03*
X122047Y77756D02*
D03*
Y81693D02*
D03*
X225787Y63779D02*
D03*
X237598D02*
D03*
X94488Y127953D02*
D03*
X98425D02*
D03*
X102362Y127953D02*
D03*
X106299Y127953D02*
D03*
X110236D02*
D03*
X114173D02*
D03*
X82677D02*
D03*
X86614D02*
D03*
X90551D02*
D03*
X179134D02*
D03*
X183071D02*
D03*
X187008D02*
D03*
X190945D02*
D03*
X194882D02*
D03*
X198819D02*
D03*
X202756D02*
D03*
X206693D02*
D03*
X220472D02*
D03*
X224410D02*
D03*
X228346D02*
D03*
D42*
X196850Y35433D02*
D03*
M02*
