G04 Layer_Color=8150272*
%FSLAX25Y25*%
%MOIN*%
G70*
G01*
G75*
%ADD66C,0.06706*%
%ADD67C,0.08674*%
%ADD68C,0.08200*%
%ADD69C,0.13595*%
%ADD70C,0.13005*%
D66*
X48622Y97736D02*
D03*
X58622Y102736D02*
D03*
X48622Y107736D02*
D03*
X58622Y112736D02*
D03*
X48622Y117736D02*
D03*
X58622Y122736D02*
D03*
D67*
X91535Y115157D02*
D03*
Y89567D02*
D03*
X73819D02*
D03*
Y115157D02*
D03*
D68*
X246063Y124173D02*
D03*
Y114173D02*
D03*
X226063Y55118D02*
D03*
X246063D02*
D03*
X236063D02*
D03*
X95866Y47244D02*
D03*
X85866D02*
D03*
X75866D02*
D03*
X65866D02*
D03*
X55866D02*
D03*
X45866D02*
D03*
X212953Y181260D02*
D03*
X202953D02*
D03*
X192953D02*
D03*
X182953D02*
D03*
X172953D02*
D03*
X162953D02*
D03*
X152953D02*
D03*
X142953D02*
D03*
X62953D02*
D03*
X72953D02*
D03*
X82953D02*
D03*
X92953D02*
D03*
X102953D02*
D03*
X112953D02*
D03*
X122953D02*
D03*
X132953D02*
D03*
X52953D02*
D03*
X42953D02*
D03*
X32953D02*
D03*
X22953D02*
D03*
X12953D02*
D03*
Y191260D02*
D03*
X22953D02*
D03*
X32953D02*
D03*
X42953D02*
D03*
X52953D02*
D03*
X132953D02*
D03*
X122953D02*
D03*
X112953D02*
D03*
X102953D02*
D03*
X92953D02*
D03*
X82953D02*
D03*
X72953D02*
D03*
X62953D02*
D03*
X142953D02*
D03*
X152953D02*
D03*
X162953D02*
D03*
X172953D02*
D03*
X182953D02*
D03*
X192953D02*
D03*
X202953D02*
D03*
X212953D02*
D03*
Y171260D02*
D03*
X202953D02*
D03*
X192953D02*
D03*
X182953D02*
D03*
X172953D02*
D03*
X162953D02*
D03*
X152953D02*
D03*
X142953D02*
D03*
X62953D02*
D03*
X72953D02*
D03*
X82953D02*
D03*
X92953D02*
D03*
X102953D02*
D03*
X112953D02*
D03*
X122953D02*
D03*
X132953D02*
D03*
X52953D02*
D03*
X42953D02*
D03*
X32953D02*
D03*
X22953D02*
D03*
X12953D02*
D03*
Y161260D02*
D03*
X22953D02*
D03*
X32953D02*
D03*
X42953D02*
D03*
X52953D02*
D03*
X132953D02*
D03*
X122953D02*
D03*
X112953D02*
D03*
X102953D02*
D03*
X92953D02*
D03*
X82953D02*
D03*
X72953D02*
D03*
X62953D02*
D03*
X142953D02*
D03*
X152953D02*
D03*
X162953D02*
D03*
X172953D02*
D03*
X182953D02*
D03*
X192953D02*
D03*
X202953D02*
D03*
X212953D02*
D03*
Y221260D02*
D03*
X202953D02*
D03*
X192953D02*
D03*
X182953D02*
D03*
X172953D02*
D03*
X162953D02*
D03*
X152953D02*
D03*
X142953D02*
D03*
X62953D02*
D03*
X72953D02*
D03*
X82953D02*
D03*
X92953D02*
D03*
X102953D02*
D03*
X112953D02*
D03*
X122953D02*
D03*
X132953D02*
D03*
X52953D02*
D03*
X42953D02*
D03*
X32953D02*
D03*
X22953D02*
D03*
X12953D02*
D03*
X212953Y211260D02*
D03*
X202953D02*
D03*
X192953D02*
D03*
X182953D02*
D03*
X172953D02*
D03*
X162953D02*
D03*
X152953D02*
D03*
X142953D02*
D03*
X62953D02*
D03*
X72953D02*
D03*
X82953D02*
D03*
X92953D02*
D03*
X102953D02*
D03*
X112953D02*
D03*
X122953D02*
D03*
X132953D02*
D03*
X52953D02*
D03*
X42953D02*
D03*
X32953D02*
D03*
X22953D02*
D03*
X12953D02*
D03*
Y201260D02*
D03*
X22953D02*
D03*
X32953D02*
D03*
X42953D02*
D03*
X52953D02*
D03*
X132953D02*
D03*
X122953D02*
D03*
X112953D02*
D03*
X102953D02*
D03*
X92953D02*
D03*
X82953D02*
D03*
X72953D02*
D03*
X62953D02*
D03*
X142953D02*
D03*
X152953D02*
D03*
X162953D02*
D03*
X172953D02*
D03*
X182953D02*
D03*
X192953D02*
D03*
X202953D02*
D03*
X212953D02*
D03*
X242953D02*
D03*
X232953D02*
D03*
Y211260D02*
D03*
X242953D02*
D03*
X232953Y221260D02*
D03*
X242953D02*
D03*
X232953Y161260D02*
D03*
Y171260D02*
D03*
X242953Y191260D02*
D03*
X232953D02*
D03*
Y181260D02*
D03*
X242953D02*
D03*
X32953Y231260D02*
D03*
X42953D02*
D03*
X52953D02*
D03*
X132953D02*
D03*
X122953D02*
D03*
X112953D02*
D03*
X102953D02*
D03*
X92953D02*
D03*
X82953D02*
D03*
X72953D02*
D03*
X62953D02*
D03*
X142953D02*
D03*
X152953D02*
D03*
X162953D02*
D03*
X172953D02*
D03*
X182953D02*
D03*
X192953D02*
D03*
X202953D02*
D03*
X212953D02*
D03*
X32953Y241260D02*
D03*
X42953D02*
D03*
X52953D02*
D03*
X132953D02*
D03*
X122953D02*
D03*
X112953D02*
D03*
X102953D02*
D03*
X92953D02*
D03*
X82953D02*
D03*
X72953D02*
D03*
X62953D02*
D03*
X142953D02*
D03*
X152953D02*
D03*
X162953D02*
D03*
X172953D02*
D03*
X182953D02*
D03*
X192953D02*
D03*
X202953D02*
D03*
X212953D02*
D03*
X222953Y201260D02*
D03*
Y211260D02*
D03*
Y221260D02*
D03*
Y161260D02*
D03*
Y171260D02*
D03*
Y191260D02*
D03*
Y181260D02*
D03*
Y241260D02*
D03*
Y231260D02*
D03*
D69*
X23622Y90236D02*
D03*
Y130236D02*
D03*
D70*
X15748Y15748D02*
D03*
X240158D02*
D03*
Y240158D02*
D03*
X15748D02*
D03*
M02*
