M48
;Layer_Color=6321
;FILE_FORMAT=2:5
INCH,LZ
;TYPE=PLATED
T1F00S00C0.01181
T2F00S00C0.01968
T3F00S00C0.03543
T4F00S00C0.03937
T5F00S00C0.04000
;TYPE=NON_PLATED
T6F00S00C0.12205
T7F00S00C0.12795
%
T01
X0114961Y003878
X0125984
X013189
X0137795
X0143701
X0149606
X0155512
X0161417
X0167323
X0178937Y005315
X0198819Y0031693
X021063Y0034843
X0216535
X0205906Y0022441
X0225787Y0063779
X0154528Y0070866
X0150591
X0148622Y0072835
X0142717
X0140748Y0070866
X0156496Y0072835
X0140157Y0049309
X0137795Y0027559
X0141929Y0024213
X0237598Y0063779
X0228346Y0127953
X022441
X0220472
X0206693
X0202756
X0198819
X0194882
X0190945
X0187008
X0183071
X0179134
X0185039Y0111024
X0167323Y009941
X0165354Y0097441
Y0101378
Y0093504
X0167323Y0095472
Y0091535
Y0087598
X0165354Y0089567
X0167323Y0083661
Y0077756
X0152559Y0106299
X0144685
X0133858Y0101378
Y0097441
Y0093504
X013189Y0095472
Y009941
Y0103347
Y0091535
Y008563
X0122047Y0081693
Y0077756
X0114173Y0127953
X0110236
X0106299
X0102362Y0127953
X0098425Y0127953
X0094488
X0090551
X0086614
X0082677
T02
X019685Y0035433
T03
X0048622Y0097736
Y0107736
Y0117736
X0058622Y0122736
Y0112736
Y0102736
T04
X0091535Y0089567
Y0115157
X0073819
Y0089567
T05
X0045866Y0047244
X0055866
X0065866
X0075866
X0085866
X0095866
X0226063Y0055118
X0236063
X0246063
Y0114173
Y0124173
X0232953Y016126
Y017126
Y018126
X0242953
Y019126
X0232953
Y020126
Y021126
Y022126
X0242953
Y021126
Y020126
X0222953
Y019126
Y018126
Y017126
Y016126
X0212953
X0202953
X0192953
X0182953
X0172953
X0162953
X0152953
X0142953
X0132953
X0122953
X0112953
X0102953
X0092953
X0082953
Y017126
X0092953
X0102953
X0112953
X0122953
X0132953
X0142953
X0152953
X0162953
X0172953
X0182953
X0192953
X0202953
X0212953
Y018126
Y019126
Y020126
X0202953
X0192953
X0182953
X0172953
X0162953
X0152953
X0142953
X0132953
X0122953
X0112953
X0102953
X0092953
X0082953
Y021126
X0092953
X0102953
X0112953
X0122953
X0132953
X0142953
X0152953
X0162953
X0172953
X0182953
X0192953
X0202953
X0212953
X0222953
Y022126
Y023126
X0212953
X0202953
X0192953
X0182953
X0172953
X0162953
X0152953
X0142953
X0132953
X0122953
X0112953
X0102953
X0092953
X0082953
Y022126
X0092953
X0102953
X0112953
X0122953
X0132953
X0142953
X0152953
X0162953
X0172953
X0182953
X0192953
X0202953
X0212953
X0202953Y019126
X0192953
X0182953
X0172953
X0162953
X0152953
X0142953
X0132953
X0122953
X0112953
X0102953
X0092953
X0082953
Y018126
X0092953
X0102953
X0112953
X0122953
X0132953
X0142953
X0152953
X0162953
X0172953
X0182953
X0192953
X0202953
X0072953
Y017126
Y016126
X0062953
X0052953
X0042953
X0032953
X0022953
X0012953
Y017126
X0022953
X0032953
X0042953
X0052953
X0062953
Y018126
Y019126
Y020126
X0072953
Y021126
X0062953
X0052953
Y020126
X0042953
X0032953
X0022953
X0012953
Y021126
X0022953
X0032953
X0042953
Y022126
Y023126
X0052953
X0062953
X0072953
Y022126
X0062953
X0052953
X0032953
Y023126
X0022953Y022126
X0012953
Y019126
X0022953
X0032953
X0042953
X0052953
Y018126
X0042953
X0032953
X0022953
X0012953
X0072953Y019126
Y024126
X0062953
X0052953
X0042953
X0032953
X0082953
X0092953
X0102953
X0112953
X0122953
X0132953
X0142953
X0152953
X0162953
X0172953
X0182953
X0192953
X0202953
X0212953
X0222953
T06
X0015748Y0015748
X0240158
X0015748Y0240158
X0240158
T07
X0023622Y0090236
Y0130236
M30
