M48
;Layer_Color=6321
;FILE_FORMAT=2:5
INCH,LZ
;TYPE=PLATED
T1F00S00C0.01181
T2F00S00C0.03543
T3F00S00C0.03937
T4F00S00C0.04000
;TYPE=NON_PLATED
T5F00S00C0.12205
T6F00S00C0.12795
%
T01
X0137795Y0032283
X0135827Y003878
X0141732Y003878
X0147638
X0153543
X0159449
X0165354
X017126
X0177165
X0183071
X0202756Y0033465
X0206693
X0204724Y0035433
Y0031496
X0202756Y0029528
X0206693
X0204724Y0027559
X0208661Y0031496
X0214567Y0031693
X0221654Y0032677
Y0029528
Y0026575
Y0024047
X0226378Y0034843
X0200787Y0031496
X019685Y0057087
X019685Y0061417
X0170276Y0070866
X0168307Y0072835
X0172244
X016437
X0166339Y0070866
X0156496
X0158465Y0072835
X0152559
X0150591Y0070866
X0133858
X0122047
X011811Y0068898
Y0058071
X0122441Y005315
X0153543Y0027559
X0157677Y0024213
X0232283Y0034843
X0276575Y0048228
X0278543Y0058071
X0280512Y0060039
X0284449
X0286417Y0058071
X028248
X0290354
X0292323Y0060039
X0288386
X0276575
X0274606Y0058071
X0295276Y0036417
Y0033465
Y0030512
X0295276Y0027559
X0301181Y0027559
X030315Y0029528
X0305118Y0031496
Y0027559
X030315Y0025591
X0305118Y0023622
X0301181
X0299213Y0025591
X0297244Y0023622
X0309055Y0070866
X0312992
X0311024Y0068898
Y0072835
X0312992Y0074803
X0314961Y0072835
X0316929Y0070866
X0314961Y0068898
X0312992Y0066929
X0322835Y0063976
X0324803Y0062008
X0322835Y0060039
X0326772
X0324803Y0058071
X032874Y0062008
X0326772Y0063976
X0324803Y0065945
Y0070472
X0320866Y0062008
X0318898Y0134843
X0322835
X0320866Y0137795
X0322835Y0140748
X0318898
X0316929Y015748
X0320866
Y0161417
X0318898Y0159449
X0316929Y0161417
X0314961Y0159449
X0322835
X0324803Y0161417
Y015748
X0326772Y0159449
X0290551Y0110827
X0288583Y0108858
X0278346Y0112795
X0257874Y0110236
Y011811
X0238189Y0114173
X0244094Y0086614
X0230315Y0100394
X0226378Y0110236
Y011811
X0214567Y0129921
X021063
X0206693
X0202756
X0198819
X0183071Y009941
X0181102Y0097441
Y0101378
Y0093504
X0183071Y0095472
Y0087598
Y0083661
X0181102Y008563
X0183071Y0077756
X0181102Y0075787
X0147638Y0079724
X0149606Y0083661
X0147638Y008563
X0149606Y0089567
Y0093504
X0147638Y0095472
Y0091535
X0149606Y0097441
X0147638Y0103347
X0158465Y0104331
X0160433Y0106299
X0168307
X0170276Y0104331
X0137795Y0081693
Y0077756
X0112992Y0089764
X010315
X0093307
X0110236Y0129921
X0114173
X011811
X0122047
X0125984
X0129921Y0129921
X0133858Y0129921
X0222441Y0080709
T02
X0036811Y0117421
Y0127421
Y0137421
X0046811Y0142421
Y0132421
Y0122421
T03
X0274606Y0073819
X0292323
Y009941
X0274606
X0079724Y0117126
Y0142717
X0062008
Y0117126
T04
X0041929Y0047244
X0051929
X0061929
X0071929
X0081929
X0091929
X0116142Y003937
Y002937
X0230315Y0059055
Y0069055
X025
Y0059055
Y0041496
Y0031496
X0251811Y0180315
X0261811
X0271811
X0281811
X0291811
X0301811
X0311811
Y0190315
X0301811
X0291811
X0281811
X0271811
X0261811
X0251811
X0241811
Y0180315
X0231811
Y0190315
Y0200315
Y0210315
X0241811
Y0200315
X0251811
X0261811
X0271811
X0281811
X0291811
Y0210315
X0281811
X0271811
X0261811
X0251811
Y0220315
Y0230315
X0261811
X0271811
X0281811
Y0220315
X0271811
X0261811
X0241811
Y0230315
X0231811
Y0220315
X0291811
X0301811
Y0210315
Y0200315
X0311811
X0321811
Y0210315
X0311811
Y0220315
Y0230315
X0321811
Y0220315
X0301811Y0230315
X0291811
X0221811
Y0220315
Y0210315
X0211811
X0201811
X0191811
X0181811
X0171811
X0161811
X0151811
X0141811
X0131811
X0121811
X0111811
X0101811
X0091811
X0081811
Y0200315
X0091811
X0101811
X0111811
X0121811
X0131811
X0141811
X0151811
X0161811
X0171811
X0181811
X0191811
X0201811
X0211811
X0221811
Y0190315
X0211811
X0201811
X0191811
X0181811
X0171811
X0161811
X0151811
X0141811
X0131811
X0121811
X0111811
X0101811
X0091811
X0081811
Y0180315
X0091811
X0101811
X0111811
X0121811
X0131811
X0141811
X0151811
X0161811
X0171811
X0181811
X0191811
X0201811
X0211811
X0221811
X0211811Y0220315
X0201811
X0191811
X0181811
X0171811
X0161811
X0151811
X0141811
X0131811
X0121811
X0111811
X0101811
X0091811
X0081811
Y0230315
X0091811
X0101811
X0111811
X0121811
X0131811
X0141811
X0151811
X0161811
X0171811
X0181811
X0191811
X0201811
X0211811
X0071811
Y0220315
Y0210315
X0061811
X0051811
X0041811
X0031811
X0021811
Y0200315
X0031811
X0041811
X0051811
X0061811
X0071811
Y0190315
X0061811
X0051811
X0041811
X0031811
X0021811
Y0180315
X0031811
X0041811
X0051811
X0061811
X0071811
X0061811Y0220315
X0051811
X0041811
X0031811
X0021811
X0011811
Y0210315
Y0200315
Y0230315
X0021811
X0031811
X0041811
X0051811
X0061811
Y0240315
Y0250315
X0071811
Y0260315
Y0270315
X0061811
X0051811
X0041811
X0031811
X0021811
Y0260315
Y0250315
X0011811
Y0260315
Y0270315
Y0280315
X0021811
X0031811
X0041811
X0051811
X0061811
X0071811
Y0290315
Y0300315
Y0310315
Y0320315
X0061811
X0051811
X0041811
X0031811
Y0310315
X0041811
X0051811
X0061811
Y0300315
X0051811
X0041811
X0031811
X0021811
X0011811
Y0290315
X0021811
X0031811
X0041811
X0051811
X0061811
Y0260315
X0051811
Y0250315
X0041811
X0031811
Y0260315
X0041811
Y0240315
X0031811
X0021811
X0011811
X0051811
X0071811
X0081811
Y0250315
X0091811
X0101811
X0111811
X0121811
X0131811
X0141811
X0151811
X0161811
X0171811
X0181811
X0191811
X0201811
X0211811
X0221811
Y0260315
Y0270315
X0211811
X0201811
X0191811
X0181811
X0171811
X0161811
X0151811
X0141811
X0131811
X0121811
X0111811
X0101811
X0091811
X0081811
Y0260315
X0091811
X0101811
X0111811
X0121811
X0131811
X0141811
X0151811
X0161811
X0171811
X0181811
X0191811
X0201811
X0211811
Y0280315
X0221811
Y0290315
Y0300315
Y0310315
Y0320315
X0211811
X0201811
X0191811
X0181811
X0171811
X0161811
X0151811
X0141811
X0131811
X0121811
X0111811
X0101811
X0091811
X0081811
Y0310315
X0091811
X0101811
X0111811
X0121811
X0131811
X0141811
X0151811
X0161811
X0171811
X0181811
X0191811
X0201811
X0211811
Y0300315
X0201811
X0191811
X0181811
X0171811
X0161811
X0151811
X0141811
X0131811
X0121811
X0111811
X0101811
X0091811
X0081811
Y0290315
Y0280315
X0091811
X0101811
X0111811
X0121811
X0131811
X0141811
X0151811
X0161811
X0171811
X0181811
X0191811
X0201811
Y0290315
X0211811
X0191811
X0181811
X0171811
X0161811
X0151811
X0141811
X0131811
X0121811
X0111811
X0101811
X0091811
Y0240315
X0101811
X0111811
X0121811
X0131811
X0141811
X0151811
X0161811
X0171811
X0181811
X0191811
X0201811
X0211811
X0221811
X0231811
Y0250315
X0241811
X0251811
X0261811
X0271811
X0281811
X0291811
X0301811
X0311811
X0321811
Y0260315
X0311811
X0301811
X0291811
Y0270315
X0281811
Y0260315
X0271811
X0261811
X0251811
X0241811
X0231811
Y0270315
X0241811
X0251811
X0261811
X0271811
Y0280315
X0261811
X0251811
X0241811
X0231811
Y0290315
Y0300315
Y0310315
Y0320315
X0241811
X0251811
X0261811
X0271811
X0281811
X0291811
X0301811
Y0310315
X0291811
Y0300315
X0281811
X0271811
X0261811
X0251811
X0241811
Y0310315
X0251811
X0261811
X0271811
X0281811
Y0290315
Y0280315
X0291811
X0301811
Y0270315
X0311811
X0321811
Y0280315
X0311811
Y0290315
Y0300315
X0321811
Y0290315
X0301811
Y0300315
X0291811Y0290315
X0271811
X0261811
X0251811
X0241811
Y0240315
X0251811
X0261811
X0271811
X0281811
X0291811
X0301811
X0311811
X0321811
T05
X0015748Y0015748
X0318898
X0015748Y0318898
X0318898
T06
X0011811Y0109921
Y0149921
M30
