G04*
G04 #@! TF.GenerationSoftware,Altium Limited,CircuitStudio,1.5.1 (13)*
G04*
G04 Layer_Color=7318015*
%FSLAX25Y25*%
%MOIN*%
G70*
G01*
G75*
%ADD10R,0.03150X0.03543*%
%ADD11R,0.04724X0.04724*%
%ADD12R,0.02362X0.01181*%
%ADD13R,0.01181X0.05906*%
%ADD14R,0.05906X0.01181*%
%ADD15R,0.00984X0.01969*%
%ADD16R,0.06496X0.09449*%
%ADD17R,0.02362X0.00945*%
%ADD18R,0.03543X0.02756*%
%ADD19R,0.03150X0.01969*%
%ADD20R,0.03937X0.13780*%
%ADD21R,0.05906X0.13386*%
%ADD22R,0.01772X0.02461*%
%ADD23R,0.00984X0.02461*%
%ADD24R,0.01772X0.01181*%
%ADD25R,0.02756X0.06693*%
%ADD26R,0.01181X0.01772*%
%ADD27R,0.08268X0.03937*%
%ADD28R,0.02756X0.03543*%
%ADD29R,0.03150X0.05118*%
%ADD30R,0.08661X0.03740*%
%ADD31R,0.06201X0.01181*%
%ADD32R,0.01378X0.01181*%
%ADD33R,0.05709X0.05512*%
%ADD34R,0.04724X0.14921*%
%ADD35R,0.02362X0.04921*%
%ADD36R,0.03740X0.03347*%
%ADD37R,0.03937X0.02362*%
%ADD38R,0.05807X0.08268*%
%ADD39R,0.01772X0.05433*%
%ADD40R,0.09350X0.07480*%
%ADD41R,0.04626X0.07480*%
D10*
X580315Y449803D02*
D03*
Y455709D02*
D03*
X585039D02*
D03*
Y449803D02*
D03*
D11*
X718504Y491732D02*
D03*
Y480709D02*
D03*
D12*
X684646Y509842D02*
D03*
Y505905D02*
D03*
Y507874D02*
D03*
X679528Y509842D02*
D03*
Y507874D02*
D03*
Y505905D02*
D03*
D13*
X544291Y504724D02*
D03*
X546260D02*
D03*
X548228D02*
D03*
X550197D02*
D03*
X552165D02*
D03*
X554134D02*
D03*
X556102D02*
D03*
X558071D02*
D03*
X560039D02*
D03*
X562008D02*
D03*
X563976D02*
D03*
X565945D02*
D03*
X567913D02*
D03*
X569882D02*
D03*
X571850D02*
D03*
X573819D02*
D03*
X544291Y459842D02*
D03*
X546260D02*
D03*
X548228D02*
D03*
X550197D02*
D03*
X552165D02*
D03*
X554134D02*
D03*
X556102D02*
D03*
X558071D02*
D03*
X560039D02*
D03*
X562008D02*
D03*
X563976D02*
D03*
X565945D02*
D03*
X567913D02*
D03*
X569882D02*
D03*
X571850D02*
D03*
X573819D02*
D03*
D14*
X581496Y497047D02*
D03*
Y495079D02*
D03*
Y493110D02*
D03*
Y491142D02*
D03*
Y489173D02*
D03*
Y487205D02*
D03*
Y485236D02*
D03*
Y483268D02*
D03*
Y481299D02*
D03*
Y479331D02*
D03*
Y477362D02*
D03*
Y475394D02*
D03*
Y473425D02*
D03*
Y471457D02*
D03*
Y469488D02*
D03*
Y467520D02*
D03*
X536614D02*
D03*
Y469488D02*
D03*
Y471457D02*
D03*
Y473425D02*
D03*
Y475394D02*
D03*
Y477362D02*
D03*
Y479331D02*
D03*
Y481299D02*
D03*
Y483268D02*
D03*
Y485236D02*
D03*
Y487205D02*
D03*
Y489173D02*
D03*
Y491142D02*
D03*
Y493110D02*
D03*
Y495079D02*
D03*
Y497047D02*
D03*
D15*
X715551Y525787D02*
D03*
X713583D02*
D03*
X715551Y537205D02*
D03*
X713583D02*
D03*
D16*
X714567Y531496D02*
D03*
D17*
X720079Y535433D02*
D03*
Y533465D02*
D03*
Y531496D02*
D03*
Y529528D02*
D03*
Y527559D02*
D03*
X709055D02*
D03*
Y529528D02*
D03*
Y531496D02*
D03*
Y533465D02*
D03*
Y535433D02*
D03*
D18*
X509842Y485630D02*
D03*
Y490748D02*
D03*
X500000Y485630D02*
D03*
Y490748D02*
D03*
X490158Y485630D02*
D03*
Y490748D02*
D03*
X668307Y505315D02*
D03*
Y510433D02*
D03*
X592520Y468110D02*
D03*
Y462992D02*
D03*
X576772Y424606D02*
D03*
Y429724D02*
D03*
X570866Y424606D02*
D03*
Y429724D02*
D03*
X535433Y424606D02*
D03*
Y429724D02*
D03*
X564961Y424606D02*
D03*
Y429724D02*
D03*
X559055Y424606D02*
D03*
Y429724D02*
D03*
X541339Y424606D02*
D03*
Y429724D02*
D03*
X525591Y473819D02*
D03*
Y478937D02*
D03*
X625984Y425787D02*
D03*
Y420669D02*
D03*
X696850Y443504D02*
D03*
Y438386D02*
D03*
X624016Y478937D02*
D03*
Y473819D02*
D03*
Y490748D02*
D03*
Y485630D02*
D03*
X718504Y466929D02*
D03*
Y472047D02*
D03*
X509842Y497441D02*
D03*
Y502559D02*
D03*
X500000Y497441D02*
D03*
Y502559D02*
D03*
X490158Y497441D02*
D03*
Y502559D02*
D03*
X653543Y505315D02*
D03*
Y510433D02*
D03*
X620079Y420669D02*
D03*
Y425787D02*
D03*
X547244Y429724D02*
D03*
Y424606D02*
D03*
X553150Y429724D02*
D03*
Y424606D02*
D03*
X592520Y477756D02*
D03*
Y482874D02*
D03*
X525591Y490748D02*
D03*
Y485630D02*
D03*
X592520Y450197D02*
D03*
Y455315D02*
D03*
X665354Y438386D02*
D03*
Y443504D02*
D03*
X688976Y438386D02*
D03*
Y443504D02*
D03*
X616142Y485630D02*
D03*
Y490748D02*
D03*
D19*
X641339Y493504D02*
D03*
Y489961D02*
D03*
Y486417D02*
D03*
Y482874D02*
D03*
X646063D02*
D03*
Y486417D02*
D03*
Y489961D02*
D03*
Y493504D02*
D03*
D20*
X681102Y424606D02*
D03*
X673228D02*
D03*
D21*
X690354Y402756D02*
D03*
X663976D02*
D03*
D22*
X608268Y422784D02*
D03*
Y419685D02*
D03*
D23*
X604331Y419736D02*
D03*
X606299D02*
D03*
X610236D02*
D03*
X612205D02*
D03*
Y422784D02*
D03*
X610236D02*
D03*
X606299D02*
D03*
X604331D02*
D03*
D24*
X673524Y442913D02*
D03*
Y440945D02*
D03*
Y438976D02*
D03*
X680807D02*
D03*
Y440945D02*
D03*
Y442913D02*
D03*
D25*
X677165Y440945D02*
D03*
D26*
X640748Y502264D02*
D03*
Y513484D02*
D03*
X646654Y502264D02*
D03*
X644685D02*
D03*
X642717D02*
D03*
Y513484D02*
D03*
X644685D02*
D03*
X646654D02*
D03*
D27*
X697835Y535827D02*
D03*
Y527165D02*
D03*
D28*
X617520Y511811D02*
D03*
X622638D02*
D03*
X617520Y503937D02*
D03*
X622638D02*
D03*
X507480Y451772D02*
D03*
X502362D02*
D03*
X507480Y462598D02*
D03*
X502362D02*
D03*
X709252Y486221D02*
D03*
X704134D02*
D03*
X528150Y459646D02*
D03*
X523032D02*
D03*
X712008Y517717D02*
D03*
X717126D02*
D03*
X560433Y448819D02*
D03*
X565551D02*
D03*
X542717Y448819D02*
D03*
X547835D02*
D03*
X567520Y515748D02*
D03*
X562402D02*
D03*
X553740Y515748D02*
D03*
X548622D02*
D03*
X646260Y476378D02*
D03*
X641142D02*
D03*
X528150Y448819D02*
D03*
X523032D02*
D03*
D29*
X711417Y545276D02*
D03*
X717717D02*
D03*
D30*
X525591Y425886D02*
D03*
X706693Y473130D02*
D03*
Y499311D02*
D03*
D31*
X524366Y429724D02*
D03*
X705469Y476968D02*
D03*
X707917Y495472D02*
D03*
D32*
X529232Y429724D02*
D03*
X710335Y476968D02*
D03*
X703051Y495472D02*
D03*
D33*
X570768Y407283D02*
D03*
D34*
X529528Y404311D02*
D03*
D35*
X534055Y414075D02*
D03*
X538386D02*
D03*
X542717D02*
D03*
X547047D02*
D03*
X551378D02*
D03*
X555709D02*
D03*
X560039D02*
D03*
X564370D02*
D03*
D36*
X568012Y398524D02*
D03*
D37*
X571654Y402362D02*
D03*
D38*
X619931Y410630D02*
D03*
X600541D02*
D03*
D39*
X615354Y412008D02*
D03*
X612795D02*
D03*
X610236D02*
D03*
X607677D02*
D03*
X605118D02*
D03*
D40*
X598721Y401575D02*
D03*
X621752D02*
D03*
D41*
X606890D02*
D03*
X613583D02*
D03*
M02*
