G04*
G04 #@! TF.GenerationSoftware,Altium Limited,CircuitStudio,1.5.1 (13)*
G04*
G04 Layer_Physical_Order=4*
G04 Layer_Color=12500520*
%FSLAX25Y25*%
%MOIN*%
G70*
G01*
G75*
%ADD42C,0.05906*%
%ADD43C,0.00591*%
%ADD47C,0.01969*%
%ADD50C,0.12795*%
%ADD51C,0.07400*%
%ADD52C,0.12205*%
%ADD53C,0.07874*%
%ADD54C,0.01969*%
%ADD62C,0.09843*%
D42*
X430512Y511122D02*
D03*
X440512Y516122D02*
D03*
X430512Y521122D02*
D03*
X440512Y526122D02*
D03*
X430512Y531122D02*
D03*
X440512Y536122D02*
D03*
D43*
X510827Y451772D02*
X536417D01*
X546260Y461614D01*
X510827Y462598D02*
X530512D01*
X546260Y461614D02*
Y466535D01*
X531496Y458661D02*
X543307Y470472D01*
X453346Y458661D02*
X531496D01*
X543307Y470472D02*
Y477362D01*
X535433Y455709D02*
X544291Y464567D01*
X460394Y455709D02*
X535433D01*
X530512Y462598D02*
X541339Y473425D01*
X562992Y484252D02*
X638189D01*
X664370Y510433D01*
X687008Y507874D02*
X689961D01*
X677165Y498032D02*
X687008Y507874D01*
X677165Y466535D02*
Y498032D01*
X435630Y440945D02*
X453346Y458661D01*
X668307Y457677D02*
X677165Y466535D01*
X570866Y457677D02*
X668307D01*
X579724Y441929D02*
X670276D01*
X558071Y463583D02*
X579724Y441929D01*
X558071Y463583D02*
Y466535D01*
X563976Y464567D02*
X570866Y457677D01*
X686024Y467520D02*
Y493110D01*
X668307Y467520D02*
Y493110D01*
X539961Y487205D02*
X543307D01*
X445630Y440945D02*
X460394Y455709D01*
X529528Y432480D02*
X552165Y455118D01*
Y466535D01*
X565945D02*
X608268D01*
X616142Y474409D01*
X531496Y506890D02*
Y523622D01*
Y506890D02*
X533465Y504921D01*
X531496Y506890D02*
X541339Y497047D01*
X527559Y506890D02*
Y523622D01*
Y506890D02*
X530512Y503937D01*
X527559Y506890D02*
X543307Y491142D01*
X523622Y506890D02*
Y523622D01*
Y506890D02*
X527559Y502953D01*
X523622Y506890D02*
X541339Y489173D01*
X519685Y507480D02*
Y523622D01*
Y507480D02*
X525197Y501968D01*
X519685Y507480D02*
X539961Y487205D01*
X515748Y504921D02*
Y523622D01*
Y504921D02*
X520669Y500000D01*
X515748Y504921D02*
X541339Y479331D01*
X511811Y495079D02*
Y523622D01*
Y495079D02*
X520669Y486221D01*
X511811Y495079D02*
X531496Y475394D01*
X507874Y495079D02*
Y523622D01*
Y495079D02*
X512795Y490158D01*
X507874Y495079D02*
X531496Y471457D01*
X574803Y491142D02*
X600394Y516732D01*
Y521654D01*
Y516732D02*
Y523622D01*
X576772Y489173D02*
X604331Y516732D01*
Y519685D01*
Y516732D02*
Y523622D01*
X574803Y487205D02*
X578740D01*
X608268Y516732D01*
Y523622D01*
X550197Y497047D02*
Y500000D01*
Y497047D02*
X562992Y484252D01*
D47*
X531496Y428543D02*
X535433Y432480D01*
X531496Y425984D02*
Y428543D01*
X535433Y432480D02*
X541339D01*
X547244D01*
X553150D02*
X559055D01*
X564961D01*
X570866D01*
X576772D01*
X551378Y417913D02*
Y432480D01*
X551378Y432480D01*
X547244D02*
X551378D01*
X553150D01*
D50*
X405512Y503622D02*
D03*
Y543622D02*
D03*
D51*
X615512Y574016D02*
D03*
X605512D02*
D03*
X595512D02*
D03*
X585512D02*
D03*
X575512D02*
D03*
X565512D02*
D03*
X555512D02*
D03*
X545512D02*
D03*
X465512D02*
D03*
X475512D02*
D03*
X485512D02*
D03*
X495512D02*
D03*
X505512D02*
D03*
X515512D02*
D03*
X525512D02*
D03*
X535512D02*
D03*
X455512D02*
D03*
X445512D02*
D03*
X435512D02*
D03*
X425512D02*
D03*
X415512D02*
D03*
Y584016D02*
D03*
X425512D02*
D03*
X435512D02*
D03*
X445512D02*
D03*
X455512D02*
D03*
X535512D02*
D03*
X525512D02*
D03*
X515512D02*
D03*
X505512D02*
D03*
X495512D02*
D03*
X485512D02*
D03*
X475512D02*
D03*
X465512D02*
D03*
X545512D02*
D03*
X555512D02*
D03*
X565512D02*
D03*
X575512D02*
D03*
X585512D02*
D03*
X595512D02*
D03*
X605512D02*
D03*
X615512D02*
D03*
Y624016D02*
D03*
X605512D02*
D03*
X595512D02*
D03*
X585512D02*
D03*
X575512D02*
D03*
X565512D02*
D03*
X555512D02*
D03*
X545512D02*
D03*
X465512D02*
D03*
X475512D02*
D03*
X485512D02*
D03*
X495512D02*
D03*
X505512D02*
D03*
X515512D02*
D03*
X525512D02*
D03*
X535512D02*
D03*
X455512D02*
D03*
X445512D02*
D03*
X435512D02*
D03*
X425512D02*
D03*
X415512D02*
D03*
Y614016D02*
D03*
X425512D02*
D03*
X435512D02*
D03*
X445512D02*
D03*
X455512D02*
D03*
X535512D02*
D03*
X525512D02*
D03*
X515512D02*
D03*
X505512D02*
D03*
X495512D02*
D03*
X485512D02*
D03*
X475512D02*
D03*
X465512D02*
D03*
X545512D02*
D03*
X555512D02*
D03*
X565512D02*
D03*
X575512D02*
D03*
X585512D02*
D03*
X595512D02*
D03*
X605512D02*
D03*
X615512D02*
D03*
X625512D02*
D03*
Y624016D02*
D03*
Y584016D02*
D03*
Y574016D02*
D03*
X405512Y614016D02*
D03*
Y624016D02*
D03*
X685512D02*
D03*
Y614016D02*
D03*
X675512D02*
D03*
X665512D02*
D03*
X655512D02*
D03*
X645512D02*
D03*
X635512D02*
D03*
Y624016D02*
D03*
X645512D02*
D03*
X655512D02*
D03*
X665512D02*
D03*
X675512D02*
D03*
X715512Y614016D02*
D03*
X705512D02*
D03*
X695512D02*
D03*
Y624016D02*
D03*
X705512D02*
D03*
X715512D02*
D03*
Y684016D02*
D03*
X705512D02*
D03*
X695512D02*
D03*
Y634016D02*
D03*
X705512D02*
D03*
X715512D02*
D03*
X675512Y684016D02*
D03*
X665512D02*
D03*
X655512D02*
D03*
X645512D02*
D03*
X635512D02*
D03*
Y634016D02*
D03*
X645512D02*
D03*
X655512D02*
D03*
X665512D02*
D03*
X675512D02*
D03*
X685512D02*
D03*
Y684016D02*
D03*
X405512D02*
D03*
Y634016D02*
D03*
X625512Y684016D02*
D03*
Y634016D02*
D03*
X615512D02*
D03*
X605512D02*
D03*
X595512D02*
D03*
X585512D02*
D03*
X575512D02*
D03*
X565512D02*
D03*
X555512D02*
D03*
X545512D02*
D03*
X465512D02*
D03*
X475512D02*
D03*
X485512D02*
D03*
X495512D02*
D03*
X505512D02*
D03*
X515512D02*
D03*
X525512D02*
D03*
X535512D02*
D03*
X455512D02*
D03*
X445512D02*
D03*
X435512D02*
D03*
X425512D02*
D03*
X415512D02*
D03*
Y684016D02*
D03*
X425512D02*
D03*
X435512D02*
D03*
X445512D02*
D03*
X455512D02*
D03*
X535512D02*
D03*
X525512D02*
D03*
X515512D02*
D03*
X505512D02*
D03*
X495512D02*
D03*
X485512D02*
D03*
X475512D02*
D03*
X465512D02*
D03*
X545512D02*
D03*
X555512D02*
D03*
X565512D02*
D03*
X575512D02*
D03*
X585512D02*
D03*
X595512D02*
D03*
X605512D02*
D03*
X615512D02*
D03*
X695512Y704016D02*
D03*
Y694016D02*
D03*
X705512D02*
D03*
X715512D02*
D03*
X675512Y704016D02*
D03*
X665512D02*
D03*
X655512D02*
D03*
X645512D02*
D03*
X635512D02*
D03*
Y694016D02*
D03*
X645512D02*
D03*
X655512D02*
D03*
X665512D02*
D03*
X675512D02*
D03*
X685512D02*
D03*
Y704016D02*
D03*
X405512Y694016D02*
D03*
X625512Y704016D02*
D03*
Y694016D02*
D03*
X615512D02*
D03*
X605512D02*
D03*
X595512D02*
D03*
X585512D02*
D03*
X575512D02*
D03*
X565512D02*
D03*
X555512D02*
D03*
X545512D02*
D03*
X465512D02*
D03*
X475512D02*
D03*
X485512D02*
D03*
X495512D02*
D03*
X505512D02*
D03*
X515512D02*
D03*
X525512D02*
D03*
X535512D02*
D03*
X455512D02*
D03*
X445512D02*
D03*
X435512D02*
D03*
X425512D02*
D03*
X415512D02*
D03*
X425512Y704016D02*
D03*
X435512D02*
D03*
X445512D02*
D03*
X455512D02*
D03*
X535512D02*
D03*
X525512D02*
D03*
X515512D02*
D03*
X505512D02*
D03*
X495512D02*
D03*
X485512D02*
D03*
X475512D02*
D03*
X465512D02*
D03*
X545512D02*
D03*
X555512D02*
D03*
X565512D02*
D03*
X575512D02*
D03*
X585512D02*
D03*
X595512D02*
D03*
X605512D02*
D03*
X615512D02*
D03*
X715512Y604016D02*
D03*
X705512D02*
D03*
X695512D02*
D03*
Y594016D02*
D03*
X705512D02*
D03*
X715512D02*
D03*
X675512Y604016D02*
D03*
X665512D02*
D03*
X655512D02*
D03*
X645512D02*
D03*
X635512D02*
D03*
Y594016D02*
D03*
X645512D02*
D03*
X655512D02*
D03*
X665512D02*
D03*
X675512D02*
D03*
X685512D02*
D03*
Y604016D02*
D03*
X405512D02*
D03*
Y594016D02*
D03*
X625512Y604016D02*
D03*
Y594016D02*
D03*
X615512D02*
D03*
X605512D02*
D03*
X595512D02*
D03*
X585512D02*
D03*
X575512D02*
D03*
X565512D02*
D03*
X555512D02*
D03*
X545512D02*
D03*
X465512D02*
D03*
X475512D02*
D03*
X485512D02*
D03*
X495512D02*
D03*
X505512D02*
D03*
X515512D02*
D03*
X525512D02*
D03*
X535512D02*
D03*
X455512D02*
D03*
X445512D02*
D03*
X435512D02*
D03*
X425512D02*
D03*
X415512D02*
D03*
Y604016D02*
D03*
X425512D02*
D03*
X435512D02*
D03*
X445512D02*
D03*
X455512D02*
D03*
X535512D02*
D03*
X525512D02*
D03*
X515512D02*
D03*
X505512D02*
D03*
X495512D02*
D03*
X485512D02*
D03*
X475512D02*
D03*
X465512D02*
D03*
X545512D02*
D03*
X555512D02*
D03*
X565512D02*
D03*
X575512D02*
D03*
X585512D02*
D03*
X595512D02*
D03*
X605512D02*
D03*
X615512D02*
D03*
X695512Y714016D02*
D03*
X635512D02*
D03*
X645512D02*
D03*
X655512D02*
D03*
X665512D02*
D03*
X675512D02*
D03*
X685512D02*
D03*
X625512D02*
D03*
X615512D02*
D03*
X605512D02*
D03*
X595512D02*
D03*
X585512D02*
D03*
X575512D02*
D03*
X565512D02*
D03*
X555512D02*
D03*
X545512D02*
D03*
X465512D02*
D03*
X475512D02*
D03*
X485512D02*
D03*
X495512D02*
D03*
X505512D02*
D03*
X515512D02*
D03*
X525512D02*
D03*
X535512D02*
D03*
X455512D02*
D03*
X445512D02*
D03*
X435512D02*
D03*
X425512D02*
D03*
X695512Y584016D02*
D03*
X685512D02*
D03*
X675512D02*
D03*
X665512D02*
D03*
X655512D02*
D03*
X645512D02*
D03*
X635512D02*
D03*
Y574016D02*
D03*
X645512D02*
D03*
X655512D02*
D03*
X665512D02*
D03*
X675512D02*
D03*
X685512D02*
D03*
X695512D02*
D03*
X705512D02*
D03*
Y584016D02*
D03*
X415512Y674016D02*
D03*
X425512D02*
D03*
X435512D02*
D03*
X445512D02*
D03*
X455512D02*
D03*
X535512D02*
D03*
X525512D02*
D03*
X515512D02*
D03*
X505512D02*
D03*
X495512D02*
D03*
X485512D02*
D03*
X475512D02*
D03*
X465512D02*
D03*
X545512D02*
D03*
X555512D02*
D03*
X565512D02*
D03*
X575512D02*
D03*
X585512D02*
D03*
X595512D02*
D03*
X605512D02*
D03*
X615512D02*
D03*
X625512D02*
D03*
X405512D02*
D03*
X685512D02*
D03*
X675512D02*
D03*
X665512D02*
D03*
X655512D02*
D03*
X645512D02*
D03*
X635512D02*
D03*
X715512D02*
D03*
X705512D02*
D03*
X695512D02*
D03*
X715512Y664016D02*
D03*
X705512D02*
D03*
X695512D02*
D03*
Y654016D02*
D03*
X705512D02*
D03*
X715512D02*
D03*
X675512Y664016D02*
D03*
X665512D02*
D03*
X655512D02*
D03*
X645512D02*
D03*
X635512D02*
D03*
Y654016D02*
D03*
X645512D02*
D03*
X655512D02*
D03*
X665512D02*
D03*
X675512D02*
D03*
X685512D02*
D03*
Y664016D02*
D03*
X405512D02*
D03*
Y654016D02*
D03*
X625512Y664016D02*
D03*
Y654016D02*
D03*
X615512D02*
D03*
X605512D02*
D03*
X595512D02*
D03*
X585512D02*
D03*
X575512D02*
D03*
X565512D02*
D03*
X555512D02*
D03*
X545512D02*
D03*
X465512D02*
D03*
X475512D02*
D03*
X485512D02*
D03*
X495512D02*
D03*
X505512D02*
D03*
X515512D02*
D03*
X525512D02*
D03*
X535512D02*
D03*
X455512D02*
D03*
X445512D02*
D03*
X435512D02*
D03*
X425512D02*
D03*
X415512D02*
D03*
Y664016D02*
D03*
X425512D02*
D03*
X435512D02*
D03*
X445512D02*
D03*
X455512D02*
D03*
X535512D02*
D03*
X525512D02*
D03*
X515512D02*
D03*
X505512D02*
D03*
X495512D02*
D03*
X485512D02*
D03*
X475512D02*
D03*
X465512D02*
D03*
X545512D02*
D03*
X555512D02*
D03*
X565512D02*
D03*
X575512D02*
D03*
X585512D02*
D03*
X595512D02*
D03*
X605512D02*
D03*
X615512D02*
D03*
X415512Y644016D02*
D03*
X425512D02*
D03*
X435512D02*
D03*
X445512D02*
D03*
X455512D02*
D03*
X535512D02*
D03*
X525512D02*
D03*
X515512D02*
D03*
X505512D02*
D03*
X495512D02*
D03*
X485512D02*
D03*
X475512D02*
D03*
X465512D02*
D03*
X545512D02*
D03*
X555512D02*
D03*
X565512D02*
D03*
X575512D02*
D03*
X585512D02*
D03*
X595512D02*
D03*
X605512D02*
D03*
X615512D02*
D03*
X625512D02*
D03*
X405512D02*
D03*
X685512D02*
D03*
X675512D02*
D03*
X665512D02*
D03*
X655512D02*
D03*
X645512D02*
D03*
X635512D02*
D03*
X715512D02*
D03*
X705512D02*
D03*
X695512D02*
D03*
X643701Y435197D02*
D03*
Y425197D02*
D03*
X624016Y462756D02*
D03*
Y452756D02*
D03*
X643701Y462756D02*
D03*
Y452756D02*
D03*
X509842Y423071D02*
D03*
Y433071D02*
D03*
X435630Y440945D02*
D03*
X445630D02*
D03*
X455630D02*
D03*
X465630D02*
D03*
X475630D02*
D03*
X485630D02*
D03*
D52*
X409449Y409449D02*
D03*
X712598D02*
D03*
X712598Y712598D02*
D03*
X409449D02*
D03*
D53*
X668307Y467520D02*
D03*
Y493110D02*
D03*
X686024D02*
D03*
Y467520D02*
D03*
X473425Y536417D02*
D03*
Y510827D02*
D03*
X455709D02*
D03*
Y536417D02*
D03*
D54*
X510827Y451772D02*
D03*
Y462598D02*
D03*
X523032Y464567D02*
D03*
X518701Y448819D02*
D03*
X664370Y510433D02*
D03*
X689961Y507874D02*
D03*
X687992Y505905D02*
D03*
X676181Y509842D02*
D03*
X626968Y429134D02*
D03*
X608268Y425394D02*
D03*
X615158Y420276D02*
D03*
Y423228D02*
D03*
Y426181D02*
D03*
Y429134D02*
D03*
X618110D02*
D03*
X621063D02*
D03*
X624016D02*
D03*
X676181Y451772D02*
D03*
X668307D02*
D03*
X670276Y453740D02*
D03*
X672244Y451772D02*
D03*
X674213Y453740D02*
D03*
X678150D02*
D03*
X682087D02*
D03*
X680118Y451772D02*
D03*
X684055D02*
D03*
X686024Y453740D02*
D03*
X718504Y459646D02*
D03*
Y451772D02*
D03*
X706693Y460630D02*
D03*
X688976Y430118D02*
D03*
Y427165D02*
D03*
Y424213D02*
D03*
X688976Y421260D02*
D03*
X698819Y417323D02*
D03*
X690945D02*
D03*
X694882D02*
D03*
X698819Y421260D02*
D03*
Y425197D02*
D03*
X694882Y421260D02*
D03*
X692913Y419291D02*
D03*
X696850D02*
D03*
Y423228D02*
D03*
X720472Y453740D02*
D03*
X716535D02*
D03*
X714567Y455709D02*
D03*
X716535Y457677D02*
D03*
X718504Y455709D02*
D03*
X720472Y457677D02*
D03*
X598425Y429134D02*
D03*
X594488Y425197D02*
D03*
X598425Y421260D02*
D03*
X600394Y423228D02*
D03*
X596457D02*
D03*
Y427165D02*
D03*
X598425Y425197D02*
D03*
X600394Y427165D02*
D03*
X704724Y462598D02*
D03*
X706693Y464567D02*
D03*
X602362Y425197D02*
D03*
X722441Y455709D02*
D03*
X708661Y462598D02*
D03*
X670276Y441929D02*
D03*
X720472Y553150D02*
D03*
X708661D02*
D03*
X718504Y551181D02*
D03*
Y555118D02*
D03*
X716535Y553150D02*
D03*
X714567Y551181D02*
D03*
X710630D02*
D03*
Y555118D02*
D03*
X712598Y553150D02*
D03*
X714567Y555118D02*
D03*
X600394Y523622D02*
D03*
X604331D02*
D03*
X608268D02*
D03*
X487008Y483465D02*
D03*
X496850D02*
D03*
X506693D02*
D03*
X541339Y473425D02*
D03*
X543307Y477362D02*
D03*
X544291Y464567D02*
D03*
X546260Y466535D02*
D03*
X531496Y425984D02*
D03*
X562008Y500000D02*
D03*
X554134D02*
D03*
X541339Y485236D02*
D03*
X552165Y466535D02*
D03*
X547244Y421260D02*
D03*
X565945Y466535D02*
D03*
X574803Y491142D02*
D03*
X576772Y489173D02*
D03*
X574803Y487205D02*
D03*
X576772Y481299D02*
D03*
X560039Y464567D02*
D03*
X550197D02*
D03*
X535433Y432480D02*
D03*
X541339D02*
D03*
X547244D02*
D03*
X553150D02*
D03*
X559055D02*
D03*
X564961D02*
D03*
X570866D02*
D03*
X576772D02*
D03*
X551378Y417913D02*
D03*
X541339Y497047D02*
D03*
X543307Y491142D02*
D03*
X541339Y489173D02*
D03*
X543307Y487205D02*
D03*
X541339Y479331D02*
D03*
X531496Y471457D02*
D03*
Y475394D02*
D03*
X529528Y432480D02*
D03*
X543307Y483268D02*
D03*
X552165Y498032D02*
D03*
X563976D02*
D03*
X574803Y479331D02*
D03*
X562008Y466535D02*
D03*
X637795Y480315D02*
D03*
X714567Y531496D02*
D03*
X712598Y534449D02*
D03*
X716535Y528543D02*
D03*
X712598D02*
D03*
X716535Y534449D02*
D03*
X558071Y466535D02*
D03*
X576772Y469488D02*
D03*
X706693Y468504D02*
D03*
X704724Y466535D02*
D03*
X702756Y464567D02*
D03*
X708661Y466535D02*
D03*
X710630Y464567D02*
D03*
X616142Y474409D02*
D03*
X563976Y464567D02*
D03*
X625984Y511811D02*
D03*
Y503937D02*
D03*
X624016Y494095D02*
D03*
X718504Y464173D02*
D03*
X531496Y523622D02*
D03*
X527559D02*
D03*
X523622D02*
D03*
X519685D02*
D03*
X515748D02*
D03*
X511811D02*
D03*
X507874D02*
D03*
X574803Y471457D02*
D03*
X588583Y455315D02*
D03*
Y450197D02*
D03*
X550197Y500000D02*
D03*
X644685Y500000D02*
D03*
X649606Y503937D02*
D03*
Y511811D02*
D03*
D62*
X673228Y410433D02*
X718504Y455709D01*
X613189Y410433D02*
X673228D01*
X677323Y435197D02*
X706693Y464567D01*
X643701Y435197D02*
X677323D01*
X598425Y425197D02*
X600394Y423228D01*
X613189Y410433D01*
M02*
