G04*
G04 #@! TF.GenerationSoftware,Altium Limited,CircuitStudio,1.5.1 (13)*
G04*
G04 Layer_Physical_Order=1*
G04 Layer_Color=11767835*
%FSLAX25Y25*%
%MOIN*%
G70*
G01*
G75*
%ADD10R,0.03150X0.03543*%
%ADD11R,0.04724X0.04724*%
%ADD12R,0.02362X0.01181*%
%ADD13R,0.01181X0.05906*%
%ADD14R,0.05906X0.01181*%
%ADD15R,0.00984X0.01969*%
%ADD16R,0.06496X0.09449*%
%ADD17R,0.02362X0.00945*%
%ADD18R,0.03543X0.02756*%
%ADD19R,0.03150X0.01969*%
%ADD20R,0.03937X0.13780*%
%ADD21R,0.05906X0.13386*%
%ADD22R,0.01772X0.02461*%
%ADD23R,0.00984X0.02461*%
%ADD24R,0.01772X0.01181*%
%ADD25R,0.02756X0.06693*%
%ADD26R,0.01181X0.01772*%
%ADD27R,0.08268X0.03937*%
%ADD28R,0.02756X0.03543*%
%ADD29R,0.03150X0.05118*%
%ADD30R,0.08661X0.03740*%
%ADD31R,0.06201X0.01181*%
%ADD32R,0.01378X0.01181*%
%ADD33R,0.05709X0.05512*%
%ADD34R,0.04724X0.14921*%
%ADD35R,0.02362X0.04921*%
%ADD36R,0.03740X0.03347*%
%ADD37R,0.03937X0.02362*%
%ADD38R,0.05807X0.08268*%
%ADD39R,0.01772X0.05433*%
%ADD40R,0.09350X0.07480*%
%ADD41R,0.04626X0.07480*%
%ADD42C,0.05906*%
%ADD43C,0.00591*%
%ADD44C,0.03937*%
%ADD45C,0.01181*%
%ADD46C,0.02756*%
%ADD47C,0.01969*%
%ADD48C,0.00787*%
%ADD49R,0.02362X0.07874*%
%ADD50C,0.12795*%
%ADD51C,0.07400*%
%ADD52C,0.12205*%
%ADD53C,0.07874*%
%ADD54C,0.01969*%
G36*
X712598Y475040D02*
X712598Y458661D01*
X701141D01*
X700787Y459015D01*
X700787Y475394D01*
X701772D01*
Y473630D01*
X706693D01*
X711614D01*
Y475394D01*
X712245D01*
X712598Y475040D01*
D02*
G37*
G36*
X723425Y534802D02*
X723072Y534449D01*
X721850D01*
Y534933D01*
X720079D01*
Y535433D01*
X719579D01*
Y536496D01*
X718405D01*
Y536811D01*
X716634D01*
Y538710D01*
X716970Y538935D01*
X719136Y541101D01*
X719571Y541752D01*
X719645Y542126D01*
X719882D01*
Y548425D01*
X715551D01*
Y543193D01*
X714132Y541774D01*
X713697Y541122D01*
X713544Y540354D01*
X713697Y539586D01*
X713902Y539280D01*
X713635Y538779D01*
X712500D01*
Y536811D01*
X710728D01*
Y536496D01*
X709555D01*
Y535433D01*
X709055D01*
Y534933D01*
X707283D01*
Y534847D01*
X707203Y534772D01*
X706564Y534844D01*
X706537Y534884D01*
X705709Y535712D01*
X705709Y556733D01*
X706062Y557087D01*
X723425D01*
X723425Y534802D01*
D02*
G37*
G36*
X723425Y485236D02*
X723425Y450157D01*
X723072Y449803D01*
X713583D01*
X713583Y484883D01*
X713936Y485236D01*
X723425Y485236D01*
D02*
G37*
G36*
X723425Y532480D02*
X723425Y487558D01*
X723072Y487205D01*
X713583Y487205D01*
Y497047D01*
X711614D01*
Y498811D01*
X706693D01*
X701772D01*
Y497047D01*
X700787D01*
Y524606D01*
X702559D01*
Y525552D01*
X703150D01*
X703918Y525705D01*
X704569Y526140D01*
X706537Y528108D01*
X707154Y528132D01*
X707231Y528059D01*
X709055D01*
Y527559D01*
X709555D01*
Y526496D01*
X710728D01*
Y526181D01*
X712500D01*
Y524213D01*
X713635D01*
X713902Y523713D01*
X713697Y523406D01*
X713544Y522638D01*
X713697Y521870D01*
X714132Y521219D01*
X715119Y520232D01*
Y517717D01*
X715158Y517523D01*
Y515354D01*
X719095D01*
Y517523D01*
X719133Y517717D01*
Y521063D01*
X718980Y521831D01*
X718545Y522482D01*
X716970Y524057D01*
X716634Y524282D01*
Y526181D01*
X718405D01*
Y526496D01*
X719579D01*
Y527559D01*
X720079D01*
Y528059D01*
X721850D01*
Y528465D01*
Y529028D01*
X720079D01*
Y530028D01*
X721850D01*
Y530433D01*
Y530996D01*
X720079D01*
Y531996D01*
X721865D01*
X722318Y532480D01*
X723425D01*
D02*
G37*
G36*
X574409Y422638D02*
X575869D01*
Y405295D01*
X574713Y404140D01*
X574213Y404347D01*
Y406783D01*
X567323D01*
Y403937D01*
X569095D01*
Y400787D01*
X568512D01*
Y399024D01*
X570472D01*
Y400591D01*
X574213D01*
Y401459D01*
X574213D01*
X574558Y401528D01*
X574851Y401724D01*
X577410Y404283D01*
X577606Y404576D01*
X577675Y404921D01*
Y422638D01*
X578740D01*
Y394604D01*
X521654D01*
Y423425D01*
X530512D01*
Y424379D01*
X531496D01*
X532111Y424501D01*
X532571Y424808D01*
X532830Y424739D01*
X533071Y424607D01*
Y422638D01*
X534530D01*
Y419075D01*
X533417Y417962D01*
X533221Y417668D01*
X533152Y417323D01*
Y417126D01*
X532283D01*
Y412362D01*
X530028D01*
Y404811D01*
X532480D01*
Y411024D01*
X535827D01*
Y417126D01*
X535789D01*
X535598Y417588D01*
X536072Y418062D01*
X536072Y418062D01*
X536268Y418355D01*
X536279Y418412D01*
X536336Y418701D01*
X536336Y418701D01*
Y422638D01*
X537795D01*
Y425197D01*
X538976D01*
Y422638D01*
X540435D01*
Y420847D01*
X537747Y418158D01*
X537551Y417865D01*
X537483Y417520D01*
Y417126D01*
X536614D01*
Y411024D01*
X540158D01*
Y417126D01*
X539977D01*
X539769Y417626D01*
X541977Y419834D01*
X542173Y420127D01*
X542242Y420472D01*
Y422638D01*
X543701D01*
Y425197D01*
X544882D01*
Y425106D01*
X547244D01*
X549606D01*
Y425197D01*
X550787D01*
Y425106D01*
X553150D01*
X555512D01*
Y425197D01*
X556693D01*
Y422638D01*
X558152D01*
Y421043D01*
X555070Y417961D01*
X554874Y417668D01*
X554806Y417323D01*
Y417126D01*
X553937D01*
Y411024D01*
X555767D01*
X556017Y410524D01*
X555888Y410352D01*
X549005D01*
X548843Y410549D01*
X548819Y411024D01*
X548819D01*
X548819Y411024D01*
Y417126D01*
X545276D01*
Y411024D01*
X546144D01*
X546213Y410678D01*
X546409Y410385D01*
X547983Y408810D01*
X548276Y408614D01*
X548622Y408546D01*
X548622Y408546D01*
X556496D01*
X556842Y408614D01*
X557135Y408810D01*
X558513Y410188D01*
X558708Y410481D01*
X558777Y410827D01*
Y411024D01*
X561811D01*
Y417126D01*
X561773D01*
X561582Y417588D01*
X565599Y421605D01*
X565795Y421898D01*
X565864Y422244D01*
Y422638D01*
X567323D01*
Y425197D01*
X568504D01*
Y422638D01*
X569276D01*
X569483Y422138D01*
X566358Y419013D01*
X565158D01*
X564812Y418945D01*
X564519Y418749D01*
X563731Y417961D01*
X563536Y417668D01*
X563467Y417323D01*
Y417126D01*
X562598D01*
Y411024D01*
X566142D01*
Y417126D01*
X566608Y417207D01*
X566732D01*
X567078Y417276D01*
X567371Y417472D01*
X571505Y421605D01*
X571700Y421898D01*
X571769Y422244D01*
Y422638D01*
X573228D01*
Y425197D01*
X574409D01*
Y422638D01*
D02*
G37*
G36*
X609333Y431102D02*
Y427106D01*
X608969Y426912D01*
X608833Y426887D01*
X608268Y426999D01*
X607653Y426877D01*
X607132Y426529D01*
X606784Y426008D01*
X606662Y425394D01*
X606720Y425104D01*
X606346Y424604D01*
X603248D01*
Y420963D01*
Y417915D01*
X605799D01*
Y419736D01*
X606791D01*
Y417915D01*
X606791D01*
Y417864D01*
X608256D01*
X608448Y417402D01*
X607038Y415993D01*
X606843Y415700D01*
X606774Y415354D01*
Y415315D01*
X605618D01*
Y412008D01*
X604618D01*
Y415315D01*
X604035D01*
Y415354D01*
X597047D01*
Y413739D01*
X596694Y413386D01*
X592520D01*
X592520Y430749D01*
X592873Y431102D01*
X609333Y431102D01*
D02*
G37*
G36*
X700787Y454371D02*
X700787Y415354D01*
X661417D01*
Y422616D01*
X670669D01*
Y417126D01*
X675787D01*
Y424439D01*
X675809Y424606D01*
X675787Y424774D01*
Y432087D01*
X670669D01*
Y427778D01*
X661417D01*
Y435326D01*
X662497Y436406D01*
X662992Y436417D01*
X662992Y436417D01*
X662992Y436417D01*
X667717D01*
Y437772D01*
X673524D01*
X673640Y437795D01*
X674697D01*
X675000Y437795D01*
X675197Y437377D01*
X675197Y437377D01*
Y437008D01*
X676665D01*
Y440945D01*
Y444882D01*
X675197D01*
Y444513D01*
X675000Y444095D01*
X674697Y444095D01*
X674024D01*
Y442913D01*
X673024D01*
Y444095D01*
X672047D01*
Y443012D01*
X671547Y442861D01*
X671411Y443064D01*
X670890Y443413D01*
X670276Y443535D01*
X669661Y443413D01*
X669140Y443064D01*
X668792Y442544D01*
X668670Y441929D01*
X668792Y441315D01*
X669140Y440794D01*
X669310Y440681D01*
X669158Y440181D01*
X667717D01*
Y440354D01*
X662992D01*
X662992Y440354D01*
Y440354D01*
X662492Y440334D01*
X662117Y440621D01*
X661495Y440879D01*
X661417Y440889D01*
Y454724D01*
X700434D01*
X700787Y454371D01*
D02*
G37*
G36*
X712598Y495709D02*
X712598Y477872D01*
X711614D01*
Y478150D01*
X705969D01*
Y476968D01*
X705469D01*
Y476469D01*
X701515D01*
X701424Y476378D01*
X700787D01*
X700787Y494151D01*
X701272Y494556D01*
X701772Y494499D01*
Y494291D01*
X702148D01*
Y487598D01*
X702165Y487511D01*
Y483858D01*
X706102D01*
Y488583D01*
X703954D01*
Y494291D01*
X707417D01*
Y495472D01*
X707917D01*
Y495972D01*
X711608D01*
Y496063D01*
X712245D01*
X712598Y495709D01*
D02*
G37*
G36*
X623622Y421890D02*
Y421169D01*
X625984D01*
Y420669D01*
X626484D01*
Y418701D01*
X627599D01*
X627953Y418347D01*
X627953Y394604D01*
X592520D01*
X592520Y412048D01*
X592873Y412402D01*
X596694D01*
X597047Y412048D01*
Y411130D01*
X600541D01*
Y410130D01*
X597047D01*
Y406405D01*
X597047Y405905D01*
X596547Y405905D01*
X596547D01*
X593455D01*
Y402075D01*
X598721D01*
Y401575D01*
X599221D01*
Y397244D01*
X603486D01*
X603986Y397244D01*
X603986D01*
X604486Y397244D01*
X606390D01*
Y401575D01*
Y405905D01*
X604535D01*
X604486D01*
X604420D01*
X604035Y405905D01*
Y405990D01*
Y406126D01*
X604035Y406385D01*
Y406405D01*
Y408701D01*
X616083D01*
X616437Y408347D01*
Y406405D01*
Y406385D01*
X616437Y406126D01*
Y405990D01*
Y405905D01*
X616052Y405905D01*
X615986D01*
X615937D01*
X615937D01*
X614083D01*
Y401575D01*
Y397244D01*
X615986D01*
X616486Y397244D01*
X616486D01*
X616986Y397244D01*
X621252D01*
Y401575D01*
X621752D01*
Y402075D01*
X627018D01*
Y405905D01*
X623925D01*
X623425Y405905D01*
X623425Y406405D01*
Y410130D01*
X619931D01*
Y410630D01*
X619431D01*
Y415354D01*
X619095D01*
X619095Y418347D01*
X619448Y418701D01*
X619579D01*
Y420669D01*
X620079D01*
Y421169D01*
X622441D01*
Y422244D01*
X623269D01*
X623622Y421890D01*
D02*
G37*
G36*
X627953Y427756D02*
X626484D01*
Y425787D01*
X625984D01*
Y425287D01*
X623622D01*
Y424213D01*
X622794D01*
X622441Y424566D01*
Y425287D01*
X620079D01*
X617717D01*
Y423819D01*
X618110D01*
Y422991D01*
X617757Y422638D01*
X617717D01*
Y418701D01*
X618110D01*
Y415708D01*
X617757Y415354D01*
X616437D01*
Y415315D01*
X615854D01*
Y412008D01*
X614854D01*
Y415315D01*
X612127D01*
X611936Y415777D01*
X612843Y416684D01*
X613039Y416977D01*
X613108Y417323D01*
Y417915D01*
X613287D01*
Y420963D01*
Y424604D01*
X613108D01*
Y431102D01*
X627953D01*
Y427756D01*
D02*
G37*
%LPC*%
G36*
X555512Y424106D02*
X553650D01*
Y422638D01*
X555512D01*
Y424106D01*
D02*
G37*
G36*
X546744Y424106D02*
X544882D01*
Y422638D01*
X546744D01*
Y424106D01*
D02*
G37*
G36*
X622441Y420169D02*
X620579D01*
Y418701D01*
X622441D01*
Y420169D01*
D02*
G37*
G36*
X683661Y424106D02*
X681602D01*
Y417126D01*
X683661D01*
Y424106D01*
D02*
G37*
G36*
X552650Y424106D02*
X550787D01*
Y422638D01*
X552650D01*
Y424106D01*
D02*
G37*
G36*
X625484Y420169D02*
X623622D01*
Y418701D01*
X625484D01*
Y420169D01*
D02*
G37*
G36*
X679134Y444882D02*
X677665D01*
Y440945D01*
Y437008D01*
X679134D01*
Y437377D01*
X679331Y437795D01*
X679634Y437795D01*
X680691D01*
X680807Y437772D01*
X686614D01*
Y436417D01*
X686969D01*
Y421260D01*
X687122Y420492D01*
X687557Y419841D01*
X688208Y419406D01*
X688976Y419253D01*
X689745Y419406D01*
X690396Y419841D01*
X690831Y420492D01*
X690983Y421260D01*
Y436417D01*
X691339D01*
Y440042D01*
X693917D01*
X694488Y439471D01*
Y436417D01*
X699213D01*
Y440354D01*
X696159D01*
X695440Y441074D01*
X695631Y441535D01*
X696350D01*
Y443004D01*
X694488D01*
Y442010D01*
X694291Y441848D01*
X691339D01*
Y443004D01*
X688976D01*
X686614D01*
Y441848D01*
X685414D01*
X683709Y443552D01*
X683417Y443748D01*
X683071Y443817D01*
X682283D01*
Y444095D01*
X679634D01*
X679331Y444095D01*
X679134Y444513D01*
X679134Y444513D01*
Y444882D01*
D02*
G37*
G36*
X625484Y427756D02*
X623622D01*
Y426287D01*
X625484D01*
Y427756D01*
D02*
G37*
G36*
X667717Y443004D02*
X665854D01*
Y441535D01*
X667717D01*
Y443004D01*
D02*
G37*
G36*
X664854D02*
X662992D01*
Y441535D01*
X664854D01*
Y443004D01*
D02*
G37*
G36*
X622441Y427756D02*
X620579D01*
Y426287D01*
X622441D01*
Y427756D01*
D02*
G37*
G36*
X680602Y432087D02*
X678543D01*
Y425106D01*
X680602D01*
Y432087D01*
D02*
G37*
G36*
X549606Y424106D02*
X547744D01*
Y422638D01*
X549606D01*
Y424106D01*
D02*
G37*
G36*
X619579Y427756D02*
X617717D01*
Y426287D01*
X619579D01*
Y427756D01*
D02*
G37*
G36*
X683661Y432087D02*
X681602D01*
Y425106D01*
X683661D01*
Y432087D01*
D02*
G37*
G36*
X609793Y401075D02*
X607390D01*
Y397244D01*
X609793D01*
Y401075D01*
D02*
G37*
G36*
X613083D02*
X610679D01*
Y397244D01*
X613083D01*
Y401075D01*
D02*
G37*
G36*
X627018Y401075D02*
X622252D01*
Y397244D01*
X627018D01*
Y401075D01*
D02*
G37*
G36*
X613083Y405905D02*
X610679D01*
Y402075D01*
X613083D01*
Y405905D01*
D02*
G37*
G36*
X567512Y400787D02*
X565551D01*
Y399024D01*
X567512D01*
Y400787D01*
D02*
G37*
G36*
X570472Y398024D02*
X568512D01*
Y396260D01*
X570472D01*
Y398024D01*
D02*
G37*
G36*
X567512D02*
X565551D01*
Y396260D01*
X567512D01*
Y398024D01*
D02*
G37*
G36*
X529028Y403811D02*
X526575D01*
Y396260D01*
X529028D01*
Y403811D01*
D02*
G37*
G36*
X598220Y401075D02*
X593455D01*
Y397244D01*
X598220D01*
Y401075D01*
D02*
G37*
G36*
X532480Y403811D02*
X530028D01*
Y396260D01*
X532480D01*
Y403811D01*
D02*
G37*
G36*
X609793Y405905D02*
X607390D01*
Y402075D01*
X609793D01*
Y405905D01*
D02*
G37*
G36*
X623425Y415354D02*
X620431D01*
Y411130D01*
X623425D01*
Y415354D01*
D02*
G37*
G36*
X551378Y419519D02*
X550764Y419397D01*
X550243Y419049D01*
X549895Y418528D01*
X549772Y417913D01*
X549829Y417626D01*
X549606Y417126D01*
X549606D01*
X549606Y417126D01*
Y411024D01*
X553150D01*
Y417126D01*
X553150Y417126D01*
X553150D01*
X552926Y417626D01*
X552984Y417913D01*
X552861Y418528D01*
X552513Y419049D01*
X551992Y419397D01*
X551378Y419519D01*
D02*
G37*
G36*
X542216Y417126D02*
X540945D01*
Y414575D01*
X542216D01*
Y417126D01*
D02*
G37*
G36*
X680602Y424106D02*
X678543D01*
Y417126D01*
X680602D01*
Y424106D01*
D02*
G37*
G36*
X544488Y417126D02*
X543217D01*
Y414575D01*
X544488D01*
Y417126D01*
D02*
G37*
G36*
X570268Y410630D02*
X567323D01*
Y407784D01*
X570268D01*
Y410630D01*
D02*
G37*
G36*
X529028Y412362D02*
X526575D01*
Y404811D01*
X529028D01*
Y412362D01*
D02*
G37*
G36*
X574213Y410630D02*
X571268D01*
Y407784D01*
X574213D01*
Y410630D01*
D02*
G37*
G36*
X544488Y413575D02*
X543217D01*
Y411024D01*
X544488D01*
Y413575D01*
D02*
G37*
G36*
X542216D02*
X540945D01*
Y411024D01*
X542216D01*
Y413575D01*
D02*
G37*
G36*
X699213Y443004D02*
X697350D01*
Y441535D01*
X699213D01*
Y443004D01*
D02*
G37*
G36*
X706193Y501772D02*
X701772D01*
Y499811D01*
X706193D01*
Y501772D01*
D02*
G37*
G36*
X711608Y494973D02*
X708417D01*
Y494291D01*
X711608D01*
Y494973D01*
D02*
G37*
G36*
X711614Y501772D02*
X707193D01*
Y499811D01*
X711614D01*
Y501772D01*
D02*
G37*
G36*
X713976Y517217D02*
X712508D01*
Y515354D01*
X713976D01*
Y517217D01*
D02*
G37*
G36*
X711508D02*
X710039D01*
Y515354D01*
X711508D01*
Y517217D01*
D02*
G37*
G36*
X718004Y491232D02*
X715551D01*
Y488779D01*
X718004D01*
Y491232D01*
D02*
G37*
G36*
X711221Y488583D02*
X709752D01*
Y486721D01*
X711221D01*
Y488583D01*
D02*
G37*
G36*
X721457Y491232D02*
X719004D01*
Y488779D01*
X721457D01*
Y491232D01*
D02*
G37*
G36*
Y494685D02*
X719004D01*
Y492232D01*
X721457D01*
Y494685D01*
D02*
G37*
G36*
X718004D02*
X715551D01*
Y492232D01*
X718004D01*
Y494685D01*
D02*
G37*
G36*
X710917Y544776D02*
X709252D01*
Y542126D01*
X710917D01*
Y544776D01*
D02*
G37*
G36*
X721850Y536496D02*
X720579D01*
Y535933D01*
X721850D01*
Y536496D01*
D02*
G37*
G36*
X713583Y544776D02*
X711917D01*
Y542126D01*
X713583D01*
Y544776D01*
D02*
G37*
G36*
Y548425D02*
X711917D01*
Y545776D01*
X713583D01*
Y548425D01*
D02*
G37*
G36*
X710917D02*
X709252D01*
Y545776D01*
X710917D01*
Y548425D01*
D02*
G37*
G36*
X713976Y520079D02*
X712508D01*
Y518217D01*
X713976D01*
Y520079D01*
D02*
G37*
G36*
X711508D02*
X710039D01*
Y518217D01*
X711508D01*
Y520079D01*
D02*
G37*
G36*
X708555Y527059D02*
X707283D01*
Y526496D01*
X708555D01*
Y527059D01*
D02*
G37*
G36*
Y536496D02*
X707283D01*
Y535933D01*
X708555D01*
Y536496D01*
D02*
G37*
G36*
X721850Y527059D02*
X720579D01*
Y526496D01*
X721850D01*
Y527059D01*
D02*
G37*
G36*
X708752Y488583D02*
X707283D01*
Y486721D01*
X708752D01*
Y488583D01*
D02*
G37*
G36*
X720866Y468898D02*
X716142D01*
Y464961D01*
X716580D01*
X716956Y464461D01*
X716898Y464173D01*
X717021Y463559D01*
X717369Y463038D01*
X717889Y462690D01*
X718504Y462568D01*
X719118Y462690D01*
X719639Y463038D01*
X719987Y463559D01*
X720110Y464173D01*
X720052Y464461D01*
X720427Y464961D01*
X720866D01*
Y468898D01*
D02*
G37*
G36*
X691339Y445472D02*
X689476D01*
Y444004D01*
X691339D01*
Y445472D01*
D02*
G37*
G36*
X718004Y471547D02*
X716142D01*
Y470079D01*
X718004D01*
Y471547D01*
D02*
G37*
G36*
X706193Y472630D02*
X701772D01*
Y470669D01*
X706193D01*
Y472630D01*
D02*
G37*
G36*
X720866Y471547D02*
X719004D01*
Y470079D01*
X720866D01*
Y471547D01*
D02*
G37*
G36*
X667717Y445472D02*
X665854D01*
Y444004D01*
X667717D01*
Y445472D01*
D02*
G37*
G36*
X664854D02*
X662992D01*
Y444004D01*
X664854D01*
Y445472D01*
D02*
G37*
G36*
X696350D02*
X694488D01*
Y444004D01*
X696350D01*
Y445472D01*
D02*
G37*
G36*
X688476D02*
X686614D01*
Y444004D01*
X688476D01*
Y445472D01*
D02*
G37*
G36*
X699213D02*
X697350D01*
Y444004D01*
X699213D01*
Y445472D01*
D02*
G37*
G36*
X718004Y483661D02*
X715551D01*
Y481209D01*
X718004D01*
Y483661D01*
D02*
G37*
G36*
X721457Y480209D02*
X719004D01*
Y477756D01*
X721457D01*
Y480209D01*
D02*
G37*
G36*
Y483661D02*
X719004D01*
Y481209D01*
X721457D01*
Y483661D01*
D02*
G37*
G36*
X711221Y485720D02*
X709752D01*
Y483858D01*
X711221D01*
Y485720D01*
D02*
G37*
G36*
X708752D02*
X707283D01*
Y483858D01*
X708752D01*
Y485720D01*
D02*
G37*
G36*
X718004Y474016D02*
X716142D01*
Y472547D01*
X718004D01*
Y474016D01*
D02*
G37*
G36*
X711614Y472630D02*
X707193D01*
Y470669D01*
X711614D01*
Y472630D01*
D02*
G37*
G36*
X720866Y474016D02*
X719004D01*
Y472547D01*
X720866D01*
Y474016D01*
D02*
G37*
G36*
X718004Y480209D02*
X715551D01*
Y477756D01*
X718004D01*
Y480209D01*
D02*
G37*
G36*
X704969Y478150D02*
X701778D01*
Y477468D01*
X704969D01*
Y478150D01*
D02*
G37*
%LPD*%
D10*
X580315Y449803D02*
D03*
Y455709D02*
D03*
X585039D02*
D03*
Y449803D02*
D03*
D11*
X718504Y491732D02*
D03*
Y480709D02*
D03*
D12*
X684646Y509842D02*
D03*
Y505905D02*
D03*
Y507874D02*
D03*
X679528Y509842D02*
D03*
Y507874D02*
D03*
Y505905D02*
D03*
D13*
X544291Y504724D02*
D03*
X546260D02*
D03*
X548228D02*
D03*
X550197D02*
D03*
X552165D02*
D03*
X554134D02*
D03*
X556102D02*
D03*
X558071D02*
D03*
X560039D02*
D03*
X562008D02*
D03*
X563976D02*
D03*
X565945D02*
D03*
X567913D02*
D03*
X569882D02*
D03*
X571850D02*
D03*
X573819D02*
D03*
X544291Y459842D02*
D03*
X546260D02*
D03*
X548228D02*
D03*
X550197D02*
D03*
X552165D02*
D03*
X554134D02*
D03*
X556102D02*
D03*
X558071D02*
D03*
X560039D02*
D03*
X562008D02*
D03*
X563976D02*
D03*
X565945D02*
D03*
X567913D02*
D03*
X569882D02*
D03*
X571850D02*
D03*
X573819D02*
D03*
D14*
X581496Y497047D02*
D03*
Y495079D02*
D03*
Y493110D02*
D03*
Y491142D02*
D03*
Y489173D02*
D03*
Y487205D02*
D03*
Y485236D02*
D03*
Y483268D02*
D03*
Y481299D02*
D03*
Y479331D02*
D03*
Y477362D02*
D03*
Y475394D02*
D03*
Y473425D02*
D03*
Y471457D02*
D03*
Y469488D02*
D03*
Y467520D02*
D03*
X536614D02*
D03*
Y469488D02*
D03*
Y471457D02*
D03*
Y473425D02*
D03*
Y475394D02*
D03*
Y477362D02*
D03*
Y479331D02*
D03*
Y481299D02*
D03*
Y483268D02*
D03*
Y485236D02*
D03*
Y487205D02*
D03*
Y489173D02*
D03*
Y491142D02*
D03*
Y493110D02*
D03*
Y495079D02*
D03*
Y497047D02*
D03*
D15*
X715551Y525787D02*
D03*
X713583D02*
D03*
X715551Y537205D02*
D03*
X713583D02*
D03*
D16*
X714567Y531496D02*
D03*
D17*
X720079Y535433D02*
D03*
Y533465D02*
D03*
Y531496D02*
D03*
Y529528D02*
D03*
Y527559D02*
D03*
X709055D02*
D03*
Y529528D02*
D03*
Y531496D02*
D03*
Y533465D02*
D03*
Y535433D02*
D03*
D18*
X509842Y485630D02*
D03*
Y490748D02*
D03*
X500000Y485630D02*
D03*
Y490748D02*
D03*
X490158Y485630D02*
D03*
Y490748D02*
D03*
X668307Y505315D02*
D03*
Y510433D02*
D03*
X592520Y468110D02*
D03*
Y462992D02*
D03*
X576772Y424606D02*
D03*
Y429724D02*
D03*
X570866Y424606D02*
D03*
Y429724D02*
D03*
X535433Y424606D02*
D03*
Y429724D02*
D03*
X564961Y424606D02*
D03*
Y429724D02*
D03*
X559055Y424606D02*
D03*
Y429724D02*
D03*
X541339Y424606D02*
D03*
Y429724D02*
D03*
X525591Y473819D02*
D03*
Y478937D02*
D03*
X625984Y425787D02*
D03*
Y420669D02*
D03*
X696850Y443504D02*
D03*
Y438386D02*
D03*
X624016Y478937D02*
D03*
Y473819D02*
D03*
Y490748D02*
D03*
Y485630D02*
D03*
X718504Y466929D02*
D03*
Y472047D02*
D03*
X509842Y497441D02*
D03*
Y502559D02*
D03*
X500000Y497441D02*
D03*
Y502559D02*
D03*
X490158Y497441D02*
D03*
Y502559D02*
D03*
X653543Y505315D02*
D03*
Y510433D02*
D03*
X620079Y420669D02*
D03*
Y425787D02*
D03*
X547244Y429724D02*
D03*
Y424606D02*
D03*
X553150Y429724D02*
D03*
Y424606D02*
D03*
X592520Y477756D02*
D03*
Y482874D02*
D03*
X525591Y490748D02*
D03*
Y485630D02*
D03*
X592520Y450197D02*
D03*
Y455315D02*
D03*
X665354Y438386D02*
D03*
Y443504D02*
D03*
X688976Y438386D02*
D03*
Y443504D02*
D03*
X616142Y485630D02*
D03*
Y490748D02*
D03*
D19*
X641339Y493504D02*
D03*
Y489961D02*
D03*
Y486417D02*
D03*
Y482874D02*
D03*
X646063D02*
D03*
Y486417D02*
D03*
Y489961D02*
D03*
Y493504D02*
D03*
D20*
X681102Y424606D02*
D03*
X673228D02*
D03*
D21*
X690354Y402756D02*
D03*
X663976D02*
D03*
D22*
X608268Y422784D02*
D03*
Y419685D02*
D03*
D23*
X604331Y419736D02*
D03*
X606299D02*
D03*
X610236D02*
D03*
X612205D02*
D03*
Y422784D02*
D03*
X610236D02*
D03*
X606299D02*
D03*
X604331D02*
D03*
D24*
X673524Y442913D02*
D03*
Y440945D02*
D03*
Y438976D02*
D03*
X680807D02*
D03*
Y440945D02*
D03*
Y442913D02*
D03*
D25*
X677165Y440945D02*
D03*
D26*
X640748Y502264D02*
D03*
Y513484D02*
D03*
X646654Y502264D02*
D03*
X644685D02*
D03*
X642717D02*
D03*
Y513484D02*
D03*
X644685D02*
D03*
X646654D02*
D03*
D27*
X697835Y535827D02*
D03*
Y527165D02*
D03*
D28*
X617520Y511811D02*
D03*
X622638D02*
D03*
X617520Y503937D02*
D03*
X622638D02*
D03*
X507480Y451772D02*
D03*
X502362D02*
D03*
X507480Y462598D02*
D03*
X502362D02*
D03*
X709252Y486221D02*
D03*
X704134D02*
D03*
X528150Y459646D02*
D03*
X523032D02*
D03*
X712008Y517717D02*
D03*
X717126D02*
D03*
X560433Y448819D02*
D03*
X565551D02*
D03*
X542717Y448819D02*
D03*
X547835D02*
D03*
X567520Y515748D02*
D03*
X562402D02*
D03*
X553740Y515748D02*
D03*
X548622D02*
D03*
X646260Y476378D02*
D03*
X641142D02*
D03*
X528150Y448819D02*
D03*
X523032D02*
D03*
D29*
X711417Y545276D02*
D03*
X717717D02*
D03*
D30*
X525591Y425886D02*
D03*
X706693Y473130D02*
D03*
Y499311D02*
D03*
D31*
X524366Y429724D02*
D03*
X705469Y476968D02*
D03*
X707917Y495472D02*
D03*
D32*
X529232Y429724D02*
D03*
X710335Y476968D02*
D03*
X703051Y495472D02*
D03*
D33*
X570768Y407283D02*
D03*
D34*
X529528Y404311D02*
D03*
D35*
X534055Y414075D02*
D03*
X538386D02*
D03*
X542717D02*
D03*
X547047D02*
D03*
X551378D02*
D03*
X555709D02*
D03*
X560039D02*
D03*
X564370D02*
D03*
D36*
X568012Y398524D02*
D03*
D37*
X571654Y402362D02*
D03*
D38*
X619931Y410630D02*
D03*
X600541D02*
D03*
D39*
X615354Y412008D02*
D03*
X612795D02*
D03*
X610236D02*
D03*
X607677D02*
D03*
X605118D02*
D03*
D40*
X598721Y401575D02*
D03*
X621752D02*
D03*
D41*
X606890D02*
D03*
X613583D02*
D03*
D42*
X610236Y503937D02*
D03*
Y511811D02*
D03*
X543307Y561024D02*
D03*
X547244Y555118D02*
D03*
X551181Y561024D02*
D03*
X555118Y555118D02*
D03*
X559055Y561024D02*
D03*
X562992Y555118D02*
D03*
X566929Y561024D02*
D03*
X570866Y555118D02*
D03*
X574803Y561024D02*
D03*
X578740Y555118D02*
D03*
X507874Y555118D02*
D03*
X511811Y561024D02*
D03*
X515748Y555118D02*
D03*
X519685Y561024D02*
D03*
X523622Y555118D02*
D03*
X527559Y561024D02*
D03*
X531496Y555118D02*
D03*
X608268Y555118D02*
D03*
X604331Y561024D02*
D03*
X600394Y555118D02*
D03*
X596457Y561024D02*
D03*
X592520Y555118D02*
D03*
X588583Y561024D02*
D03*
X430512Y511122D02*
D03*
X440512Y516122D02*
D03*
X430512Y521122D02*
D03*
X440512Y526122D02*
D03*
X430512Y531122D02*
D03*
X440512Y536122D02*
D03*
D43*
X507480Y462598D02*
X510827D01*
X506890Y451772D02*
X510827D01*
X466457D02*
X502362D01*
X450591Y462598D02*
X502362D01*
X523032Y459646D02*
Y464567D01*
X518701Y448819D02*
X522441D01*
X528150Y449409D02*
X528740Y448819D01*
X528150Y449409D02*
Y459646D01*
X542717Y448819D02*
X542717Y448819D01*
X528740Y448819D02*
X542717D01*
X664370Y510433D02*
X668307D01*
Y505315D02*
X674606D01*
X668307Y493110D02*
Y505315D01*
X700984Y495472D02*
X703051D01*
X696850Y499606D02*
X700984Y495472D01*
X696850Y499606D02*
Y503937D01*
X682087Y505906D02*
Y509055D01*
X682874Y509842D02*
X684646D01*
X682087Y509055D02*
X682874Y509842D01*
X690945D02*
X696850Y503937D01*
X684646Y509842D02*
X690945D01*
X684646Y507874D02*
X689961D01*
X682086Y505905D02*
X682087Y505906D01*
X682086Y497047D02*
Y505905D01*
X682086Y505905D02*
X682086Y505905D01*
X679528Y505905D02*
X682086D01*
X671457Y486417D02*
X682086Y497047D01*
X677165Y507874D02*
X679528D01*
X674606Y505315D02*
X677165Y507874D01*
X687992Y505905D02*
X687992Y505905D01*
X684646Y505905D02*
X687992D01*
X677165Y509842D02*
X679528D01*
X608268Y422784D02*
Y425394D01*
Y419685D02*
Y422784D01*
X482283Y467520D02*
X536614D01*
X435039Y514764D02*
X482283Y467520D01*
X487146Y469488D02*
X536614D01*
X440512Y516122D02*
X487146Y469488D01*
X492717Y473819D02*
X525591D01*
X455709Y510827D02*
X492717Y473819D01*
X643701Y435197D02*
Y452756D01*
X646260Y473032D02*
Y476378D01*
X643701Y470472D02*
X646260Y473032D01*
X643701Y462756D02*
Y470472D01*
Y462756D02*
X643701Y462756D01*
X646063Y486417D02*
X671457D01*
X581496Y497047D02*
X585630D01*
X588583Y500000D01*
Y561024D01*
X592520Y545276D02*
X592520Y545276D01*
Y555118D01*
X596457Y539370D02*
X596457Y539370D01*
Y561024D01*
X600394Y523622D02*
Y555118D01*
X604331Y539370D02*
X604331Y539370D01*
Y561024D01*
X608268Y545276D02*
X608268Y545276D01*
Y555118D01*
X551181Y561024D02*
X551181Y561024D01*
X559055Y519685D02*
Y561024D01*
X566929Y524213D02*
Y561024D01*
X578740Y513189D02*
Y555118D01*
X574803Y511221D02*
Y561024D01*
X570866Y522441D02*
Y555118D01*
Y522441D02*
X572638Y520669D01*
X500984Y505905D02*
X520669D01*
X500000Y504921D02*
X500984Y505905D01*
X500000Y502559D02*
Y504921D01*
X494095Y508858D02*
X538386D01*
X490158Y504921D02*
X494095Y508858D01*
X490158Y502559D02*
Y504921D01*
X508858Y485630D02*
X509842D01*
X506693Y483465D02*
X508858Y485630D01*
X499016D02*
X500000D01*
X496850Y483465D02*
X499016Y485630D01*
X489173D02*
X490158D01*
X487008Y483465D02*
X489173Y485630D01*
X509842Y490748D02*
Y497441D01*
X500000Y490748D02*
Y497441D01*
X490158Y490748D02*
Y497441D01*
X542520Y504724D02*
X544291D01*
X538386Y508858D02*
X542520Y504724D01*
X530512Y493110D02*
X536614D01*
X521063Y502559D02*
X530512Y493110D01*
X509842Y502559D02*
X521063D01*
X531496Y495079D02*
X536614D01*
X520669Y505905D02*
X531496Y495079D01*
X546260Y504724D02*
Y508268D01*
X435039Y514764D02*
Y516595D01*
X430512Y521122D02*
X435039Y516595D01*
X455413Y536122D02*
X455709Y536417D01*
X440512Y536122D02*
X455413D01*
X455709Y510827D02*
Y536417D01*
X624016Y490748D02*
Y494095D01*
Y478937D02*
Y485630D01*
X618110Y490748D02*
X624016D01*
X618110Y485630D02*
X624016D01*
Y462756D02*
Y473819D01*
X670276Y441929D02*
X671260Y440945D01*
X673524D01*
X683071Y442913D02*
X685039Y440945D01*
X680807Y442913D02*
X683071D01*
X571850Y463583D02*
X572835Y464567D01*
X571850Y459842D02*
Y463583D01*
X536614Y473425D02*
X541339D01*
X536614Y477362D02*
X543307D01*
X546260Y459842D02*
Y466535D01*
X544291Y459842D02*
Y464567D01*
X573819Y427559D02*
X576772Y424606D01*
X573819Y427559D02*
Y459842D01*
X470905Y436221D02*
X475630Y440945D01*
X433465Y436221D02*
X470905D01*
X430905Y438779D02*
X433465Y436221D01*
X430905Y438779D02*
Y442913D01*
X525591Y490748D02*
X526181Y490158D01*
X528150D01*
X533071Y485236D01*
X536614D01*
X562008Y515354D02*
X562402Y515748D01*
X562008Y504724D02*
Y515354D01*
X553740Y515748D02*
X554134Y515354D01*
Y504724D02*
Y515354D01*
X562008Y500000D02*
Y504724D01*
X554134Y500000D02*
Y504724D01*
X541339Y485236D02*
X541339Y485236D01*
X536614Y485236D02*
X541339D01*
X552165Y459842D02*
Y466535D01*
X569882Y439173D02*
Y459842D01*
X567913Y437205D02*
X569882Y439173D01*
X567913Y427559D02*
Y437205D01*
X556496Y409449D02*
X557874Y410827D01*
Y417520D01*
X562008Y421654D01*
Y434055D01*
X567913Y439961D01*
Y459842D01*
X564961Y424606D02*
X567913Y427559D01*
X565945Y459842D02*
Y466535D01*
X576772Y489173D02*
X576772Y489173D01*
X581496D01*
X574803Y491142D02*
X581496D01*
X574803Y491142D02*
X574803Y491142D01*
Y487205D02*
X581496D01*
X574803Y487205D02*
X574803Y487205D01*
X576772Y481299D02*
X576772Y481299D01*
X581496D01*
X560039Y459842D02*
Y464567D01*
X550197Y459842D02*
Y464567D01*
X548228Y456299D02*
Y459842D01*
X542717Y450787D02*
X548228Y456299D01*
X548622Y409449D02*
X556496D01*
X560039Y414075D02*
Y417323D01*
X564961Y422244D02*
Y424606D01*
X560039Y417323D02*
X564961Y422244D01*
X564370Y414075D02*
Y417323D01*
X570866Y422244D02*
Y424606D01*
X534055Y414075D02*
Y417323D01*
X535433Y418701D01*
Y424606D01*
X538386Y414075D02*
Y417520D01*
X541339Y420472D01*
Y424606D01*
X555709Y414075D02*
Y417323D01*
X559055Y420669D01*
Y424606D01*
X564370Y417323D02*
X565158Y418110D01*
X566732D01*
X570866Y422244D01*
X535433Y429724D02*
Y432480D01*
X535433Y432480D01*
X541339Y429724D02*
Y432480D01*
X541339Y432480D01*
X547244Y429724D02*
Y429921D01*
X547244Y429921D01*
Y432480D01*
X553150Y429724D02*
Y432480D01*
X553150Y432480D01*
X559055Y429724D02*
Y432480D01*
X559055Y432480D01*
X564961Y429724D02*
Y432480D01*
X564961Y432480D01*
X570866Y429724D02*
Y432480D01*
X570866Y432480D01*
X576772Y429724D02*
Y432480D01*
X551378Y414075D02*
Y417913D01*
X551378Y417913D01*
X556102Y427559D02*
X559055Y424606D01*
X547047Y411024D02*
Y414075D01*
Y411024D02*
X548622Y409449D01*
X556102Y427559D02*
Y459842D01*
X571654Y402362D02*
X574213D01*
X576772Y404921D01*
Y424606D01*
X607677Y412008D02*
Y415354D01*
X610236Y417913D01*
X610236Y412008D02*
Y415354D01*
X612205Y417323D01*
X610236Y417913D02*
Y419736D01*
Y422784D01*
X612205Y417323D02*
Y419736D01*
Y422784D01*
X541339Y424606D02*
X544291Y427559D01*
X560039Y449213D02*
Y459842D01*
Y449213D02*
X560433Y448819D01*
X544291Y427559D02*
Y434055D01*
X554134Y443898D01*
Y459842D01*
X548228Y504724D02*
Y508268D01*
X551181Y523425D02*
Y561024D01*
Y523425D02*
X556102Y518504D01*
Y504724D02*
Y518504D01*
X559055Y519685D02*
X560039Y518701D01*
Y504724D02*
Y518701D01*
X562992Y525787D02*
Y555118D01*
Y525787D02*
X569882Y518898D01*
X573819Y504724D02*
Y508268D01*
X578740Y513189D01*
X571850Y504724D02*
Y508268D01*
X574803Y511221D01*
X569882Y504724D02*
Y508268D01*
X567913Y504724D02*
Y508268D01*
X565945Y504724D02*
Y508268D01*
X569882Y512205D01*
Y518898D01*
Y508268D02*
X572638Y511024D01*
X567913Y508268D02*
X571260Y511614D01*
Y519882D01*
X566929Y524213D02*
X571260Y519882D01*
X572638Y511024D02*
Y520669D01*
X555118Y521850D02*
Y555118D01*
Y521850D02*
X558071Y518898D01*
Y504724D02*
Y518898D01*
X536614Y497047D02*
X541339D01*
X541339Y497047D01*
X536614Y491142D02*
X543307D01*
X543307Y491142D01*
X536614Y489173D02*
X541339D01*
X541339Y489173D01*
X536614Y487205D02*
X543307D01*
X543307Y487205D01*
X536614Y479331D02*
X541339D01*
X541339Y479331D01*
X531496Y471457D02*
X536614D01*
X531496Y471457D02*
X531496Y471457D01*
X531496Y475394D02*
X536614D01*
X531496Y475394D02*
X531496Y475394D01*
X525591Y473819D02*
X527953D01*
X529528Y475394D01*
X600394Y523622D02*
X600394Y523622D01*
X604331Y523622D02*
Y539370D01*
X608268Y523622D02*
Y545276D01*
X529232Y429724D02*
Y432185D01*
X529528Y432480D01*
X685039Y440945D02*
X694291D01*
X696850Y438386D01*
X536614Y483268D02*
X543307D01*
X525591Y478937D02*
Y485630D01*
X552165Y498032D02*
Y504724D01*
X548622Y512008D02*
Y515748D01*
Y512008D02*
X552165Y508465D01*
Y504724D02*
Y508465D01*
X563976Y504724D02*
Y508465D01*
X567520Y512008D01*
Y515748D01*
X563976Y498032D02*
Y504724D01*
X574803Y479331D02*
X581496D01*
X562008Y459842D02*
Y466535D01*
X547835Y448819D02*
Y451378D01*
X550197Y453740D01*
Y459842D01*
X562008Y454921D02*
Y459842D01*
Y454921D02*
X565551Y451378D01*
Y448819D02*
Y451378D01*
X637795Y485039D02*
X639173Y486417D01*
X641339D01*
X646260Y476378D02*
Y482677D01*
X646063Y482874D02*
X646260Y482677D01*
X638976Y476378D02*
X641142D01*
X637795Y477559D02*
X638976Y476378D01*
X637795Y477559D02*
Y485039D01*
X624016Y452756D02*
X643701D01*
X519685Y429724D02*
X524366D01*
X709055Y531496D02*
X714567D01*
X716536Y533465D02*
X720079D01*
X714567Y531496D02*
X716536Y533465D01*
X686024Y467520D02*
X701772D01*
X558071Y459842D02*
Y466535D01*
X455630Y440945D02*
X466457Y451772D01*
X430905Y442913D02*
X450591Y462598D01*
X710335Y476968D02*
X714173D01*
X616142Y474409D02*
Y485630D01*
X563976Y459842D02*
Y464567D01*
X581496Y481299D02*
X587598D01*
X589173Y482874D01*
X592520D01*
X581496Y479331D02*
X587598D01*
X589173Y477756D01*
X592520D01*
X581496Y483268D02*
X586811D01*
X581496Y485236D02*
X585630D01*
X610236Y511811D02*
X617520D01*
X610236Y503937D02*
X617520D01*
X622638Y511811D02*
X625984D01*
X622638Y503937D02*
X625984D01*
X586811Y483268D02*
X603543Y500000D01*
X600394Y500000D02*
X608268Y507874D01*
X617520Y508071D02*
Y511811D01*
Y508071D02*
X617717Y507874D01*
X617520Y500197D02*
Y503937D01*
X617323Y500000D02*
X617520Y500197D01*
X531693Y483268D02*
X536614D01*
X525591Y485630D02*
X529331D01*
X531693Y483268D01*
X531693Y481299D02*
X536614D01*
X529528Y475394D02*
Y479134D01*
X531693Y481299D01*
X585630Y485236D02*
X600394Y500000D01*
X718504Y465747D02*
X718504Y465748D01*
X718504Y464173D02*
Y465747D01*
X703051Y487598D02*
Y495472D01*
X545669Y510827D02*
X548228Y508268D01*
X543307Y511221D02*
Y561024D01*
Y511221D02*
X546260Y508268D01*
X545669Y510827D02*
Y518504D01*
X547244Y520079D01*
Y555118D01*
X581496Y493110D02*
X587598D01*
X596457Y501968D01*
Y539370D01*
X581496Y495079D02*
X586614D01*
X592520Y500984D01*
Y545276D01*
X531496Y523622D02*
Y555118D01*
X527559Y523622D02*
Y561024D01*
X523622Y523622D02*
Y555118D01*
X519685Y523622D02*
Y561024D01*
X515748Y523622D02*
Y555118D01*
X511811Y523622D02*
Y561024D01*
X507874Y523622D02*
Y555118D01*
X581496Y475394D02*
X599409D01*
X612205Y462598D01*
Y422784D02*
Y462598D01*
X581496Y473425D02*
X598425D01*
X610236Y461614D01*
Y422784D02*
Y461614D01*
X581496Y467520D02*
X598425D01*
X606299Y459646D01*
Y419736D02*
Y459646D01*
X572835Y464567D02*
X574803D01*
X576772Y477362D02*
X581496D01*
X572835Y473425D02*
X576772Y477362D01*
X572835Y469488D02*
Y473425D01*
Y469488D02*
X579331Y462992D01*
X592520D01*
X574803Y471457D02*
X581496D01*
X576772Y469488D02*
X581496D01*
X576772Y469488D02*
X576772Y469488D01*
X580315Y455709D02*
Y459055D01*
X574803Y464567D02*
X580315Y459055D01*
Y449803D02*
X585039D01*
X585433Y455315D02*
X592520D01*
X585039Y455709D02*
X585433Y455315D01*
Y450197D02*
X592520D01*
X585039Y449803D02*
X585433Y450197D01*
X550197Y500000D02*
Y504724D01*
X640748Y494095D02*
Y502264D01*
Y494095D02*
X641339Y493504D01*
X642717Y499016D02*
Y502264D01*
Y499016D02*
X646063Y495669D01*
Y493504D02*
Y495669D01*
X611417Y500000D02*
X636811D01*
X639075Y502264D01*
X640748D01*
X608268Y507874D02*
X639764D01*
X642717Y504921D01*
Y502264D02*
Y504921D01*
X644685Y500000D02*
Y502264D01*
X644685Y500000D02*
X644685Y500000D01*
X646654Y513484D02*
X647933D01*
X650984Y510433D01*
X653543D01*
X646654Y502264D02*
X647933D01*
X650984Y505315D02*
X653543D01*
X647933Y502264D02*
X650984Y505315D01*
X646654Y511811D02*
Y513484D01*
X640748Y511811D02*
X640748Y511811D01*
Y513484D01*
X642717Y511811D02*
Y513484D01*
X642717Y511811D02*
X642717Y511811D01*
X640748Y511811D02*
X642717D01*
X644685D02*
Y513484D01*
X642717Y511811D02*
X644685D01*
X646654D01*
X600394Y500000D02*
Y500000D01*
X603543Y500000D02*
X611417D01*
X617323D01*
D44*
X657638Y435197D02*
X660827Y438386D01*
X643701Y435197D02*
X657638D01*
X643701Y425197D02*
X672638D01*
X673228Y424606D01*
X415512Y584016D02*
X705512D01*
X415512Y574016D02*
X705512D01*
D45*
X688976Y421260D02*
X688976Y421260D01*
X688386Y438976D02*
X688976Y438386D01*
X680807Y438976D02*
X688386D01*
X665354Y438386D02*
X665945Y438976D01*
X673524D01*
X660827Y438386D02*
X665354D01*
D46*
X688976Y421260D02*
Y438386D01*
X717717Y542520D02*
Y545276D01*
X715551Y540354D02*
X717717Y542520D01*
X717126Y517717D02*
Y521063D01*
X715551Y522638D02*
X717126Y521063D01*
X697835Y535433D02*
X703150D01*
X705118Y533465D01*
X697835Y527559D02*
X703150D01*
X705118Y529528D01*
D47*
X509842Y433071D02*
X513189Y429724D01*
X519685D01*
X509842Y423071D02*
X512657Y425886D01*
X525591D01*
X525689Y425984D01*
X531496D01*
D48*
X715551Y522638D02*
Y525787D01*
Y537205D02*
Y540354D01*
X705118Y533465D02*
X709055D01*
X705118Y529528D02*
X709055D01*
D49*
X677165Y440945D02*
D03*
D50*
X405512Y503622D02*
D03*
Y543622D02*
D03*
D51*
X615512Y574016D02*
D03*
X605512D02*
D03*
X595512D02*
D03*
X585512D02*
D03*
X575512D02*
D03*
X565512D02*
D03*
X555512D02*
D03*
X545512D02*
D03*
X465512D02*
D03*
X475512D02*
D03*
X485512D02*
D03*
X495512D02*
D03*
X505512D02*
D03*
X515512D02*
D03*
X525512D02*
D03*
X535512D02*
D03*
X455512D02*
D03*
X445512D02*
D03*
X435512D02*
D03*
X425512D02*
D03*
X415512D02*
D03*
Y584016D02*
D03*
X425512D02*
D03*
X435512D02*
D03*
X445512D02*
D03*
X455512D02*
D03*
X535512D02*
D03*
X525512D02*
D03*
X515512D02*
D03*
X505512D02*
D03*
X495512D02*
D03*
X485512D02*
D03*
X475512D02*
D03*
X465512D02*
D03*
X545512D02*
D03*
X555512D02*
D03*
X565512D02*
D03*
X575512D02*
D03*
X585512D02*
D03*
X595512D02*
D03*
X605512D02*
D03*
X615512D02*
D03*
Y624016D02*
D03*
X605512D02*
D03*
X595512D02*
D03*
X585512D02*
D03*
X575512D02*
D03*
X565512D02*
D03*
X555512D02*
D03*
X545512D02*
D03*
X465512D02*
D03*
X475512D02*
D03*
X485512D02*
D03*
X495512D02*
D03*
X505512D02*
D03*
X515512D02*
D03*
X525512D02*
D03*
X535512D02*
D03*
X455512D02*
D03*
X445512D02*
D03*
X435512D02*
D03*
X425512D02*
D03*
X415512D02*
D03*
Y614016D02*
D03*
X425512D02*
D03*
X435512D02*
D03*
X445512D02*
D03*
X455512D02*
D03*
X535512D02*
D03*
X525512D02*
D03*
X515512D02*
D03*
X505512D02*
D03*
X495512D02*
D03*
X485512D02*
D03*
X475512D02*
D03*
X465512D02*
D03*
X545512D02*
D03*
X555512D02*
D03*
X565512D02*
D03*
X575512D02*
D03*
X585512D02*
D03*
X595512D02*
D03*
X605512D02*
D03*
X615512D02*
D03*
X625512D02*
D03*
Y624016D02*
D03*
Y584016D02*
D03*
Y574016D02*
D03*
X405512Y614016D02*
D03*
Y624016D02*
D03*
X685512D02*
D03*
Y614016D02*
D03*
X675512D02*
D03*
X665512D02*
D03*
X655512D02*
D03*
X645512D02*
D03*
X635512D02*
D03*
Y624016D02*
D03*
X645512D02*
D03*
X655512D02*
D03*
X665512D02*
D03*
X675512D02*
D03*
X715512Y614016D02*
D03*
X705512D02*
D03*
X695512D02*
D03*
Y624016D02*
D03*
X705512D02*
D03*
X715512D02*
D03*
Y684016D02*
D03*
X705512D02*
D03*
X695512D02*
D03*
Y634016D02*
D03*
X705512D02*
D03*
X715512D02*
D03*
X675512Y684016D02*
D03*
X665512D02*
D03*
X655512D02*
D03*
X645512D02*
D03*
X635512D02*
D03*
Y634016D02*
D03*
X645512D02*
D03*
X655512D02*
D03*
X665512D02*
D03*
X675512D02*
D03*
X685512D02*
D03*
Y684016D02*
D03*
X405512D02*
D03*
Y634016D02*
D03*
X625512Y684016D02*
D03*
Y634016D02*
D03*
X615512D02*
D03*
X605512D02*
D03*
X595512D02*
D03*
X585512D02*
D03*
X575512D02*
D03*
X565512D02*
D03*
X555512D02*
D03*
X545512D02*
D03*
X465512D02*
D03*
X475512D02*
D03*
X485512D02*
D03*
X495512D02*
D03*
X505512D02*
D03*
X515512D02*
D03*
X525512D02*
D03*
X535512D02*
D03*
X455512D02*
D03*
X445512D02*
D03*
X435512D02*
D03*
X425512D02*
D03*
X415512D02*
D03*
Y684016D02*
D03*
X425512D02*
D03*
X435512D02*
D03*
X445512D02*
D03*
X455512D02*
D03*
X535512D02*
D03*
X525512D02*
D03*
X515512D02*
D03*
X505512D02*
D03*
X495512D02*
D03*
X485512D02*
D03*
X475512D02*
D03*
X465512D02*
D03*
X545512D02*
D03*
X555512D02*
D03*
X565512D02*
D03*
X575512D02*
D03*
X585512D02*
D03*
X595512D02*
D03*
X605512D02*
D03*
X615512D02*
D03*
X695512Y704016D02*
D03*
Y694016D02*
D03*
X705512D02*
D03*
X715512D02*
D03*
X675512Y704016D02*
D03*
X665512D02*
D03*
X655512D02*
D03*
X645512D02*
D03*
X635512D02*
D03*
Y694016D02*
D03*
X645512D02*
D03*
X655512D02*
D03*
X665512D02*
D03*
X675512D02*
D03*
X685512D02*
D03*
Y704016D02*
D03*
X405512Y694016D02*
D03*
X625512Y704016D02*
D03*
Y694016D02*
D03*
X615512D02*
D03*
X605512D02*
D03*
X595512D02*
D03*
X585512D02*
D03*
X575512D02*
D03*
X565512D02*
D03*
X555512D02*
D03*
X545512D02*
D03*
X465512D02*
D03*
X475512D02*
D03*
X485512D02*
D03*
X495512D02*
D03*
X505512D02*
D03*
X515512D02*
D03*
X525512D02*
D03*
X535512D02*
D03*
X455512D02*
D03*
X445512D02*
D03*
X435512D02*
D03*
X425512D02*
D03*
X415512D02*
D03*
X425512Y704016D02*
D03*
X435512D02*
D03*
X445512D02*
D03*
X455512D02*
D03*
X535512D02*
D03*
X525512D02*
D03*
X515512D02*
D03*
X505512D02*
D03*
X495512D02*
D03*
X485512D02*
D03*
X475512D02*
D03*
X465512D02*
D03*
X545512D02*
D03*
X555512D02*
D03*
X565512D02*
D03*
X575512D02*
D03*
X585512D02*
D03*
X595512D02*
D03*
X605512D02*
D03*
X615512D02*
D03*
X715512Y604016D02*
D03*
X705512D02*
D03*
X695512D02*
D03*
Y594016D02*
D03*
X705512D02*
D03*
X715512D02*
D03*
X675512Y604016D02*
D03*
X665512D02*
D03*
X655512D02*
D03*
X645512D02*
D03*
X635512D02*
D03*
Y594016D02*
D03*
X645512D02*
D03*
X655512D02*
D03*
X665512D02*
D03*
X675512D02*
D03*
X685512D02*
D03*
Y604016D02*
D03*
X405512D02*
D03*
Y594016D02*
D03*
X625512Y604016D02*
D03*
Y594016D02*
D03*
X615512D02*
D03*
X605512D02*
D03*
X595512D02*
D03*
X585512D02*
D03*
X575512D02*
D03*
X565512D02*
D03*
X555512D02*
D03*
X545512D02*
D03*
X465512D02*
D03*
X475512D02*
D03*
X485512D02*
D03*
X495512D02*
D03*
X505512D02*
D03*
X515512D02*
D03*
X525512D02*
D03*
X535512D02*
D03*
X455512D02*
D03*
X445512D02*
D03*
X435512D02*
D03*
X425512D02*
D03*
X415512D02*
D03*
Y604016D02*
D03*
X425512D02*
D03*
X435512D02*
D03*
X445512D02*
D03*
X455512D02*
D03*
X535512D02*
D03*
X525512D02*
D03*
X515512D02*
D03*
X505512D02*
D03*
X495512D02*
D03*
X485512D02*
D03*
X475512D02*
D03*
X465512D02*
D03*
X545512D02*
D03*
X555512D02*
D03*
X565512D02*
D03*
X575512D02*
D03*
X585512D02*
D03*
X595512D02*
D03*
X605512D02*
D03*
X615512D02*
D03*
X695512Y714016D02*
D03*
X635512D02*
D03*
X645512D02*
D03*
X655512D02*
D03*
X665512D02*
D03*
X675512D02*
D03*
X685512D02*
D03*
X625512D02*
D03*
X615512D02*
D03*
X605512D02*
D03*
X595512D02*
D03*
X585512D02*
D03*
X575512D02*
D03*
X565512D02*
D03*
X555512D02*
D03*
X545512D02*
D03*
X465512D02*
D03*
X475512D02*
D03*
X485512D02*
D03*
X495512D02*
D03*
X505512D02*
D03*
X515512D02*
D03*
X525512D02*
D03*
X535512D02*
D03*
X455512D02*
D03*
X445512D02*
D03*
X435512D02*
D03*
X425512D02*
D03*
X695512Y584016D02*
D03*
X685512D02*
D03*
X675512D02*
D03*
X665512D02*
D03*
X655512D02*
D03*
X645512D02*
D03*
X635512D02*
D03*
Y574016D02*
D03*
X645512D02*
D03*
X655512D02*
D03*
X665512D02*
D03*
X675512D02*
D03*
X685512D02*
D03*
X695512D02*
D03*
X705512D02*
D03*
Y584016D02*
D03*
X415512Y674016D02*
D03*
X425512D02*
D03*
X435512D02*
D03*
X445512D02*
D03*
X455512D02*
D03*
X535512D02*
D03*
X525512D02*
D03*
X515512D02*
D03*
X505512D02*
D03*
X495512D02*
D03*
X485512D02*
D03*
X475512D02*
D03*
X465512D02*
D03*
X545512D02*
D03*
X555512D02*
D03*
X565512D02*
D03*
X575512D02*
D03*
X585512D02*
D03*
X595512D02*
D03*
X605512D02*
D03*
X615512D02*
D03*
X625512D02*
D03*
X405512D02*
D03*
X685512D02*
D03*
X675512D02*
D03*
X665512D02*
D03*
X655512D02*
D03*
X645512D02*
D03*
X635512D02*
D03*
X715512D02*
D03*
X705512D02*
D03*
X695512D02*
D03*
X715512Y664016D02*
D03*
X705512D02*
D03*
X695512D02*
D03*
Y654016D02*
D03*
X705512D02*
D03*
X715512D02*
D03*
X675512Y664016D02*
D03*
X665512D02*
D03*
X655512D02*
D03*
X645512D02*
D03*
X635512D02*
D03*
Y654016D02*
D03*
X645512D02*
D03*
X655512D02*
D03*
X665512D02*
D03*
X675512D02*
D03*
X685512D02*
D03*
Y664016D02*
D03*
X405512D02*
D03*
Y654016D02*
D03*
X625512Y664016D02*
D03*
Y654016D02*
D03*
X615512D02*
D03*
X605512D02*
D03*
X595512D02*
D03*
X585512D02*
D03*
X575512D02*
D03*
X565512D02*
D03*
X555512D02*
D03*
X545512D02*
D03*
X465512D02*
D03*
X475512D02*
D03*
X485512D02*
D03*
X495512D02*
D03*
X505512D02*
D03*
X515512D02*
D03*
X525512D02*
D03*
X535512D02*
D03*
X455512D02*
D03*
X445512D02*
D03*
X435512D02*
D03*
X425512D02*
D03*
X415512D02*
D03*
Y664016D02*
D03*
X425512D02*
D03*
X435512D02*
D03*
X445512D02*
D03*
X455512D02*
D03*
X535512D02*
D03*
X525512D02*
D03*
X515512D02*
D03*
X505512D02*
D03*
X495512D02*
D03*
X485512D02*
D03*
X475512D02*
D03*
X465512D02*
D03*
X545512D02*
D03*
X555512D02*
D03*
X565512D02*
D03*
X575512D02*
D03*
X585512D02*
D03*
X595512D02*
D03*
X605512D02*
D03*
X615512D02*
D03*
X415512Y644016D02*
D03*
X425512D02*
D03*
X435512D02*
D03*
X445512D02*
D03*
X455512D02*
D03*
X535512D02*
D03*
X525512D02*
D03*
X515512D02*
D03*
X505512D02*
D03*
X495512D02*
D03*
X485512D02*
D03*
X475512D02*
D03*
X465512D02*
D03*
X545512D02*
D03*
X555512D02*
D03*
X565512D02*
D03*
X575512D02*
D03*
X585512D02*
D03*
X595512D02*
D03*
X605512D02*
D03*
X615512D02*
D03*
X625512D02*
D03*
X405512D02*
D03*
X685512D02*
D03*
X675512D02*
D03*
X665512D02*
D03*
X655512D02*
D03*
X645512D02*
D03*
X635512D02*
D03*
X715512D02*
D03*
X705512D02*
D03*
X695512D02*
D03*
X643701Y435197D02*
D03*
Y425197D02*
D03*
X624016Y462756D02*
D03*
Y452756D02*
D03*
X643701Y462756D02*
D03*
Y452756D02*
D03*
X509842Y423071D02*
D03*
Y433071D02*
D03*
X435630Y440945D02*
D03*
X445630D02*
D03*
X455630D02*
D03*
X465630D02*
D03*
X475630D02*
D03*
X485630D02*
D03*
D52*
X409449Y409449D02*
D03*
X712598D02*
D03*
X712598Y712598D02*
D03*
X409449D02*
D03*
D53*
X668307Y467520D02*
D03*
Y493110D02*
D03*
X686024D02*
D03*
Y467520D02*
D03*
X473425Y536417D02*
D03*
Y510827D02*
D03*
X455709D02*
D03*
Y536417D02*
D03*
D54*
X510827Y451772D02*
D03*
Y462598D02*
D03*
X523032Y464567D02*
D03*
X518701Y448819D02*
D03*
X664370Y510433D02*
D03*
X689961Y507874D02*
D03*
X687992Y505905D02*
D03*
X676181Y509842D02*
D03*
X626968Y429134D02*
D03*
X608268Y425394D02*
D03*
X615158Y420276D02*
D03*
Y423228D02*
D03*
Y426181D02*
D03*
Y429134D02*
D03*
X618110D02*
D03*
X621063D02*
D03*
X624016D02*
D03*
X676181Y451772D02*
D03*
X668307D02*
D03*
X670276Y453740D02*
D03*
X672244Y451772D02*
D03*
X674213Y453740D02*
D03*
X678150D02*
D03*
X682087D02*
D03*
X680118Y451772D02*
D03*
X684055D02*
D03*
X686024Y453740D02*
D03*
X718504Y459646D02*
D03*
Y451772D02*
D03*
X706693Y460630D02*
D03*
X688976Y430118D02*
D03*
Y427165D02*
D03*
Y424213D02*
D03*
X688976Y421260D02*
D03*
X698819Y417323D02*
D03*
X690945D02*
D03*
X694882D02*
D03*
X698819Y421260D02*
D03*
Y425197D02*
D03*
X694882Y421260D02*
D03*
X692913Y419291D02*
D03*
X696850D02*
D03*
Y423228D02*
D03*
X720472Y453740D02*
D03*
X716535D02*
D03*
X714567Y455709D02*
D03*
X716535Y457677D02*
D03*
X718504Y455709D02*
D03*
X720472Y457677D02*
D03*
X598425Y429134D02*
D03*
X594488Y425197D02*
D03*
X598425Y421260D02*
D03*
X600394Y423228D02*
D03*
X596457D02*
D03*
Y427165D02*
D03*
X598425Y425197D02*
D03*
X600394Y427165D02*
D03*
X704724Y462598D02*
D03*
X706693Y464567D02*
D03*
X602362Y425197D02*
D03*
X722441Y455709D02*
D03*
X708661Y462598D02*
D03*
X670276Y441929D02*
D03*
X720472Y553150D02*
D03*
X708661D02*
D03*
X718504Y551181D02*
D03*
Y555118D02*
D03*
X716535Y553150D02*
D03*
X714567Y551181D02*
D03*
X710630D02*
D03*
Y555118D02*
D03*
X712598Y553150D02*
D03*
X714567Y555118D02*
D03*
X600394Y523622D02*
D03*
X604331D02*
D03*
X608268D02*
D03*
X487008Y483465D02*
D03*
X496850D02*
D03*
X506693D02*
D03*
X541339Y473425D02*
D03*
X543307Y477362D02*
D03*
X544291Y464567D02*
D03*
X546260Y466535D02*
D03*
X531496Y425984D02*
D03*
X562008Y500000D02*
D03*
X554134D02*
D03*
X541339Y485236D02*
D03*
X552165Y466535D02*
D03*
X547244Y421260D02*
D03*
X565945Y466535D02*
D03*
X574803Y491142D02*
D03*
X576772Y489173D02*
D03*
X574803Y487205D02*
D03*
X576772Y481299D02*
D03*
X560039Y464567D02*
D03*
X550197D02*
D03*
X535433Y432480D02*
D03*
X541339D02*
D03*
X547244D02*
D03*
X553150D02*
D03*
X559055D02*
D03*
X564961D02*
D03*
X570866D02*
D03*
X576772D02*
D03*
X551378Y417913D02*
D03*
X541339Y497047D02*
D03*
X543307Y491142D02*
D03*
X541339Y489173D02*
D03*
X543307Y487205D02*
D03*
X541339Y479331D02*
D03*
X531496Y471457D02*
D03*
Y475394D02*
D03*
X529528Y432480D02*
D03*
X543307Y483268D02*
D03*
X552165Y498032D02*
D03*
X563976D02*
D03*
X574803Y479331D02*
D03*
X562008Y466535D02*
D03*
X637795Y480315D02*
D03*
X714567Y531496D02*
D03*
X712598Y534449D02*
D03*
X716535Y528543D02*
D03*
X712598D02*
D03*
X716535Y534449D02*
D03*
X558071Y466535D02*
D03*
X576772Y469488D02*
D03*
X706693Y468504D02*
D03*
X704724Y466535D02*
D03*
X702756Y464567D02*
D03*
X708661Y466535D02*
D03*
X710630Y464567D02*
D03*
X616142Y474409D02*
D03*
X563976Y464567D02*
D03*
X625984Y511811D02*
D03*
Y503937D02*
D03*
X624016Y494095D02*
D03*
X718504Y464173D02*
D03*
X531496Y523622D02*
D03*
X527559D02*
D03*
X523622D02*
D03*
X519685D02*
D03*
X515748D02*
D03*
X511811D02*
D03*
X507874D02*
D03*
X574803Y471457D02*
D03*
X588583Y455315D02*
D03*
Y450197D02*
D03*
X550197Y500000D02*
D03*
X644685Y500000D02*
D03*
X649606Y503937D02*
D03*
Y511811D02*
D03*
M02*
