G04*
G04 #@! TF.GenerationSoftware,Altium Limited,CircuitStudio,1.5.1 (13)*
G04*
G04 Layer_Physical_Order=2*
G04 Layer_Color=11993160*
%FSLAX25Y25*%
%MOIN*%
G70*
G01*
G75*
%ADD55C,0.03937*%
%ADD56C,0.13976*%
%ADD57C,0.04724*%
%ADD58C,0.05181*%
%ADD59C,0.13386*%
%ADD60C,0.05118*%
%ADD61C,0.02362*%
D55*
X393701Y409449D02*
G03*
X409449Y393701I15748J0D01*
G01*
X712598D02*
G03*
X728346Y409449I0J15748D01*
G01*
X728346Y712598D02*
G03*
X712598Y728346I-15748J0D01*
G01*
X409449Y728346D02*
G03*
X393701Y712598I0J-15748D01*
G01*
X409449Y393701D02*
X409449Y393701D01*
X409449Y393701D02*
X712598D01*
X712598Y393701D02*
X712598Y393701D01*
X728346Y409449D02*
X728346D01*
X728346Y712598D01*
X728346Y712598D02*
X728346Y712598D01*
X409449Y728346D02*
X712598D01*
X409449D02*
X409449Y728346D01*
X393701Y712598D02*
X393701Y409449D01*
D56*
X405512Y503622D02*
D03*
Y543622D02*
D03*
D57*
X430512Y511122D02*
D03*
X440512Y516122D02*
D03*
X430512Y521122D02*
D03*
Y531122D02*
D03*
X440512Y536122D02*
D03*
D58*
X615512Y574016D02*
D03*
X605512D02*
D03*
X595512D02*
D03*
X585512D02*
D03*
X575512D02*
D03*
X565512D02*
D03*
X555512D02*
D03*
X545512D02*
D03*
X465512D02*
D03*
X475512D02*
D03*
X485512D02*
D03*
X495512D02*
D03*
X505512D02*
D03*
X515512D02*
D03*
X525512D02*
D03*
X535512D02*
D03*
X455512D02*
D03*
X445512D02*
D03*
X435512D02*
D03*
X425512D02*
D03*
X415512D02*
D03*
X615512Y624016D02*
D03*
X605512D02*
D03*
X595512D02*
D03*
X585512D02*
D03*
X575512D02*
D03*
X565512D02*
D03*
X555512D02*
D03*
X545512D02*
D03*
X465512D02*
D03*
X475512D02*
D03*
X485512D02*
D03*
X495512D02*
D03*
X505512D02*
D03*
X515512D02*
D03*
X525512D02*
D03*
X535512D02*
D03*
X455512D02*
D03*
X445512D02*
D03*
X435512D02*
D03*
X425512D02*
D03*
X415512D02*
D03*
Y614016D02*
D03*
X425512D02*
D03*
X435512D02*
D03*
X445512D02*
D03*
X455512D02*
D03*
X535512D02*
D03*
X525512D02*
D03*
X515512D02*
D03*
X505512D02*
D03*
X495512D02*
D03*
X485512D02*
D03*
X475512D02*
D03*
X465512D02*
D03*
X545512D02*
D03*
X555512D02*
D03*
X565512D02*
D03*
X575512D02*
D03*
X585512D02*
D03*
X595512D02*
D03*
X605512D02*
D03*
X615512D02*
D03*
X625512D02*
D03*
Y624016D02*
D03*
Y574016D02*
D03*
X405512Y614016D02*
D03*
Y624016D02*
D03*
X685512D02*
D03*
Y614016D02*
D03*
X675512D02*
D03*
X665512D02*
D03*
X655512D02*
D03*
X645512D02*
D03*
X635512D02*
D03*
Y624016D02*
D03*
X645512D02*
D03*
X655512D02*
D03*
X665512D02*
D03*
X675512D02*
D03*
X715512Y614016D02*
D03*
X705512D02*
D03*
X695512D02*
D03*
Y624016D02*
D03*
X705512D02*
D03*
X715512D02*
D03*
Y684016D02*
D03*
X705512D02*
D03*
X695512D02*
D03*
Y634016D02*
D03*
X705512D02*
D03*
X715512D02*
D03*
X675512Y684016D02*
D03*
X665512D02*
D03*
X655512D02*
D03*
X645512D02*
D03*
X635512D02*
D03*
Y634016D02*
D03*
X645512D02*
D03*
X655512D02*
D03*
X665512D02*
D03*
X675512D02*
D03*
X685512D02*
D03*
Y684016D02*
D03*
X405512D02*
D03*
Y634016D02*
D03*
X625512Y684016D02*
D03*
Y634016D02*
D03*
X615512D02*
D03*
X605512D02*
D03*
X595512D02*
D03*
X585512D02*
D03*
X575512D02*
D03*
X565512D02*
D03*
X555512D02*
D03*
X545512D02*
D03*
X465512D02*
D03*
X475512D02*
D03*
X485512D02*
D03*
X495512D02*
D03*
X505512D02*
D03*
X515512D02*
D03*
X525512D02*
D03*
X535512D02*
D03*
X455512D02*
D03*
X445512D02*
D03*
X435512D02*
D03*
X425512D02*
D03*
X415512D02*
D03*
Y684016D02*
D03*
X425512D02*
D03*
X435512D02*
D03*
X445512D02*
D03*
X455512D02*
D03*
X535512D02*
D03*
X525512D02*
D03*
X515512D02*
D03*
X505512D02*
D03*
X495512D02*
D03*
X485512D02*
D03*
X475512D02*
D03*
X465512D02*
D03*
X545512D02*
D03*
X555512D02*
D03*
X565512D02*
D03*
X575512D02*
D03*
X585512D02*
D03*
X595512D02*
D03*
X605512D02*
D03*
X615512D02*
D03*
X695512Y704016D02*
D03*
Y694016D02*
D03*
X705512D02*
D03*
X715512D02*
D03*
X675512Y704016D02*
D03*
X665512D02*
D03*
X655512D02*
D03*
X645512D02*
D03*
X635512D02*
D03*
Y694016D02*
D03*
X645512D02*
D03*
X655512D02*
D03*
X665512D02*
D03*
X675512D02*
D03*
X685512D02*
D03*
Y704016D02*
D03*
X405512Y694016D02*
D03*
X625512Y704016D02*
D03*
Y694016D02*
D03*
X615512D02*
D03*
X605512D02*
D03*
X595512D02*
D03*
X585512D02*
D03*
X575512D02*
D03*
X565512D02*
D03*
X555512D02*
D03*
X545512D02*
D03*
X465512D02*
D03*
X475512D02*
D03*
X485512D02*
D03*
X495512D02*
D03*
X505512D02*
D03*
X515512D02*
D03*
X525512D02*
D03*
X535512D02*
D03*
X455512D02*
D03*
X445512D02*
D03*
X435512D02*
D03*
X425512D02*
D03*
X415512D02*
D03*
X425512Y704016D02*
D03*
X435512D02*
D03*
X445512D02*
D03*
X455512D02*
D03*
X535512D02*
D03*
X525512D02*
D03*
X515512D02*
D03*
X505512D02*
D03*
X495512D02*
D03*
X485512D02*
D03*
X475512D02*
D03*
X465512D02*
D03*
X545512D02*
D03*
X555512D02*
D03*
X565512D02*
D03*
X575512D02*
D03*
X585512D02*
D03*
X595512D02*
D03*
X605512D02*
D03*
X615512D02*
D03*
X715512Y604016D02*
D03*
X705512D02*
D03*
X695512D02*
D03*
Y594016D02*
D03*
X705512D02*
D03*
X715512D02*
D03*
X675512Y604016D02*
D03*
X665512D02*
D03*
X655512D02*
D03*
X645512D02*
D03*
X635512D02*
D03*
Y594016D02*
D03*
X645512D02*
D03*
X655512D02*
D03*
X665512D02*
D03*
X675512D02*
D03*
X685512D02*
D03*
Y604016D02*
D03*
X405512D02*
D03*
Y594016D02*
D03*
X625512Y604016D02*
D03*
Y594016D02*
D03*
X615512D02*
D03*
X605512D02*
D03*
X595512D02*
D03*
X585512D02*
D03*
X575512D02*
D03*
X565512D02*
D03*
X555512D02*
D03*
X545512D02*
D03*
X465512D02*
D03*
X475512D02*
D03*
X485512D02*
D03*
X495512D02*
D03*
X505512D02*
D03*
X515512D02*
D03*
X525512D02*
D03*
X535512D02*
D03*
X455512D02*
D03*
X445512D02*
D03*
X435512D02*
D03*
X425512D02*
D03*
X415512D02*
D03*
Y604016D02*
D03*
X425512D02*
D03*
X435512D02*
D03*
X445512D02*
D03*
X455512D02*
D03*
X535512D02*
D03*
X525512D02*
D03*
X515512D02*
D03*
X505512D02*
D03*
X495512D02*
D03*
X485512D02*
D03*
X475512D02*
D03*
X465512D02*
D03*
X545512D02*
D03*
X555512D02*
D03*
X565512D02*
D03*
X575512D02*
D03*
X585512D02*
D03*
X595512D02*
D03*
X605512D02*
D03*
X615512D02*
D03*
X695512Y714016D02*
D03*
X635512D02*
D03*
X645512D02*
D03*
X655512D02*
D03*
X665512D02*
D03*
X675512D02*
D03*
X685512D02*
D03*
X625512D02*
D03*
X615512D02*
D03*
X605512D02*
D03*
X595512D02*
D03*
X585512D02*
D03*
X575512D02*
D03*
X565512D02*
D03*
X555512D02*
D03*
X545512D02*
D03*
X465512D02*
D03*
X475512D02*
D03*
X485512D02*
D03*
X495512D02*
D03*
X505512D02*
D03*
X515512D02*
D03*
X525512D02*
D03*
X535512D02*
D03*
X455512D02*
D03*
X445512D02*
D03*
X435512D02*
D03*
X425512D02*
D03*
X635512Y574016D02*
D03*
X645512D02*
D03*
X655512D02*
D03*
X665512D02*
D03*
X675512D02*
D03*
X685512D02*
D03*
X695512D02*
D03*
X705512D02*
D03*
X415512Y674016D02*
D03*
X425512D02*
D03*
X435512D02*
D03*
X445512D02*
D03*
X455512D02*
D03*
X535512D02*
D03*
X525512D02*
D03*
X515512D02*
D03*
X505512D02*
D03*
X495512D02*
D03*
X485512D02*
D03*
X475512D02*
D03*
X465512D02*
D03*
X545512D02*
D03*
X555512D02*
D03*
X565512D02*
D03*
X575512D02*
D03*
X585512D02*
D03*
X595512D02*
D03*
X605512D02*
D03*
X615512D02*
D03*
X625512D02*
D03*
X405512D02*
D03*
X685512D02*
D03*
X675512D02*
D03*
X665512D02*
D03*
X655512D02*
D03*
X645512D02*
D03*
X635512D02*
D03*
X715512D02*
D03*
X705512D02*
D03*
X695512D02*
D03*
X715512Y664016D02*
D03*
X705512D02*
D03*
X695512D02*
D03*
Y654016D02*
D03*
X705512D02*
D03*
X715512D02*
D03*
X675512Y664016D02*
D03*
X665512D02*
D03*
X655512D02*
D03*
X645512D02*
D03*
X635512D02*
D03*
Y654016D02*
D03*
X645512D02*
D03*
X655512D02*
D03*
X665512D02*
D03*
X675512D02*
D03*
X685512D02*
D03*
Y664016D02*
D03*
X405512D02*
D03*
Y654016D02*
D03*
X625512Y664016D02*
D03*
Y654016D02*
D03*
X615512D02*
D03*
X605512D02*
D03*
X595512D02*
D03*
X585512D02*
D03*
X575512D02*
D03*
X565512D02*
D03*
X555512D02*
D03*
X545512D02*
D03*
X465512D02*
D03*
X475512D02*
D03*
X485512D02*
D03*
X495512D02*
D03*
X505512D02*
D03*
X515512D02*
D03*
X525512D02*
D03*
X535512D02*
D03*
X455512D02*
D03*
X445512D02*
D03*
X435512D02*
D03*
X425512D02*
D03*
X415512D02*
D03*
Y664016D02*
D03*
X425512D02*
D03*
X435512D02*
D03*
X445512D02*
D03*
X455512D02*
D03*
X535512D02*
D03*
X525512D02*
D03*
X515512D02*
D03*
X505512D02*
D03*
X495512D02*
D03*
X485512D02*
D03*
X475512D02*
D03*
X465512D02*
D03*
X545512D02*
D03*
X555512D02*
D03*
X565512D02*
D03*
X575512D02*
D03*
X585512D02*
D03*
X595512D02*
D03*
X605512D02*
D03*
X615512D02*
D03*
X415512Y644016D02*
D03*
X425512D02*
D03*
X435512D02*
D03*
X445512D02*
D03*
X455512D02*
D03*
X535512D02*
D03*
X525512D02*
D03*
X515512D02*
D03*
X505512D02*
D03*
X495512D02*
D03*
X485512D02*
D03*
X475512D02*
D03*
X465512D02*
D03*
X545512D02*
D03*
X555512D02*
D03*
X565512D02*
D03*
X575512D02*
D03*
X585512D02*
D03*
X595512D02*
D03*
X605512D02*
D03*
X615512D02*
D03*
X625512D02*
D03*
X405512D02*
D03*
X685512D02*
D03*
X675512D02*
D03*
X665512D02*
D03*
X655512D02*
D03*
X645512D02*
D03*
X635512D02*
D03*
X715512D02*
D03*
X705512D02*
D03*
X695512D02*
D03*
X643701Y435197D02*
D03*
Y425197D02*
D03*
X624016Y462756D02*
D03*
Y452756D02*
D03*
X643701Y462756D02*
D03*
Y452756D02*
D03*
X509842Y423071D02*
D03*
Y433071D02*
D03*
X435630Y440945D02*
D03*
X445630D02*
D03*
X455630D02*
D03*
X465630D02*
D03*
X475630D02*
D03*
D59*
X409449Y409449D02*
D03*
X712598D02*
D03*
X712598Y712598D02*
D03*
X409449D02*
D03*
D60*
X668307Y467520D02*
D03*
Y493110D02*
D03*
X686024D02*
D03*
Y467520D02*
D03*
X455709Y510827D02*
D03*
Y536417D02*
D03*
D61*
X510827Y451772D02*
D03*
Y462598D02*
D03*
X523032Y464567D02*
D03*
X664370Y510433D02*
D03*
X689961Y507874D02*
D03*
X718504Y459646D02*
D03*
Y451772D02*
D03*
X706693Y460630D02*
D03*
X688976Y430118D02*
D03*
Y427165D02*
D03*
Y424213D02*
D03*
X688976Y421260D02*
D03*
X720472Y453740D02*
D03*
X716535D02*
D03*
X714567Y455709D02*
D03*
X716535Y457677D02*
D03*
X718504Y455709D02*
D03*
X720472Y457677D02*
D03*
X598425Y429134D02*
D03*
X594488Y425197D02*
D03*
X598425Y421260D02*
D03*
X600394Y423228D02*
D03*
X596457D02*
D03*
Y427165D02*
D03*
X598425Y425197D02*
D03*
X600394Y427165D02*
D03*
X704724Y462598D02*
D03*
X706693Y464567D02*
D03*
X602362Y425197D02*
D03*
X722441Y455709D02*
D03*
X708661Y462598D02*
D03*
X670276Y441929D02*
D03*
X720472Y553150D02*
D03*
X708661D02*
D03*
X718504Y551181D02*
D03*
Y555118D02*
D03*
X716535Y553150D02*
D03*
X714567Y551181D02*
D03*
X710630D02*
D03*
Y555118D02*
D03*
X712598Y553150D02*
D03*
X714567Y555118D02*
D03*
X600394Y523622D02*
D03*
X604331D02*
D03*
X608268D02*
D03*
X541339Y473425D02*
D03*
X543307Y477362D02*
D03*
X544291Y464567D02*
D03*
X546260Y466535D02*
D03*
X531496Y425984D02*
D03*
X552165Y466535D02*
D03*
X565945D02*
D03*
X574803Y491142D02*
D03*
X576772Y489173D02*
D03*
X574803Y487205D02*
D03*
X535433Y432480D02*
D03*
X541339D02*
D03*
X547244D02*
D03*
X553150D02*
D03*
X559055D02*
D03*
X564961D02*
D03*
X570866D02*
D03*
X576772D02*
D03*
X551378Y417913D02*
D03*
X541339Y497047D02*
D03*
X543307Y491142D02*
D03*
X541339Y489173D02*
D03*
X543307Y487205D02*
D03*
X541339Y479331D02*
D03*
X531496Y471457D02*
D03*
Y475394D02*
D03*
X529528Y432480D02*
D03*
X543307Y483268D02*
D03*
X552165Y498032D02*
D03*
X563976D02*
D03*
X574803Y479331D02*
D03*
X562008Y466535D02*
D03*
X558071D02*
D03*
X576772Y469488D02*
D03*
X706693Y468504D02*
D03*
X704724Y466535D02*
D03*
X702756Y464567D02*
D03*
X708661Y466535D02*
D03*
X710630Y464567D02*
D03*
X616142Y474409D02*
D03*
X563976Y464567D02*
D03*
X625984Y511811D02*
D03*
Y503937D02*
D03*
X531496Y523622D02*
D03*
X527559D02*
D03*
X523622D02*
D03*
X519685D02*
D03*
X515748D02*
D03*
X511811D02*
D03*
X507874D02*
D03*
X588583Y450197D02*
D03*
X550197Y500000D02*
D03*
X649606Y503937D02*
D03*
M02*
