G04*
G04 #@! TF.GenerationSoftware,Altium Limited,CircuitStudio,1.5.1 (13)*
G04*
G04 Layer_Color=20142*
%FSLAX25Y25*%
%MOIN*%
G70*
G01*
G75*
%ADD44C,0.03937*%
%ADD64R,0.03950X0.04343*%
%ADD65R,0.05524X0.05524*%
%ADD66R,0.03162X0.01981*%
%ADD67R,0.01981X0.06706*%
%ADD68R,0.06706X0.01981*%
%ADD69R,0.01784X0.02769*%
%ADD70R,0.07296X0.10249*%
%ADD71R,0.03162X0.01745*%
%ADD72R,0.04343X0.03556*%
%ADD73R,0.03950X0.02769*%
%ADD74R,0.04737X0.14579*%
%ADD75R,0.06706X0.14186*%
%ADD76R,0.02572X0.03261*%
%ADD77R,0.01784X0.03261*%
%ADD78R,0.02572X0.01981*%
%ADD79R,0.03556X0.07493*%
%ADD80R,0.01981X0.02572*%
%ADD81R,0.09068X0.04737*%
%ADD82R,0.03556X0.04343*%
%ADD83R,0.03950X0.05918*%
%ADD84R,0.09461X0.04540*%
%ADD85R,0.07001X0.01981*%
%ADD86R,0.02178X0.01981*%
%ADD87R,0.06509X0.06312*%
%ADD88R,0.05524X0.15721*%
%ADD89R,0.03162X0.05721*%
%ADD90R,0.04540X0.04147*%
%ADD91R,0.04737X0.03162*%
%ADD92R,0.06607X0.09068*%
%ADD93R,0.02572X0.06233*%
%ADD94R,0.10150X0.08280*%
%ADD95R,0.05426X0.08280*%
%ADD96C,0.06706*%
%ADD97C,0.13595*%
%ADD98C,0.08200*%
%ADD99C,0.13005*%
%ADD100C,0.08674*%
D44*
X415512Y574016D02*
X705512D01*
X415512Y584016D02*
X705512D01*
D64*
X580315Y449803D02*
D03*
Y455709D02*
D03*
X585039D02*
D03*
Y449803D02*
D03*
D65*
X718504Y491732D02*
D03*
Y480709D02*
D03*
D66*
X684646Y509842D02*
D03*
Y505905D02*
D03*
Y507874D02*
D03*
X679528Y509842D02*
D03*
Y507874D02*
D03*
Y505905D02*
D03*
D67*
X544291Y504724D02*
D03*
X546260D02*
D03*
X548228D02*
D03*
X550197D02*
D03*
X552165D02*
D03*
X554134D02*
D03*
X556102D02*
D03*
X558071D02*
D03*
X560039D02*
D03*
X562008D02*
D03*
X563976D02*
D03*
X565945D02*
D03*
X567913D02*
D03*
X569882D02*
D03*
X571850D02*
D03*
X573819D02*
D03*
X544291Y459842D02*
D03*
X546260D02*
D03*
X548228D02*
D03*
X550197D02*
D03*
X552165D02*
D03*
X554134D02*
D03*
X556102D02*
D03*
X558071D02*
D03*
X560039D02*
D03*
X562008D02*
D03*
X563976D02*
D03*
X565945D02*
D03*
X567913D02*
D03*
X569882D02*
D03*
X571850D02*
D03*
X573819D02*
D03*
D68*
X581496Y497047D02*
D03*
Y495079D02*
D03*
Y493110D02*
D03*
Y491142D02*
D03*
Y489173D02*
D03*
Y487205D02*
D03*
Y485236D02*
D03*
Y483268D02*
D03*
Y481299D02*
D03*
Y479331D02*
D03*
Y477362D02*
D03*
Y475394D02*
D03*
Y473425D02*
D03*
Y471457D02*
D03*
Y469488D02*
D03*
Y467520D02*
D03*
X536614D02*
D03*
Y469488D02*
D03*
Y471457D02*
D03*
Y473425D02*
D03*
Y475394D02*
D03*
Y477362D02*
D03*
Y479331D02*
D03*
Y481299D02*
D03*
Y483268D02*
D03*
Y485236D02*
D03*
Y487205D02*
D03*
Y489173D02*
D03*
Y491142D02*
D03*
Y493110D02*
D03*
Y495079D02*
D03*
Y497047D02*
D03*
D69*
X715551Y525787D02*
D03*
X713583D02*
D03*
X715551Y537205D02*
D03*
X713583D02*
D03*
D70*
X714567Y531496D02*
D03*
D71*
X720079Y535433D02*
D03*
Y533465D02*
D03*
Y531496D02*
D03*
Y529528D02*
D03*
Y527559D02*
D03*
X709055D02*
D03*
Y529528D02*
D03*
Y531496D02*
D03*
Y533465D02*
D03*
Y535433D02*
D03*
D72*
X509842Y485630D02*
D03*
Y490748D02*
D03*
X500000Y485630D02*
D03*
Y490748D02*
D03*
X490158Y485630D02*
D03*
Y490748D02*
D03*
X668307Y505315D02*
D03*
Y510433D02*
D03*
X592520Y468110D02*
D03*
Y462992D02*
D03*
X576772Y424606D02*
D03*
Y429724D02*
D03*
X570866Y424606D02*
D03*
Y429724D02*
D03*
X535433Y424606D02*
D03*
Y429724D02*
D03*
X564961Y424606D02*
D03*
Y429724D02*
D03*
X559055Y424606D02*
D03*
Y429724D02*
D03*
X541339Y424606D02*
D03*
Y429724D02*
D03*
X525591Y473819D02*
D03*
Y478937D02*
D03*
X625984Y425787D02*
D03*
Y420669D02*
D03*
X696850Y443504D02*
D03*
Y438386D02*
D03*
X624016Y478937D02*
D03*
Y473819D02*
D03*
Y490748D02*
D03*
Y485630D02*
D03*
X718504Y466929D02*
D03*
Y472047D02*
D03*
X509842Y497441D02*
D03*
Y502559D02*
D03*
X500000Y497441D02*
D03*
Y502559D02*
D03*
X490158Y497441D02*
D03*
Y502559D02*
D03*
X653543Y505315D02*
D03*
Y510433D02*
D03*
X620079Y420669D02*
D03*
Y425787D02*
D03*
X547244Y429724D02*
D03*
Y424606D02*
D03*
X553150Y429724D02*
D03*
Y424606D02*
D03*
X592520Y477756D02*
D03*
Y482874D02*
D03*
X525591Y490748D02*
D03*
Y485630D02*
D03*
X592520Y450197D02*
D03*
Y455315D02*
D03*
X665354Y438386D02*
D03*
Y443504D02*
D03*
X688976Y438386D02*
D03*
Y443504D02*
D03*
X616142Y485630D02*
D03*
Y490748D02*
D03*
D73*
X641339Y493504D02*
D03*
Y489961D02*
D03*
Y486417D02*
D03*
Y482874D02*
D03*
X646063D02*
D03*
Y486417D02*
D03*
Y489961D02*
D03*
Y493504D02*
D03*
D74*
X681102Y424606D02*
D03*
X673228D02*
D03*
D75*
X690354Y402756D02*
D03*
X663976D02*
D03*
D76*
X608268Y422784D02*
D03*
Y419685D02*
D03*
D77*
X604331Y419736D02*
D03*
X606299D02*
D03*
X610236D02*
D03*
X612205D02*
D03*
Y422784D02*
D03*
X610236D02*
D03*
X606299D02*
D03*
X604331D02*
D03*
D78*
X673524Y442913D02*
D03*
Y440945D02*
D03*
Y438976D02*
D03*
X680807D02*
D03*
Y440945D02*
D03*
Y442913D02*
D03*
D79*
X677165Y440945D02*
D03*
D80*
X640748Y502264D02*
D03*
Y513484D02*
D03*
X646654Y502264D02*
D03*
X644685D02*
D03*
X642717D02*
D03*
Y513484D02*
D03*
X644685D02*
D03*
X646654D02*
D03*
D81*
X697835Y535827D02*
D03*
Y527165D02*
D03*
D82*
X617520Y511811D02*
D03*
X622638D02*
D03*
X617520Y503937D02*
D03*
X622638D02*
D03*
X507480Y451772D02*
D03*
X502362D02*
D03*
X507480Y462598D02*
D03*
X502362D02*
D03*
X709252Y486221D02*
D03*
X704134D02*
D03*
X528150Y459646D02*
D03*
X523032D02*
D03*
X712008Y517717D02*
D03*
X717126D02*
D03*
X560433Y448819D02*
D03*
X565551D02*
D03*
X542717Y448819D02*
D03*
X547835D02*
D03*
X567520Y515748D02*
D03*
X562402D02*
D03*
X553740Y515748D02*
D03*
X548622D02*
D03*
X646260Y476378D02*
D03*
X641142D02*
D03*
X528150Y448819D02*
D03*
X523032D02*
D03*
D83*
X711417Y545276D02*
D03*
X717717D02*
D03*
D84*
X525591Y425886D02*
D03*
X706693Y473130D02*
D03*
Y499311D02*
D03*
D85*
X524366Y429724D02*
D03*
X705469Y476968D02*
D03*
X707917Y495472D02*
D03*
D86*
X529232Y429724D02*
D03*
X710335Y476968D02*
D03*
X703051Y495472D02*
D03*
D87*
X570768Y407283D02*
D03*
D88*
X529528Y404311D02*
D03*
D89*
X534055Y414075D02*
D03*
X538386D02*
D03*
X542717D02*
D03*
X547047D02*
D03*
X551378D02*
D03*
X555709D02*
D03*
X560039D02*
D03*
X564370D02*
D03*
D90*
X568012Y398524D02*
D03*
D91*
X571654Y402362D02*
D03*
D92*
X619931Y410630D02*
D03*
X600541D02*
D03*
D93*
X615354Y412008D02*
D03*
X612795D02*
D03*
X610236D02*
D03*
X607677D02*
D03*
X605118D02*
D03*
D94*
X598721Y401575D02*
D03*
X621752D02*
D03*
D95*
X606890D02*
D03*
X613583D02*
D03*
D96*
X610236Y503937D02*
D03*
Y511811D02*
D03*
X543307Y561024D02*
D03*
X547244Y555118D02*
D03*
X551181Y561024D02*
D03*
X555118Y555118D02*
D03*
X559055Y561024D02*
D03*
X562992Y555118D02*
D03*
X566929Y561024D02*
D03*
X570866Y555118D02*
D03*
X574803Y561024D02*
D03*
X578740Y555118D02*
D03*
X507874Y555118D02*
D03*
X511811Y561024D02*
D03*
X515748Y555118D02*
D03*
X519685Y561024D02*
D03*
X523622Y555118D02*
D03*
X527559Y561024D02*
D03*
X531496Y555118D02*
D03*
X608268Y555118D02*
D03*
X604331Y561024D02*
D03*
X600394Y555118D02*
D03*
X596457Y561024D02*
D03*
X592520Y555118D02*
D03*
X588583Y561024D02*
D03*
X430512Y511122D02*
D03*
X440512Y516122D02*
D03*
X430512Y521122D02*
D03*
X440512Y526122D02*
D03*
X430512Y531122D02*
D03*
X440512Y536122D02*
D03*
D97*
X405512Y503622D02*
D03*
Y543622D02*
D03*
D98*
X615512Y574016D02*
D03*
X605512D02*
D03*
X595512D02*
D03*
X585512D02*
D03*
X575512D02*
D03*
X565512D02*
D03*
X555512D02*
D03*
X545512D02*
D03*
X465512D02*
D03*
X475512D02*
D03*
X485512D02*
D03*
X495512D02*
D03*
X505512D02*
D03*
X515512D02*
D03*
X525512D02*
D03*
X535512D02*
D03*
X455512D02*
D03*
X445512D02*
D03*
X435512D02*
D03*
X425512D02*
D03*
X415512D02*
D03*
Y584016D02*
D03*
X425512D02*
D03*
X435512D02*
D03*
X445512D02*
D03*
X455512D02*
D03*
X535512D02*
D03*
X525512D02*
D03*
X515512D02*
D03*
X505512D02*
D03*
X495512D02*
D03*
X485512D02*
D03*
X475512D02*
D03*
X465512D02*
D03*
X545512D02*
D03*
X555512D02*
D03*
X565512D02*
D03*
X575512D02*
D03*
X585512D02*
D03*
X595512D02*
D03*
X605512D02*
D03*
X615512D02*
D03*
Y624016D02*
D03*
X605512D02*
D03*
X595512D02*
D03*
X585512D02*
D03*
X575512D02*
D03*
X565512D02*
D03*
X555512D02*
D03*
X545512D02*
D03*
X465512D02*
D03*
X475512D02*
D03*
X485512D02*
D03*
X495512D02*
D03*
X505512D02*
D03*
X515512D02*
D03*
X525512D02*
D03*
X535512D02*
D03*
X455512D02*
D03*
X445512D02*
D03*
X435512D02*
D03*
X425512D02*
D03*
X415512D02*
D03*
Y614016D02*
D03*
X425512D02*
D03*
X435512D02*
D03*
X445512D02*
D03*
X455512D02*
D03*
X535512D02*
D03*
X525512D02*
D03*
X515512D02*
D03*
X505512D02*
D03*
X495512D02*
D03*
X485512D02*
D03*
X475512D02*
D03*
X465512D02*
D03*
X545512D02*
D03*
X555512D02*
D03*
X565512D02*
D03*
X575512D02*
D03*
X585512D02*
D03*
X595512D02*
D03*
X605512D02*
D03*
X615512D02*
D03*
X625512D02*
D03*
Y624016D02*
D03*
Y584016D02*
D03*
Y574016D02*
D03*
X405512Y614016D02*
D03*
Y624016D02*
D03*
X685512D02*
D03*
Y614016D02*
D03*
X675512D02*
D03*
X665512D02*
D03*
X655512D02*
D03*
X645512D02*
D03*
X635512D02*
D03*
Y624016D02*
D03*
X645512D02*
D03*
X655512D02*
D03*
X665512D02*
D03*
X675512D02*
D03*
X715512Y614016D02*
D03*
X705512D02*
D03*
X695512D02*
D03*
Y624016D02*
D03*
X705512D02*
D03*
X715512D02*
D03*
Y684016D02*
D03*
X705512D02*
D03*
X695512D02*
D03*
Y634016D02*
D03*
X705512D02*
D03*
X715512D02*
D03*
X675512Y684016D02*
D03*
X665512D02*
D03*
X655512D02*
D03*
X645512D02*
D03*
X635512D02*
D03*
Y634016D02*
D03*
X645512D02*
D03*
X655512D02*
D03*
X665512D02*
D03*
X675512D02*
D03*
X685512D02*
D03*
Y684016D02*
D03*
X405512D02*
D03*
Y634016D02*
D03*
X625512Y684016D02*
D03*
Y634016D02*
D03*
X615512D02*
D03*
X605512D02*
D03*
X595512D02*
D03*
X585512D02*
D03*
X575512D02*
D03*
X565512D02*
D03*
X555512D02*
D03*
X545512D02*
D03*
X465512D02*
D03*
X475512D02*
D03*
X485512D02*
D03*
X495512D02*
D03*
X505512D02*
D03*
X515512D02*
D03*
X525512D02*
D03*
X535512D02*
D03*
X455512D02*
D03*
X445512D02*
D03*
X435512D02*
D03*
X425512D02*
D03*
X415512D02*
D03*
Y684016D02*
D03*
X425512D02*
D03*
X435512D02*
D03*
X445512D02*
D03*
X455512D02*
D03*
X535512D02*
D03*
X525512D02*
D03*
X515512D02*
D03*
X505512D02*
D03*
X495512D02*
D03*
X485512D02*
D03*
X475512D02*
D03*
X465512D02*
D03*
X545512D02*
D03*
X555512D02*
D03*
X565512D02*
D03*
X575512D02*
D03*
X585512D02*
D03*
X595512D02*
D03*
X605512D02*
D03*
X615512D02*
D03*
X695512Y704016D02*
D03*
Y694016D02*
D03*
X705512D02*
D03*
X715512D02*
D03*
X675512Y704016D02*
D03*
X665512D02*
D03*
X655512D02*
D03*
X645512D02*
D03*
X635512D02*
D03*
Y694016D02*
D03*
X645512D02*
D03*
X655512D02*
D03*
X665512D02*
D03*
X675512D02*
D03*
X685512D02*
D03*
Y704016D02*
D03*
X405512Y694016D02*
D03*
X625512Y704016D02*
D03*
Y694016D02*
D03*
X615512D02*
D03*
X605512D02*
D03*
X595512D02*
D03*
X585512D02*
D03*
X575512D02*
D03*
X565512D02*
D03*
X555512D02*
D03*
X545512D02*
D03*
X465512D02*
D03*
X475512D02*
D03*
X485512D02*
D03*
X495512D02*
D03*
X505512D02*
D03*
X515512D02*
D03*
X525512D02*
D03*
X535512D02*
D03*
X455512D02*
D03*
X445512D02*
D03*
X435512D02*
D03*
X425512D02*
D03*
X415512D02*
D03*
X425512Y704016D02*
D03*
X435512D02*
D03*
X445512D02*
D03*
X455512D02*
D03*
X535512D02*
D03*
X525512D02*
D03*
X515512D02*
D03*
X505512D02*
D03*
X495512D02*
D03*
X485512D02*
D03*
X475512D02*
D03*
X465512D02*
D03*
X545512D02*
D03*
X555512D02*
D03*
X565512D02*
D03*
X575512D02*
D03*
X585512D02*
D03*
X595512D02*
D03*
X605512D02*
D03*
X615512D02*
D03*
X715512Y604016D02*
D03*
X705512D02*
D03*
X695512D02*
D03*
Y594016D02*
D03*
X705512D02*
D03*
X715512D02*
D03*
X675512Y604016D02*
D03*
X665512D02*
D03*
X655512D02*
D03*
X645512D02*
D03*
X635512D02*
D03*
Y594016D02*
D03*
X645512D02*
D03*
X655512D02*
D03*
X665512D02*
D03*
X675512D02*
D03*
X685512D02*
D03*
Y604016D02*
D03*
X405512D02*
D03*
Y594016D02*
D03*
X625512Y604016D02*
D03*
Y594016D02*
D03*
X615512D02*
D03*
X605512D02*
D03*
X595512D02*
D03*
X585512D02*
D03*
X575512D02*
D03*
X565512D02*
D03*
X555512D02*
D03*
X545512D02*
D03*
X465512D02*
D03*
X475512D02*
D03*
X485512D02*
D03*
X495512D02*
D03*
X505512D02*
D03*
X515512D02*
D03*
X525512D02*
D03*
X535512D02*
D03*
X455512D02*
D03*
X445512D02*
D03*
X435512D02*
D03*
X425512D02*
D03*
X415512D02*
D03*
Y604016D02*
D03*
X425512D02*
D03*
X435512D02*
D03*
X445512D02*
D03*
X455512D02*
D03*
X535512D02*
D03*
X525512D02*
D03*
X515512D02*
D03*
X505512D02*
D03*
X495512D02*
D03*
X485512D02*
D03*
X475512D02*
D03*
X465512D02*
D03*
X545512D02*
D03*
X555512D02*
D03*
X565512D02*
D03*
X575512D02*
D03*
X585512D02*
D03*
X595512D02*
D03*
X605512D02*
D03*
X615512D02*
D03*
X695512Y714016D02*
D03*
X635512D02*
D03*
X645512D02*
D03*
X655512D02*
D03*
X665512D02*
D03*
X675512D02*
D03*
X685512D02*
D03*
X625512D02*
D03*
X615512D02*
D03*
X605512D02*
D03*
X595512D02*
D03*
X585512D02*
D03*
X575512D02*
D03*
X565512D02*
D03*
X555512D02*
D03*
X545512D02*
D03*
X465512D02*
D03*
X475512D02*
D03*
X485512D02*
D03*
X495512D02*
D03*
X505512D02*
D03*
X515512D02*
D03*
X525512D02*
D03*
X535512D02*
D03*
X455512D02*
D03*
X445512D02*
D03*
X435512D02*
D03*
X425512D02*
D03*
X695512Y584016D02*
D03*
X685512D02*
D03*
X675512D02*
D03*
X665512D02*
D03*
X655512D02*
D03*
X645512D02*
D03*
X635512D02*
D03*
Y574016D02*
D03*
X645512D02*
D03*
X655512D02*
D03*
X665512D02*
D03*
X675512D02*
D03*
X685512D02*
D03*
X695512D02*
D03*
X705512D02*
D03*
Y584016D02*
D03*
X415512Y674016D02*
D03*
X425512D02*
D03*
X435512D02*
D03*
X445512D02*
D03*
X455512D02*
D03*
X535512D02*
D03*
X525512D02*
D03*
X515512D02*
D03*
X505512D02*
D03*
X495512D02*
D03*
X485512D02*
D03*
X475512D02*
D03*
X465512D02*
D03*
X545512D02*
D03*
X555512D02*
D03*
X565512D02*
D03*
X575512D02*
D03*
X585512D02*
D03*
X595512D02*
D03*
X605512D02*
D03*
X615512D02*
D03*
X625512D02*
D03*
X405512D02*
D03*
X685512D02*
D03*
X675512D02*
D03*
X665512D02*
D03*
X655512D02*
D03*
X645512D02*
D03*
X635512D02*
D03*
X715512D02*
D03*
X705512D02*
D03*
X695512D02*
D03*
X715512Y664016D02*
D03*
X705512D02*
D03*
X695512D02*
D03*
Y654016D02*
D03*
X705512D02*
D03*
X715512D02*
D03*
X675512Y664016D02*
D03*
X665512D02*
D03*
X655512D02*
D03*
X645512D02*
D03*
X635512D02*
D03*
Y654016D02*
D03*
X645512D02*
D03*
X655512D02*
D03*
X665512D02*
D03*
X675512D02*
D03*
X685512D02*
D03*
Y664016D02*
D03*
X405512D02*
D03*
Y654016D02*
D03*
X625512Y664016D02*
D03*
Y654016D02*
D03*
X615512D02*
D03*
X605512D02*
D03*
X595512D02*
D03*
X585512D02*
D03*
X575512D02*
D03*
X565512D02*
D03*
X555512D02*
D03*
X545512D02*
D03*
X465512D02*
D03*
X475512D02*
D03*
X485512D02*
D03*
X495512D02*
D03*
X505512D02*
D03*
X515512D02*
D03*
X525512D02*
D03*
X535512D02*
D03*
X455512D02*
D03*
X445512D02*
D03*
X435512D02*
D03*
X425512D02*
D03*
X415512D02*
D03*
Y664016D02*
D03*
X425512D02*
D03*
X435512D02*
D03*
X445512D02*
D03*
X455512D02*
D03*
X535512D02*
D03*
X525512D02*
D03*
X515512D02*
D03*
X505512D02*
D03*
X495512D02*
D03*
X485512D02*
D03*
X475512D02*
D03*
X465512D02*
D03*
X545512D02*
D03*
X555512D02*
D03*
X565512D02*
D03*
X575512D02*
D03*
X585512D02*
D03*
X595512D02*
D03*
X605512D02*
D03*
X615512D02*
D03*
X415512Y644016D02*
D03*
X425512D02*
D03*
X435512D02*
D03*
X445512D02*
D03*
X455512D02*
D03*
X535512D02*
D03*
X525512D02*
D03*
X515512D02*
D03*
X505512D02*
D03*
X495512D02*
D03*
X485512D02*
D03*
X475512D02*
D03*
X465512D02*
D03*
X545512D02*
D03*
X555512D02*
D03*
X565512D02*
D03*
X575512D02*
D03*
X585512D02*
D03*
X595512D02*
D03*
X605512D02*
D03*
X615512D02*
D03*
X625512D02*
D03*
X405512D02*
D03*
X685512D02*
D03*
X675512D02*
D03*
X665512D02*
D03*
X655512D02*
D03*
X645512D02*
D03*
X635512D02*
D03*
X715512D02*
D03*
X705512D02*
D03*
X695512D02*
D03*
X643701Y435197D02*
D03*
Y425197D02*
D03*
X624016Y462756D02*
D03*
Y452756D02*
D03*
X643701Y462756D02*
D03*
Y452756D02*
D03*
X509842Y423071D02*
D03*
Y433071D02*
D03*
X435630Y440945D02*
D03*
X445630D02*
D03*
X455630D02*
D03*
X465630D02*
D03*
X475630D02*
D03*
X485630D02*
D03*
D99*
X409449Y409449D02*
D03*
X712598D02*
D03*
X712598Y712598D02*
D03*
X409449D02*
D03*
D100*
X668307Y467520D02*
D03*
Y493110D02*
D03*
X686024D02*
D03*
Y467520D02*
D03*
X473425Y536417D02*
D03*
Y510827D02*
D03*
X455709D02*
D03*
Y536417D02*
D03*
M02*
